<svg xmlns="http://www.w3.org/2000/svg" xmlns:xlink="http://www.w3.org/1999/xlink" version="1.1" x="0px" y="0px" viewBox="0 0 16 20" style="enable-background:new 0 0 16 16;" xml:space="preserve"><g><g><path d="M5,8.5V9h6V8.5c0-1.207,0.86-2.217,2-2.449V5c0-2.209-1.791-4-4-4H7C4.791,1,3,2.791,3,5v1.051C4.14,6.283,5,7.293,5,8.5z    "/></g><g><path d="M13.5,7C12.672,7,12,7.672,12,8.5V10H4V8.5C4,7.672,3.328,7,2.5,7S1,7.672,1,8.5c0,0.652,0.419,1.202,1,1.408V10v5h2v-2h8    v2h2v-5V9.908c0.581-0.207,1-0.756,1-1.408C15,7.672,14.328,7,13.5,7z"/></g></g><text x="0" y="31" fill="#000000" font-size="5px" font-weight="bold" font-family="'Helvetica Neue', Helvetica, Arial-Unicode, Arial, Sans-serif">Created by icon 54</text><text x="0" y="36" fill="#000000" font-size="5px" font-weight="bold" font-family="'Helvetica Neue', Helvetica, Arial-Unicode, Arial, Sans-serif">from the Noun Project</text></svg>