<svg xmlns="http://www.w3.org/2000/svg" xmlns:xlink="http://www.w3.org/1999/xlink" xml:space="preserve" version="1.1" style="shape-rendering:geometricPrecision;text-rendering:geometricPrecision;image-rendering:optimizeQuality;" viewBox="0 0 333 416.25" x="0px" y="0px" fill-rule="evenodd" clip-rule="evenodd"><defs><style type="text/css">
   
    .fil0 {fill:black}
   
  </style></defs><g><path class="fil0" d="M34 131l45 0c0,-2 2,-5 3,-8l47 -73c11,-18 39,0 28,18l-40 63 100 0 -41 -63c-11,-18 17,-36 28,-18l47 73c2,3 3,6 4,8l45 0c22,0 22,54 0,54l-19 68c-5,20 -17,38 -37,38l-157 0c-20,0 -32,-18 -37,-38l-17 -68c-22,0 -22,-54 1,-54zm73 64l11 48c4,17 -22,23 -26,6l-10 -49c-4,-16 21,-22 25,-5zm119 0l-11 48c-3,17 22,23 26,6l11 -49c3,-16 -22,-22 -26,-5zm-46 2l0 50c0,17 -26,17 -26,0l0 -50c0,-17 26,-17 26,0z"/></g><text x="0" y="348" fill="#000000" font-size="5px" font-weight="bold" font-family="'Helvetica Neue', Helvetica, Arial-Unicode, Arial, Sans-serif">Created by JiKimz</text><text x="0" y="353" fill="#000000" font-size="5px" font-weight="bold" font-family="'Helvetica Neue', Helvetica, Arial-Unicode, Arial, Sans-serif">from the Noun Project</text></svg>