<svg xmlns="http://www.w3.org/2000/svg" viewBox="0 0 300.25 375.3125" x="0px" y="0px"><title>construction-39</title><g data-name="Layer 2"><rect x="235.93" y="54.06" width="28.02" height="63.65"/><rect x="148.79" y="141.15" width="63.27" height="28.05"/><rect x="35.78" y="45.26" width="63.23" height="28.47"/><rect x="41.35" y="80.22" width="52.21" height="72.31"/><path d="M206.68,175.93v1.35a82.67,82.67,0,0,1-165.33,0V158.53H93.56v18.75a30.46,30.46,0,1,0,60.91,0v-1.35Z"/><path d="M224.08,59.82a69.61,69.61,0,0,0-69.61,69.61v5.7h52.21v-5.7a17.4,17.4,0,0,1,17.4-17.4l5.71,0V59.78Z"/></g><text x="0" y="315.25" fill="#000000" font-size="5px" font-weight="bold" font-family="'Helvetica Neue', Helvetica, Arial-Unicode, Arial, Sans-serif">Created by Aman</text><text x="0" y="320.25" fill="#000000" font-size="5px" font-weight="bold" font-family="'Helvetica Neue', Helvetica, Arial-Unicode, Arial, Sans-serif">from the Noun Project</text></svg>