<svg xmlns="http://www.w3.org/2000/svg" xmlns:xlink="http://www.w3.org/1999/xlink" version="1.1" x="0px" y="0px" viewBox="0 0 100 125" style="enable-background:new 0 0 100 100;" xml:space="preserve"><path d="M48.5,95C39.6,55.2,6.4,51.9,5,51.8C5.9,75.3,24.9,94.2,48.5,95z"/><path d="M94.6,54.4c-2-0.3-42.4-6.7-48.5-49.2l0,0c0,0,0-0.1,0-0.1C24.4,7.1,7.1,24.3,5.2,46c0.1,0,0.2,0,0.3,0  C49,52.3,54.6,94.6,54.6,94.6l0,0c0,0,0,0.1,0.1,0.1c0,0,0.1,0,0.1,0c21.1-2.2,37.9-19.1,40-40.2C94.7,54.5,94.7,54.5,94.6,54.4z"/><path d="M95,48.3C94.1,24.9,75.3,6,51.9,5C52.1,7.6,56.1,39.6,95,48.3z"/><text x="0" y="115" fill="#000000" font-size="5px" font-weight="bold" font-family="'Helvetica Neue', Helvetica, Arial-Unicode, Arial, Sans-serif">Created by Madeleine Bennett</text><text x="0" y="120" fill="#000000" font-size="5px" font-weight="bold" font-family="'Helvetica Neue', Helvetica, Arial-Unicode, Arial, Sans-serif">from the Noun Project</text></svg>