<?xml version="1.0" encoding="utf-8"?>
<!-- Generator: Adobe Illustrator 22.1.0, SVG Export Plug-In . SVG Version: 6.00 Build 0)  -->
<svg version="1.1" id="Layer_1" xmlns="http://www.w3.org/2000/svg" xmlns:xlink="http://www.w3.org/1999/xlink" x="0px" y="0px"
	 viewBox="0 0 80.9 80.9" style="enable-background:new 0 0 80.9 80.9;" xml:space="preserve">
<style type="text/css">
	.st0{display:none;fill:#FFFFFF;}
	.st1{fill:#1C1414;}
</style>
<title>sales</title>
<polygon id="exit-white-bg" class="st0" points="80.9,1.6 80.9,79.6 79.6,80.9 1.3,80.9 0,79.6 0,51.2 15.5,51.2 15.8,45.8 
	36.5,45.8 36.8,35.1 57.2,35.1 57.3,24.3 79.7,1.6 "/>
<path d="M79.6,24.3H64.2c-0.7,0-1.3,0.6-1.3,1.4c0,0.7,0.6,1.3,1.3,1.3l0,0h15.4c0.7,0,1.3-0.6,1.3-1.3C81,24.9,80.4,24.3,79.6,24.3
	z"/>
<path d="M79.6,29.7H64.2c-0.7,0-1.3,0.6-1.3,1.4c0,0.7,0.6,1.4,1.3,1.4l0,0h15.4c0.7,0,1.3-0.6,1.3-1.4C81,30.3,80.4,29.7,79.6,29.7
	z"/>
<path d="M79.6,35.1H64.2c-0.7,0.1-1.3,0.7-1.2,1.5c0.1,0.7,0.6,1.2,1.2,1.2h15.4c0.7-0.1,1.3-0.7,1.2-1.5
	C80.8,35.6,80.3,35.1,79.6,35.1z"/>
<path d="M79.6,40.4H64.2c-0.7,0-1.3,0.6-1.3,1.4c0,0.7,0.6,1.3,1.3,1.3l0,0h15.4c0.7,0,1.3-0.6,1.3-1.3C81,41.1,80.4,40.4,79.6,40.4
	z"/>
<path d="M79.6,45.8H64.2c-0.7,0-1.3,0.6-1.3,1.4c0,0.7,0.6,1.3,1.3,1.3h15.4c0.7,0,1.3-0.6,1.3-1.4C81,46.4,80.4,45.8,79.6,45.8z"/>
<path d="M79.6,51.2H64.2c-0.7,0.1-1.3,0.7-1.2,1.5c0.1,0.7,0.6,1.2,1.2,1.2h15.4c0.7-0.1,1.3-0.7,1.2-1.5
	C80.8,51.8,80.3,51.3,79.6,51.2z"/>
<path d="M79.6,56.6H64.2c-0.7,0-1.3,0.6-1.3,1.4c0,0.7,0.6,1.3,1.3,1.3h15.4c0.7,0,1.3-0.6,1.3-1.4C81,57.2,80.4,56.6,79.6,56.6z"/>
<path d="M79.6,62H64.2c-0.7,0-1.3,0.6-1.3,1.4c0,0.7,0.6,1.3,1.3,1.3h15.4c0.7,0,1.3-0.6,1.3-1.4C81,62.6,80.4,62,79.6,62z"/>
<path d="M79.6,67.4H64.2c-0.7,0.1-1.3,0.7-1.2,1.5c0.1,0.7,0.6,1.2,1.2,1.2h15.4c0.7-0.1,1.3-0.7,1.2-1.5
	C80.8,68,80.3,67.5,79.6,67.4z"/>
<path d="M79.6,72.8H64.2c-0.7,0-1.3,0.6-1.3,1.4c0,0.7,0.6,1.3,1.3,1.3h15.4c0.7,0,1.3-0.6,1.3-1.4C81,73.4,80.4,72.8,79.6,72.8z"/>
<path d="M79.6,78.2H64.2c-0.7,0-1.3,0.6-1.3,1.4c0,0.7,0.6,1.3,1.3,1.3h15.4c0.7,0,1.3-0.6,1.3-1.4C81,78.8,80.4,78.2,79.6,78.2z"/>
<path d="M58.6,45.8H43.3c-0.7,0-1.3,0.6-1.3,1.4c0,0.7,0.6,1.3,1.3,1.3h15.4c0.7,0,1.3-0.6,1.3-1.4C60,46.4,59.4,45.8,58.6,45.8z"/>
<path d="M58.6,40.4H43.3c-0.7,0-1.4,0.6-1.4,1.4c0,0.7,0.6,1.3,1.4,1.3l0,0h15.4c0.7,0,1.3-0.6,1.3-1.3C60,41.1,59.4,40.4,58.6,40.4
	z"/>
<path d="M58.6,51.2H43.3C42.5,51.3,42,52,42,52.7c0.1,0.7,0.6,1.2,1.2,1.2h15.4c0.7-0.1,1.3-0.7,1.2-1.5
	C59.8,51.8,59.3,51.3,58.6,51.2z"/>
<path d="M58.6,56.6H43.3c-0.7,0-1.3,0.6-1.3,1.4c0,0.7,0.6,1.3,1.3,1.3h15.4c0.7,0,1.3-0.6,1.3-1.4C60,57.2,59.4,56.6,58.6,56.6z"/>
<path d="M58.6,62H43.3c-0.7,0-1.3,0.6-1.3,1.4c0,0.7,0.6,1.3,1.3,1.3h15.4c0.7,0,1.3-0.6,1.3-1.4C60,62.6,59.4,62,58.6,62z"/>
<path d="M58.6,67.4H43.3c-0.7,0.1-1.3,0.7-1.2,1.5c0.1,0.7,0.6,1.2,1.2,1.2h15.4c0.7-0.1,1.3-0.7,1.2-1.5
	C59.8,68,59.3,67.5,58.6,67.4z"/>
<path d="M58.6,72.8H43.3c-0.7,0-1.3,0.6-1.3,1.4c0,0.7,0.6,1.3,1.3,1.3h15.4c0.7,0,1.3-0.6,1.3-1.4C60,73.4,59.4,72.8,58.6,72.8z"/>
<path d="M58.6,78.2H43.3c-0.7,0-1.3,0.6-1.3,1.4c0,0.7,0.6,1.3,1.3,1.3h15.4c0.7,0,1.3-0.6,1.3-1.4C60,78.8,59.4,78.2,58.6,78.2z"/>
<path d="M37.7,56.6H22.3c-0.7,0-1.3,0.6-1.3,1.4c0,0.7,0.6,1.3,1.3,1.3h15.4c0.7,0,1.3-0.6,1.3-1.4C39,57.2,38.4,56.6,37.7,56.6z"/>
<path d="M37.7,51.2H22.3C21.5,51.3,21,52,21,52.7c0.1,0.7,0.6,1.2,1.2,1.2h15.4c0.7-0.1,1.3-0.7,1.2-1.5
	C38.8,51.8,38.3,51.3,37.7,51.2z"/>
<path d="M37.7,62H22.3c-0.7,0-1.3,0.6-1.3,1.4c0,0.7,0.6,1.3,1.3,1.3h15.4c0.7,0,1.3-0.6,1.3-1.4C39,62.6,38.4,62,37.7,62z"/>
<path d="M37.7,67.4H22.3c-0.7,0.1-1.3,0.7-1.2,1.5c0.1,0.7,0.6,1.2,1.2,1.2h15.4c0.7-0.1,1.3-0.7,1.2-1.5
	C38.8,68,38.3,67.5,37.7,67.4z"/>
<path d="M37.7,72.8H22.3c-0.7,0-1.3,0.6-1.3,1.4c0,0.7,0.6,1.3,1.3,1.3h15.4c0.7,0,1.3-0.6,1.3-1.4C39,73.4,38.4,72.8,37.7,72.8z"/>
<path d="M37.7,78.2H22.3c-0.7,0-1.3,0.6-1.3,1.4c0,0.7,0.6,1.3,1.3,1.3h15.4c0.7,0,1.3-0.6,1.3-1.4C39,78.8,38.4,78.2,37.7,78.2z"/>
<path d="M16.7,56.6H1.3c-0.7,0-1.3,0.6-1.3,1.4c0,0.7,0.6,1.3,1.3,1.3h15.4c0.7,0,1.3-0.6,1.3-1.4C18,57.2,17.4,56.6,16.7,56.6z"/>
<path d="M16.7,62H1.3c-0.7,0-1.3,0.6-1.3,1.4c0,0.7,0.6,1.3,1.3,1.3h15.4c0.7,0,1.3-0.6,1.3-1.4C18,62.6,17.4,62,16.7,62z"/>
<path d="M16.7,67.4H1.3C0.5,67.5,0,68.1,0,68.9c0.1,0.7,0.6,1.2,1.2,1.2h15.4c0.7-0.1,1.3-0.7,1.2-1.5C17.8,68,17.3,67.5,16.7,67.4z
	"/>
<path d="M16.7,72.8H1.3c-0.7,0-1.3,0.6-1.3,1.4c0,0.7,0.6,1.3,1.3,1.3h15.4c0.7,0,1.3-0.6,1.3-1.4C18,73.4,17.4,72.8,16.7,72.8z"/>
<path d="M16.7,78.2H1.3c-0.7,0-1.3,0.6-1.3,1.4c0,0.7,0.6,1.3,1.3,1.3h15.4c0.7,0,1.3-0.6,1.3-1.4C18,78.8,17.4,78.2,16.7,78.2z"/>
<path d="M1.3,52.6h14.5c0.7,0,1.3-0.6,1.3-1.3c0,0,0,0,0,0v-4h19.6c0.7,0,1.3-0.6,1.3-1.3c0,0,0,0,0,0v-8.8h19.6
	c0.7,0,1.3-0.6,1.3-1.3c0,0,0,0,0,0V24.4L77.4,5.9l-1,4.5c-0.2,0.7,0.3,1.4,1,1.6c0.1,0,0.2,0,0.3,0c0.6,0,1.1-0.5,1.3-1.1l2-9.3
	c0.1-0.5,0-1-0.4-1.3C80.2,0,79.7-0.1,79.3,0l-8.6,2.9c-0.7,0.2-1.1,1-0.8,1.7c0.2,0.7,0.8,1.1,1.5,0.9c0,0,0,0,0.1,0l4-1.3
	L56.7,22.9c-0.3,0.3-0.4,0.6-0.4,1v10.5H36.6c-0.7,0-1.3,0.6-1.3,1.3v8.8H15.8c-0.7,0-1.3,0.6-1.3,1.4v4H1.3C0.5,50,0,50.6,0,51.4
	C0.1,52,0.6,52.5,1.3,52.6L1.3,52.6z"/>
<g>
	<g transform="translate(-786.000000, -306.000000)">
		<g transform="translate(782.000000, 303.000000)">
			<g transform="translate(4.000000, 3.000000)">
				<path d="M7.9,6.8L7.9,6.8c0.7,0,1.3,0.6,1.3,1.3v26.4c0,0.7-0.6,1.3-1.3,1.3l0,0c-0.7,0-1.3-0.6-1.3-1.3V8.2
					C6.6,7.4,7.2,6.8,7.9,6.8z"/>
				<path d="M7.9,9.5c-0.7,0-1.3-0.6-1.3-1.3c0-0.7,0.6-1.3,1.3-1.3h13.2c0.7,0,1.3,0.6,1.3,1.3c0,0.7-0.6,1.3-1.3,1.3H7.9z"/>
				<path d="M6.6,34.6L6.6,34.6c0-0.7,0.6-1.3,1.3-1.3h13.2c0.7,0,1.3,0.6,1.3,1.3l0,0c0,0.7-0.6,1.3-1.3,1.3H7.9
					C7.2,35.9,6.6,35.3,6.6,34.6z"/>
				<path d="M13.9,22.7c-0.7,0-1.3-0.6-1.3-1.3c0-0.7,0.6-1.3,1.3-1.3h16.5c0.7,0,1.3,0.6,1.3,1.3c0,0.7-0.6,1.3-1.3,1.3H13.9z"/>
				<path d="M33.2,22.3l-6.5,6.5c-0.5,0.5-1.4,0.5-1.9,0c-0.5-0.5-0.5-1.4,0-1.9l5.6-5.6l-5.6-5.6c-0.5-0.5-0.5-1.4,0-1.9
					c0.5-0.5,1.4-0.5,1.9,0l6.5,6.5C33.8,20.9,33.8,21.8,33.2,22.3z"/>
			</g>
		</g>
	</g>
</g>
<path class="st1" d="M65,80.6C65,80.6,65,80.6,65,80.6L65,80.6L65,80.6z M65,80.6C65,80.6,65,80.6,65,80.6L65,80.6L65,80.6z M0,1.3
	v40.9c0,0.7,0.6,1.3,1.3,1.3h0c0.7,0,1.3-0.6,1.3-1.3V2.6h46.1C49.5,2.6,50,2,50,1.3v0C50,0.6,49.5,0,48.7,0H1.3C0.6,0,0,0.6,0,1.3z
	"/>
</svg>
