<svg id="Layer_1" data-name="Layer 1" xmlns="http://www.w3.org/2000/svg" viewBox="0 0 328 328"><title>sub-industry-icon</title><path d="M164,328C73.6,328,0,254.4,0,164S73.6,0,164,0,328,73.6,328,164,254.4,328,164,328Zm0-313C81.8,15,15,81.8,15,164S81.8,313,164,313s149-66.8,149-149S246.2,15,164,15Z"></path><path d="M153.89,146.94a80.26,80.26,0,0,0-8.06,9.11v-9.11Z"></path><path d="M145.83,59.18v36A297.4,297.4,0,0,0,176,93.35a98.67,98.67,0,0,0-4.59-10.44C164.27,69.15,155.32,60.88,145.83,59.18Z"></path><path d="M183.63,128.4A81.63,81.63,0,0,0,162,140H145.83V102.13a301.35,301.35,0,0,0,32.4-2.07A142.67,142.67,0,0,1,183.63,128.4Z"></path><path d="M225.26,125a82.34,82.34,0,0,0-34.86,1.36,150,150,0,0,0-5.22-27.19,236,236,0,0,0,25.94-5.22A84.19,84.19,0,0,1,225.26,125Z"></path><path d="M164.62,61.84a66.93,66.93,0,0,1,12.91,17.89A103.57,103.57,0,0,1,183,92.45,232,232,0,0,0,206.36,88c-1.25-1.42-2.54-2.81-3.89-4.17A84.68,84.68,0,0,0,164.62,61.84Z"></path><path d="M73.49,194a234.52,234.52,0,0,1,25.68-5.18,158.67,158.67,0,0,1-6.09-41.84H57.32A84.35,84.35,0,0,0,73.49,194Z"></path><path d="M138.89,102.13a302.74,302.74,0,0,1-32.77-2.1A149.74,149.74,0,0,0,100,140h38.86Z"></path><path d="M138.89,146.94v19.89a80.81,80.81,0,0,0-7.34,19.09c-8.67.29-17.18.94-25.43,1.93A151.07,151.07,0,0,1,100,146.94Z"></path><path d="M138.89,59.12C129.26,60.66,120.16,69,113,82.91a96.11,96.11,0,0,0-4.58,10.41,298.53,298.53,0,0,0,30.5,1.88Z"></path><path d="M106.81,79.73A66.82,66.82,0,0,1,119.59,62,84.58,84.58,0,0,0,82.18,83.81q-2,2-3.91,4.18a233.52,233.52,0,0,0,23.07,4.42A105.19,105.19,0,0,1,106.81,79.73Z"></path><path d="M57.36,140H93.1A157.84,157.84,0,0,1,99.17,99.1a234.17,234.17,0,0,1-25.66-5.17A84.33,84.33,0,0,0,57.36,140Z"></path><path d="M131.89,226.39c-7-3.62-13.5-10.92-18.92-21.43a96.81,96.81,0,0,1-4.58-10.4c7.08-.81,14.36-1.37,21.76-1.65a82.78,82.78,0,0,0-1,12.58A81.85,81.85,0,0,0,131.89,226.39Z"></path><path d="M119.67,226a66.53,66.53,0,0,1-12.86-17.85,102.63,102.63,0,0,1-5.46-12.66,233,233,0,0,0-23.1,4.43c1.26,1.44,2.56,2.84,3.93,4.2A84.42,84.42,0,0,0,119.67,226Z"></path><path d="M269.54,208.54l-4.45-1-5-1.13-3.92-.9h0a45.36,45.36,0,0,0-1.13-10.09,39.46,39.46,0,0,0-1.81-5.86,5.66,5.66,0,0,1,1.6-6.22l4-3.17,3.56-2.84a4.83,4.83,0,0,0,.42-6.77c-1.72-2.17-4.55-5.7-6.27-7.86a4.81,4.81,0,0,0-6.7-1.09l-3.56,2.84-4,3.18a5.67,5.67,0,0,1-6.42.17,40.7,40.7,0,0,0-5.31-3.07,41.29,41.29,0,0,0-5.72-2.23,5.67,5.67,0,0,1-3.86-5.14v-9.65a4.83,4.83,0,0,0-5-4.55H205.92a4.82,4.82,0,0,0-5,4.55v9.65a5.69,5.69,0,0,1-3.87,5.14,40.29,40.29,0,0,0-11,5.3,5.65,5.65,0,0,1-6.42-.17l-4-3.18L172,161.59a4.83,4.83,0,0,0-6.7,1.09h0l-6.27,7.86a4.82,4.82,0,0,0,.42,6.77l3.56,2.84,4,3.17a5.66,5.66,0,0,1,1.6,6.22,40,40,0,0,0-1.81,5.86,46,46,0,0,0-1.12,10.09h0s-1.77.42-3.93.91l-5,1.13-4.44,1a4.84,4.84,0,0,0-3.33,5.92c.62,2.7,1.63,7.11,2.24,9.8h0a4.82,4.82,0,0,0,5.56,3.89l4.44-1,4.95-1.13a5.71,5.71,0,0,1,5.88,2.62,40.17,40.17,0,0,0,3.46,5.07,41.73,41.73,0,0,0,4.18,4.5,5.67,5.67,0,0,1,1.25,6.3l-2.21,4.59s-.89,1.84-2,4.1a4.82,4.82,0,0,0,2.55,6.29l9.06,4.37h0a4.83,4.83,0,0,0,6.51-1.93l2-4.1,2.21-4.59a5.64,5.64,0,0,1,5.7-2.94,41.91,41.91,0,0,0,12.25,0,5.65,5.65,0,0,1,5.71,2.94l2.21,4.58,2,4.11a4.8,4.8,0,0,0,6.5,1.92l9.06-4.36h0a4.83,4.83,0,0,0,2.56-6.29l-2-4.11-2.21-4.59a5.67,5.67,0,0,1,1.25-6.3,40.51,40.51,0,0,0,7.64-9.57,5.69,5.69,0,0,1,5.87-2.62l5,1.13,4.44,1a4.82,4.82,0,0,0,5.56-3.89c.61-2.69,1.62-7.1,2.23-9.8A4.81,4.81,0,0,0,269.54,208.54ZM211,230.31a24.82,24.82,0,1,1,24.81-24.82A24.81,24.81,0,0,1,211,230.31Z"></path></svg>