<?xml version="1.0" encoding="utf-8"?>
<!-- Generator: Adobe Illustrator 22.1.0, SVG Export Plug-In . SVG Version: 6.00 Build 0)  -->
<svg version="1.1" id="Layer_5" xmlns="http://www.w3.org/2000/svg" xmlns:xlink="http://www.w3.org/1999/xlink" x="0px" y="0px"
	 viewBox="0 0 487 487" style="enable-background:new 0 0 487 487;" xml:space="preserve">
<title>svg_icons</title>
<path d="M487,0h-24.4v12.2H487V0z M414,0h-24.4v12.2H414V0z M340.9,0h-24.4v12.2h24.4V0z M267.9,0h-24.4v12.2h24.4L267.9,0L267.9,0z
	 M194.8,0h-24.4v12.2h24.4V0z M121.8,0H97.4v12.2h24.3V0z M48.8,0H24.4v12.2h24.4L48.8,0L48.8,0z M12.2,24.4H0v24.4h12.2V24.4z
	 M12.2,97.4H0v24.3h12.2V97.4z M12.2,170.4H0v24.4h12.2V170.4L12.2,170.4z M12.2,243.4H0v24.3h12.2V243.4L12.2,243.4z M12.2,316.5H0
	v24.4h12.2V316.5L12.2,316.5z M12.2,389.5H0V414h12.2V389.5L12.2,389.5z M12.2,462.5H0V487h12.2v-24.4V462.5z M73.1,474.7H48.7V487
	h24.4v-12.2V474.7z M146.1,474.7h-24.4V487h24.4v-12.2V474.7z M219.2,474.7h-24.4V487h24.4v-12.2V474.7z M292.2,474.7h-24.3V487
	h24.4v-12.2L292.2,474.7z M365.2,474.7h-24.3V487h24.4v-12.2L365.2,474.7z M438.3,474.7H414V487h24.3v-12.2L438.3,474.7z M487,462.6
	h-12.2V487H487V462.6z M487,389.6h-12.2V414H487V389.6L487,389.6z M487,316.6h-12.2v24.3H487V316.6L487,316.6z M487,243.5h-12.2
	v24.3H487V243.5L487,243.5z M487,170.5h-12.2v24.3H487V170.5L487,170.5z M487,97.5h-12.2v24.4H487V97.5L487,97.5z M487,24.4h-12.2
	v24.3H487V24.4L487,24.4z"/>
<g>
	<path d="M442.2,125c0-22-9.4-41.6-23.6-55.8s-33.8-22.8-55-22.8c-22,0-41.6,8.6-55.8,22.8c-14.1,14.1-22.8,33.8-22.8,55.8
		c0,21.2,8.6,40.9,22.8,55c14.1,14.1,33.8,23.6,55.8,23.6c21.2,0,40.9-9.4,55-23.6C432.8,165.9,442.2,146.2,442.2,125z M430.4,58.2
		c17.3,16.5,27.5,40.9,27.5,66.8s-10.2,49.5-27.5,66.8c-17.3,17.3-40.9,27.5-66.8,27.5c-26.7,0-50.3-10.2-66.8-27.5
		c-17.3-17.3-28.3-40.9-28.3-66.8s11-50.3,28.3-66.8c16.5-17.3,40.1-28.3,66.8-28.3C389.6,29.9,413.2,40.9,430.4,58.2z"/>
	<path d="M292.9,176.9c3.1-3.1,8.6-3.1,11.8,0c3.1,3.1,3.1,7.9,0,11L47,450.6c-3.1,3.1-8.6,3.1-11.8,0c-3.1-3.1-3.1-8.6,0-11.8
		L292.9,176.9z"/>
	<path d="M432.8,125c0,4.7-3.9,7.9-8.6,7.9c-3.9,0-7.9-3.1-7.9-7.9c0-14.9-6.3-28.3-15.7-37.7c-9.4-9.4-22.8-14.9-36.9-14.9
		c-4.7,0-8.6-3.9-8.6-8.6s3.9-7.9,8.6-7.9c18.9,0,36.1,7.9,48.7,20.4l0,0C424.9,88.9,432.8,106.2,432.8,125z"/>
</g>
<g transform="translate(0,-952.36218)">
	<path d="M34.4,1132.9c-1.6,3.6-0.7,8.1,2.2,10.9l160.1,150.7c3.7,3.5,10.4,3.2,13.7-0.7l58.7-58.7l146.8,146.8h-62.1
		c-5-0.1-9.6,4.4-9.6,9.4c0,5,4.6,9.5,9.6,9.4h84.7c4.9,0,9.4-4.5,9.4-9.4v-84.7c0.1-4.7-3.8-9.1-8.4-9.6
		c-5.3-0.6-10.6,4.2-10.4,9.6v61.9L275.7,1215c-1.4-1.5-3.4-2.5-5.4-2.8c-3.6-0.5-7.3,1.2-9.3,4.3l-58,58L49.6,1130.1
		c-1.5-1.5-3.5-2.4-5.6-2.6C40.1,1127.1,36,1129.3,34.4,1132.9z"/>
</g>
<path d="M367.5,128.5v-21.1h15.8c2.9,0,5.3-2.4,5.3-5.3s-2.4-5.3-5.3-5.3h-15.8V86.3c0-2.9-2.4-5.3-5.3-5.3c-2.9,0-5.3,2.4-5.3,5.3
	v10.6c-11.7,0-21.1,9.5-21.1,21.1s9.5,21.1,21.1,21.1v21.1h-15.8c-2.9,0-5.3,2.4-5.3,5.3c0,2.9,2.4,5.3,5.3,5.3h15.8v10.6
	c0,2.9,2.4,5.3,5.3,5.3c2.9,0,5.3-2.4,5.3-5.3v-10.6c11.7,0,21.1-9.5,21.1-21.1S379.2,128.5,367.5,128.5z M356.9,128.5
	c-5.8,0-10.6-4.8-10.6-10.6c0-5.8,4.8-10.6,10.6-10.6V128.5z M367.5,160.2v-21.1c5.8,0,10.6,4.8,10.6,10.6S373.3,160.2,367.5,160.2z
	"/>
</svg>
