<?xml version="1.0" encoding="utf-8"?>
<!-- Generator: Adobe Illustrator 21.1.0, SVG Export Plug-In . SVG Version: 6.00 Build 0)  -->
<svg version="1.1" id="Layer_5" xmlns="http://www.w3.org/2000/svg" xmlns:xlink="http://www.w3.org/1999/xlink" x="0px" y="0px"
	 viewBox="0 0 487 487" style="enable-background:new 0 0 487 487;" xml:space="preserve">
<title></title>
<path d="M487,0h-24.4v12.2H487V0z M414,0h-24.4v12.2H414V0z M340.9,0h-24.4v12.2h24.4V0z M267.9,0h-24.4v12.2h24.4V0L267.9,0z
	 M194.8,0h-24.4v12.2h24.4V0z M121.8,0H97.4v12.2h24.3V0H121.8z M48.8,0H24.4v12.2h24.4V0L48.8,0z M12.2,24.4H0v24.4h12.2V24.4z
	 M12.2,97.4H0v24.3h12.2V97.4z M12.2,170.4H0v24.4h12.2V170.4z M12.2,243.4H0v24.4h12.2V243.4L12.2,243.4z M12.2,316.5H0v24.4h12.2
	V316.5L12.2,316.5z M12.2,389.5H0V414h12.2V389.5L12.2,389.5z M12.2,462.5H0V487h12.2V462.5L12.2,462.5z M73.1,474.7H48.7V487h24.4
	V474.7L73.1,474.7z M146.1,474.7h-24.4V487h24.4V474.7L146.1,474.7z M219.2,474.7h-24.4V487h24.4V474.7L219.2,474.7z M292.2,474.7
	h-24.3V487h24.3V474.7L292.2,474.7z M365.2,474.7h-24.3V487h24.4v-12.2L365.2,474.7z M438.3,474.7H414V487h24.3V474.7L438.3,474.7z
	 M487,462.6h-12.2V487H487V462.6z M487,389.6h-12.2V414H487V389.6z M487,316.6h-12.2v24.3H487V316.6L487,316.6z M487,243.6h-12.2
	v24.3H487V243.6L487,243.6z M487,170.5h-12.2v24.3H487V170.5L487,170.5z M487,97.5h-12.2v24.3H487V97.5L487,97.5z M487,24.5h-12.2
	v24.2H487V24.5L487,24.5z"/>
<path d="M341.2,203c-0.1-21-8.6-41.1-23.6-55.8c-30.6-30.6-80.2-30.6-110.8,0s-30.6,80.2,0,110.8c14.7,15,34.8,23.4,55.8,23.6
	c21.2,0,40.9-9.4,55-23.6S341.2,224.2,341.2,203z M329.4,136.2c17.3,16.5,27.6,40.9,27.6,66.8c0.2,51.9-41.7,94.1-93.5,94.3
	c-0.3,0-0.5,0-0.8,0c-26.7,0-50.3-10.2-66.8-27.5c-17.3-17.3-28.3-40.8-28.3-66.8c0-25.2,10.2-49.3,28.3-66.8
	c17.4-18.2,41.6-28.4,66.7-28.2C288.6,108,312.2,119,329.4,136.2L329.4,136.2z"/>
<path d="M191.1,261c3.8-3.7,13-0.8,16.6,3.1c3.5,3.6,6.6,12.5,3.1,16.1c-0.1,0.1-0.2,0.2-0.3,0.3L71.3,427.4
	c-3.9,3.9-13.1,0.6-16.8-3.4c-3.8-4-6.5-13.1-2.6-16.9l0,0L191.1,261z"/>
<path d="M331.8,203c0,4.7-3.9,7.9-8.6,7.9c-4.3,0-7.8-3.5-7.9-7.9c0-14.2-5.7-27.7-15.7-37.7c-9.9-9.7-23.1-15-36.9-14.9
	c-4.7,0-8.6-3.9-8.6-8.6s3.9-7.9,8.6-7.9c18.3,0.1,35.8,7.4,48.7,20.4l0,0C324.4,167.2,331.7,184.7,331.8,203z"/>
<path d="M38.4,182.6c-1.6,3.7-0.7,8.1,2.2,10.9l212.1,204.7c4,3.5,10.1,3.2,13.7-0.7l58.7-58.7l90.8,90.8h-62.1
	c-5.2-0.2-9.6,3.9-9.7,9.1c-0.2,5.2,3.9,9.6,9.1,9.7c0.2,0,0.4,0,0.6,0h84.8c5.1-0.2,9.2-4.3,9.4-9.4v-84.7c0.2-5.2-3.9-9.6-9.1-9.7
	c-5.2-0.2-9.6,3.9-9.7,9.1c0,0.2,0,0.4,0,0.6v61.9l-97.5-97.5c-1.5-1.5-3.4-2.5-5.5-2.8c-3.7-0.5-7.2,1.2-9.3,4.3l-58,58L53.6,179.8
	c-1.5-1.5-3.5-2.4-5.6-2.6C44,176.7,40.1,178.9,38.4,182.6z"/>
<path d="M266.8,209.4v-22.7h17.1c3.1,0,5.7-2.6,5.7-5.7c0-3.1-2.6-5.7-5.7-5.7h-17.1V164c0-3.1-2.5-5.7-5.7-5.7
	c-3.1,0-5.7,2.5-5.7,5.7l0,0v11.4c-12.5,0.3-22.5,10.7-22.2,23.2c0.3,12.2,10.1,21.9,22.2,22.2v22.7h-17.1c-3.1,0.1-5.5,2.8-5.4,6
	c0.1,3,2.5,5.3,5.4,5.4h17.1v11.4c0,3.1,2.5,5.7,5.7,5.7c3.1,0,5.7-2.5,5.7-5.7l0,0v-11.4c12.5,0.3,22.9-9.7,23.2-22.2
	c0.3-12.5-9.7-22.9-22.2-23.2C267.4,209.4,267.2,209.4,266.8,209.4z M255.5,209.4c-6.3-0.2-11.2-5.4-11-11.7c0.2-6,5-10.8,11-11
	V209.4z M266.8,243.5v-22.7c6.3,0,11.4,5.1,11.4,11.4C278.1,238.4,273.1,243.5,266.8,243.5z"/>
</svg>
