<?xml version="1.0" encoding="utf-8"?>
<!-- Generator: Adobe Illustrator 22.1.0, SVG Export Plug-In . SVG Version: 6.00 Build 0)  -->
<svg version="1.1" id="Layer_5" xmlns="http://www.w3.org/2000/svg" xmlns:xlink="http://www.w3.org/1999/xlink" x="0px" y="0px"
	 viewBox="0 0 487 487" style="enable-background:new 0 0 487 487;" xml:space="preserve">
<title></title>
<path d="M487,0h-24.4v12.2H487V0z M414,0h-24.4v12.2H414V0z M340.9,0h-24.4v12.2h24.4V0z M267.9,0h-24.4v12.2h24.4L267.9,0L267.9,0z
	 M194.8,0h-24.4v12.2h24.4V0z M121.8,0H97.4v12.2h24.3V0z M48.8,0H24.4v12.2h24.4L48.8,0L48.8,0z M12.2,24.4H0v24.4h12.2V24.4z
	 M12.2,97.4H0v24.3h12.2V97.4z M12.2,170.4H0v24.4h12.2V170.4z M12.2,243.4H0v24.4h12.2V243.4L12.2,243.4z M12.2,316.5H0v24.4h12.2
	V316.5L12.2,316.5z M12.2,389.5H0V414h12.2V389.5L12.2,389.5z M12.2,462.5H0V487h12.2V462.5L12.2,462.5z M73.1,474.7H48.7V487h24.4
	V474.7L73.1,474.7z M146.1,474.7h-24.4V487h24.4V474.7L146.1,474.7z M219.2,474.7h-24.4V487h24.4V474.7L219.2,474.7z M292.2,474.7
	h-24.3V487h24.3v-12.2L292.2,474.7z M365.2,474.7h-24.3V487h24.4v-12.2L365.2,474.7z M438.3,474.7H414V487h24.3v-12.2L438.3,474.7z
	 M487,462.6h-12.2V487H487V462.6z M487,389.6h-12.2V414H487V389.6z M487,316.6h-12.2v24.3H487V316.6L487,316.6z M487,243.6h-12.2
	v24.3H487V243.6L487,243.6z M487,170.5h-12.2v24.3H487V170.5L487,170.5z M487,97.5h-12.2v24.3H487V97.5L487,97.5z M487,24.5h-12.2
	v24.2H487V24.5L487,24.5z"/>
<path d="M433.2,133c-0.1-21-8.6-41.1-23.6-55.8c-30.6-30.6-80.2-30.6-110.8,0s-30.6,80.2,0,110.8c14.7,15,34.8,23.4,55.8,23.6
	c21.2,0,40.9-9.4,55-23.6S433.2,154.2,433.2,133z M421.4,66.2C438.7,82.7,449,107.1,449,133c0.2,51.9-41.7,94.1-93.5,94.3
	c-0.3,0-0.5,0-0.8,0c-26.7,0-50.3-10.2-66.8-27.5c-17.3-17.3-28.3-40.8-28.3-66.8c0-25.2,10.2-49.3,28.3-66.8
	C305.3,48,329.5,37.8,354.6,38C380.6,38,404.2,49,421.4,66.2L421.4,66.2z"/>
<path d="M280.3,185.1c3.8-3.6,9.9-3.6,13.7,0c3.5,3.4,3.7,9,0.3,12.5c-0.1,0.1-0.2,0.2-0.3,0.3L91.7,408.2c-3.8,3.8-9.9,3.8-13.7,0
	s-3.8-9.9,0-13.7l0,0L280.3,185.1z"/>
<path d="M423.8,133c0,4.7-3.9,7.9-8.6,7.9c-4.3,0-7.8-3.5-7.9-7.9c0-14.2-5.7-27.7-15.7-37.7c-9.9-9.7-23.1-15-36.9-14.9
	c-4.7,0-8.6-3.9-8.6-8.6c0-4.7,3.9-7.9,8.6-7.9c18.3,0.1,35.8,7.4,48.7,20.4l0,0C416.4,97.2,423.7,114.7,423.8,133z"/>
<path d="M34.4,180.6c-1.6,3.7-0.7,8.1,2.2,10.9l160.1,150.7c4,3.5,10.1,3.2,13.7-0.7l58.7-58.7l146.8,146.8h-62.1
	c-5.2-0.2-9.6,3.9-9.7,9.1c-0.2,5.2,3.9,9.6,9.1,9.7c0.2,0,0.4,0,0.6,0h84.8c5.1-0.2,9.2-4.3,9.4-9.4v-84.7c0.2-5.2-3.9-9.6-9.1-9.7
	c-5.2-0.2-9.6,3.9-9.7,9.1c0,0.2,0,0.4,0,0.6v61.9L275.7,262.7c-1.5-1.5-3.4-2.5-5.5-2.8c-3.7-0.5-7.2,1.2-9.3,4.3l-58,58
	L49.6,177.8c-1.5-1.5-3.5-2.4-5.6-2.6C40,174.7,36.1,176.9,34.4,180.6z"/>
<path d="M171.6,124.9V91.3h25.2c4.6,0,8.4-3.8,8.4-8.4c0-4.6-3.8-8.4-8.4-8.4h-25.2V57.8c0-4.6-3.7-8.4-8.4-8.4
	c-4.6,0-8.4,3.7-8.4,8.4c0,0,0,0,0,0v16.8c-18.5,0.4-33.2,15.8-32.8,34.3c0.4,18,14.9,32.4,32.8,32.8v33.6h-25.2
	c-4.6,0.2-8.2,4.1-8,8.8c0.2,4.4,3.7,7.8,8,8h25.2v16.8c0,4.6,3.7,8.4,8.4,8.4c4.6,0,8.4-3.7,8.4-8.4c0,0,0,0,0,0v-16.8
	c18.5,0.4,33.9-14.3,34.3-32.8c0.4-18.5-14.3-33.9-32.8-34.3C172.5,124.9,172.1,124.9,171.6,124.9z M154.8,124.9
	c-9.3-0.3-16.6-8-16.3-17.3c0.3-8.9,7.4-16,16.3-16.3V124.9z M171.6,175.3v-33.6c9.3,0,16.8,7.5,16.8,16.8
	C188.3,167.7,180.8,175.3,171.6,175.3z"/>
</svg>
