<?xml version="1.0" encoding="utf-8"?>
<!-- Generator: Adobe Illustrator 22.1.0, SVG Export Plug-In . SVG Version: 6.00 Build 0)  -->
<svg version="1.1" id="Layer_1" xmlns="http://www.w3.org/2000/svg" xmlns:xlink="http://www.w3.org/1999/xlink" x="0px" y="0px"
	 viewBox="0 0 80.9 80.9" style="enable-background:new 0 0 80.9 80.9;" xml:space="preserve">
<style type="text/css">
	.st0{fill:#FFFFFF;}
	.st1{display:none;fill:#FFFFFF;}
	.st2{display:none;}
	.st3{display:inline;}
</style>
<title>sales</title>
<polygon class="st0" points="80.9,4.8 80.7,80.9 0,80.9 0,3 18.1,3 19.6,0.8 61,0.8 62.1,4.2 "/>
<polygon id="exit-white-bg" class="st1" points="80.9,1.6 80.9,79.6 79.6,80.9 1.3,80.9 0,79.6 0,51.2 15.5,51.2 15.8,45.8 
	36.5,45.8 36.8,35.1 57.2,35.1 57.3,24.3 79.7,1.6 "/>
<g>
	<rect x="41.7" y="6.2" width="2.4" height="1.9"/>
	<rect x="48.5" y="6.2" width="2.4" height="1.9"/>
	<rect x="34.8" y="6.2" width="2.4" height="1.9"/>
	<rect x="28.1" y="6.2" width="2.4" height="1.9"/>
	<path d="M62.6,3v-3.2H18.1V3H0v77.9h80.9V3H62.6z M20.5,1.7h39.8v10.9H20.5V1.7z M2.4,77.9v-72h15.7V15h44.6V5.9h15.7v72H2.4z"/>
</g>
<path class="st2" d="M20.4,26.4c-0.2,0-0.4-0.1-0.5-0.2l-3-2.4c-0.2-0.2-0.3-0.5-0.1-0.7l0.1-0.1c0.3-0.2,0.7-0.2,1,0l3,2.4
	c0.2,0.2,0.3,0.5,0.1,0.7l-0.1,0.1C20.8,26.4,20.6,26.4,20.4,26.4z"/>
<path class="st2" d="M20.4,26.4c-0.2,0-0.4-0.1-0.5-0.2c-0.2-0.2-0.3-0.5-0.1-0.7l0.1-0.1l5.9-4.8c0.3-0.2,0.7-0.2,1,0
	c0.2,0.2,0.3,0.5,0.1,0.7l-0.1,0.1l-5.9,4.8C20.8,26.4,20.6,26.4,20.4,26.4z"/>
<path class="st2" d="M63.4,20.4H33.7c-0.4,0-0.7-0.3-0.7-0.6c0-0.3,0.3-0.6,0.7-0.6h29.6c0.4,0,0.7,0.3,0.7,0.6S63.8,20.4,63.4,20.4
	z"/>
<path class="st2" d="M63.4,24H33.7c-0.4,0-0.7-0.3-0.7-0.6s0.3-0.6,0.7-0.6h29.6c0.4,0,0.7,0.3,0.7,0.6S63.8,24,63.4,24z"/>
<path class="st2" d="M48.5,27.7H33.7c-0.4,0-0.7-0.3-0.7-0.6c0-0.3,0.3-0.6,0.7-0.6h14.8c0.4,0,0.7,0.3,0.7,0.6
	C49.3,27.4,49,27.7,48.5,27.7z"/>
<path class="st2" d="M17.4,44.5c-0.2,0-0.4-0.1-0.5-0.2c-0.2-0.2-0.3-0.5-0.1-0.7l0.1-0.1l7.4-6c0.3-0.2,0.7-0.2,1,0
	c0.2,0.2,0.3,0.5,0.1,0.7l-0.1,0.1l-7.4,6C17.8,44.5,17.6,44.5,17.4,44.5z"/>
<path class="st2" d="M24.8,44.5c-0.2,0-0.4-0.1-0.5-0.2l-7.4-6c-0.2-0.2-0.3-0.5-0.1-0.7l0.1-0.1c0.3-0.2,0.7-0.2,1,0l7.4,6
	c0.2,0.2,0.3,0.5,0.1,0.7l-0.1,0.1C25.2,44.5,25,44.5,24.8,44.5z"/>
<path class="st2" d="M63.4,37.3H33.7c-0.4,0-0.7-0.3-0.7-0.6s0.3-0.6,0.7-0.6h29.6c0.4,0,0.7,0.3,0.7,0.6S63.8,37.3,63.4,37.3z"/>
<path class="st2" d="M63.4,40.9H33.7c-0.4,0-0.7-0.3-0.7-0.6s0.3-0.6,0.7-0.6h29.6c0.4,0,0.7,0.3,0.7,0.6S63.8,40.9,63.4,40.9z"/>
<path class="st2" d="M48.5,44.5H33.7c-0.4,0-0.7-0.3-0.7-0.6s0.3-0.6,0.7-0.6h14.8c0.4,0,0.7,0.3,0.7,0.6
	C49.3,44.3,49,44.5,48.5,44.5z"/>
<path class="st2" d="M63,54.2H17.8c-0.6,0-1.1-0.3-1.1-0.6s0.5-0.6,1.1-0.6H63c0.6,0,1.1,0.3,1.1,0.6S63.6,54.2,63,54.2z"/>
<g class="st2">
	<path class="st3" d="M41,69.1c0.1,0.3,0.2,0.6,0.4,0.9c0.6-0.1,1.1-0.2,1.6-0.4c0-0.3-0.1-0.6-0.1-0.9c0.3-0.2,0.7-0.3,1-0.6
		c0.2,0.2,0.5,0.4,0.8,0.6c0.4-0.3,0.8-0.7,1.2-1.2c-0.2-0.3-0.4-0.5-0.6-0.8c0.2-0.3,0.4-0.6,0.6-1c0.3,0.1,0.6,0.1,0.9,0.1
		c0.2-0.5,0.4-1.1,0.4-1.6c-0.3-0.1-0.6-0.3-0.9-0.4c0-0.4,0-0.7,0-1.1c0.3-0.1,0.6-0.2,0.9-0.4c-0.1-0.6-0.2-1.1-0.4-1.6
		c-0.3,0-0.6,0.1-0.9,0.1c-0.2-0.3-0.3-0.7-0.6-1c0.2-0.2,0.4-0.5,0.6-0.8c-0.3-0.4-0.7-0.8-1.2-1.2c-0.3,0.2-0.5,0.4-0.8,0.6
		c-0.3-0.2-0.6-0.4-1-0.6c0-0.3,0.1-0.6,0.1-0.9c-0.5-0.2-1.1-0.4-1.6-0.4c-0.1,0.3-0.3,0.6-0.4,0.9c-0.4,0-0.7,0-1.1,0
		c-0.1-0.3-0.2-0.6-0.4-0.9c-0.6,0.1-1.1,0.2-1.6,0.4c0,0.3,0.1,0.6,0.1,0.9c-0.3,0.2-0.7,0.3-1,0.6c-0.2-0.2-0.5-0.4-0.8-0.6
		c-0.4,0.3-0.8,0.7-1.2,1.2c0.2,0.3,0.4,0.5,0.6,0.8c-0.2,0.3-0.4,0.6-0.6,1c-0.3,0-0.6-0.1-0.9-0.1c-0.2,0.5-0.4,1.1-0.4,1.6
		c0.3,0.1,0.6,0.3,0.9,0.4c0,0.4,0,0.7,0,1.1c-0.3,0.1-0.6,0.2-0.9,0.4c0.1,0.6,0.2,1.1,0.4,1.6c0.3,0,0.6-0.1,0.9-0.1
		c0.2,0.3,0.3,0.7,0.6,1c-0.2,0.2-0.4,0.5-0.6,0.8c0.3,0.4,0.7,0.8,1.2,1.2c0.3-0.2,0.5-0.4,0.8-0.6c0.3,0.2,0.6,0.4,1,0.6
		c-0.1,0.3-0.1,0.6-0.1,0.9c0.5,0.2,1.1,0.4,1.6,0.4c0.1-0.3,0.3-0.6,0.4-0.9C40.2,69.2,40.6,69.2,41,69.1z M36.8,63.3
		c0-2,1.6-3.6,3.6-3.6s3.6,1.6,3.6,3.6c0,2-1.6,3.6-3.6,3.6C38.4,66.9,36.8,65.3,36.8,63.3z M51,73.1c0.1,0.2,0.2,0.4,0.3,0.5
		c0.4-0.1,0.7-0.3,1-0.5c-0.1-0.2-0.1-0.4-0.2-0.6c0.2-0.1,0.4-0.3,0.6-0.5c0.2,0.1,0.4,0.2,0.6,0.3c0.3-0.3,0.5-0.6,0.6-0.9
		c-0.1-0.2-0.3-0.3-0.5-0.4c0.1-0.2,0.2-0.5,0.3-0.7c0.2,0,0.4,0,0.6,0c0.1-0.4,0.1-0.7,0.1-1.1c-0.2-0.1-0.4-0.1-0.6-0.1
		c0-0.3-0.1-0.5-0.1-0.7c0.2-0.1,0.4-0.2,0.5-0.3c-0.1-0.4-0.3-0.7-0.5-1c-0.2,0.1-0.4,0.1-0.6,0.2c-0.1-0.2-0.3-0.4-0.5-0.6
		c0.1-0.2,0.2-0.4,0.3-0.6c-0.3-0.3-0.6-0.5-0.9-0.6c-0.2,0.1-0.3,0.3-0.4,0.5c-0.2-0.1-0.5-0.2-0.7-0.3c0-0.2,0-0.4,0-0.6
		C50.5,65,50.2,65,49.8,65c-0.1,0.2-0.1,0.4-0.1,0.6c-0.3,0-0.5,0.1-0.7,0.1c-0.1-0.2-0.2-0.4-0.3-0.5c-0.4,0.1-0.7,0.3-1,0.5
		c0.1,0.2,0.1,0.4,0.2,0.6c-0.2,0.1-0.4,0.3-0.6,0.5c-0.2-0.1-0.4-0.2-0.6-0.3c-0.3,0.3-0.5,0.6-0.6,0.9c0.1,0.2,0.3,0.3,0.5,0.4
		c-0.1,0.2-0.2,0.5-0.3,0.7c-0.2,0-0.4,0-0.6,0c-0.1,0.4-0.1,0.7-0.1,1.1c0.2,0.1,0.4,0.1,0.6,0.1c0,0.3,0.1,0.5,0.1,0.7
		c-0.2,0.1-0.4,0.2-0.5,0.3c0.1,0.4,0.3,0.7,0.5,1c0.2-0.1,0.4-0.1,0.6-0.2c0.1,0.2,0.3,0.4,0.5,0.6c-0.1,0.2-0.2,0.4-0.3,0.6
		c0.3,0.3,0.6,0.5,0.9,0.6c0.2-0.1,0.3-0.3,0.4-0.5c0.2,0.1,0.5,0.2,0.7,0.3c0,0.2,0,0.4,0,0.6c0.4,0.1,0.7,0.1,1.1,0.1
		c0.1-0.2,0.1-0.4,0.1-0.6C50.5,73.2,50.7,73.2,51,73.1z M47.6,69.7c-0.2-1.3,0.6-2.6,2-2.8c1.3-0.2,2.6,0.6,2.8,2
		c0.2,1.3-0.6,2.6-2,2.8C49,71.9,47.8,71,47.6,69.7z M32.3,72.7c0.1,0.2,0.3,0.3,0.4,0.5c0.3-0.1,0.7-0.4,1-0.6
		c-0.1-0.2-0.2-0.4-0.3-0.6c0.2-0.2,0.4-0.3,0.5-0.5c0.2,0.1,0.4,0.2,0.6,0.2c0.2-0.3,0.4-0.6,0.5-1c-0.2-0.1-0.3-0.3-0.5-0.4
		c0.1-0.2,0.1-0.5,0.2-0.7c0.2,0,0.4-0.1,0.6-0.1c0-0.4,0-0.8,0-1.1c-0.2,0-0.4-0.1-0.6-0.1c0-0.2-0.1-0.5-0.2-0.7
		c0.2-0.1,0.3-0.3,0.5-0.4c-0.1-0.3-0.4-0.7-0.6-1c-0.2,0.1-0.4,0.2-0.6,0.3c-0.2-0.2-0.3-0.4-0.5-0.5c0.1-0.2,0.2-0.4,0.2-0.6
		c-0.3-0.2-0.6-0.4-1-0.5c-0.1,0.2-0.3,0.3-0.4,0.5c-0.2-0.1-0.5-0.1-0.7-0.2c0-0.2-0.1-0.4-0.1-0.6c-0.4,0-0.8,0-1.1,0
		c0,0.2-0.1,0.4-0.1,0.6c-0.2,0-0.5,0.1-0.7,0.2c-0.1-0.2-0.3-0.3-0.4-0.5c-0.3,0.1-0.7,0.4-1,0.6c0.1,0.2,0.2,0.4,0.3,0.6
		c-0.2,0.2-0.4,0.3-0.5,0.5c-0.2-0.1-0.4-0.2-0.6-0.2c-0.2,0.3-0.4,0.6-0.5,1c0.2,0.1,0.3,0.3,0.5,0.4C27.1,68,27,68.2,27,68.4
		c-0.2,0-0.4,0.1-0.6,0.1c0,0.4,0,0.8,0,1.1c0.2,0,0.4,0.1,0.6,0.1c0,0.2,0.1,0.5,0.2,0.7c-0.2,0.1-0.3,0.3-0.5,0.4
		c0.1,0.3,0.4,0.7,0.6,1c0.2-0.1,0.4-0.2,0.6-0.3c0.2,0.2,0.3,0.4,0.5,0.5c-0.1,0.2-0.2,0.4-0.2,0.6c0.3,0.2,0.6,0.4,1,0.5
		c0.1-0.2,0.3-0.3,0.4-0.5c0.2,0.1,0.5,0.1,0.7,0.2c0,0.2,0.1,0.4,0.1,0.6c0.4,0,0.8,0,1.1,0c0-0.2,0.1-0.4,0.1-0.6
		C31.9,72.8,32.1,72.8,32.3,72.7z M28.6,69.7c-0.4-1.3,0.4-2.6,1.6-3c1.3-0.4,2.6,0.4,3,1.6c0.4,1.3-0.4,2.6-1.6,3
		C30.3,71.7,28.9,71,28.6,69.7z"/>
</g>
<g>
	<g>
		<path d="M13,29c-0.2,0-0.4-0.1-0.5-0.2l-2.9-2.9c-0.3-0.3-0.3-0.7,0-1c0.3-0.3,0.7-0.3,1,0l2.9,2.9c0.3,0.3,0.3,0.7,0,1
			C13.3,28.9,13.2,29,13,29z"/>
	</g>
</g>
<g>
	<g>
		<path d="M13,29c-0.2,0-0.4-0.1-0.5-0.2c-0.3-0.3-0.3-0.7,0-1l5.7-5.7c0.3-0.3,0.7-0.3,1,0c0.3,0.3,0.3,0.7,0,1l-5.7,5.7
			C13.3,28.9,13.2,29,13,29z"/>
	</g>
</g>
<g>
	<g>
		<path d="M54.4,21.9H25.8c-0.4,0-0.7-0.3-0.7-0.7c0-0.4,0.3-0.7,0.7-0.7h28.6c0.4,0,0.7,0.3,0.7,0.7C55.1,21.5,54.8,21.9,54.4,21.9
			z"/>
	</g>
</g>
<g>
	<g>
		<path d="M54.4,26.1H25.8c-0.4,0-0.7-0.3-0.7-0.7c0-0.4,0.3-0.7,0.7-0.7h28.6c0.4,0,0.7,0.3,0.7,0.7C55.1,25.8,54.8,26.1,54.4,26.1
			z"/>
	</g>
</g>
<g>
	<g>
		<path d="M40.1,30.4H25.8c-0.4,0-0.7-0.3-0.7-0.7c0-0.4,0.3-0.7,0.7-0.7h14.3c0.4,0,0.7,0.3,0.7,0.7C40.8,30.1,40.5,30.4,40.1,30.4
			z"/>
	</g>
</g>
<g>
	<g>
		<path d="M10.1,50.4c-0.2,0-0.4-0.1-0.5-0.2c-0.3-0.3-0.3-0.7,0-1l7.1-7.1c0.3-0.3,0.7-0.3,1,0c0.3,0.3,0.3,0.7,0,1l-7.1,7.1
			C10.5,50.4,10.3,50.4,10.1,50.4z"/>
	</g>
</g>
<g>
	<g>
		<path d="M17.3,50.4c-0.2,0-0.4-0.1-0.5-0.2l-7.1-7.1c-0.3-0.3-0.3-0.7,0-1c0.3-0.3,0.7-0.3,1,0l7.1,7.1c0.3,0.3,0.3,0.7,0,1
			C17.6,50.4,17.4,50.4,17.3,50.4z"/>
	</g>
</g>
<g>
	<g>
		<path d="M54.4,41.9H25.8c-0.4,0-0.7-0.3-0.7-0.7s0.3-0.7,0.7-0.7h28.6c0.4,0,0.7,0.3,0.7,0.7S54.8,41.9,54.4,41.9z"/>
	</g>
</g>
<g>
	<g>
		<path d="M54.4,46.1H25.8c-0.4,0-0.7-0.3-0.7-0.7c0-0.4,0.3-0.7,0.7-0.7h28.6c0.4,0,0.7,0.3,0.7,0.7C55.1,45.8,54.8,46.1,54.4,46.1
			z"/>
	</g>
</g>
<g>
	<g>
		<path d="M40.1,50.4H25.8c-0.4,0-0.7-0.3-0.7-0.7c0-0.4,0.3-0.7,0.7-0.7h14.3c0.4,0,0.7,0.3,0.7,0.7C40.8,50.1,40.5,50.4,40.1,50.4
			z"/>
	</g>
</g>
<g>
	<g>
		<path d="M13,69c-0.2,0-0.4-0.1-0.5-0.2l-2.9-2.9c-0.3-0.3-0.3-0.7,0-1c0.3-0.3,0.7-0.3,1,0l2.9,2.9c0.3,0.3,0.3,0.7,0,1
			C13.3,68.9,13.2,69,13,69z"/>
	</g>
</g>
<g>
	<g>
		<path d="M13,69c-0.2,0-0.4-0.1-0.5-0.2c-0.3-0.3-0.3-0.7,0-1l5.7-5.7c0.3-0.3,0.7-0.3,1,0c0.3,0.3,0.3,0.7,0,1l-5.7,5.7
			C13.3,68.9,13.2,69,13,69z"/>
	</g>
</g>
<g>
	<g>
		<path d="M54.4,61.9H25.8c-0.4,0-0.7-0.3-0.7-0.7c0-0.4,0.3-0.7,0.7-0.7h28.6c0.4,0,0.7,0.3,0.7,0.7C55.1,61.5,54.8,61.9,54.4,61.9
			z"/>
	</g>
</g>
<g>
	<g>
		<path d="M54.4,66.1H25.8c-0.4,0-0.7-0.3-0.7-0.7c0-0.4,0.3-0.7,0.7-0.7h28.6c0.4,0,0.7,0.3,0.7,0.7C55.1,65.8,54.8,66.1,54.4,66.1
			z"/>
	</g>
</g>
<g>
	<g>
		<path d="M40.1,70.4H25.8c-0.4,0-0.7-0.3-0.7-0.7c0-0.4,0.3-0.7,0.7-0.7h14.3c0.4,0,0.7,0.3,0.7,0.7C40.8,70.1,40.5,70.4,40.1,70.4
			z"/>
	</g>
</g>
<g>
	<g>
		<g>
			<path d="M66,70.7c-0.2,0-0.4-0.1-0.5-0.3L63.2,67c-0.1-0.1-0.1-0.3-0.1-0.5l1.1-3.3v-1c0-0.3,0.3-0.6,0.6-0.6s0.6,0.3,0.6,0.6
				v1.1c0,0.1,0,0.1,0,0.2l-1.1,3.2l2.1,3.2c0.2,0.3,0.1,0.6-0.2,0.8C66.2,70.7,66.1,70.7,66,70.7z"/>
		</g>
	</g>
	<g>
		<g>
			<path d="M66,70.7c-0.1,0-0.2,0-0.3-0.1c-0.3-0.2-0.3-0.5-0.2-0.8l2.1-3.2l-1.1-3.2c0-0.1,0-0.1,0-0.2v-1.1c0-0.3,0.3-0.6,0.6-0.6
				s0.6,0.3,0.6,0.6v1l1.1,3.3c0.1,0.2,0,0.4-0.1,0.5l-2.3,3.4C66.3,70.6,66.2,70.7,66,70.7z"/>
		</g>
	</g>
	<g>
		<g>
			<path d="M68.3,53.6h-4.6c-0.3,0-0.6-0.3-0.6-0.6c0-0.3,0.3-0.6,0.6-0.6h4.6c0.3,0,0.6,0.3,0.6,0.6C68.8,53.3,68.6,53.6,68.3,53.6
				z"/>
		</g>
	</g>
	<g>
		<g>
			<path d="M63.7,53.6c-0.3,0-0.6-0.2-0.6-0.5L62,24.5c0-0.3,0.2-0.6,0.5-0.6c0.3,0,0.6,0.2,0.6,0.5L64.3,53
				C64.3,53.3,64,53.6,63.7,53.6C63.7,53.6,63.7,53.6,63.7,53.6z"/>
		</g>
	</g>
	<g>
		<g>
			<path d="M68.3,53.6C68.2,53.6,68.2,53.6,68.3,53.6c-0.3,0-0.6-0.3-0.6-0.6l1.1-28.6c0-0.3,0.3-0.5,0.6-0.5c0.3,0,0.6,0.3,0.5,0.6
				L68.8,53C68.8,53.3,68.6,53.6,68.3,53.6z"/>
		</g>
	</g>
	<g>
		<g>
			<path d="M69.4,25c-0.3,0-0.6-0.3-0.6-0.6c0-2.7-1-4-2.9-4c-1.9,0-2.9,1.3-2.9,4c0,0.3-0.3,0.6-0.6,0.6S62,24.8,62,24.4
				c0-3.3,1.5-5.1,4-5.1c2.5,0,4,1.9,4,5.1C70,24.8,69.7,25,69.4,25z"/>
		</g>
	</g>
	<g>
		<g>
			<path d="M67.1,20.4h-2.3c-0.3,0-0.6-0.3-0.6-0.6c0-0.3,0.3-0.6,0.6-0.6h2.3c0.3,0,0.6,0.3,0.6,0.6C67.7,20.2,67.4,20.4,67.1,20.4
				z"/>
		</g>
	</g>
	<g>
		<g>
			<path d="M66,39.9c-0.3,0-0.6-0.3-0.6-0.6V22.2c0-0.3,0.3-0.6,0.6-0.6s0.6,0.3,0.6,0.6v17.1C66.5,39.6,66.3,39.9,66,39.9z"/>
		</g>
	</g>
	<g>
		<g>
			<path d="M68.3,55.9h-4.6c-0.3,0-0.6-0.3-0.6-0.6c0-0.3,0.3-0.6,0.6-0.6h4.6c0.3,0,0.6,0.3,0.6,0.6C68.8,55.6,68.6,55.9,68.3,55.9
				z"/>
		</g>
	</g>
	<g>
		<g>
			<path d="M68.3,55.9c-0.3,0-0.6-0.3-0.6-0.6V53c0-0.3,0.3-0.6,0.6-0.6s0.6,0.3,0.6,0.6v2.3C68.8,55.6,68.6,55.9,68.3,55.9z"/>
		</g>
	</g>
	<g>
		<g>
			<path d="M63.7,55.9c-0.3,0-0.6-0.3-0.6-0.6V53c0-0.3,0.3-0.6,0.6-0.6c0.3,0,0.6,0.3,0.6,0.6v2.3C64.3,55.6,64,55.9,63.7,55.9z"/>
		</g>
	</g>
	<g>
		<g>
			<path d="M68.3,62.7h-4.6c-0.3,0-0.6-0.3-0.6-0.6c0-0.3,0.3-0.6,0.6-0.6h4.6c0.3,0,0.6,0.3,0.6,0.6C68.8,62.5,68.6,62.7,68.3,62.7
				z"/>
		</g>
	</g>
	<g>
		<g>
			<path d="M68.3,62.7c-0.3,0-0.6-0.3-0.6-0.6v-6.9c0-0.3,0.3-0.6,0.6-0.6s0.6,0.3,0.6,0.6v6.9C68.8,62.5,68.6,62.7,68.3,62.7z"/>
		</g>
	</g>
	<g>
		<g>
			<path d="M63.7,62.7c-0.3,0-0.6-0.3-0.6-0.6v-6.9c0-0.3,0.3-0.6,0.6-0.6c0.3,0,0.6,0.3,0.6,0.6v6.9C64.3,62.5,64,62.7,63.7,62.7z"
				/>
		</g>
	</g>
</g>
</svg>
