<svg id="Layer_1" data-name="Layer 1" xmlns="http://www.w3.org/2000/svg" viewBox="0 0 475.99 496"><title>svg_icons</title><path d="M311.9,40.75H178.61a5.16,5.16,0,0,1-4-1.73l-19-23.25c-1.46-1.77-.87-4.18,1.32-5.37a5.47,5.47,0,0,1,6.6,1.08L181.15,33H309.93l27.15-22.11a5.54,5.54,0,0,1,6.73,0,3.39,3.39,0,0,1,0,5.48L315.27,39.62A5.41,5.41,0,0,1,311.9,40.75Z" transform="translate(-12.01 -2)"></path><path d="M150.05,33H45.33c-2.63,0-4.76-1.73-4.76-3.88s2.13-3.87,4.76-3.87H150.05c2.63,0,4.76,1.73,4.76,3.87S152.68,33,150.05,33Z" transform="translate(-12.01 -2)"></path><path d="M454.68,33H340.44c-2.63,0-4.76-1.73-4.76-3.88s2.13-3.87,4.76-3.87H454.68c2.63,0,4.76,1.73,4.76,3.87S457.31,33,454.68,33Z" transform="translate(-12.01 -2)"></path><path d="M283.32,25.25H207.17c-2.64,0-4.76-1.73-4.76-3.88s2.12-3.87,4.76-3.87h76.15c2.63,0,4.76,1.73,4.76,3.87S286,25.25,283.32,25.25Z" transform="translate(-12.01 -2)"></path><path d="M435.64,428.25H397.56c-2.63,0-4.76-1.73-4.76-3.87s2.13-3.88,4.76-3.88h38.08c2.63,0,4.76,1.73,4.76,3.88S438.27,428.25,435.64,428.25Z" transform="translate(-12.01 -2)"></path><path d="M397.56,459.25c-2.63,0-4.76-1.73-4.76-3.87v-31c0-2.15,2.13-3.88,4.76-3.88s4.76,1.73,4.76,3.88v31C402.32,457.52,400.19,459.25,397.56,459.25Z" transform="translate(-12.01 -2)"></path><path d="M45.33,474.75c-2.63,0-4.76-1.73-4.76-3.87V29.12c0-2.14,2.13-3.87,4.76-3.87s4.76,1.73,4.76,3.87V470.87C50.09,473,48,474.75,45.33,474.75Z" transform="translate(-12.01 -2)"></path><path d="M454.68,436c-2.63,0-4.76-1.73-4.76-3.87v-403c0-2.14,2.13-3.87,4.76-3.87s4.76,1.73,4.76,3.87v403C459.44,434.27,457.31,436,454.68,436Z" transform="translate(-12.01 -2)"></path><path d="M407.08,474.75a5.31,5.31,0,0,1-3.36-1.14,3.38,3.38,0,0,1,0-5.47l47.6-38.75a5.54,5.54,0,0,1,6.73,0,3.39,3.39,0,0,1,0,5.47l-47.6,38.75A5.34,5.34,0,0,1,407.08,474.75Z" transform="translate(-12.01 -2)"></path><path d="M407.08,474.75H45.33c-2.63,0-4.76-1.73-4.76-3.87S42.7,467,45.33,467H407.08c2.63,0,4.76,1.73,4.76,3.88S409.71,474.75,407.08,474.75Z" transform="translate(-12.01 -2)"></path><path d="M483.24,498c-2.63,0-4.76-1.73-4.76-3.88V5.87c0-2.14,2.13-3.87,4.76-3.87S488,3.73,488,5.87V494.12C488,496.27,485.87,498,483.24,498Z" transform="translate(-12.01 -2)"></path><path d="M483.24,498H16.77c-2.63,0-4.76-1.73-4.76-3.88s2.13-3.87,4.76-3.87H483.24c2.63,0,4.76,1.73,4.76,3.87S485.87,498,483.24,498Z" transform="translate(-12.01 -2)"></path><path d="M16.77,498c-2.63,0-4.76-1.73-4.76-3.88V5.87C12,3.73,14.14,2,16.77,2s4.76,1.73,4.76,3.87V494.12C21.53,496.27,19.4,498,16.77,498Z" transform="translate(-12.01 -2)"></path><path d="M483.24,9.75H16.77C14.14,9.75,12,8,12,5.87S14.14,2,16.77,2H483.24C485.87,2,488,3.73,488,5.87S485.87,9.75,483.24,9.75Z" transform="translate(-12.01 -2)"></path><path d="M121.49,157a5.39,5.39,0,0,1-3.37-1.13l-19-15.5a3.39,3.39,0,0,1,0-5.48,5.54,5.54,0,0,1,6.73,0l19,15.5a3.39,3.39,0,0,1,0,5.48A5.39,5.39,0,0,1,121.49,157Z" transform="translate(-12.01 -2)"></path><path d="M121.49,157a5.39,5.39,0,0,1-3.37-1.13,3.39,3.39,0,0,1,0-5.48l38.08-31a5.57,5.57,0,0,1,6.73,0,3.39,3.39,0,0,1,0,5.48l-38.08,31A5.33,5.33,0,0,1,121.49,157Z" transform="translate(-12.01 -2)"></path><path d="M397.56,118.25H207.17c-2.64,0-4.76-1.73-4.76-3.88s2.12-3.87,4.76-3.87H397.56c2.63,0,4.76,1.73,4.76,3.87S400.19,118.25,397.56,118.25Z" transform="translate(-12.01 -2)"></path><path d="M397.56,141.5H207.17c-2.64,0-4.76-1.73-4.76-3.87s2.12-3.88,4.76-3.88H397.56c2.63,0,4.76,1.73,4.76,3.88S400.19,141.5,397.56,141.5Z" transform="translate(-12.01 -2)"></path><path d="M302.36,164.75H207.17c-2.64,0-4.76-1.73-4.76-3.88s2.12-3.87,4.76-3.87h95.19c2.64,0,4.76,1.73,4.76,3.87S305,164.75,302.36,164.75Z" transform="translate(-12.01 -2)"></path><path d="M102.45,273.25a5.34,5.34,0,0,1-3.37-1.14,3.38,3.38,0,0,1,0-5.47l47.6-38.75a5.54,5.54,0,0,1,6.73,0,3.38,3.38,0,0,1,0,5.47l-47.6,38.75A5.31,5.31,0,0,1,102.45,273.25Z" transform="translate(-12.01 -2)"></path><path d="M150.05,273.25a5.34,5.34,0,0,1-3.37-1.14l-47.6-38.75a3.38,3.38,0,0,1,0-5.47,5.54,5.54,0,0,1,6.73,0l47.6,38.75a3.38,3.38,0,0,1,0,5.47A5.33,5.33,0,0,1,150.05,273.25Z" transform="translate(-12.01 -2)"></path><path d="M397.56,226.75H207.17c-2.64,0-4.76-1.73-4.76-3.88s2.12-3.87,4.76-3.87H397.56c2.63,0,4.76,1.73,4.76,3.87S400.19,226.75,397.56,226.75Z" transform="translate(-12.01 -2)"></path><path d="M397.56,250H207.17c-2.64,0-4.76-1.73-4.76-3.88s2.12-3.87,4.76-3.87H397.56c2.63,0,4.76,1.73,4.76,3.87S400.19,250,397.56,250Z" transform="translate(-12.01 -2)"></path><path d="M302.36,273.25H207.17c-2.64,0-4.76-1.73-4.76-3.88s2.12-3.87,4.76-3.87h95.19c2.64,0,4.76,1.73,4.76,3.87S305,273.25,302.36,273.25Z" transform="translate(-12.01 -2)"></path><path d="M121.49,374a5.34,5.34,0,0,1-3.37-1.14l-19-15.5a3.39,3.39,0,0,1,0-5.48,5.57,5.57,0,0,1,6.73,0l19,15.51a3.38,3.38,0,0,1,0,5.47A5.33,5.33,0,0,1,121.49,374Z" transform="translate(-12.01 -2)"></path><path d="M121.49,374a5.34,5.34,0,0,1-3.37-1.14,3.38,3.38,0,0,1,0-5.47l38.08-31a5.57,5.57,0,0,1,6.73,0,3.39,3.39,0,0,1,0,5.48l-38.08,31A5.33,5.33,0,0,1,121.49,374Z" transform="translate(-12.01 -2)"></path><path d="M397.56,335.25H207.17c-2.64,0-4.76-1.73-4.76-3.88s2.12-3.87,4.76-3.87H397.56c2.63,0,4.76,1.73,4.76,3.87S400.19,335.25,397.56,335.25Z" transform="translate(-12.01 -2)"></path><path d="M397.56,358.5H207.17c-2.64,0-4.76-1.73-4.76-3.88s2.12-3.87,4.76-3.87H397.56c2.63,0,4.76,1.73,4.76,3.87S400.19,358.5,397.56,358.5Z" transform="translate(-12.01 -2)"></path><path d="M302.36,381.75H207.17c-2.64,0-4.76-1.73-4.76-3.88s2.12-3.87,4.76-3.87h95.19c2.64,0,4.76,1.73,4.76,3.87S305,381.75,302.36,381.75Z" transform="translate(-12.01 -2)"></path></svg>