<?xml version="1.0" encoding="utf-8"?>
<!-- Generator: Adobe Illustrator 22.1.0, SVG Export Plug-In . SVG Version: 6.00 Build 0)  -->
<svg version="1.1" id="Layer_1" xmlns="http://www.w3.org/2000/svg" xmlns:xlink="http://www.w3.org/1999/xlink" x="0px" y="0px"
	 viewBox="0 0 80.9 80.9" style="enable-background:new 0 0 80.9 80.9;" xml:space="preserve">
<style type="text/css">
	.st0{fill:#FFFFFF;}
	.st1{display:none;fill:#FFFFFF;}
	.st2{display:none;}
	.st3{display:inline;}
</style>
<title>sales</title>
<polygon id="white-bg" class="st0" points="80.9,4.8 80.7,80.9 0,80.9 0,3 18.1,3 19.6,0.8 61,0.8 62.1,4.2 "/>
<polygon id="exit-white-bg" class="st1" points="80.9,1.6 80.9,79.6 79.6,80.9 1.3,80.9 0,79.6 0,51.2 15.5,51.2 15.8,45.8 
	36.5,45.8 36.8,35.1 57.2,35.1 57.3,24.3 79.7,1.6 "/>
<g>
	<rect x="41.7" y="6.2" width="2.4" height="1.9"/>
	<rect x="48.5" y="6.2" width="2.4" height="1.9"/>
	<rect x="34.8" y="6.2" width="2.4" height="1.9"/>
	<rect x="28.1" y="6.2" width="2.4" height="1.9"/>
	<path d="M62.6,3v-3.2H18.1V3H0v77.9l80.9,0V3L62.6,3z M20.5,1.7h39.8v10.9H20.5V1.7z M2.4,77.9v-72h15.7V15h44.6V5.9h15.7v72H2.4z"
		/>
</g>
<path d="M20.4,26.4c-0.2,0-0.4-0.1-0.5-0.2l-3-2.4c-0.2-0.2-0.3-0.5-0.1-0.7c0,0,0.1-0.1,0.1-0.1c0.3-0.2,0.7-0.2,1,0l3,2.4
	c0.2,0.2,0.3,0.5,0.1,0.7c0,0-0.1,0.1-0.1,0.1C20.8,26.4,20.6,26.4,20.4,26.4z"/>
<path d="M20.4,26.4c-0.2,0-0.4-0.1-0.5-0.2c-0.2-0.2-0.3-0.5-0.1-0.7c0,0,0.1-0.1,0.1-0.1l5.9-4.8c0.3-0.2,0.7-0.2,1,0
	c0.2,0.2,0.3,0.5,0.1,0.7c0,0-0.1,0.1-0.1,0.1l-5.9,4.8C20.8,26.4,20.6,26.4,20.4,26.4z"/>
<path d="M63.4,20.4H33.7c-0.4,0-0.7-0.3-0.7-0.6c0-0.3,0.3-0.6,0.7-0.6h29.6c0.4,0,0.7,0.3,0.7,0.6S63.8,20.4,63.4,20.4z"/>
<path d="M63.4,24H33.7c-0.4,0-0.7-0.3-0.7-0.6s0.3-0.6,0.7-0.6h29.6c0.4,0,0.7,0.3,0.7,0.6S63.8,24,63.4,24z"/>
<path d="M48.5,27.7H33.7c-0.4,0-0.7-0.3-0.7-0.6c0-0.3,0.3-0.6,0.7-0.6h14.8c0.4,0,0.7,0.3,0.7,0.6C49.3,27.4,49,27.7,48.5,27.7z"/>
<path d="M17.4,44.5c-0.2,0-0.4-0.1-0.5-0.2c-0.2-0.2-0.3-0.5-0.1-0.7c0,0,0.1-0.1,0.1-0.1l7.4-6c0.3-0.2,0.7-0.2,1,0
	c0.2,0.2,0.3,0.5,0.1,0.7c0,0-0.1,0.1-0.1,0.1l-7.4,6C17.8,44.5,17.6,44.5,17.4,44.5z"/>
<path d="M24.8,44.5c-0.2,0-0.4-0.1-0.5-0.2l-7.4-6c-0.2-0.2-0.3-0.5-0.1-0.7c0,0,0.1-0.1,0.1-0.1c0.3-0.2,0.7-0.2,1,0l7.4,6
	c0.2,0.2,0.3,0.5,0.1,0.7c0,0-0.1,0.1-0.1,0.1C25.2,44.5,25,44.5,24.8,44.5z"/>
<path d="M63.4,37.3H33.7c-0.4,0-0.7-0.3-0.7-0.6c0-0.3,0.3-0.6,0.7-0.6h29.6c0.4,0,0.7,0.3,0.7,0.6S63.8,37.3,63.4,37.3z"/>
<path d="M63.4,40.9H33.7c-0.4,0-0.7-0.3-0.7-0.6c0-0.3,0.3-0.6,0.7-0.6h29.6c0.4,0,0.7,0.3,0.7,0.6S63.8,40.9,63.4,40.9z"/>
<path d="M48.5,44.5H33.7c-0.4,0-0.7-0.3-0.7-0.6c0-0.3,0.3-0.6,0.7-0.6h14.8c0.4,0,0.7,0.3,0.7,0.6C49.3,44.3,49,44.5,48.5,44.5z"/>
<path d="M63,54.2H17.8c-0.6,0-1.1-0.3-1.1-0.6s0.5-0.6,1.1-0.6H63c0.6,0,1.1,0.3,1.1,0.6S63.6,54.2,63,54.2z"/>
<g class="st2">
	<path class="st3" d="M41,69.1c0.1,0.3,0.2,0.6,0.4,0.9c0.6-0.1,1.1-0.2,1.6-0.4c0-0.3-0.1-0.6-0.1-0.9c0.3-0.2,0.7-0.3,1-0.6
		c0.2,0.2,0.5,0.4,0.8,0.6c0.4-0.3,0.8-0.7,1.2-1.2c-0.2-0.3-0.4-0.5-0.6-0.8c0.2-0.3,0.4-0.6,0.6-1c0.3,0.1,0.6,0.1,0.9,0.1
		c0.2-0.5,0.4-1.1,0.4-1.6c-0.3-0.1-0.6-0.3-0.9-0.4c0-0.4,0-0.7,0-1.1c0.3-0.1,0.6-0.2,0.9-0.4c-0.1-0.6-0.2-1.1-0.4-1.6
		c-0.3,0-0.6,0.1-0.9,0.1c-0.2-0.3-0.3-0.7-0.6-1c0.2-0.2,0.4-0.5,0.6-0.8c-0.3-0.4-0.7-0.8-1.2-1.2c-0.3,0.2-0.5,0.4-0.8,0.6
		c-0.3-0.2-0.6-0.4-1-0.6c0-0.3,0.1-0.6,0.1-0.9c-0.5-0.2-1.1-0.4-1.6-0.4c-0.1,0.3-0.3,0.6-0.4,0.9c-0.4,0-0.7,0-1.1,0
		c-0.1-0.3-0.2-0.6-0.4-0.9c-0.6,0.1-1.1,0.2-1.6,0.4c0,0.3,0.1,0.6,0.1,0.9c-0.3,0.2-0.7,0.3-1,0.6c-0.2-0.2-0.5-0.4-0.8-0.6
		c-0.4,0.3-0.8,0.7-1.2,1.2c0.2,0.3,0.4,0.5,0.6,0.8c-0.2,0.3-0.4,0.6-0.6,1c-0.3,0-0.6-0.1-0.9-0.1c-0.2,0.5-0.4,1.1-0.4,1.6
		c0.3,0.1,0.6,0.3,0.9,0.4c0,0.4,0,0.7,0,1.1c-0.3,0.1-0.6,0.2-0.9,0.4c0.1,0.6,0.2,1.1,0.4,1.6c0.3,0,0.6-0.1,0.9-0.1
		c0.2,0.3,0.3,0.7,0.6,1c-0.2,0.2-0.4,0.5-0.6,0.8c0.3,0.4,0.7,0.8,1.2,1.2c0.3-0.2,0.5-0.4,0.8-0.6c0.3,0.2,0.6,0.4,1,0.6
		c-0.1,0.3-0.1,0.6-0.1,0.9c0.5,0.2,1.1,0.4,1.6,0.4c0.1-0.3,0.3-0.6,0.4-0.9C40.2,69.2,40.6,69.2,41,69.1z M36.8,63.3
		c0-2,1.6-3.6,3.6-3.6c2,0,3.6,1.6,3.6,3.6c0,2-1.6,3.6-3.6,3.6C38.4,66.9,36.8,65.3,36.8,63.3z M51,73.1c0.1,0.2,0.2,0.4,0.3,0.5
		c0.4-0.1,0.7-0.3,1-0.5c-0.1-0.2-0.1-0.4-0.2-0.6c0.2-0.1,0.4-0.3,0.6-0.5c0.2,0.1,0.4,0.2,0.6,0.3c0.3-0.3,0.5-0.6,0.6-0.9
		c-0.1-0.2-0.3-0.3-0.5-0.4c0.1-0.2,0.2-0.5,0.3-0.7c0.2,0,0.4,0,0.6,0c0.1-0.4,0.1-0.7,0.1-1.1c-0.2-0.1-0.4-0.1-0.6-0.1
		c0-0.3-0.1-0.5-0.1-0.7c0.2-0.1,0.4-0.2,0.5-0.3c-0.1-0.4-0.3-0.7-0.5-1c-0.2,0.1-0.4,0.1-0.6,0.2c-0.1-0.2-0.3-0.4-0.5-0.6
		c0.1-0.2,0.2-0.4,0.3-0.6c-0.3-0.3-0.6-0.5-0.9-0.6c-0.2,0.1-0.3,0.3-0.4,0.5c-0.2-0.1-0.5-0.2-0.7-0.3c0-0.2,0-0.4,0-0.6
		c-0.4-0.1-0.7-0.1-1.1-0.1c-0.1,0.2-0.1,0.4-0.1,0.6c-0.3,0-0.5,0.1-0.7,0.1c-0.1-0.2-0.2-0.4-0.3-0.5c-0.4,0.1-0.7,0.3-1,0.5
		c0.1,0.2,0.1,0.4,0.2,0.6c-0.2,0.1-0.4,0.3-0.6,0.5c-0.2-0.1-0.4-0.2-0.6-0.3c-0.3,0.3-0.5,0.6-0.6,0.9c0.1,0.2,0.3,0.3,0.5,0.4
		c-0.1,0.2-0.2,0.5-0.3,0.7c-0.2,0-0.4,0-0.6,0c-0.1,0.4-0.1,0.7-0.1,1.1c0.2,0.1,0.4,0.1,0.6,0.1c0,0.3,0.1,0.5,0.1,0.7
		c-0.2,0.1-0.4,0.2-0.5,0.3c0.1,0.4,0.3,0.7,0.5,1c0.2-0.1,0.4-0.1,0.6-0.2c0.1,0.2,0.3,0.4,0.5,0.6c-0.1,0.2-0.2,0.4-0.3,0.6
		c0.3,0.3,0.6,0.5,0.9,0.6c0.2-0.1,0.3-0.3,0.4-0.5c0.2,0.1,0.5,0.2,0.7,0.3c0,0.2,0,0.4,0,0.6c0.4,0.1,0.7,0.1,1.1,0.1
		c0.1-0.2,0.1-0.4,0.1-0.6C50.5,73.2,50.7,73.2,51,73.1z M47.6,69.7c-0.2-1.3,0.6-2.6,2-2.8c1.3-0.2,2.6,0.6,2.8,2
		c0.2,1.3-0.6,2.6-2,2.8C49,71.9,47.8,71,47.6,69.7z M32.3,72.7c0.1,0.2,0.3,0.3,0.4,0.5c0.3-0.1,0.7-0.4,1-0.6
		c-0.1-0.2-0.2-0.4-0.3-0.6c0.2-0.2,0.4-0.3,0.5-0.5c0.2,0.1,0.4,0.2,0.6,0.2c0.2-0.3,0.4-0.6,0.5-1c-0.2-0.1-0.3-0.3-0.5-0.4
		c0.1-0.2,0.1-0.5,0.2-0.7c0.2,0,0.4-0.1,0.6-0.1c0-0.4,0-0.8,0-1.1c-0.2,0-0.4-0.1-0.6-0.1c0-0.2-0.1-0.5-0.2-0.7
		c0.2-0.1,0.3-0.3,0.5-0.4c-0.1-0.3-0.4-0.7-0.6-1c-0.2,0.1-0.4,0.2-0.6,0.3c-0.2-0.2-0.3-0.4-0.5-0.5c0.1-0.2,0.2-0.4,0.2-0.6
		c-0.3-0.2-0.6-0.4-1-0.5c-0.1,0.2-0.3,0.3-0.4,0.5c-0.2-0.1-0.5-0.1-0.7-0.2c0-0.2-0.1-0.4-0.1-0.6c-0.4,0-0.8,0-1.1,0
		c0,0.2-0.1,0.4-0.1,0.6c-0.2,0-0.5,0.1-0.7,0.2c-0.1-0.2-0.3-0.3-0.4-0.5c-0.3,0.1-0.7,0.4-1,0.6c0.1,0.2,0.2,0.4,0.3,0.6
		c-0.2,0.2-0.4,0.3-0.5,0.5c-0.2-0.1-0.4-0.2-0.6-0.2c-0.2,0.3-0.4,0.6-0.5,1c0.2,0.1,0.3,0.3,0.5,0.4C27.1,68,27,68.2,27,68.4
		c-0.2,0-0.4,0.1-0.6,0.1c0,0.4,0,0.8,0,1.1c0.2,0,0.4,0.1,0.6,0.1c0,0.2,0.1,0.5,0.2,0.7c-0.2,0.1-0.3,0.3-0.5,0.4
		c0.1,0.3,0.4,0.7,0.6,1c0.2-0.1,0.4-0.2,0.6-0.3c0.2,0.2,0.3,0.4,0.5,0.5c-0.1,0.2-0.2,0.4-0.2,0.6c0.3,0.2,0.6,0.4,1,0.5
		c0.1-0.2,0.3-0.3,0.4-0.5c0.2,0.1,0.5,0.1,0.7,0.2c0,0.2,0.1,0.4,0.1,0.6c0.4,0,0.8,0,1.1,0c0-0.2,0.1-0.4,0.1-0.6
		C31.9,72.8,32.1,72.8,32.3,72.7z M28.6,69.7c-0.4-1.3,0.4-2.6,1.6-3c1.3-0.4,2.6,0.4,3,1.6c0.4,1.3-0.4,2.6-1.6,3
		C30.3,71.7,28.9,71,28.6,69.7z"/>
</g>
<path d="M57,72.5c0-3.2-2.6-5.8-5.8-5.8h-2c-1.3,0-2.6,0.4-3.6,1.2h-1.8c-1.3,0-2.6,0.4-3.6,1.2h-1.6c-1-0.8-2.3-1.2-3.6-1.2h-1.7
	c-1-0.8-2.3-1.2-3.6-1.2h-2c-3.2,0-5.8,2.6-5.8,5.8v0.4h5.4c-0.1,0.3-0.1,0.5-0.1,0.9v0.4h5.4c0,0.1,0,0.1,0,0.1v1.1h13.7v-1.1
	c0-0.1,0-0.1,0-0.1h5.4v-0.4c0-0.3-0.1-0.5-0.1-0.9H57V72.5z M22.6,72.1c0.2-2.6,2.4-4.7,5-4.7h2c0.8,0,1.6,0.2,2.3,0.5
	c-2.1,0.4-3.9,2-4.5,4.1H22.6z M27.9,73.3c0.2-2.6,2.4-4.7,5-4.7h2c0.8,0,1.4,0.2,2.1,0.5c-2.3,0.3-4.1,2-4.5,4.2H27.9z M45.4,74.5
	H33.4v-0.3c0-2.4,1.9-4.3,4.3-4.3h3.4c2.4,0,4.3,1.9,4.3,4.3L45.4,74.5L45.4,74.5z M46.2,73.3c-0.4-2.3-2.3-4-4.5-4.2
	c0.6-0.3,1.3-0.5,2.1-0.5h2c2.6,0,4.8,2,5,4.7H46.2z M51.3,72.1C50.7,70,49,68.4,46.8,68c0.7-0.4,1.4-0.5,2.3-0.5h2
	c2.6,0,4.8,2,5,4.7H51.3z"/>
<path d="M28.6,65.8c0.8,0,1.6-0.3,2.2-0.8c0.5,1.2,1.7,2,3.1,2c0.9,0,1.7-0.3,2.3-0.9c0.5,1.2,1.7,2.1,3.2,2.1c1.4,0,2.6-0.9,3.1-2
	c0.6,0.5,1.4,0.8,2.2,0.8c1.4,0,2.6-0.9,3.1-2c0.6,0.5,1.4,0.8,2.2,0.8c1.9,0,3.4-1.5,3.4-3.4c0-1.9-1.5-3.4-3.4-3.4
	c-1.4,0-2.6,0.9-3.1,2.1c-0.3-0.2-0.5-0.4-0.8-0.5c0-0.2,0.1-0.3,0.1-0.4c0-1.9-1.5-3.4-3.4-3.4c-1.2,0-2.4,0.7-3,1.8
	c-0.5-0.3-1.1-0.5-1.8-0.5s-1.2,0.2-1.8,0.5c-0.3-1.5-1.7-2.6-3.3-2.6c-1.9,0-3.4,1.5-3.4,3.3c-0.3-0.1-0.6-0.1-0.9-0.1
	c-1.9,0-3.4,1.5-3.4,3.4C25.3,64.3,26.8,65.8,28.6,65.8z M34,66.2c-1.4,0-2.6-1.2-2.6-2.6c0-1.4,1.2-2.6,2.6-2.6
	c1.2,0,2.3,0.9,2.5,2c-0.3,0.5-0.5,1.1-0.5,1.8c0,0.1,0,0.3,0,0.4C35.5,65.9,34.8,66.2,34,66.2z M39.4,67.5c-1.4,0-2.6-1.2-2.6-2.6
	c0-1.4,1.2-2.6,2.6-2.6c1.4,0,2.6,1.2,2.6,2.6C42,66.3,40.8,67.5,39.4,67.5z M50.1,59.8c1.4,0,2.6,1.2,2.6,2.6
	c0,1.4-1.2,2.6-2.6,2.6c-0.8,0-1.5-0.3-2-0.9c0-0.2,0.1-0.3,0.1-0.4c0-0.7-0.2-1.3-0.6-1.9C47.8,60.6,48.9,59.8,50.1,59.8z
	 M47.4,63.7c0,1.4-1.2,2.6-2.6,2.6c-0.8,0-1.5-0.3-2-0.9c0-0.2,0.1-0.3,0.1-0.4c0-0.7-0.2-1.3-0.6-1.9c0.3-1.1,1.3-1.9,2.5-1.9
	C46.2,61,47.4,62.2,47.4,63.7z M42.8,57.5c1.4,0,2.6,1.2,2.6,2.6c0,0.1,0,0.1,0,0.2c-0.2-0.1-0.4-0.1-0.6-0.1
	c-1.4,0-2.6,0.9-3.1,2.1c-0.1-0.1-0.2-0.2-0.3-0.2c0.1-0.2,0.1-0.5,0.1-0.7c0-0.9-0.4-1.8-1-2.4C40.9,58.1,41.8,57.5,42.8,57.5z
	 M39.7,59.4c0.6,0.5,0.9,1.2,0.9,2c0,0.1,0,0.2,0,0.3c-0.4-0.2-0.8-0.2-1.2-0.2c-0.9,0-1.7,0.3-2.3,0.9c-0.3-0.8-0.9-1.3-1.6-1.7
	c0.3-1.1,1.3-1.9,2.5-1.9C38.6,58.8,39.2,59,39.7,59.4z M30.4,59.2c0-1.4,1.2-2.6,2.6-2.6c1.4,0,2.5,1.1,2.6,2.4
	c-0.3,0.4-0.6,0.8-0.8,1.3c-0.3-0.1-0.5-0.1-0.8-0.1c-0.9,0-1.6,0.3-2.2,0.8c-0.3-0.7-0.8-1.2-1.4-1.6
	C30.4,59.4,30.4,59.3,30.4,59.2z M28.6,59.8c1.2,0,2.2,0.8,2.5,1.9c-0.4,0.5-0.6,1.2-0.6,1.9c0,0.2,0,0.3,0.1,0.4
	c-0.5,0.6-1.2,0.9-2,0.9c-1.4,0-2.6-1.2-2.6-2.6C26.1,61,27.3,59.8,28.6,59.8z"/>
</svg>
