<svg id="Layer_1" data-name="Layer 1" xmlns="http://www.w3.org/2000/svg" viewBox="0 0 81.08 80.94"><title>Exit_preperation</title><path d="M79.64,24.27H64.24a1.35,1.35,0,1,0,0,2.7h15.4a1.35,1.35,0,0,0,0-2.7Z" transform="translate(0.09 0.04)"></path><path d="M79.64,29.66H64.24a1.35,1.35,0,1,0,0,2.7h15.4a1.35,1.35,0,0,0,0-2.7Z" transform="translate(0.09 0.04)"></path><path d="M79.64,35.06H64.24a1.35,1.35,0,0,0,0,2.69h15.4a1.35,1.35,0,0,0,0-2.69Z" transform="translate(0.09 0.04)"></path><path d="M79.64,40.45H64.24a1.35,1.35,0,1,0,0,2.7h15.4a1.35,1.35,0,1,0,0-2.7Z" transform="translate(0.09 0.04)"></path><path d="M79.64,45.84H64.24a1.35,1.35,0,1,0,0,2.7h15.4a1.35,1.35,0,0,0,0-2.7Z" transform="translate(0.09 0.04)"></path><path d="M79.64,51.24H64.24a1.35,1.35,0,0,0,0,2.69h15.4a1.35,1.35,0,0,0,0-2.69Z" transform="translate(0.09 0.04)"></path><path d="M79.64,56.63H64.24a1.35,1.35,0,1,0,0,2.7h15.4a1.35,1.35,0,0,0,0-2.7Z" transform="translate(0.09 0.04)"></path><path d="M79.64,62H64.24a1.35,1.35,0,1,0,0,2.7h15.4a1.35,1.35,0,0,0,0-2.7Z" transform="translate(0.09 0.04)"></path><path d="M79.64,67.42H64.24a1.35,1.35,0,0,0,0,2.69h15.4a1.35,1.35,0,0,0,0-2.69Z" transform="translate(0.09 0.04)"></path><path d="M79.64,72.81H64.24a1.35,1.35,0,1,0,0,2.7h15.4a1.35,1.35,0,0,0,0-2.7Z" transform="translate(0.09 0.04)"></path><path d="M79.64,78.2H64.24a1.35,1.35,0,1,0,0,2.7h15.4a1.35,1.35,0,0,0,0-2.7Z" transform="translate(0.09 0.04)"></path><path d="M58.64,45.84H43.25a1.35,1.35,0,0,0,0,2.7H58.64a1.35,1.35,0,1,0,0-2.7Z" transform="translate(0.09 0.04)"></path><path d="M58.64,40.45H43.25a1.35,1.35,0,0,0,0,2.7H58.64a1.35,1.35,0,1,0,0-2.7Z" transform="translate(0.09 0.04)"></path><path d="M58.64,51.24H43.25a1.35,1.35,0,0,0,0,2.69H58.64a1.35,1.35,0,0,0,0-2.69Z" transform="translate(0.09 0.04)"></path><path d="M58.64,56.63H43.25a1.35,1.35,0,0,0,0,2.7H58.64a1.35,1.35,0,1,0,0-2.7Z" transform="translate(0.09 0.04)"></path><path d="M58.64,62H43.25a1.35,1.35,0,1,0,0,2.7H58.64a1.35,1.35,0,1,0,0-2.7Z" transform="translate(0.09 0.04)"></path><path d="M58.64,67.42H43.25a1.35,1.35,0,0,0,0,2.69H58.64a1.35,1.35,0,0,0,0-2.69Z" transform="translate(0.09 0.04)"></path><path d="M58.64,72.81H43.25a1.35,1.35,0,1,0,0,2.7H58.64a1.35,1.35,0,1,0,0-2.7Z" transform="translate(0.09 0.04)"></path><path d="M58.64,78.2H43.25a1.35,1.35,0,1,0,0,2.7H58.64a1.35,1.35,0,1,0,0-2.7Z" transform="translate(0.09 0.04)"></path><path d="M37.65,56.63H22.26a1.35,1.35,0,1,0,0,2.7H37.65a1.35,1.35,0,1,0,0-2.7Z" transform="translate(0.09 0.04)"></path><path d="M37.65,51.24H22.26a1.35,1.35,0,0,0,0,2.69H37.65a1.35,1.35,0,0,0,0-2.69Z" transform="translate(0.09 0.04)"></path><path d="M37.65,62H22.26a1.35,1.35,0,1,0,0,2.7H37.65a1.35,1.35,0,1,0,0-2.7Z" transform="translate(0.09 0.04)"></path><path d="M37.65,67.42H22.26a1.35,1.35,0,0,0,0,2.69H37.65a1.35,1.35,0,0,0,0-2.69Z" transform="translate(0.09 0.04)"></path><path d="M37.65,72.81H22.26a1.35,1.35,0,1,0,0,2.7H37.65a1.35,1.35,0,1,0,0-2.7Z" transform="translate(0.09 0.04)"></path><path d="M37.65,78.2H22.26a1.35,1.35,0,1,0,0,2.7H37.65a1.35,1.35,0,1,0,0-2.7Z" transform="translate(0.09 0.04)"></path><path d="M16.66,56.63H1.26a1.35,1.35,0,1,0,0,2.7h15.4a1.35,1.35,0,1,0,0-2.7Z" transform="translate(0.09 0.04)"></path><path d="M16.66,62H1.26a1.35,1.35,0,1,0,0,2.7h15.4a1.35,1.35,0,1,0,0-2.7Z" transform="translate(0.09 0.04)"></path><path d="M16.66,67.42H1.26a1.35,1.35,0,0,0,0,2.69h15.4a1.35,1.35,0,0,0,0-2.69Z" transform="translate(0.09 0.04)"></path><path d="M16.66,72.81H1.26a1.35,1.35,0,0,0,0,2.7h15.4a1.35,1.35,0,1,0,0-2.7Z" transform="translate(0.09 0.04)"></path><path d="M16.66,78.2H1.26a1.35,1.35,0,1,0,0,2.7h15.4a1.35,1.35,0,1,0,0-2.7Z" transform="translate(0.09 0.04)"></path><path d="M1.26,52.58H15.78A1.3,1.3,0,0,0,17,51.24h0v-4H36.6a1.31,1.31,0,0,0,1.3-1.32V37.08H57.51a1.32,1.32,0,0,0,1.27-1.35h0V24.43L77.37,5.9l-1,4.45a1.36,1.36,0,0,0,1,1.62h.28A1.29,1.29,0,0,0,78.9,10.9l2-9.29A1.43,1.43,0,0,0,80.53.32,1.21,1.21,0,0,0,79.29,0L70.67,2.9a1.37,1.37,0,0,0-.84,1.69,1.25,1.25,0,0,0,1.52.91l.06,0,4-1.32L56.65,22.9a1.4,1.4,0,0,0-.4,1V34.38H36.6a1.31,1.31,0,0,0-1.26,1.35v8.81H15.78a1.32,1.32,0,0,0-1.27,1.36v4H1.26a1.35,1.35,0,0,0,0,2.69Z" transform="translate(0.09 0.04)"></path><path d="M7.94,6.84h0A1.32,1.32,0,0,1,9.26,8.16v26.4a1.32,1.32,0,0,1-1.32,1.32h0a1.32,1.32,0,0,1-1.32-1.32V8.16A1.32,1.32,0,0,1,7.94,6.84Z" transform="translate(0.09 0.04)"></path><path d="M8,9.48A1.32,1.32,0,1,1,8,6.84H21.14a1.32,1.32,0,1,1,0,2.64Z" transform="translate(0.09 0.04)"></path><path d="M6.62,34.56h0a1.32,1.32,0,0,1,1.32-1.32H21.15a1.33,1.33,0,0,1,1.32,1.32h0a1.33,1.33,0,0,1-1.32,1.32H7.94A1.32,1.32,0,0,1,6.62,34.56Z" transform="translate(0.09 0.04)"></path><path d="M13.88,22.68a1.32,1.32,0,0,1,0-2.64H30.39a1.32,1.32,0,0,1,0,2.64Z" transform="translate(0.09 0.04)"></path><path d="M33.23,22.29,26.7,28.83A1.32,1.32,0,0,1,24.83,27l5.6-5.6-5.6-5.6a1.33,1.33,0,0,1,0-1.87,1.32,1.32,0,0,1,1.87,0l6.53,6.54A1.3,1.3,0,0,1,33.23,22.29Z" transform="translate(0.09 0.04)"></path><path id="exit1" class="cls-1" d="M65,80.56a0,0,0,0,1,0,0h0Zm0,0a0,0,0,0,1,0,0h0ZM0,1.31V42.19A1.31,1.31,0,0,0,1.31,43.5h0a1.31,1.31,0,0,0,1.31-1.31V2.62H48.73A1.31,1.31,0,0,0,50,1.31h0A1.31,1.31,0,0,0,48.73,0H1.31A1.31,1.31,0,0,0,0,1.31Z" transform="translate(0.09 0.04)"></path></svg>
