<svg id="Layer_1" data-name="Layer 1" xmlns="http://www.w3.org/2000/svg" viewBox="0 0 328 328"><title>subicons</title><path class="cls-1" d="M201,364c-90.43,0-164-73.57-164-164S110.57,36,201,36s164,73.57,164,164S291.43,364,201,364Zm0-313C118.84,51,52,117.84,52,200s66.84,149,149,149,149-66.84,149-149S283.16,51,201,51Z" transform="translate(-37 -36)"></path><path d="M210,171.47a42.1,42.1,0,0,0-4,2.79,38.19,38.19,0,0,0-3.68,3.27,33.87,33.87,0,0,0-5.28,7.52c-.37,1-.81,1.86-1.14,2.75,6.54-1,13.35-1.68,20.38-2.13a226.9,226.9,0,0,1,48.66,1.84c-1.8-9.72-16.63-17.43-38.48-21.45-.28,0-.53.06-.82.11-1,.19-2.12.27-3.32.58a38.43,38.43,0,0,0-3.85,1,33.41,33.41,0,0,0-4.17,1.56A47,47,0,0,0,210,171.47Z" transform="translate(-37 -36)"></path><path d="M193,188.23l0-.14a32.49,32.49,0,0,1,1.34-4.19,35.78,35.78,0,0,1,2.27-4.37,37.84,37.84,0,0,1,3.06-4.28,43.48,43.48,0,0,1,3.83-3.85,47,47,0,0,1,4.29-3.34,50.29,50.29,0,0,1,4.55-2.63c.76-.41,1.52-.76,2.27-1.09a232.78,232.78,0,0,0-36.09-1.09l-1.84.65-2.13,1a40.35,40.35,0,0,0-4.28,2.36,36.48,36.48,0,0,0-4,3,15.26,15.26,0,0,0-1.87,1.72c-.57.61-1.22,1.17-1.74,1.83l-1.56,1.92c-.5.65-.9,1.35-1.36,2a32.66,32.66,0,0,0-2.18,4,31.76,31.76,0,0,0-1.35,3.89,19.45,19.45,0,0,0-.72,3.38,16.51,16.51,0,0,0-.27,2.69c0,1.56-.06,2.45-.06,2.45a1,1,0,0,1-2,0s0-.89-.09-2.45a18.39,18.39,0,0,1,.13-2.91,21.36,21.36,0,0,1,.56-3.78,29.33,29.33,0,0,1,1.24-4.33,32.53,32.53,0,0,1,2.12-4.56c.44-.75.85-1.55,1.35-2.3l1.59-2.22c.54-.76,1.2-1.4,1.8-2.11a17.53,17.53,0,0,1,1.94-2,40.05,40.05,0,0,1,4.24-3.59,238.32,238.32,0,0,0-30.92,4.61c-.31.14-.64.25-1,.4a43.41,43.41,0,0,0-4.27,2.12,40.65,40.65,0,0,0-4.07,2.78,38.43,38.43,0,0,0-3.7,3.27,33.37,33.37,0,0,0-3,3.71,24.13,24.13,0,0,0-3.77,7.56,19.67,19.67,0,0,0-.78,3.28,14.92,14.92,0,0,0-.31,2.61c-.05,1.52-.08,2.39-.08,2.39a.88.88,0,0,1-.84.84.87.87,0,0,1-.89-.84s0-.87-.08-2.39a18.8,18.8,0,0,1,.14-2.83,22.52,22.52,0,0,1,.62-3.67,32.63,32.63,0,0,1,1.32-4.18,35.39,35.39,0,0,1,2.25-4.35,37.64,37.64,0,0,1,3-4.28c1.05-1.12,2.1-2.28,3.25-3.33-24.13,7.08-39.74,17.63-39.2,28.48a11.55,11.55,0,0,0,2.81,6.55c5.9,6.51,20.7,9.46,40.52,10.23C135.14,204.56,160.17,193.43,193,188.23Z" transform="translate(-37 -36)"></path><path d="M269.88,192.27c1.28.88,2.48,1.9,3.65,2.87a36.58,36.58,0,0,1,3.56,3.86,34.23,34.23,0,0,1,2.78,4,31.55,31.55,0,0,1,1.84,4,21.47,21.47,0,0,1,1.08,3.56,17.15,17.15,0,0,1,.5,2.79c.14,1.51.23,2.37.23,2.37a.88.88,0,0,1-.78,1,.86.86,0,0,1-.93-.73l-.39-2.36a14.38,14.38,0,0,0-.64-2.55,19.56,19.56,0,0,0-1.2-3.16,30.94,30.94,0,0,0-1.91-3.52,33.62,33.62,0,0,0-2.78-3.51,35,35,0,0,0-3.46-3.29,40.61,40.61,0,0,0-4.08-2.77,41.38,41.38,0,0,0-4.4-2.24,43.74,43.74,0,0,0-4.5-1.56c-.35-.11-.68-.18-1-.27a236.46,236.46,0,0,0-31.25-.64,41.1,41.1,0,0,1,4.66,3,19.3,19.3,0,0,1,2.19,1.75c.68.63,1.42,1.19,2,1.88s1.24,1.34,1.86,2,1.1,1.42,1.63,2.11a33,33,0,0,1,2.69,4.25,31.67,31.67,0,0,1,1.78,4.14,21.74,21.74,0,0,1,1,3.67,17,17,0,0,1,.49,2.87c.15,1.56.22,2.44.22,2.44a1,1,0,0,1-.9,1.1,1,1,0,0,1-1.1-.85s-.12-.88-.36-2.43a15.1,15.1,0,0,0-.62-2.63,20.1,20.1,0,0,0-1.14-3.27,28.68,28.68,0,0,0-1.84-3.68,30.67,30.67,0,0,0-2.67-3.73c-.54-.6-1-1.24-1.6-1.82s-1.2-1.13-1.81-1.72-1.3-1-2-1.58a14.93,14.93,0,0,0-2.07-1.47,38.26,38.26,0,0,0-4.39-2.49,41.59,41.59,0,0,0-4.55-1.79l-2.23-.68-1.9-.41A231.78,231.78,0,0,0,180,196.41c.78.23,1.58.49,2.38.79a50,50,0,0,1,4.85,2A46,46,0,0,1,191.9,202a42.35,42.35,0,0,1,4.29,3.33,37.91,37.91,0,0,1,3.58,3.86,34.66,34.66,0,0,1,2.81,4,36,36,0,0,1,1.87,4,22.45,22.45,0,0,1,1.09,3.58,17.7,17.7,0,0,1,.51,2.81c.15,1.51.23,2.38.23,2.38a1,1,0,0,1-2.05.26l-.38-2.36a14.34,14.34,0,0,0-.63-2.53,18.84,18.84,0,0,0-1.18-3.14,30.55,30.55,0,0,0-1.89-3.51,31.09,31.09,0,0,0-2.76-3.5,34.77,34.77,0,0,0-3.44-3.29,40.52,40.52,0,0,0-8.43-5,46.37,46.37,0,0,0-4.5-1.57,38.32,38.32,0,0,0-4.3-1c-1.39-.33-2.75-.35-4-.53s-2.36-.1-3.35-.15c-.3,0-.56,0-.83,0-22.09,7.07-36.13,17.14-35.47,27.47,1.09,17.12,41.5,18.71,91,15.53s89.39-9.87,88.29-27C311.71,204.76,294.83,196.22,269.88,192.27Z" transform="translate(-37 -36)"></path></svg>