<?xml version="1.0" encoding="utf-8"?>
<!-- Generator: Adobe Illustrator 22.1.0, SVG Export Plug-In . SVG Version: 6.00 Build 0)  -->
<svg version="1.1" id="Layer_1" xmlns="http://www.w3.org/2000/svg" xmlns:xlink="http://www.w3.org/1999/xlink" x="0px" y="0px"
	 viewBox="0 0 328 328" style="enable-background:new 0 0 328 328;" xml:space="preserve">
<style type="text/css">
	.st0{display:none;}
	.st1{display:inline;}
</style>
<title>subicons</title>
<path d="M165,328C74.6,328,1,254.4,1,164S74.6,0,165,0s164,73.6,164,164S255.4,328,165,328z M165,15C82.8,15,16,81.8,16,164
	s66.8,149,149,149s149-66.8,149-149S247.2,15,165,15z"/>
<path class="st0" d="M173,135.5c-1.4,0.9-2.7,1.8-4,2.8s-2.5,2.1-3.7,3.3c-2.1,2.3-3.9,4.8-5.3,7.5c-0.4,1-0.8,1.9-1.1,2.8
	c6.5-1,13.4-1.7,20.4-2.1c16.2-1.1,32.6-0.5,48.7,1.8c-1.8-9.7-16.6-17.4-38.5-21.4c-0.3,0-0.5,0.1-0.8,0.1c-1,0.2-2.1,0.3-3.3,0.6
	c-1.3,0.3-2.6,0.6-3.9,1c-1.4,0.4-2.8,0.9-4.2,1.6C175.8,134,174.4,134.7,173,135.5z"/>
<path class="st0" d="M156,152.2v-0.1c0.4-1.4,0.8-2.8,1.3-4.2c0.7-1.5,1.4-3,2.3-4.4c0.9-1.5,1.9-2.9,3.1-4.3
	c1.2-1.4,2.5-2.6,3.8-3.9c1.4-1.2,2.8-2.3,4.3-3.3s3-1.8,4.6-2.6c0.8-0.4,1.5-0.8,2.3-1.1c-12-1.3-24-1.7-36.1-1.1l-1.8,0.6l-2.1,1
	c-1.5,0.7-2.9,1.5-4.3,2.4c-1.4,0.9-2.7,1.9-4,3c-0.7,0.5-1.3,1.1-1.9,1.7c-0.6,0.6-1.2,1.2-1.7,1.8l-1.6,1.9
	c-0.5,0.6-0.9,1.4-1.4,2c-0.8,1.3-1.5,2.6-2.2,4c-0.5,1.3-1,2.6-1.4,3.9c-0.3,1.1-0.6,2.2-0.7,3.4c-0.2,0.9-0.3,1.8-0.3,2.7
	c0,1.6-0.1,2.4-0.1,2.4c0,0.6-0.4,1-1,1s-1-0.4-1-1c0,0,0-0.9-0.1-2.4c0-1,0-1.9,0.1-2.9c0.1-1.3,0.3-2.5,0.6-3.8
	c0.3-1.5,0.7-2.9,1.2-4.3c0.6-1.6,1.3-3.1,2.1-4.6c0.4-0.8,0.9-1.6,1.4-2.3l1.6-2.2c0.5-0.8,1.2-1.4,1.8-2.1c0.6-0.7,1.2-1.4,1.9-2
	c1.3-1.3,2.7-2.5,4.2-3.6c-10.4,0.9-20.7,2.4-30.9,4.6c-0.3,0.1-0.6,0.3-1,0.4c-1.5,0.6-2.9,1.3-4.3,2.1s-2.8,1.8-4.1,2.8
	c-1.3,1-2.5,2.1-3.7,3.3c-1.1,1.2-2.1,2.4-3,3.7c-1.7,2.3-3,4.8-3.8,7.6c-0.4,1.1-0.6,2.2-0.8,3.3c-0.2,0.9-0.3,1.7-0.3,2.6
	c-0.1,1.5-0.1,2.4-0.1,2.4c0,0.5-0.4,0.8-0.8,0.8c-0.5,0-0.9-0.4-0.9-0.8c0,0,0-0.9-0.1-2.4c0-0.9,0-1.9,0.1-2.8
	c0.1-1.2,0.3-2.5,0.6-3.7c0.3-1.4,0.8-2.8,1.3-4.2c0.6-1.5,1.4-3,2.3-4.4c0.9-1.5,1.9-2.9,3-4.3c1.1-1.1,2.1-2.3,3.3-3.3
	C63.6,142.6,48,153.1,48.5,164c0.2,2.4,1.2,4.7,2.8,6.6c5.9,6.5,20.7,9.5,40.5,10.2C98.1,168.6,123.2,157.4,156,152.2z"/>
<path class="st0" d="M232.9,156.3c1.3,0.9,2.5,1.9,3.6,2.9c1.3,1.2,2.5,2.5,3.6,3.9c1,1.3,1.9,2.6,2.8,4c0.7,1.3,1.3,2.6,1.8,4
	c0.5,1.2,0.8,2.3,1.1,3.6c0.2,0.9,0.4,1.8,0.5,2.8c0.1,1.5,0.2,2.4,0.2,2.4c0.1,0.5-0.3,0.9-0.7,1l0,0c-0.5,0-0.9-0.3-0.9-0.7
	l-0.4-2.4c-0.1-0.9-0.3-1.7-0.6-2.6c-0.3-1.1-0.7-2.1-1.2-3.2c-0.6-1.2-1.2-2.4-1.9-3.5c-0.8-1.2-1.8-2.4-2.8-3.5
	c-1.1-1.2-2.2-2.3-3.5-3.3s-2.7-1.9-4.1-2.8c-1.4-0.8-2.9-1.6-4.4-2.2c-1.5-0.6-3-1.1-4.5-1.6c-0.4-0.1-0.7-0.2-1-0.3
	c-10.4-0.9-20.8-1.1-31.3-0.6c1.6,0.9,3.2,1.9,4.7,3c0.8,0.5,1.5,1.1,2.2,1.8c0.7,0.6,1.4,1.2,2,1.9s1.2,1.3,1.9,2s1.1,1.4,1.6,2.1
	c1,1.3,1.9,2.8,2.7,4.3c0.7,1.3,1.3,2.7,1.8,4.1c0.4,1.2,0.8,2.4,1,3.7c0.2,0.9,0.4,1.9,0.5,2.9c0.1,1.6,0.2,2.4,0.2,2.4
	c0.1,0.5-0.3,1-0.9,1.1l0,0c-0.5,0.1-1-0.3-1.1-0.9c0,0-0.1-0.9-0.4-2.4c-0.1-0.9-0.3-1.8-0.6-2.6c-0.3-1.1-0.7-2.2-1.1-3.3
	c-0.5-1.3-1.1-2.5-1.8-3.7c-0.8-1.3-1.7-2.6-2.7-3.7c-0.5-0.6-1-1.2-1.6-1.8s-1.2-1.1-1.8-1.7s-1.3-1-2-1.6c-0.6-0.5-1.3-1-2.1-1.5
	c-1.4-0.9-2.9-1.8-4.4-2.5s-3-1.3-4.6-1.8l-2.2-0.7l-1.9-0.4c-12,1-23.9,2.8-35.5,5.6c0.8,0.2,1.6,0.5,2.4,0.8
	c1.7,0.6,3.3,1.2,4.9,2c1.6,0.8,3.2,1.8,4.7,2.8s2.9,2.1,4.3,3.3c1.3,1.2,2.5,2.5,3.6,3.9c1,1.3,2,2.6,2.8,4c0.7,1.3,1.3,2.6,1.9,4
	c0.5,1.2,0.8,2.4,1.1,3.6c0.2,0.9,0.4,1.9,0.5,2.8c0.1,1.5,0.2,2.4,0.2,2.4c0.1,0.6-0.3,1.1-0.9,1.2s-1.1-0.3-1.2-0.9L167,188
	c-0.1-0.9-0.3-1.7-0.6-2.5c-0.3-1.1-0.7-2.1-1.2-3.1c-0.6-1.2-1.2-2.4-1.9-3.5c-0.8-1.2-1.8-2.4-2.8-3.5c-1.1-1.2-2.2-2.3-3.4-3.3
	c-2.6-2-5.4-3.7-8.4-5c-1.5-0.6-3-1.1-4.5-1.6c-1.4-0.4-2.8-0.7-4.3-1c-1.4-0.3-2.8-0.4-4-0.5s-2.4-0.1-3.4-0.1c-0.3,0-0.6,0-0.8,0
	c-22.1,7.1-36.1,17.1-35.5,27.5c1.1,17.1,41.5,18.7,91,15.5s89.4-9.9,88.3-27C274.7,168.8,257.8,160.2,232.9,156.3z"/>
<path class="st0" d="M228.6,136.5c0-11.4-7.2-20.7-16.2-20.7c0-11.4-7.2-20.7-16.2-20.7C183,95.1,164,64,164,64s-19,31.1-32.3,31.1
	c-8.9,0-16.2,9.3-16.2,20.7c-8.9,0-16.2,9.3-16.2,20.7c-8.9,0-16.2,9.3-16.2,20.7s7.2,20.7,16.2,20.7H164h64.6
	c8.9,0,16.2-9.3,16.2-20.7S237.6,136.5,228.6,136.5z"/>
<path class="st0" d="M94.2,184.6c6.1,9.5,23.1,38.3,24.2,63.4h90.8c1.4-25.6,19-54.8,24.6-63.4H94.2z"/>
<g class="st0">
	<path class="st1" d="M70.5,173.6c0-1.1,0.7-2.2,2.1-3.1l4-2.7c1.5-1,2.3-2.4,2.3-3.7s-0.8-2.7-2.3-3.7l-4-2.7
		c-1.4-1-2.1-2.1-2.1-3.1c0-1.2,0.9-2.4,2.7-3.1l4.5-1.8c2-0.8,3.1-2.3,3.1-3.9c0-1.1-0.5-2.3-1.5-3.4l-3.4-3.5c-1-1-1.4-2-1.4-3
		c0-1.4,1.2-2.6,3.4-3l4.8-0.8c2.5-0.4,3.9-2.1,3.9-4c0-0.9-0.3-1.8-0.9-2.8l-2.6-4.1c-0.6-0.9-0.9-1.8-0.9-2.6c0-1.8,1.5-2.9,4-2.8
		l4.9,0.2c2.9,0.1,4.7-1.6,4.7-4c0-0.6-0.1-1.3-0.4-2l-1.7-4.6c-0.3-0.7-0.4-1.4-0.4-2c0-2.2,1.8-3.4,4.6-2.7l4.7,1.2
		c3.2,0.8,5.6-1,5.6-4.1c0-0.3,0-0.6-0.1-0.9l-0.7-4.9c0-0.3-0.1-0.7-0.1-1c0-2.9,2.2-4.2,5.1-2.7l4.4,2.1c3.3,1.6,6.2-0.1,6.4-3.7
		l0.3-4.9c0.3-3.6,2.8-4.8,5.7-2.5l3.9,3c2.9,2.2,6.1,1.2,7.1-2.3l1.4-4.7c1-3.5,3.8-4.1,6.1-1.3l3.1,3.7c2.4,2.8,5.7,2.5,7.4-0.8
		l2.3-4.3c1.7-3.2,4.5-3.2,6.3,0l2.3,4.3c1.7,3.2,5,3.6,7.4,0.8l3.2-3.7c2.3-2.8,5.1-2.2,6.1,1.3l1.4,4.7c1,3.5,4.2,4.5,7.1,2.3
		l3.9-3c2.9-2.2,5.5-1.1,5.7,2.5l0.3,4.9c0.3,3.6,3.2,5.3,6.4,3.7l4.4-2.1c3-1.5,5.1-0.2,5.1,2.7c0,0.3,0,0.6-0.1,1l-0.7,4.9
		c0,0.3-0.1,0.6-0.1,0.9c0,3.1,2.4,4.9,5.6,4.1l4.7-1.2c2.8-0.7,4.6,0.5,4.6,2.7c0,0.6-0.1,1.2-0.4,2L232,110
		c-0.3,0.7-0.4,1.4-0.4,2c0,2.4,1.8,4.1,4.8,4l4.9-0.2c2.5-0.1,4,1.1,4,2.8c0,0.8-0.3,1.7-0.9,2.6l-2.6,4.1c-0.6,1-0.9,1.9-0.9,2.8
		c0,2,1.4,3.6,3.9,4l4.8,0.8c2.2,0.4,3.4,1.6,3.4,3c0,0.9-0.5,1.9-1.4,3l-3.4,3.5c-1,1.1-1.5,2.2-1.5,3.4c0,1.6,1.1,3.1,3.1,3.9
		l4.5,1.8c1.8,0.7,2.7,1.9,2.7,3.1c0,1.1-0.7,2.2-2.1,3.1l-4,2.7c-1.5,1-2.3,2.4-2.3,3.7s0.8,2.7,2.3,3.7l4,2.7
		c1.4,0.9,2.1,2.1,2.1,3.1c0,1.2-0.9,2.4-2.7,3.1l-4.5,1.8c-2,0.8-3.1,2.3-3.1,3.9c0,1.1,0.5,2.3,1.5,3.4l3.4,3.5c1,1,1.4,2,1.4,3
		c0,1.4-1.2,2.6-3.4,3l-4.8,0.9c-2.5,0.4-3.9,2-3.9,4c0,0.9,0.3,1.8,0.9,2.8l2.6,4.1c0.6,0.9,0.9,1.8,0.9,2.6c0,1.8-1.5,2.9-4,2.8
		l-4.9-0.2c-2.9-0.1-4.8,1.6-4.8,4c0,0.6,0.1,1.3,0.4,2l1.7,4.6c0.3,0.7,0.4,1.4,0.4,2c0,2.2-1.8,3.4-4.6,2.7l-4.7-1.2
		c-3.2-0.8-5.6,1-5.6,4.1c0,0.3,0,0.6,0.1,0.9l0.7,4.8c0,0.3,0.1,0.7,0.1,1c0,2.9-2.2,4.2-5.1,2.7l-4.4-2.1
		c-3.3-1.6-6.2,0.1-6.4,3.7l-0.3,4.9c-0.3,3.6-2.8,4.8-5.7,2.5l-3.9-3c-2.9-2.2-6.1-1.2-7.1,2.3l-1.4,4.7c-1,3.5-3.8,4.1-6.1,1.3
		l-3.2-3.7c-2.4-2.8-5.7-2.4-7.4,0.8l-2.3,4.3c-1.7,3.2-4.5,3.2-6.3,0l-2.3-4.3c-1.7-3.2-5-3.6-7.4-0.8l-3.1,3.7
		c-2.4,2.8-5.1,2.2-6.1-1.3l-1.4-4.7c-1-3.5-4.2-4.5-7.1-2.3l-3.9,3c-2.9,2.2-5.5,1.1-5.7-2.5l-0.3-4.9c-0.3-3.6-3.2-5.3-6.4-3.7
		l-4.4,2.1c-3,1.5-5.1,0.2-5.1-2.7c0-0.3,0-0.6,0.1-1l0.7-4.8c0-0.3,0.1-0.6,0.1-0.9c0-3.1-2.4-4.9-5.6-4.1l-4.7,1.2
		c-2.8,0.7-4.6-0.5-4.6-2.7c0-0.6,0.1-1.2,0.4-2l1.7-4.6c0.3-0.7,0.4-1.4,0.4-2c0-2.4-1.8-4.1-4.7-4l-4.9,0.2c-2.5,0.1-4-1.1-4-2.8
		c0-0.8,0.3-1.7,0.9-2.6l2.6-4.1c0.6-1,0.9-1.9,0.9-2.8c0-2-1.4-3.6-3.9-4l-4.8-0.9c-2.2-0.4-3.4-1.5-3.4-3c0-0.9,0.5-1.9,1.4-3
		l3.4-3.5c1-1.1,1.5-2.2,1.5-3.4c0-1.6-1.1-3.1-3.1-3.9l-4.5-1.8C71.4,175.9,70.5,174.8,70.5,173.6z"/>
</g>
<g class="st0">
	<g class="st1">
		<path d="M248.3,144.1c-2.5-3-7-3.5-10.1-0.9l-41,34.2H92.3c-4,0-7.2,3.2-7.2,7.2v33c0,17.4,14.1,31.5,31.5,31.5h94.7
			c17.4,0,31.5-14.1,31.5-31.5v-33c0-4-3.2-7.2-7.2-7.2h-16l27.8-23.2C250.5,151.6,250.9,147.1,248.3,144.1"/>
		<path d="M128.2,155.8c1.8,0,3.7-0.7,5.1-2.1L162,125c2.6-2.6,2.8-6.7,0.5-9.5l-28.7-35.8c-1.2-1.5-3-2.5-4.9-2.7
			c-1.9-0.2-3.8,0.4-5.3,1.6l-43,35.8c-1.7,1.4-2.7,3.6-2.6,5.9s1.3,4.3,3.2,5.6l43,28.7C125.4,155.4,126.8,155.8,128.2,155.8"/>
		<path d="M171.2,148.7c4,0,7.2-3.2,7.2-7.2s-3.2-7.2-7.2-7.2s-7.2,3.2-7.2,7.2S167.2,148.7,171.2,148.7"/>
		<path d="M156.8,155.8c-4,0-7.2,3.2-7.2,7.2s3.2,7.2,7.2,7.2s7.2-3.2,7.2-7.2S160.8,155.8,156.8,155.8"/>
	</g>
</g>
<g class="st0">
	<g class="st1">
		<g>
			<path d="M102.7,241.2c0,1.4-1,3.1-2.1,3.8l-9,7.6c-1,0.7-2.4,1.4-3.4,1.4c-1.7,0-3.1-0.7-4.1-1.7l-28.3-32.1
				c-1.4-1.4-2.1-3.1-1.7-4.5c0-1.4,1-3.1,2.1-3.8l9.3-7.2c2.1-2.1,5.5-1.7,7.6,0.3l28.3,32.1C102.3,238.1,103,239.5,102.7,241.2z"
				/>
		</g>
	</g>
	<g class="st1">
		<g>
			<g>
				<path d="M266.8,182.6c-0.3,0.3-1.4,2.4-6.9,5.2c-1.7,1-43.8,21.4-58.3,30.3c-5.2,3.1-11,4.5-16.9,3.1c-0.3,0-53.1-8.3-80.7,8.3
					l-22-24.8c8.3-3.4,19.6-9,29.3-14.5c17.9-10.7,14.8-16.9,37.9-11.7c42.4,10.3,46.2,5.5,52.4,8.6c4.5,2.4,2.8,5.5,2.4,7.6
					c0,0-0.3,0.7-1,0.7c-1.4,1-5.9,3.4-18.6,1.7c-2.1-0.3-22.1-1.7-31.4,4.8c-1.7,1-2.1,3.4-1,4.8c1,1.7,3.4,2.1,4.8,1
					c6.2-4.1,21.4-4.1,26.5-3.4c13.8,2.1,28.6,0.7,27.9-13.1l45.8-12.4C257.1,178.8,264.7,177.1,266.8,182.6L266.8,182.6z"/>
			</g>
		</g>
		<g>
			<path d="M152,146.4l1-14.1c0-1.7-1.4-3.4-3.1-3.8c-2.1,0-3.4,1.4-3.8,3.1l-0.7,8.3l-18.3-18.3c-1.4-1.4-3.4-1.4-4.8,0
				s-1.4,3.4,0,4.8l17.9,17.9l-7.2,0.3c-1.7,0-3.4,1.7-3.4,3.4s1.7,3.4,3.4,3.4l0,0l13.4-0.7l25.2,25.2c-26.5-4.5-33.1-9.7-45.5-4.8
				c-25.9-19.3-41.4-50.3-41.4-83.8c0-2.1,1.4-3.4,3.4-3.4c28.3,0,54.5,11,74.5,31c11.7,11.7,20.3,25.5,25.5,41
				c-3.1,6.2-5.5,12.8-6.9,19.6L152,146.4z"/>
		</g>
		<g>
			<path d="M180.9,184.7h-1c0-0.3,0-0.3,0-0.7C180.2,184,179.6,183.6,180.9,184.7z"/>
		</g>
		<g>
			<path d="M274,114.7c0,22.1-8.6,43.1-23.4,58.6l-41.4,11.4c-0.7-0.7-1-1.4-1.7-1.7l16.5-16.5l10.3,0.3l0,0c1.7,0,3.4-1.4,3.4-3.4
				c0-1.7-1.4-3.4-3.4-3.4l-4.1-0.3l13.1-13.1c1.4-1.4,1.4-3.4,0-4.8c-1.4-1.4-3.4-1.4-4.8,0L225.4,155l-0.3-5.2
				c0-2.1-1.7-3.4-3.8-3.1c-1.7,0-3.4,1.7-3.1,3.8l1,11l-18.3,18.3c-3.8-1-4.5-0.3-13.1-1c3.4-16.2,11.4-30.7,23.1-42.4
				c16.2-16.2,37.6-24.8,60-24.8C272.6,111.3,274,112.6,274,114.7z"/>
		</g>
	</g>
</g>
<g class="st0">
	<g class="st1">
		<path d="M168.9,98.8l14.7,7.3l14.7-7.3c1.3-0.7,2.8-1,4.2-1h17.7c-3.4-13.2-13.8-23.7-27.1-27.2c0.1-4.4,0.4-8.7,1.1-10.8
			c4.7-0.6,8.3-4.6,8.3-9.4c0-5.2-4.2-9.5-9.5-9.5c-15.9,0-18.4,14.8-18.8,29.6c-13.3,3.4-23.8,13.9-27.2,27.2h17.7
			C166.1,97.8,167.5,98.1,168.9,98.8z"/>
		<path d="M204.7,116.7l-16.9,8.5c-1.3,0.7-2.8,1-4.2,1s-2.9-0.3-4.2-1l-16.9-8.5h-17.1c-4.1,50.7-36.6,156.9-37,158.1
			c-0.9,2.9-0.4,6,1.4,8.4s4.6,3.8,7.6,3.8c58.8,0,95.8-131.4,102.8-170.3L204.7,116.7L204.7,116.7z"/>
	</g>
</g>
<g class="st0">
	<path class="st1" d="M250.2,163.9c26.2,0.8,25.9-9.2,32.3-28.4l-46.8,14.8c-25.1-12-22.3-20.4-47.4-31.2
		c-22.6-10-56.9-16.7-81.1-9.2c-29,8.9-39.3,24.5-61.1,49.6c-14.8,17.3,20.3,36.8,53,42.7c0.8,0.3,2.8-2,4.7-5.9
		c5-9.5,8.1-22.9,7-33.5c-1-7.9-3.6-15.2-5-18.5c1.8,3.8,4.9,10,5.8,17.9c1.7,13.4-2.2,29.5-10.6,40.1c-3.6,4.7,57.4,2,65.5,0
		c23.7-6.4,48.2-23.1,68.6-26.2l45.4,27C275.3,177.8,276.4,166.4,250.2,163.9z M70.9,157.7c-2.5,0-4.7-2.2-4.7-4.7s2.2-4.7,4.7-4.7
		c2.8,0,4.7,2.2,4.7,4.7S73.7,157.7,70.9,157.7z"/>
</g>
<path class="st0" d="M203.4,76.6c-3.9,0.3-7.7,1.1-11.4,2.3c-0.1,0-0.2,0-0.3,0c-0.2,0.1-0.5-0.1-0.7,0v0.3
	c-6.8,2-11.9,5.9-15.7,9.7l-9.7,9.7l15.4,15.1l9.4-9.7c2.4-2.4,6-4.4,7-4.7c0.3-0.1,0.7-0.2,1-0.3c8.4-3,15.2-1.9,19.8,4.7
	c0.4,0.7,0.8,1.4,1.3,2c8.3,7.6,8.5,20.6-0.3,29.5L184,170.4c-4.1,4.1-9.6,6.1-15.1,6.4c-6.1-0.9-10.6-2.2-14.7-6.4l-15.4,15.4
	c8.5,8.5,19,11.2,27.5,12.4c0.5,0.2,1.1,0.3,1.7,0.3c11.3,0,22.6-4.2,31.2-12.7l35.5-35.5c16.3-16.3,16.6-42.5,1-58.6
	c-0.6-0.6-0.7-1.4-1.3-2l-0.7,0.7c-5.1-6.2-11.3-11-18.4-12.7C211.3,76.7,207.3,76.4,203.4,76.6L203.4,76.6z M153.8,126.2
	c-3.8,0.3-7.4,1-11.1,2.3v-0.3c-0.4,0.1-0.4,0.2-0.7,0.3c-0.2,0.1-0.5-0.1-0.7,0v0.3c-2.9,1-4.7,2-6.7,3.4c-2.4,1.6-5,3.4-7.4,5.4
	c-4.3,3.5-7.7,7-10.7,10.7l-0.3-0.3l-1,1.3l-25.8,25.5c-16.6,16.6-16.8,43.6-0.3,59.6c0.3,0.3,0.4,0.7,0.7,1l0.3-0.3
	c11.4,12,28.2,15,42.9,10.1c0-0.1,0.2,0,0.3,0c0.2-0.1,0.5,0.1,0.7,0v-0.3c6.8-2,11.9-5.9,15.7-9.7l9.7-9.7L144,210.4l-9.4,9.7
	c-2.4,2.4-6,4.4-7,4.7c-0.3,0.1-0.7,0.2-1,0.3c-8.4,3-15.9,1.6-21.4-4.7c-0.3-0.2-0.7-0.5-1-0.7c-8.3-7.6-8.5-20.9,0.3-29.8
	l26.8-26.8c0.4-0.3,0.7-0.6,1-1c0,0,4.7-4.7,8.7-8c2-1.7,4.1-3,5.7-4c0.8-0.5,1.6-0.8,2-1c0.2-0.2,0.5-0.4,0.7-0.7
	c6-2.4,16-0.1,21.4,5.4l15.4-15.4c-5.9-5.9-13.3-9.6-21.1-11.4C161.5,126.1,157.6,125.9,153.8,126.2z"/>
<g class="st0">
	<g class="st1">
		<path d="M238.1,162.4H205V93.7c0-4.5-3.5-8-8-8h-67.9c-4.5,0-8,3.5-8,8v68.7H92c-6.8,0-10.7,7.8-6.6,13.3l71,90.7
			c3.3,4.5,10,4.5,13.3,0l75.1-90.9C248.7,170,244.8,162.4,238.1,162.4z M183.7,209.6c-2.9,3.7-6.8,6.2-11.5,7.8v8.2
			c0,0.8-0.4,1-1.2,1h-12.3c-0.8,0-1-0.4-1-1v-8c-2.5-0.8-4.7-1.8-6.6-3.1c-2-1.4-3.7-2.9-5.3-4.7c-1.4-1.8-2.5-3.9-3.3-6
			c-0.8-2.3-1.2-4.7-1.2-7c0-0.8,0.4-1,1.2-1h15c0.4,0,0.6,0,0.8,0.2s0.4,0.4,0.4,0.8c0,1.4,0.6,2.3,2,3.3s2.7,1.4,4.5,1.4
			s3.3-0.6,4.7-1.8c1.2-1.2,2-2.3,2-3.5c0-0.6,0-1,0-1.4s-0.2-0.8-0.6-1.2c-1.4-1.2-3.9-2.3-7.8-3.3c-2.9-0.8-5.7-1.8-7.8-2.7
			c-2.1-1-4.1-2.1-5.9-3.3c-5.3-3.9-7.8-9.2-7.8-15.6c0-2.9,0.8-5.5,2.1-8c1.4-2.5,3.3-4.7,5.9-6.4s5.3-3.1,8.4-3.9v-8
			c0-0.4,0-0.6,0.2-0.8s0.4-0.4,0.8-0.4h12.3c0.4,0,0.6,0.2,0.8,0.4s0.4,0.6,0.4,0.8v8c3.7,1.2,7,2.9,9.8,5.5s4.7,5.7,5.7,9
			c0.2,0.8,0,1.2-0.6,1.4l-14.2,4.5c-0.2,0-0.2,0-0.4,0c-0.6,0-0.8-0.2-1-0.8c-0.4-1.2-1.2-2.1-2.5-2.7c-1.4-0.6-2.5-1-3.9-1
			c-2,0-3.5,0.4-4.5,1c-1.2,0.6-1.8,1.2-2,1.4c0,0.2,0,0.4,0.2,0.8s0.6,0.8,1.2,1.2c0.6,0.4,1.4,0.8,2.5,1.4s2.7,1,4.7,1.6
			c2.3,0.6,4.7,1.4,7,2.3c2.5,1,4.7,2.3,6.8,3.9c2.5,2,4.5,4.3,5.7,7c1.4,2.7,2,5.9,2,9.2C188.8,201,187,205.5,183.7,209.6z"/>
	</g>
</g>
<path class="st0" d="M232.6,86.7h-29.7c-2.1,0-3.7,1.7-3.7,3.7v40.9h-14.9v-26c0-2.1-1.6-3.7-3.7-3.8c-0.8,0-1.5,0.2-2.1,0.6
	L139.7,128v-22.8c0-2.1-1.6-3.7-3.7-3.8c-0.8,0-1.5,0.2-2.1,0.6l-44.6,29.7c-1,0.7-1.6,1.9-1.6,3.1v96.6c0,2.1,1.7,3.7,3.7,3.7
	h141.2c2.1,0,3.7-1.7,3.7-3.7v-141C236.3,88.3,234.7,86.7,232.6,86.7z M202.9,198.2h-81.8c-2.1,0-3.7-1.7-3.7-3.7s1.7-3.7,3.7-3.7
	h81.8c2.1,0,3.7,1.7,3.7,3.7S204.9,198.2,202.9,198.2z M202.9,175.9h-81.8c-2.1,0-3.7-1.7-3.7-3.7c0-2.1,1.7-3.7,3.7-3.7h81.8
	c2.1,0,3.7,1.7,3.7,3.7C206.6,174.2,204.9,175.9,202.9,175.9z"/>
<g class="st0">
	<path class="st1" d="M184.3,59.9L184.3,59.9c-0.6-1-1.2,0.1-1.7,0.6c-10.4,11.5-21,22.8-31.3,34.4c3,0,11.9,0,22.1,0v79.6h-21.6
		v20.6h42.1V94.9c10.3,0,19.1,0,22.1,0C205.6,83.2,195,71.5,184.3,59.9z"/>
	<path class="st1" d="M148.5,149.5h21.6v-20.6H128V229c-10.3,0-19.1,0-22.1,0c10.6,11.7,21.2,23.3,31.9,35l0,0
		c0.6,1,1.2-0.2,1.7-0.6c10.4-11.5,21-22.8,31.3-34.4c-3,0-11.9,0-22.1,0L148.5,149.5L148.5,149.5z"/>
	<path class="st1" d="M124.5,174.5H93.9c0-10.3,0-19.1,0-22.1c-11.7,10.6-23.3,21.2-35,31.9l0,0c-1,0.6,0.2,1.2,0.6,1.7
		c11.5,10.4,22.8,21,34.4,31.3c0-3,0-11.9,0-22.1h30.6V174.5L124.5,174.5z"/>
	<path class="st1" d="M262.5,138.1c-11.5-10.4-22.8-21-34.4-31.3c0,3,0,11.8,0,22.1h-30.6v20.6h30.6c0,10.3,0,19.1,0,22.1
		c11.7-10.6,23.3-21.2,35-31.9l0,0C264.1,139.2,262.9,138.6,262.5,138.1z"/>
</g>
<path class="st0" d="M234.5,138.4c3.2-4.7,5-10.4,5-16.7c0-16.4-13.3-29.7-29.7-29.7c-5,0-9.7,1.3-13.9,3.4
	c-0.5-0.2-0.9-0.4-1.4-0.7c-9.5-4.3-20.2-6.7-30.9-6.7c-11.9,0-23.4,2.7-34,8.1c-1.3,0.7-2.7,1.4-4,2.2C122,96.7,118,96,113.9,96
	c-16.4,0-29.7,13.3-29.7,29.7c0,7,2.5,13.5,6.5,18.5c-1.6,6.1-2.5,12.6-2.5,19.3c0,20.2,7.7,39,21.9,53.3s33.1,21.9,53.3,21.9
	c0.5,0,1.1,0,1.4,0c5.4,7,13.9,11.5,23.6,11.5c16.4,0,29.7-13.3,29.7-29.7c0-1.6-0.2-3.4-0.4-5c13.1-13.7,20.9-32.2,20.9-52
	C238.9,154.7,237.4,146.3,234.5,138.4z M96.7,125.4c0-9.5,7.7-17.3,17.3-17.3s17.3,7.7,17.3,17.3s-7.7,17.3-17.3,17.3
	S96.7,135,96.7,125.4z M188.7,237.5c-9.5,0-17.3-7.7-17.3-17.3c0-9.5,7.7-17.3,17.3-17.3s17.3,7.7,17.3,17.3
	C205.8,229.8,198,237.5,188.7,237.5z M202.2,193.8c-4.1-2.2-8.6-3.2-13.7-3.2c-13.7,0-25.2,9.2-28.6,21.8
	c-25.5-1.8-45.7-23.2-45.7-49.1c0-2.7,0.2-5.4,0.7-8.1c16-0.5,28.8-13.5,28.8-29.7c0-2.5-0.4-4.9-0.9-7c6.3-2.9,13.5-4.5,20.7-4.5
	c5.9,0,11.7,1.1,17.1,3.1c-0.2,1.6-0.4,3.1-0.4,4.7c0,16.4,13.3,29.7,29.7,29.7c0.5,0,0.9,0,1.4,0c0.9,3.8,1.4,7.7,1.4,11.9
	C213,174.5,209,185.3,202.2,193.8z M210.1,138.9c-9.5,0-17.3-7.7-17.3-17.3s7.7-17.3,17.3-17.3s17.3,7.7,17.3,17.3
	C227.3,131.2,219.6,138.9,210.1,138.9z"/>
<g class="st0">
	<path class="st1" d="M241.7,175.6c-5.8,2.1-15,4.5-25.4,6.9c-3.7,6-10.3,11-20.8,12.9c-2.4,0.4-5.2,0.6-8.2,0.9
		c-7.3,0.2-15.9-0.6-25.4-1.3c-0.6,0-1.3,0-1.9-0.2c-2.4-0.2-4.3-1.9-4.5-4.3c-0.2-3,2.1-5.4,4.9-5.2c0.6,0,1.5,0.2,2.1,0.2
		c12.2,1.1,23.8,2.1,31.2,0.6c13.5-2.6,17.4-10.7,16.5-17.6c-0.6-5.6-4.9-11-11.6-10.5c-9.5,0.6-20.6,0-31.6-0.9
		c-12.5-0.9-25.1-1.3-34.2-0.2c-10.1,1.1-30.5,8.6-48.6,20.8c-8.8,6-18.7,13.1-24.7,17.6c-3,2.1-3.7,6.4-1.3,9.5l26.2,33.9
		c2.1,3,6.4,3.4,9.5,1.3l9.7-7.5c2.4-1.7,5.4-2.4,7.9-1.5c17.6,5.6,36.5,9.2,48.8,9.9c26.9,1.3,78.6-30.5,93.5-40.8
		C268.8,190.2,258,169.6,241.7,175.6z"/>
	<path class="st1" d="M131.7,124c1.1,1.1,2.8,1.1,3.9,0l8.6-8.6l8.4,8.4c1.1,1.1,2.8,1.1,3.9,0l8.6-8.4l9.7,9.7
		c0.4,0.4,1.3,0.9,1.9,0.9h14.8c5.8,10.1,16.5,17.2,29,17.2c18.5,0,33.3-14.8,33.3-33.3S239,76.6,220.5,76.6
		c-12.5,0-23.2,6.9-29,17.2h-56.7c-0.6,0-1.5,0.2-1.9,0.9L119.4,108c-1.1,1.1-1.1,2.8,0,3.9L131.7,124z M231.8,100.4
		c5.2,0,9.2,4.1,9.2,9.2s-4.1,9.2-9.2,9.2c-5.2,0-9.2-4.1-9.2-9.2S226.7,100.4,231.8,100.4z"/>
</g>
<path class="st0" d="M183,131.1c-0.8,0.7-13.6,12.2-29.4,26.3c2.5,3.1,5.5,6.4,9,9.9c4.5,4.4,8.6,8,12.4,11
	c15.3-17.1,27.8-31.1,28.5-31.8c1.7-1.9,3.1-1.3,3.8-1.1c12.6,3.6,26.7,0.4,33.2-13.1c6-12.5,1.1-22.1-2.9-28.7
	c-1-1.6-2.5-0.6-2.9,0.2c-0.4,0.9-7.6,15.8-7.6,15.8c-1.9,4-6.6,7-16,2.5s-10-10-8-14c0,0,6.7-14,7.6-15.8c0.9-1.9-0.5-2.3-1.3-2.2
	c-7.7,1-18.3,3.2-24.3,15.7c-3.4,7.2-3.2,14.2-0.7,20.3C184.8,126.9,185.2,129.2,183,131.1z M125.7,204.1
	c-3.8-3.8-7.5-7.8-11.1-11.9c-13.8,12.3-24.1,21.6-24.1,21.6c-0.5,0.5-1.1,1-1.6,1.5c-7.2,8.1-6.5,20.5,1.6,27.8
	c8.1,7.2,20.5,6.5,27.8-1.6c0,0,9.3-10.4,21.7-24.3C135,213,130.2,208.6,125.7,204.1z M99.4,87.5C84.8,102.3,84,121.1,84,121.1
	c3.6,18.2,24,51.4,48.7,76.1s57.9,45.1,76.1,48.7c0,0,18.8-0.8,33.6-15.4l0,0l8.7-8.7c1.2-1.1,1.2-3.1,0-4.2l-37-37
	c-1.2-1.1-3.1-1.1-4.2,0l-8.7,8.7l0,0l-8.2,10.2c0,0-15.6-3.4-37.4-25.2c-21.9-21.8-25.2-37.4-25.2-37.4l10.2-8.2l0,0l0.3-0.3l0,0
	l0,0l8.4-8.4c1.2-1.2,1.2-3.1,0-4.2l-37-37c-1.2-1.2-3-1.2-4.2,0L99.4,87.5L99.4,87.5z"/>
<g class="st0">
	<path class="st1" d="M178.5,104.4C181,116.7,191.9,126,205,126c14.9,0,27-12.1,27-27s-12.1-27-27-27c-13,0-24,9.3-26.5,21.6h-34.1
		V160h-11.3v-27.3H77.8v65.9h55.3v-27.8h11.3v66.4h34.1c2.5,12.3,13.4,21.6,26.5,21.6c14.9,0,27-12.1,27-27s-12.1-27-27-27
		c-13,0-24,9.3-26.5,21.6h-23.4v-55.7h23.3c2.4,12.4,13.4,21.9,26.5,21.9c14.9,0,27-12.1,27-27s-12.1-27-27-27
		c-13,0-23.8,9.2-26.4,21.4h-23.4v-55.6L178.5,104.4L178.5,104.4z"/>
</g>
<g class="st0">
	<polygon class="st1" points="113.8,130.8 126.6,108.8 113.8,86.7 88.4,86.7 75.7,108.8 88.4,130.8 	"/>
	<polygon class="st1" points="178.7,130.8 191.4,108.8 178.7,86.7 153.3,86.7 140.6,108.8 153.3,130.8 	"/>
	<polygon class="st1" points="243.6,130.8 256.3,108.8 243.6,86.7 218.2,86.7 205.4,108.8 218.2,130.8 	"/>
	<polygon class="st1" points="178.7,186.9 191.4,164.9 178.7,142.8 153.3,142.8 140.6,164.9 153.3,186.9 	"/>
	<path class="st1" d="M218.2,142.8l-12.7,22l5.9,10.2l-27.8,32.2l-4.8-8.4h-25.4l-4.8,8.4L120.8,175l5.9-10.2l-12.7-22H88.4
		l-12.7,22l12.7,22h25.4l3.6-6.2l27.8,32.2l-4.7,8.1l12.7,22h25.4l12.7-22l-4.7-8.1l27.8-32.2l3.6,6.2h25.4l12.7-22l-12.7-22H218.2z
		 M110.3,180.8H91.9l-9.2-16l9.2-16h18.4l9.2,16L110.3,180.8z M175.2,236.9h-18.4l-9.2-16l9.2-16h18.4l9.2,16L175.2,236.9z
		 M240.1,180.8h-18.4l-9.2-16l9.2-16h18.4l9.2,16L240.1,180.8z"/>
	<polygon class="st1" points="88.4,198.9 75.7,221 88.4,243 113.8,243 126.6,221 113.8,198.9 	"/>
	<polygon class="st1" points="218.2,198.9 205.4,221 218.2,243 243.6,243 256.3,221 243.6,198.9 	"/>
</g>
<g class="st0">
	<path class="st1" d="M184,171.8l50.7-50.7c-0.9-1.4-1.8-2.8-2.8-4.2l-51.9,52L184,171.8z"/>
	<path class="st1" d="M175.4,165.5l53.1-53.1c-1-1.3-2.1-2.5-3.2-3.7l-53.9,53.9L175.4,165.5z"/>
	<path class="st1" d="M209.2,95.1l-41.8,41.8v6.9l45.9-45.9C211.9,96.9,210.6,96,209.2,95.1z"/>
	<path class="st1" d="M199.6,89.8L167.3,122v6.9L204.2,92C202.7,91.3,201.2,90.5,199.6,89.8z"/>
	<path class="st1" d="M189,85.6l-21.6,21.6v6.9l26.8-26.8C192.4,86.7,190.7,86.1,189,85.6z"/>
	<path class="st1" d="M176.9,82.8l-9.5,9.5v6.9l15.4-15.4C180.8,83.4,178.8,83.1,176.9,82.8z"/>
	<path class="st1" d="M217.7,101.4l-50.4,50.4v6.9l54-54C220.2,103.6,218.9,102.5,217.7,101.4z"/>
	<path class="st1" d="M167.3,81.9v2.5l2.4-2.4C168.9,82,168.1,81.9,167.3,81.9z"/>
	<path class="st1" d="M192.5,178.1l47.2-47.2c-0.7-1.6-1.5-3.2-2.3-4.7l-49,49L192.5,178.1z"/>
	<path class="st1" d="M209.7,190.6l36.5-36.5c-0.2-2-0.6-4-0.9-6l-39.5,39.5L209.7,190.6z"/>
	<path class="st1" d="M201.1,184.3l42.6-42.6c-0.5-1.8-1-3.5-1.7-5.3l-44.9,44.9L201.1,184.3z"/>
	<path class="st1" d="M226.9,203.2l16.9-16.9c0.8-2.9,1.5-5.9,1.9-8.9l-22.8,22.9L226.9,203.2z"/>
	<path class="st1" d="M246.8,161.5L214.3,194l4,2.9l28.4-28.4c0.1-1.4,0.1-2.9,0.1-4.3C246.8,163.3,246.8,162.4,246.8,161.5z"/>
	<path class="st1" d="M234,208.3c1.9-3,3.7-6.2,5.2-9.5l-7.7,7.7L234,208.3z"/>
	<path class="st1" d="M161.2,163.2V81.7C117.2,83.3,82,119.6,82,164c0,45.4,36.9,82.4,82.4,82.4c26.8,0,50.7-12.9,65.8-32.9l0,0
		L161.2,163.2L161.2,163.2z"/>
</g>
<g transform="translate(0,-952.36218)" class="st0">
	<path class="st1" d="M187.8,1022c-11.5,0-20.9,9.4-20.9,20.9c0,8.1,4.7,15.1,11.4,18.5l-8.3,33.1c-3-0.9-6.1-1.5-9.4-1.5
		c-7.3,0-13.9,2.5-19.3,6.7l-32.2-27.2c2.2-3.1,3.5-6.8,3.5-10.8c0-10.3-8.5-18.8-18.8-18.8s-18.8,8.5-18.8,18.8s8.5,18.8,18.8,18.8
		c3.3,0,6.3-0.9,9-2.3l32.7,27.5c-3.9,5.2-6.2,11.7-6.2,18.7c0,7.1,2.4,13.7,6.5,18.9l-21.2,21.3c-4.1-2.9-9.1-4.7-14.5-4.7
		c-13.8,0-25.1,11.3-25.1,25.1s11.3,25.1,25.1,25.1s25.1-11.3,25.1-25.1c0-5.4-1.8-10.4-4.7-14.5l21.2-21.2c5.3,4,11.9,6.5,19,6.5
		c10.5,0,19.7-5.2,25.4-13.1l31.5,14.9c-0.3,1.5-0.5,3-0.5,4.5c0,12.6,10.3,23,23,23c12.6,0,23-10.3,23-23c0-12.6-10.3-23-23-23
		c-8.2,0-15.4,4.4-19.5,10.8l-30.6-14.6c1.3-3.4,2-7.1,2-10.9c0-3-0.5-6-1.3-8.7l31.1-20.7c3.5,3.9,8.5,6.5,14.1,6.5
		c10.3,0,18.8-8.5,18.8-18.8s-8.5-18.8-18.8-18.8s-18.8,8.5-18.8,18.8c0,1.7,0.2,3.3,0.7,4.9l-30.5,20.4c-2.4-3.9-5.6-7.2-9.5-9.7
		l8.6-34.4c0.5,0,1,0.1,1.4,0.1c11.5,0,20.9-9.4,20.9-20.9C208.3,1029,197.8,1022.6,187.8,1022z"/>
</g>
<path class="st0" d="M219.1,159.8v-11.2c0-17-13.7-30.7-30.7-30.7h-10.2V77H76v102.2h40.9v10.2c0,17,13.7,30.7,30.7,30.7h11.2
	c4.7,23.3,25.4,40.9,50.1,40.9c28.2,0,51.1-22.9,51.1-51.1C260,185.2,242.4,164.5,219.1,159.8z M116.9,148.6v10.2H96.4V97.4h61.3
	v20.4h-10.2C130.6,117.9,116.9,131.6,116.9,148.6z M158.8,199.7h-11.2c-5.7,0-10.2-4.5-10.2-10.2v-40.9c0-5.7,4.5-10.2,10.2-10.2
	h40.9c5.7,0,10.2,4.5,10.2,10.2v11.2C178.6,163.9,162.9,179.6,158.8,199.7z M208.9,240.6c-17,0-30.7-13.7-30.7-30.7
	s13.7-30.7,30.7-30.7s30.7,13.7,30.7,30.7S225.9,240.6,208.9,240.6z"/>
<g class="st0">
	<path class="st1" d="M238.2,93.1c-23.3-23.3-60.9-23.3-84.2,0c-21.7,21.7-23,55.4-4.7,78.7l-7.7,7.7c-3.8-3-7.1-4.7-8.5-3.3
		l-6.6,6.6l21.9,21.9l6.6-6.6c1.4-1.4-0.3-4.7-3.3-8.5l7.7-7.7c23.3,18.4,57.3,16.7,78.7-4.7C261.5,154,261.5,116.2,238.2,93.1z
		 M164.2,103.3c17.5-17.5,46.3-17.5,63.9,0c8,8,12.3,18.4,13.2,28.8h-32.1l-3.6-11c-0.3-1.1-1.6-2.2-2.7-1.9c-1.4,0-2.5,0.8-2.7,2.2
		l-7.7,31.8l-11-37.3c-0.3-1.1-1.4-1.9-2.5-1.9c-1.1-0.3-2.2,0.3-2.7,1.4l-9.6,16.7h-15.4C151.8,121.7,156.2,111.2,164.2,103.3z
		 M228,167.2c-17.5,17.5-46.3,17.5-63.9,0c-8.2-8.2-12.6-18.6-13.2-29.3h17c1.1,0,1.9-0.5,2.5-1.4l7.4-12.6l12.1,41.1
		c0.3,1.1,1.4,1.9,2.7,1.9l0,0c1.4,0,2.5-0.8,2.7-2.2l8-32.4l1.1,3.3c0.3,1.1,1.4,1.9,2.7,1.9h34C240.6,148.5,236.3,158.9,228,167.2
		z"/>
	<path class="st1" d="M120.6,188.6l-39.8,40c-2.2,2.5,3,9.9,9.3,15.6c5.2,4.7,10.7,8.2,12.6,6.3l39.8-39.8l-9.6-9.6L120.6,188.6z"/>
</g>
<g class="st0">
	<path class="st1" d="M157,185.7c-3.6,2.6-7.3,5.4-11.1,8.3c-4.4,3.6-6.9,8.9-6.9,14.7v16.1h-14.9H67v-16.1c0-3.4,1.6-6.7,4.2-8.7
		c14.5-11.9,30.3-19.8,33.5-21.4c0.4-0.2,0.6-0.6,0.6-1V155c-2.8-2-4.8-5.2-4.8-8.9v-23.6c0-11.7,9.5-21.2,21.2-21.2h2.6h2.6
		c11.7,0,21.2,9.5,21.2,21.2v23.6c0,3.8-1.8,6.9-4.8,8.9v22.6c0,0.4,0.2,0.8,0.6,1C145.5,179.3,150.6,181.7,157,185.7z M256.8,200
		c-14.5-11.9-30.3-19.8-33.5-21.4c-0.4-0.2-0.6-0.6-0.6-1V155c2.8-2,4.8-5.2,4.8-8.9v-23.6c0-11.7-9.5-21.2-21.2-21.2h-2.6h-2.6
		c-11.7,0-21.2,9.5-21.2,21.2v23.6c0,3.8,1.8,6.9,4.8,8.9v22.6c0,0.4-0.2,0.8-0.6,1c-3.2,1.6-18.8,9.5-33.5,21.4
		c-2.6,2.2-4.2,5.4-4.2,8.7v16.1h49.7l5-22.4c-9.9-13.9,0.8-14.5,2.6-14.5l0,0l0,0c1.8,0,12.5,0.6,2.6,14.5l5,22.4H261v-16.1
		C261,205.3,259.6,202.1,256.8,200z"/>
</g>
<path d="M174.5,67.6V80c7,1.4,12.8,4.6,17.2,9.6c4.2,4.8,6.4,10.8,6.8,18c0.2,1.8-1.4,3.2-3.2,3.2l-16.4,0.2c-1.6,0-3-1.2-3.2-2.8
	c-0.4-3.6-1.2-6.2-2.8-8.2c-2-2.4-4.4-3.6-7.6-3.6c-3.2,0-5.6,1-7.2,3s-2.4,4.6-2.4,7.6c0,3.2,0.8,5.6,2.4,7.6s4.8,4,9.2,6
	c10.6,4.4,18.2,9,23.2,13.4s7.4,10.8,7.4,19.2c0,7.8-2.4,14.2-7.4,19c-4.2,4-9.8,6.8-16.4,8v11.4c0,1.6-1.2,2.8-2.8,2.8h-10
	c-1.6,0-2.8-1.2-2.8-2.8v-11.2c-8.4-1-15.4-4-21-9c-5.2-4.8-8-11.4-8.4-20c0-1.8,1.4-3.2,3.2-3.2l16.2-0.2c1.6,0,3,1.2,3.2,2.8
	c0.4,4.2,1.6,7.2,3.6,9.2c2.4,2.4,5.6,3.8,9.6,3.8c3.2,0,5.8-1,7.4-2.8c1.6-2,2.6-4.4,2.6-7.4c0-3.6-0.8-6.4-2.6-8.4
	c-1.8-2-4.8-4-9.2-5.8c-10.8-4.2-18.4-8.6-23.4-13c-4.8-4.4-7.4-10.8-7.4-19.2c0-7.6,2.6-14,7.8-19c4.6-4.6,10.8-7.2,18.4-8.4v-12
	c0-1.6,1.2-2.8,2.8-2.8h10C173.3,64.8,174.5,66.2,174.5,67.6z M256.2,219l-54.7,32l-2,1c-7.2,3.8-14.6,4.6-22.8,3.8l-72.3-3.2
	c-1.2,3-4,5-7.6,5.2L80.4,259c-5.4,0.4-10.2-3.6-10.6-9l-2.6-36.2c-0.4-5.2,3.8-9.8,9.2-10.2l16.4-1.2c3.4-0.2,6.6,1.6,8.2,4.2
	c7.4-3.2,21.2-9.8,45.9-2.6c2.4,0.8,6.6,1.4,9.2,1.4l38.4,0.6c4.8-0.6,9.4,3.2,9.8,8.2c0.4,5-3.2,9.4-8,10l-42.9,4
	c-1.4,0.2-2.4,1.4-2.2,2.8c0.2,1.2,1.4,2.2,2.6,2h1.6c0,0,29-0.4,48.7-4.6c3.6-0.8,6.8-2,10-4c0.4-0.4,1.2-0.8,1.6-1
	c6.8-4.8,17.2-10.6,24.6-14.4c2-1,9.8-5.2,13.4-5c5.2,0.4,7.4,4.4,7.2,8.2C260.8,214.8,259,217.4,256.2,219z M92.2,245.2
	c0-3-2.6-5.4-5.6-5.4c-3.2,0-5.6,2.4-5.6,5.4s2.6,5.4,5.6,5.4C89.6,250.6,92.2,248.2,92.2,245.2z M214.8,215
	c5.6-4,17-10.2,23.4-13.4c2-1,4-2,6.2-2.8c-2.8-1.8-5.8-2-9-0.8c-6.2,2.4-17.4,7.8-23.2,11v0.2c0.4,1.2,0.8,2.4,0.8,3.8
	c0.2,1,0,2,0,3C213.6,215.8,214.2,215.4,214.8,215z M220.8,193.9c-3.8,1.6-12.2,4.2-16,6.2c1.6,1,3,2.2,4.2,3.6
	c0.2-0.2,0.4-0.4,0.8-0.6l2.8-1.6c4-2.2,12.6-5.2,17.2-7.2C226.8,192.7,223.8,192.7,220.8,193.9z"/>
</svg>
