<?xml version="1.0" encoding="utf-8"?>
<!-- Generator: Adobe Illustrator 22.1.0, SVG Export Plug-In . SVG Version: 6.00 Build 0)  -->
<svg version="1.1" id="Layer_1" xmlns="http://www.w3.org/2000/svg" xmlns:xlink="http://www.w3.org/1999/xlink" x="0px" y="0px"
	 viewBox="0 0 328 328" style="enable-background:new 0 0 328 328;" xml:space="preserve">
<style type="text/css">
	.st0{display:none;}
	.st1{display:inline;}
</style>
<title>subicons</title>
<path d="M165,328C74.6,328,1,254.4,1,164S74.6,0,165,0s164,73.6,164,164S255.4,328,165,328z M165,15C82.8,15,16,81.8,16,164
	s66.8,149,149,149s149-66.8,149-149S247.2,15,165,15z"/>
<path class="st0" d="M173,135.5c-1.4,0.9-2.7,1.8-4,2.8s-2.5,2.1-3.7,3.3c-2.1,2.3-3.9,4.8-5.3,7.5c-0.4,1-0.8,1.9-1.1,2.8
	c6.5-1,13.4-1.7,20.4-2.1c16.2-1.1,32.6-0.5,48.7,1.8c-1.8-9.7-16.6-17.4-38.5-21.4c-0.3,0-0.5,0.1-0.8,0.1c-1,0.2-2.1,0.3-3.3,0.6
	c-1.3,0.3-2.6,0.6-3.9,1c-1.4,0.4-2.8,0.9-4.2,1.6C175.8,134,174.4,134.7,173,135.5z"/>
<path class="st0" d="M156,152.2v-0.1c0.4-1.4,0.8-2.8,1.3-4.2c0.7-1.5,1.4-3,2.3-4.4c0.9-1.5,1.9-2.9,3.1-4.3
	c1.2-1.4,2.5-2.6,3.8-3.9c1.4-1.2,2.8-2.3,4.3-3.3s3-1.8,4.6-2.6c0.8-0.4,1.5-0.8,2.3-1.1c-12-1.3-24-1.7-36.1-1.1l-1.8,0.6l-2.1,1
	c-1.5,0.7-2.9,1.5-4.3,2.4c-1.4,0.9-2.7,1.9-4,3c-0.7,0.5-1.3,1.1-1.9,1.7c-0.6,0.6-1.2,1.2-1.7,1.8l-1.6,1.9
	c-0.5,0.6-0.9,1.4-1.4,2c-0.8,1.3-1.5,2.6-2.2,4c-0.5,1.3-1,2.6-1.4,3.9c-0.3,1.1-0.6,2.2-0.7,3.4c-0.2,0.9-0.3,1.8-0.3,2.7
	c0,1.6-0.1,2.4-0.1,2.4c0,0.6-0.4,1-1,1s-1-0.4-1-1c0,0,0-0.9-0.1-2.4c0-1,0-1.9,0.1-2.9c0.1-1.3,0.3-2.5,0.6-3.8
	c0.3-1.5,0.7-2.9,1.2-4.3c0.6-1.6,1.3-3.1,2.1-4.6c0.4-0.8,0.9-1.6,1.4-2.3l1.6-2.2c0.5-0.8,1.2-1.4,1.8-2.1c0.6-0.7,1.2-1.4,1.9-2
	c1.3-1.3,2.7-2.5,4.2-3.6c-10.4,0.9-20.7,2.4-30.9,4.6c-0.3,0.1-0.6,0.3-1,0.4c-1.5,0.6-2.9,1.3-4.3,2.1s-2.8,1.8-4.1,2.8
	c-1.3,1-2.5,2.1-3.7,3.3c-1.1,1.2-2.1,2.4-3,3.7c-1.7,2.3-3,4.8-3.8,7.6c-0.4,1.1-0.6,2.2-0.8,3.3c-0.2,0.9-0.3,1.7-0.3,2.6
	c-0.1,1.5-0.1,2.4-0.1,2.4c0,0.5-0.4,0.8-0.8,0.8c-0.5,0-0.9-0.4-0.9-0.8c0,0,0-0.9-0.1-2.4c0-0.9,0-1.9,0.1-2.8
	c0.1-1.2,0.3-2.5,0.6-3.7c0.3-1.4,0.8-2.8,1.3-4.2c0.6-1.5,1.4-3,2.3-4.4c0.9-1.5,1.9-2.9,3-4.3c1.1-1.1,2.1-2.3,3.3-3.3
	C63.6,142.6,48,153.1,48.5,164c0.2,2.4,1.2,4.7,2.8,6.6c5.9,6.5,20.7,9.5,40.5,10.2C98.1,168.6,123.2,157.4,156,152.2z"/>
<path class="st0" d="M232.9,156.3c1.3,0.9,2.5,1.9,3.6,2.9c1.3,1.2,2.5,2.5,3.6,3.9c1,1.3,1.9,2.6,2.8,4c0.7,1.3,1.3,2.6,1.8,4
	c0.5,1.2,0.8,2.3,1.1,3.6c0.2,0.9,0.4,1.8,0.5,2.8c0.1,1.5,0.2,2.4,0.2,2.4c0.1,0.5-0.3,0.9-0.7,1l0,0c-0.5,0-0.9-0.3-0.9-0.7
	l-0.4-2.4c-0.1-0.9-0.3-1.7-0.6-2.6c-0.3-1.1-0.7-2.1-1.2-3.2c-0.6-1.2-1.2-2.4-1.9-3.5c-0.8-1.2-1.8-2.4-2.8-3.5
	c-1.1-1.2-2.2-2.3-3.5-3.3s-2.7-1.9-4.1-2.8c-1.4-0.8-2.9-1.6-4.4-2.2c-1.5-0.6-3-1.1-4.5-1.6c-0.4-0.1-0.7-0.2-1-0.3
	c-10.4-0.9-20.8-1.1-31.3-0.6c1.6,0.9,3.2,1.9,4.7,3c0.8,0.5,1.5,1.1,2.2,1.8c0.7,0.6,1.4,1.2,2,1.9s1.2,1.3,1.9,2s1.1,1.4,1.6,2.1
	c1,1.3,1.9,2.8,2.7,4.3c0.7,1.3,1.3,2.7,1.8,4.1c0.4,1.2,0.8,2.4,1,3.7c0.2,0.9,0.4,1.9,0.5,2.9c0.1,1.6,0.2,2.4,0.2,2.4
	c0.1,0.5-0.3,1-0.9,1.1l0,0c-0.5,0.1-1-0.3-1.1-0.9c0,0-0.1-0.9-0.4-2.4c-0.1-0.9-0.3-1.8-0.6-2.6c-0.3-1.1-0.7-2.2-1.1-3.3
	c-0.5-1.3-1.1-2.5-1.8-3.7c-0.8-1.3-1.7-2.6-2.7-3.7c-0.5-0.6-1-1.2-1.6-1.8s-1.2-1.1-1.8-1.7s-1.3-1-2-1.6c-0.6-0.5-1.3-1-2.1-1.5
	c-1.4-0.9-2.9-1.8-4.4-2.5s-3-1.3-4.6-1.8l-2.2-0.7l-1.9-0.4c-12,1-23.9,2.8-35.5,5.6c0.8,0.2,1.6,0.5,2.4,0.8
	c1.7,0.6,3.3,1.2,4.9,2c1.6,0.8,3.2,1.8,4.7,2.8s2.9,2.1,4.3,3.3c1.3,1.2,2.5,2.5,3.6,3.9c1,1.3,2,2.6,2.8,4c0.7,1.3,1.3,2.6,1.9,4
	c0.5,1.2,0.8,2.4,1.1,3.6c0.2,0.9,0.4,1.9,0.5,2.8c0.1,1.5,0.2,2.4,0.2,2.4c0.1,0.6-0.3,1.1-0.9,1.2s-1.1-0.3-1.2-0.9L167,188
	c-0.1-0.9-0.3-1.7-0.6-2.5c-0.3-1.1-0.7-2.1-1.2-3.1c-0.6-1.2-1.2-2.4-1.9-3.5c-0.8-1.2-1.8-2.4-2.8-3.5c-1.1-1.2-2.2-2.3-3.4-3.3
	c-2.6-2-5.4-3.7-8.4-5c-1.5-0.6-3-1.1-4.5-1.6c-1.4-0.4-2.8-0.7-4.3-1c-1.4-0.3-2.8-0.4-4-0.5s-2.4-0.1-3.4-0.1c-0.3,0-0.6,0-0.8,0
	c-22.1,7.1-36.1,17.1-35.5,27.5c1.1,17.1,41.5,18.7,91,15.5s89.4-9.9,88.3-27C274.7,168.8,257.8,160.2,232.9,156.3z"/>
<path class="st0" d="M228.6,136.5c0-11.4-7.2-20.7-16.2-20.7c0-11.4-7.2-20.7-16.2-20.7C183,95.1,164,64,164,64s-19,31.1-32.3,31.1
	c-8.9,0-16.2,9.3-16.2,20.7c-8.9,0-16.2,9.3-16.2,20.7c-8.9,0-16.2,9.3-16.2,20.7s7.2,20.7,16.2,20.7H164h64.6
	c8.9,0,16.2-9.3,16.2-20.7S237.6,136.5,228.6,136.5z"/>
<path class="st0" d="M94.2,184.6c6.1,9.5,23.1,38.3,24.2,63.4h90.8c1.4-25.6,19-54.8,24.6-63.4H94.2z"/>
<g class="st0">
	<path class="st1" d="M70.5,173.6c0-1.1,0.7-2.2,2.1-3.1l4-2.7c1.5-1,2.3-2.4,2.3-3.7s-0.8-2.7-2.3-3.7l-4-2.7
		c-1.4-1-2.1-2.1-2.1-3.1c0-1.2,0.9-2.4,2.7-3.1l4.5-1.8c2-0.8,3.1-2.3,3.1-3.9c0-1.1-0.5-2.3-1.5-3.4l-3.4-3.5c-1-1-1.4-2-1.4-3
		c0-1.4,1.2-2.6,3.4-3l4.8-0.8c2.5-0.4,3.9-2.1,3.9-4c0-0.9-0.3-1.8-0.9-2.8l-2.6-4.1c-0.6-0.9-0.9-1.8-0.9-2.6c0-1.8,1.5-2.9,4-2.8
		l4.9,0.2c2.9,0.1,4.7-1.6,4.7-4c0-0.6-0.1-1.3-0.4-2l-1.7-4.6c-0.3-0.7-0.4-1.4-0.4-2c0-2.2,1.8-3.4,4.6-2.7l4.7,1.2
		c3.2,0.8,5.6-1,5.6-4.1c0-0.3,0-0.6-0.1-0.9l-0.7-4.9c0-0.3-0.1-0.7-0.1-1c0-2.9,2.2-4.2,5.1-2.7l4.4,2.1c3.3,1.6,6.2-0.1,6.4-3.7
		l0.3-4.9c0.3-3.6,2.8-4.8,5.7-2.5l3.9,3c2.9,2.2,6.1,1.2,7.1-2.3l1.4-4.7c1-3.5,3.8-4.1,6.1-1.3l3.1,3.7c2.4,2.8,5.7,2.5,7.4-0.8
		l2.3-4.3c1.7-3.2,4.5-3.2,6.3,0l2.3,4.3c1.7,3.2,5,3.6,7.4,0.8l3.2-3.7c2.3-2.8,5.1-2.2,6.1,1.3l1.4,4.7c1,3.5,4.2,4.5,7.1,2.3
		l3.9-3c2.9-2.2,5.5-1.1,5.7,2.5l0.3,4.9c0.3,3.6,3.2,5.3,6.4,3.7l4.4-2.1c3-1.5,5.1-0.2,5.1,2.7c0,0.3,0,0.6-0.1,1l-0.7,4.9
		c0,0.3-0.1,0.6-0.1,0.9c0,3.1,2.4,4.9,5.6,4.1l4.7-1.2c2.8-0.7,4.6,0.5,4.6,2.7c0,0.6-0.1,1.2-0.4,2L232,110
		c-0.3,0.7-0.4,1.4-0.4,2c0,2.4,1.8,4.1,4.8,4l4.9-0.2c2.5-0.1,4,1.1,4,2.8c0,0.8-0.3,1.7-0.9,2.6l-2.6,4.1c-0.6,1-0.9,1.9-0.9,2.8
		c0,2,1.4,3.6,3.9,4l4.8,0.8c2.2,0.4,3.4,1.6,3.4,3c0,0.9-0.5,1.9-1.4,3l-3.4,3.5c-1,1.1-1.5,2.2-1.5,3.4c0,1.6,1.1,3.1,3.1,3.9
		l4.5,1.8c1.8,0.7,2.7,1.9,2.7,3.1c0,1.1-0.7,2.2-2.1,3.1l-4,2.7c-1.5,1-2.3,2.4-2.3,3.7s0.8,2.7,2.3,3.7l4,2.7
		c1.4,0.9,2.1,2.1,2.1,3.1c0,1.2-0.9,2.4-2.7,3.1l-4.5,1.8c-2,0.8-3.1,2.3-3.1,3.9c0,1.1,0.5,2.3,1.5,3.4l3.4,3.5c1,1,1.4,2,1.4,3
		c0,1.4-1.2,2.6-3.4,3l-4.8,0.9c-2.5,0.4-3.9,2-3.9,4c0,0.9,0.3,1.8,0.9,2.8l2.6,4.1c0.6,0.9,0.9,1.8,0.9,2.6c0,1.8-1.5,2.9-4,2.8
		l-4.9-0.2c-2.9-0.1-4.8,1.6-4.8,4c0,0.6,0.1,1.3,0.4,2l1.7,4.6c0.3,0.7,0.4,1.4,0.4,2c0,2.2-1.8,3.4-4.6,2.7l-4.7-1.2
		c-3.2-0.8-5.6,1-5.6,4.1c0,0.3,0,0.6,0.1,0.9l0.7,4.8c0,0.3,0.1,0.7,0.1,1c0,2.9-2.2,4.2-5.1,2.7l-4.4-2.1
		c-3.3-1.6-6.2,0.1-6.4,3.7l-0.3,4.9c-0.3,3.6-2.8,4.8-5.7,2.5l-3.9-3c-2.9-2.2-6.1-1.2-7.1,2.3l-1.4,4.7c-1,3.5-3.8,4.1-6.1,1.3
		l-3.2-3.7c-2.4-2.8-5.7-2.4-7.4,0.8l-2.3,4.3c-1.7,3.2-4.5,3.2-6.3,0l-2.3-4.3c-1.7-3.2-5-3.6-7.4-0.8l-3.1,3.7
		c-2.4,2.8-5.1,2.2-6.1-1.3l-1.4-4.7c-1-3.5-4.2-4.5-7.1-2.3l-3.9,3c-2.9,2.2-5.5,1.1-5.7-2.5l-0.3-4.9c-0.3-3.6-3.2-5.3-6.4-3.7
		l-4.4,2.1c-3,1.5-5.1,0.2-5.1-2.7c0-0.3,0-0.6,0.1-1l0.7-4.8c0-0.3,0.1-0.6,0.1-0.9c0-3.1-2.4-4.9-5.6-4.1l-4.7,1.2
		c-2.8,0.7-4.6-0.5-4.6-2.7c0-0.6,0.1-1.2,0.4-2l1.7-4.6c0.3-0.7,0.4-1.4,0.4-2c0-2.4-1.8-4.1-4.7-4l-4.9,0.2c-2.5,0.1-4-1.1-4-2.8
		c0-0.8,0.3-1.7,0.9-2.6l2.6-4.1c0.6-1,0.9-1.9,0.9-2.8c0-2-1.4-3.6-3.9-4l-4.8-0.9c-2.2-0.4-3.4-1.5-3.4-3c0-0.9,0.5-1.9,1.4-3
		l3.4-3.5c1-1.1,1.5-2.2,1.5-3.4c0-1.6-1.1-3.1-3.1-3.9l-4.5-1.8C71.4,175.9,70.5,174.8,70.5,173.6z"/>
</g>
<g class="st0">
	<g class="st1">
		<path d="M248.3,144.1c-2.5-3-7-3.5-10.1-0.9l-41,34.2H92.3c-4,0-7.2,3.2-7.2,7.2v33c0,17.4,14.1,31.5,31.5,31.5h94.7
			c17.4,0,31.5-14.1,31.5-31.5v-33c0-4-3.2-7.2-7.2-7.2h-16l27.8-23.2C250.5,151.6,250.9,147.1,248.3,144.1"/>
		<path d="M128.2,155.8c1.8,0,3.7-0.7,5.1-2.1L162,125c2.6-2.6,2.8-6.7,0.5-9.5l-28.7-35.8c-1.2-1.5-3-2.5-4.9-2.7
			c-1.9-0.2-3.8,0.4-5.3,1.6l-43,35.8c-1.7,1.4-2.7,3.6-2.6,5.9s1.3,4.3,3.2,5.6l43,28.7C125.4,155.4,126.8,155.8,128.2,155.8"/>
		<path d="M171.2,148.7c4,0,7.2-3.2,7.2-7.2s-3.2-7.2-7.2-7.2s-7.2,3.2-7.2,7.2S167.2,148.7,171.2,148.7"/>
		<path d="M156.8,155.8c-4,0-7.2,3.2-7.2,7.2s3.2,7.2,7.2,7.2s7.2-3.2,7.2-7.2S160.8,155.8,156.8,155.8"/>
	</g>
</g>
<g class="st0">
	<g class="st1">
		<g>
			<path d="M102.7,241.2c0,1.4-1,3.1-2.1,3.8l-9,7.6c-1,0.7-2.4,1.4-3.4,1.4c-1.7,0-3.1-0.7-4.1-1.7l-28.3-32.1
				c-1.4-1.4-2.1-3.1-1.7-4.5c0-1.4,1-3.1,2.1-3.8l9.3-7.2c2.1-2.1,5.5-1.7,7.6,0.3l28.3,32.1C102.3,238.1,103,239.5,102.7,241.2z"
				/>
		</g>
	</g>
	<g class="st1">
		<g>
			<g>
				<path d="M266.8,182.6c-0.3,0.3-1.4,2.4-6.9,5.2c-1.7,1-43.8,21.4-58.3,30.3c-5.2,3.1-11,4.5-16.9,3.1c-0.3,0-53.1-8.3-80.7,8.3
					l-22-24.8c8.3-3.4,19.6-9,29.3-14.5c17.9-10.7,14.8-16.9,37.9-11.7c42.4,10.3,46.2,5.5,52.4,8.6c4.5,2.4,2.8,5.5,2.4,7.6
					c0,0-0.3,0.7-1,0.7c-1.4,1-5.9,3.4-18.6,1.7c-2.1-0.3-22.1-1.7-31.4,4.8c-1.7,1-2.1,3.4-1,4.8c1,1.7,3.4,2.1,4.8,1
					c6.2-4.1,21.4-4.1,26.5-3.4c13.8,2.1,28.6,0.7,27.9-13.1l45.8-12.4C257.1,178.8,264.7,177.1,266.8,182.6L266.8,182.6z"/>
			</g>
		</g>
		<g>
			<path d="M152,146.4l1-14.1c0-1.7-1.4-3.4-3.1-3.8c-2.1,0-3.4,1.4-3.8,3.1l-0.7,8.3l-18.3-18.3c-1.4-1.4-3.4-1.4-4.8,0
				s-1.4,3.4,0,4.8l17.9,17.9l-7.2,0.3c-1.7,0-3.4,1.7-3.4,3.4s1.7,3.4,3.4,3.4l0,0l13.4-0.7l25.2,25.2c-26.5-4.5-33.1-9.7-45.5-4.8
				c-25.9-19.3-41.4-50.3-41.4-83.8c0-2.1,1.4-3.4,3.4-3.4c28.3,0,54.5,11,74.5,31c11.7,11.7,20.3,25.5,25.5,41
				c-3.1,6.2-5.5,12.8-6.9,19.6L152,146.4z"/>
		</g>
		<g>
			<path d="M180.9,184.7h-1c0-0.3,0-0.3,0-0.7C180.2,184,179.6,183.6,180.9,184.7z"/>
		</g>
		<g>
			<path d="M274,114.7c0,22.1-8.6,43.1-23.4,58.6l-41.4,11.4c-0.7-0.7-1-1.4-1.7-1.7l16.5-16.5l10.3,0.3l0,0c1.7,0,3.4-1.4,3.4-3.4
				c0-1.7-1.4-3.4-3.4-3.4l-4.1-0.3l13.1-13.1c1.4-1.4,1.4-3.4,0-4.8c-1.4-1.4-3.4-1.4-4.8,0L225.4,155l-0.3-5.2
				c0-2.1-1.7-3.4-3.8-3.1c-1.7,0-3.4,1.7-3.1,3.8l1,11l-18.3,18.3c-3.8-1-4.5-0.3-13.1-1c3.4-16.2,11.4-30.7,23.1-42.4
				c16.2-16.2,37.6-24.8,60-24.8C272.6,111.3,274,112.6,274,114.7z"/>
		</g>
	</g>
</g>
<g class="st0">
	<g class="st1">
		<path d="M168.9,98.8l14.7,7.3l14.7-7.3c1.3-0.7,2.8-1,4.2-1h17.7c-3.4-13.2-13.8-23.7-27.1-27.2c0.1-4.4,0.4-8.7,1.1-10.8
			c4.7-0.6,8.3-4.6,8.3-9.4c0-5.2-4.2-9.5-9.5-9.5c-15.9,0-18.4,14.8-18.8,29.6c-13.3,3.4-23.8,13.9-27.2,27.2h17.7
			C166.1,97.8,167.5,98.1,168.9,98.8z"/>
		<path d="M204.7,116.7l-16.9,8.5c-1.3,0.7-2.8,1-4.2,1s-2.9-0.3-4.2-1l-16.9-8.5h-17.1c-4.1,50.7-36.6,156.9-37,158.1
			c-0.9,2.9-0.4,6,1.4,8.4s4.6,3.8,7.6,3.8c58.8,0,95.8-131.4,102.8-170.3L204.7,116.7L204.7,116.7z"/>
	</g>
</g>
<g class="st0">
	<path class="st1" d="M250.2,163.9c26.2,0.8,25.9-9.2,32.3-28.4l-46.8,14.8c-25.1-12-22.3-20.4-47.4-31.2
		c-22.6-10-56.9-16.7-81.1-9.2c-29,8.9-39.3,24.5-61.1,49.6c-14.8,17.3,20.3,36.8,53,42.7c0.8,0.3,2.8-2,4.7-5.9
		c5-9.5,8.1-22.9,7-33.5c-1-7.9-3.6-15.2-5-18.5c1.8,3.8,4.9,10,5.8,17.9c1.7,13.4-2.2,29.5-10.6,40.1c-3.6,4.7,57.4,2,65.5,0
		c23.7-6.4,48.2-23.1,68.6-26.2l45.4,27C275.3,177.8,276.4,166.4,250.2,163.9z M70.9,157.7c-2.5,0-4.7-2.2-4.7-4.7s2.2-4.7,4.7-4.7
		c2.8,0,4.7,2.2,4.7,4.7S73.7,157.7,70.9,157.7z"/>
</g>
<path class="st0" d="M203.4,76.6c-3.9,0.3-7.7,1.1-11.4,2.3c-0.1,0-0.2,0-0.3,0c-0.2,0.1-0.5-0.1-0.7,0v0.3
	c-6.8,2-11.9,5.9-15.7,9.7l-9.7,9.7l15.4,15.1l9.4-9.7c2.4-2.4,6-4.4,7-4.7c0.3-0.1,0.7-0.2,1-0.3c8.4-3,15.2-1.9,19.8,4.7
	c0.4,0.7,0.8,1.4,1.3,2c8.3,7.6,8.5,20.6-0.3,29.5L184,170.4c-4.1,4.1-9.6,6.1-15.1,6.4c-6.1-0.9-10.6-2.2-14.7-6.4l-15.4,15.4
	c8.5,8.5,19,11.2,27.5,12.4c0.5,0.2,1.1,0.3,1.7,0.3c11.3,0,22.6-4.2,31.2-12.7l35.5-35.5c16.3-16.3,16.6-42.5,1-58.6
	c-0.6-0.6-0.7-1.4-1.3-2l-0.7,0.7c-5.1-6.2-11.3-11-18.4-12.7C211.3,76.7,207.3,76.4,203.4,76.6L203.4,76.6z M153.8,126.2
	c-3.8,0.3-7.4,1-11.1,2.3v-0.3c-0.4,0.1-0.4,0.2-0.7,0.3c-0.2,0.1-0.5-0.1-0.7,0v0.3c-2.9,1-4.7,2-6.7,3.4c-2.4,1.6-5,3.4-7.4,5.4
	c-4.3,3.5-7.7,7-10.7,10.7l-0.3-0.3l-1,1.3l-25.8,25.5c-16.6,16.6-16.8,43.6-0.3,59.6c0.3,0.3,0.4,0.7,0.7,1l0.3-0.3
	c11.4,12,28.2,15,42.9,10.1c0-0.1,0.2,0,0.3,0c0.2-0.1,0.5,0.1,0.7,0v-0.3c6.8-2,11.9-5.9,15.7-9.7l9.7-9.7L144,210.4l-9.4,9.7
	c-2.4,2.4-6,4.4-7,4.7c-0.3,0.1-0.7,0.2-1,0.3c-8.4,3-15.9,1.6-21.4-4.7c-0.3-0.2-0.7-0.5-1-0.7c-8.3-7.6-8.5-20.9,0.3-29.8
	l26.8-26.8c0.4-0.3,0.7-0.6,1-1c0,0,4.7-4.7,8.7-8c2-1.7,4.1-3,5.7-4c0.8-0.5,1.6-0.8,2-1c0.2-0.2,0.5-0.4,0.7-0.7
	c6-2.4,16-0.1,21.4,5.4l15.4-15.4c-5.9-5.9-13.3-9.6-21.1-11.4C161.5,126.1,157.6,125.9,153.8,126.2z"/>
<g class="st0">
	<g class="st1">
		<path d="M238.1,162.4H205V93.7c0-4.5-3.5-8-8-8h-67.9c-4.5,0-8,3.5-8,8v68.7H92c-6.8,0-10.7,7.8-6.6,13.3l71,90.7
			c3.3,4.5,10,4.5,13.3,0l75.1-90.9C248.7,170,244.8,162.4,238.1,162.4z M183.7,209.6c-2.9,3.7-6.8,6.2-11.5,7.8v8.2
			c0,0.8-0.4,1-1.2,1h-12.3c-0.8,0-1-0.4-1-1v-8c-2.5-0.8-4.7-1.8-6.6-3.1c-2-1.4-3.7-2.9-5.3-4.7c-1.4-1.8-2.5-3.9-3.3-6
			c-0.8-2.3-1.2-4.7-1.2-7c0-0.8,0.4-1,1.2-1h15c0.4,0,0.6,0,0.8,0.2s0.4,0.4,0.4,0.8c0,1.4,0.6,2.3,2,3.3s2.7,1.4,4.5,1.4
			s3.3-0.6,4.7-1.8c1.2-1.2,2-2.3,2-3.5c0-0.6,0-1,0-1.4s-0.2-0.8-0.6-1.2c-1.4-1.2-3.9-2.3-7.8-3.3c-2.9-0.8-5.7-1.8-7.8-2.7
			c-2.1-1-4.1-2.1-5.9-3.3c-5.3-3.9-7.8-9.2-7.8-15.6c0-2.9,0.8-5.5,2.1-8c1.4-2.5,3.3-4.7,5.9-6.4s5.3-3.1,8.4-3.9v-8
			c0-0.4,0-0.6,0.2-0.8s0.4-0.4,0.8-0.4h12.3c0.4,0,0.6,0.2,0.8,0.4s0.4,0.6,0.4,0.8v8c3.7,1.2,7,2.9,9.8,5.5s4.7,5.7,5.7,9
			c0.2,0.8,0,1.2-0.6,1.4l-14.2,4.5c-0.2,0-0.2,0-0.4,0c-0.6,0-0.8-0.2-1-0.8c-0.4-1.2-1.2-2.1-2.5-2.7c-1.4-0.6-2.5-1-3.9-1
			c-2,0-3.5,0.4-4.5,1c-1.2,0.6-1.8,1.2-2,1.4c0,0.2,0,0.4,0.2,0.8s0.6,0.8,1.2,1.2c0.6,0.4,1.4,0.8,2.5,1.4s2.7,1,4.7,1.6
			c2.3,0.6,4.7,1.4,7,2.3c2.5,1,4.7,2.3,6.8,3.9c2.5,2,4.5,4.3,5.7,7c1.4,2.7,2,5.9,2,9.2C188.8,201,187,205.5,183.7,209.6z"/>
	</g>
</g>
<path class="st0" d="M232.6,86.7h-29.7c-2.1,0-3.7,1.7-3.7,3.7v40.9h-14.9v-26c0-2.1-1.6-3.7-3.7-3.8c-0.8,0-1.5,0.2-2.1,0.6
	L139.7,128v-22.8c0-2.1-1.6-3.7-3.7-3.8c-0.8,0-1.5,0.2-2.1,0.6l-44.6,29.7c-1,0.7-1.6,1.9-1.6,3.1v96.6c0,2.1,1.7,3.7,3.7,3.7
	h141.2c2.1,0,3.7-1.7,3.7-3.7v-141C236.3,88.3,234.7,86.7,232.6,86.7z M202.9,198.2h-81.8c-2.1,0-3.7-1.7-3.7-3.7s1.7-3.7,3.7-3.7
	h81.8c2.1,0,3.7,1.7,3.7,3.7S204.9,198.2,202.9,198.2z M202.9,175.9h-81.8c-2.1,0-3.7-1.7-3.7-3.7c0-2.1,1.7-3.7,3.7-3.7h81.8
	c2.1,0,3.7,1.7,3.7,3.7C206.6,174.2,204.9,175.9,202.9,175.9z"/>
<g class="st0">
	<path class="st1" d="M184.3,59.9L184.3,59.9c-0.6-1-1.2,0.1-1.7,0.6c-10.4,11.5-21,22.8-31.3,34.4c3,0,11.9,0,22.1,0v79.6h-21.6
		v20.6h42.1V94.9c10.3,0,19.1,0,22.1,0C205.6,83.2,195,71.5,184.3,59.9z"/>
	<path class="st1" d="M148.5,149.5h21.6v-20.6H128V229c-10.3,0-19.1,0-22.1,0c10.6,11.7,21.2,23.3,31.9,35l0,0
		c0.6,1,1.2-0.2,1.7-0.6c10.4-11.5,21-22.8,31.3-34.4c-3,0-11.9,0-22.1,0L148.5,149.5L148.5,149.5z"/>
	<path class="st1" d="M124.5,174.5H93.9c0-10.3,0-19.1,0-22.1c-11.7,10.6-23.3,21.2-35,31.9l0,0c-1,0.6,0.2,1.2,0.6,1.7
		c11.5,10.4,22.8,21,34.4,31.3c0-3,0-11.9,0-22.1h30.6V174.5L124.5,174.5z"/>
	<path class="st1" d="M262.5,138.1c-11.5-10.4-22.8-21-34.4-31.3c0,3,0,11.8,0,22.1h-30.6v20.6h30.6c0,10.3,0,19.1,0,22.1
		c11.7-10.6,23.3-21.2,35-31.9l0,0C264.1,139.2,262.9,138.6,262.5,138.1z"/>
</g>
<path class="st0" d="M234.5,138.4c3.2-4.7,5-10.4,5-16.7c0-16.4-13.3-29.7-29.7-29.7c-5,0-9.7,1.3-13.9,3.4
	c-0.5-0.2-0.9-0.4-1.4-0.7c-9.5-4.3-20.2-6.7-30.9-6.7c-11.9,0-23.4,2.7-34,8.1c-1.3,0.7-2.7,1.4-4,2.2C122,96.7,118,96,113.9,96
	c-16.4,0-29.7,13.3-29.7,29.7c0,7,2.5,13.5,6.5,18.5c-1.6,6.1-2.5,12.6-2.5,19.3c0,20.2,7.7,39,21.9,53.3s33.1,21.9,53.3,21.9
	c0.5,0,1.1,0,1.4,0c5.4,7,13.9,11.5,23.6,11.5c16.4,0,29.7-13.3,29.7-29.7c0-1.6-0.2-3.4-0.4-5c13.1-13.7,20.9-32.2,20.9-52
	C238.9,154.7,237.4,146.3,234.5,138.4z M96.7,125.4c0-9.5,7.7-17.3,17.3-17.3s17.3,7.7,17.3,17.3s-7.7,17.3-17.3,17.3
	S96.7,135,96.7,125.4z M188.7,237.5c-9.5,0-17.3-7.7-17.3-17.3c0-9.5,7.7-17.3,17.3-17.3s17.3,7.7,17.3,17.3
	C205.8,229.8,198,237.5,188.7,237.5z M202.2,193.8c-4.1-2.2-8.6-3.2-13.7-3.2c-13.7,0-25.2,9.2-28.6,21.8
	c-25.5-1.8-45.7-23.2-45.7-49.1c0-2.7,0.2-5.4,0.7-8.1c16-0.5,28.8-13.5,28.8-29.7c0-2.5-0.4-4.9-0.9-7c6.3-2.9,13.5-4.5,20.7-4.5
	c5.9,0,11.7,1.1,17.1,3.1c-0.2,1.6-0.4,3.1-0.4,4.7c0,16.4,13.3,29.7,29.7,29.7c0.5,0,0.9,0,1.4,0c0.9,3.8,1.4,7.7,1.4,11.9
	C213,174.5,209,185.3,202.2,193.8z M210.1,138.9c-9.5,0-17.3-7.7-17.3-17.3s7.7-17.3,17.3-17.3s17.3,7.7,17.3,17.3
	C227.3,131.2,219.6,138.9,210.1,138.9z"/>
<g class="st0">
	<path class="st1" d="M241.7,175.6c-5.8,2.1-15,4.5-25.4,6.9c-3.7,6-10.3,11-20.8,12.9c-2.4,0.4-5.2,0.6-8.2,0.9
		c-7.3,0.2-15.9-0.6-25.4-1.3c-0.6,0-1.3,0-1.9-0.2c-2.4-0.2-4.3-1.9-4.5-4.3c-0.2-3,2.1-5.4,4.9-5.2c0.6,0,1.5,0.2,2.1,0.2
		c12.2,1.1,23.8,2.1,31.2,0.6c13.5-2.6,17.4-10.7,16.5-17.6c-0.6-5.6-4.9-11-11.6-10.5c-9.5,0.6-20.6,0-31.6-0.9
		c-12.5-0.9-25.1-1.3-34.2-0.2c-10.1,1.1-30.5,8.6-48.6,20.8c-8.8,6-18.7,13.1-24.7,17.6c-3,2.1-3.7,6.4-1.3,9.5l26.2,33.9
		c2.1,3,6.4,3.4,9.5,1.3l9.7-7.5c2.4-1.7,5.4-2.4,7.9-1.5c17.6,5.6,36.5,9.2,48.8,9.9c26.9,1.3,78.6-30.5,93.5-40.8
		C268.8,190.2,258,169.6,241.7,175.6z"/>
	<path class="st1" d="M131.7,124c1.1,1.1,2.8,1.1,3.9,0l8.6-8.6l8.4,8.4c1.1,1.1,2.8,1.1,3.9,0l8.6-8.4l9.7,9.7
		c0.4,0.4,1.3,0.9,1.9,0.9h14.8c5.8,10.1,16.5,17.2,29,17.2c18.5,0,33.3-14.8,33.3-33.3S239,76.6,220.5,76.6
		c-12.5,0-23.2,6.9-29,17.2h-56.7c-0.6,0-1.5,0.2-1.9,0.9L119.4,108c-1.1,1.1-1.1,2.8,0,3.9L131.7,124z M231.8,100.4
		c5.2,0,9.2,4.1,9.2,9.2s-4.1,9.2-9.2,9.2c-5.2,0-9.2-4.1-9.2-9.2S226.7,100.4,231.8,100.4z"/>
</g>
<path class="st0" d="M183,131.1c-0.8,0.7-13.6,12.2-29.4,26.3c2.5,3.1,5.5,6.4,9,9.9c4.5,4.4,8.6,8,12.4,11
	c15.3-17.1,27.8-31.1,28.5-31.8c1.7-1.9,3.1-1.3,3.8-1.1c12.6,3.6,26.7,0.4,33.2-13.1c6-12.5,1.1-22.1-2.9-28.7
	c-1-1.6-2.5-0.6-2.9,0.2c-0.4,0.9-7.6,15.8-7.6,15.8c-1.9,4-6.6,7-16,2.5s-10-10-8-14c0,0,6.7-14,7.6-15.8c0.9-1.9-0.5-2.3-1.3-2.2
	c-7.7,1-18.3,3.2-24.3,15.7c-3.4,7.2-3.2,14.2-0.7,20.3C184.8,126.9,185.2,129.2,183,131.1z M125.7,204.1
	c-3.8-3.8-7.5-7.8-11.1-11.9c-13.8,12.3-24.1,21.6-24.1,21.6c-0.5,0.5-1.1,1-1.6,1.5c-7.2,8.1-6.5,20.5,1.6,27.8
	c8.1,7.2,20.5,6.5,27.8-1.6c0,0,9.3-10.4,21.7-24.3C135,213,130.2,208.6,125.7,204.1z M99.4,87.5C84.8,102.3,84,121.1,84,121.1
	c3.6,18.2,24,51.4,48.7,76.1s57.9,45.1,76.1,48.7c0,0,18.8-0.8,33.6-15.4l0,0l8.7-8.7c1.2-1.1,1.2-3.1,0-4.2l-37-37
	c-1.2-1.1-3.1-1.1-4.2,0l-8.7,8.7l0,0l-8.2,10.2c0,0-15.6-3.4-37.4-25.2c-21.9-21.8-25.2-37.4-25.2-37.4l10.2-8.2l0,0l0.3-0.3l0,0
	l0,0l8.4-8.4c1.2-1.2,1.2-3.1,0-4.2l-37-37c-1.2-1.2-3-1.2-4.2,0L99.4,87.5L99.4,87.5z"/>
<g class="st0">
	<path class="st1" d="M178.5,104.4C181,116.7,191.9,126,205,126c14.9,0,27-12.1,27-27s-12.1-27-27-27c-13,0-24,9.3-26.5,21.6h-34.1
		V160h-11.3v-27.3H77.8v65.9h55.3v-27.8h11.3v66.4h34.1c2.5,12.3,13.4,21.6,26.5,21.6c14.9,0,27-12.1,27-27s-12.1-27-27-27
		c-13,0-24,9.3-26.5,21.6h-23.4v-55.7h23.3c2.4,12.4,13.4,21.9,26.5,21.9c14.9,0,27-12.1,27-27s-12.1-27-27-27
		c-13,0-23.8,9.2-26.4,21.4h-23.4v-55.6L178.5,104.4L178.5,104.4z"/>
</g>
<g class="st0">
	<polygon class="st1" points="113.8,130.8 126.6,108.8 113.8,86.7 88.4,86.7 75.7,108.8 88.4,130.8 	"/>
	<polygon class="st1" points="178.7,130.8 191.4,108.8 178.7,86.7 153.3,86.7 140.6,108.8 153.3,130.8 	"/>
	<polygon class="st1" points="243.6,130.8 256.3,108.8 243.6,86.7 218.2,86.7 205.4,108.8 218.2,130.8 	"/>
	<polygon class="st1" points="178.7,186.9 191.4,164.9 178.7,142.8 153.3,142.8 140.6,164.9 153.3,186.9 	"/>
	<path class="st1" d="M218.2,142.8l-12.7,22l5.9,10.2l-27.8,32.2l-4.8-8.4h-25.4l-4.8,8.4L120.8,175l5.9-10.2l-12.7-22H88.4
		l-12.7,22l12.7,22h25.4l3.6-6.2l27.8,32.2l-4.7,8.1l12.7,22h25.4l12.7-22l-4.7-8.1l27.8-32.2l3.6,6.2h25.4l12.7-22l-12.7-22H218.2z
		 M110.3,180.8H91.9l-9.2-16l9.2-16h18.4l9.2,16L110.3,180.8z M175.2,236.9h-18.4l-9.2-16l9.2-16h18.4l9.2,16L175.2,236.9z
		 M240.1,180.8h-18.4l-9.2-16l9.2-16h18.4l9.2,16L240.1,180.8z"/>
	<polygon class="st1" points="88.4,198.9 75.7,221 88.4,243 113.8,243 126.6,221 113.8,198.9 	"/>
	<polygon class="st1" points="218.2,198.9 205.4,221 218.2,243 243.6,243 256.3,221 243.6,198.9 	"/>
</g>
<g class="st0">
	<path class="st1" d="M184,171.8l50.7-50.7c-0.9-1.4-1.8-2.8-2.8-4.2l-51.9,52L184,171.8z"/>
	<path class="st1" d="M175.4,165.5l53.1-53.1c-1-1.3-2.1-2.5-3.2-3.7l-53.9,53.9L175.4,165.5z"/>
	<path class="st1" d="M209.2,95.1l-41.8,41.8v6.9l45.9-45.9C211.9,96.9,210.6,96,209.2,95.1z"/>
	<path class="st1" d="M199.6,89.8L167.3,122v6.9L204.2,92C202.7,91.3,201.2,90.5,199.6,89.8z"/>
	<path class="st1" d="M189,85.6l-21.6,21.6v6.9l26.8-26.8C192.4,86.7,190.7,86.1,189,85.6z"/>
	<path class="st1" d="M176.9,82.8l-9.5,9.5v6.9l15.4-15.4C180.8,83.4,178.8,83.1,176.9,82.8z"/>
	<path class="st1" d="M217.7,101.4l-50.4,50.4v6.9l54-54C220.2,103.6,218.9,102.5,217.7,101.4z"/>
	<path class="st1" d="M167.3,81.9v2.5l2.4-2.4C168.9,82,168.1,81.9,167.3,81.9z"/>
	<path class="st1" d="M192.5,178.1l47.2-47.2c-0.7-1.6-1.5-3.2-2.3-4.7l-49,49L192.5,178.1z"/>
	<path class="st1" d="M209.7,190.6l36.5-36.5c-0.2-2-0.6-4-0.9-6l-39.5,39.5L209.7,190.6z"/>
	<path class="st1" d="M201.1,184.3l42.6-42.6c-0.5-1.8-1-3.5-1.7-5.3l-44.9,44.9L201.1,184.3z"/>
	<path class="st1" d="M226.9,203.2l16.9-16.9c0.8-2.9,1.5-5.9,1.9-8.9l-22.8,22.9L226.9,203.2z"/>
	<path class="st1" d="M246.8,161.5L214.3,194l4,2.9l28.4-28.4c0.1-1.4,0.1-2.9,0.1-4.3C246.8,163.3,246.8,162.4,246.8,161.5z"/>
	<path class="st1" d="M234,208.3c1.9-3,3.7-6.2,5.2-9.5l-7.7,7.7L234,208.3z"/>
	<path class="st1" d="M161.2,163.2V81.7C117.2,83.3,82,119.6,82,164c0,45.4,36.9,82.4,82.4,82.4c26.8,0,50.7-12.9,65.8-32.9l0,0
		L161.2,163.2L161.2,163.2z"/>
</g>
<g transform="translate(0,-952.36218)" class="st0">
	<path class="st1" d="M187.8,1022c-11.5,0-20.9,9.4-20.9,20.9c0,8.1,4.7,15.1,11.4,18.5l-8.3,33.1c-3-0.9-6.1-1.5-9.4-1.5
		c-7.3,0-13.9,2.5-19.3,6.7l-32.2-27.2c2.2-3.1,3.5-6.8,3.5-10.8c0-10.3-8.5-18.8-18.8-18.8s-18.8,8.5-18.8,18.8s8.5,18.8,18.8,18.8
		c3.3,0,6.3-0.9,9-2.3l32.7,27.5c-3.9,5.2-6.2,11.7-6.2,18.7c0,7.1,2.4,13.7,6.5,18.9l-21.2,21.3c-4.1-2.9-9.1-4.7-14.5-4.7
		c-13.8,0-25.1,11.3-25.1,25.1s11.3,25.1,25.1,25.1s25.1-11.3,25.1-25.1c0-5.4-1.8-10.4-4.7-14.5l21.2-21.2c5.3,4,11.9,6.5,19,6.5
		c10.5,0,19.7-5.2,25.4-13.1l31.5,14.9c-0.3,1.5-0.5,3-0.5,4.5c0,12.6,10.3,23,23,23c12.6,0,23-10.3,23-23c0-12.6-10.3-23-23-23
		c-8.2,0-15.4,4.4-19.5,10.8l-30.6-14.6c1.3-3.4,2-7.1,2-10.9c0-3-0.5-6-1.3-8.7l31.1-20.7c3.5,3.9,8.5,6.5,14.1,6.5
		c10.3,0,18.8-8.5,18.8-18.8s-8.5-18.8-18.8-18.8s-18.8,8.5-18.8,18.8c0,1.7,0.2,3.3,0.7,4.9l-30.5,20.4c-2.4-3.9-5.6-7.2-9.5-9.7
		l8.6-34.4c0.5,0,1,0.1,1.4,0.1c11.5,0,20.9-9.4,20.9-20.9C208.3,1029,197.8,1022.6,187.8,1022z"/>
</g>
<path class="st0" d="M219.1,159.8v-11.2c0-17-13.7-30.7-30.7-30.7h-10.2V77H76v102.2h40.9v10.2c0,17,13.7,30.7,30.7,30.7h11.2
	c4.7,23.3,25.4,40.9,50.1,40.9c28.2,0,51.1-22.9,51.1-51.1C260,185.2,242.4,164.5,219.1,159.8z M116.9,148.6v10.2H96.4V97.4h61.3
	v20.4h-10.2C130.6,117.9,116.9,131.6,116.9,148.6z M158.8,199.7h-11.2c-5.7,0-10.2-4.5-10.2-10.2v-40.9c0-5.7,4.5-10.2,10.2-10.2
	h40.9c5.7,0,10.2,4.5,10.2,10.2v11.2C178.6,163.9,162.9,179.6,158.8,199.7z M208.9,240.6c-17,0-30.7-13.7-30.7-30.7
	s13.7-30.7,30.7-30.7s30.7,13.7,30.7,30.7S225.9,240.6,208.9,240.6z"/>
<g class="st0">
	<path class="st1" d="M238.2,93.1c-23.3-23.3-60.9-23.3-84.2,0c-21.7,21.7-23,55.4-4.7,78.7l-7.7,7.7c-3.8-3-7.1-4.7-8.5-3.3
		l-6.6,6.6l21.9,21.9l6.6-6.6c1.4-1.4-0.3-4.7-3.3-8.5l7.7-7.7c23.3,18.4,57.3,16.7,78.7-4.7C261.5,154,261.5,116.2,238.2,93.1z
		 M164.2,103.3c17.5-17.5,46.3-17.5,63.9,0c8,8,12.3,18.4,13.2,28.8h-32.1l-3.6-11c-0.3-1.1-1.6-2.2-2.7-1.9c-1.4,0-2.5,0.8-2.7,2.2
		l-7.7,31.8l-11-37.3c-0.3-1.1-1.4-1.9-2.5-1.9c-1.1-0.3-2.2,0.3-2.7,1.4l-9.6,16.7h-15.4C151.8,121.7,156.2,111.2,164.2,103.3z
		 M228,167.2c-17.5,17.5-46.3,17.5-63.9,0c-8.2-8.2-12.6-18.6-13.2-29.3h17c1.1,0,1.9-0.5,2.5-1.4l7.4-12.6l12.1,41.1
		c0.3,1.1,1.4,1.9,2.7,1.9l0,0c1.4,0,2.5-0.8,2.7-2.2l8-32.4l1.1,3.3c0.3,1.1,1.4,1.9,2.7,1.9h34C240.6,148.5,236.3,158.9,228,167.2
		z"/>
	<path class="st1" d="M120.6,188.6l-39.8,40c-2.2,2.5,3,9.9,9.3,15.6c5.2,4.7,10.7,8.2,12.6,6.3l39.8-39.8l-9.6-9.6L120.6,188.6z"/>
</g>
<g class="st0">
	<path class="st1" d="M157,185.7c-3.6,2.6-7.3,5.4-11.1,8.3c-4.4,3.6-6.9,8.9-6.9,14.7v16.1h-14.9H67v-16.1c0-3.4,1.6-6.7,4.2-8.7
		c14.5-11.9,30.3-19.8,33.5-21.4c0.4-0.2,0.6-0.6,0.6-1V155c-2.8-2-4.8-5.2-4.8-8.9v-23.6c0-11.7,9.5-21.2,21.2-21.2h2.6h2.6
		c11.7,0,21.2,9.5,21.2,21.2v23.6c0,3.8-1.8,6.9-4.8,8.9v22.6c0,0.4,0.2,0.8,0.6,1C145.5,179.3,150.6,181.7,157,185.7z M256.8,200
		c-14.5-11.9-30.3-19.8-33.5-21.4c-0.4-0.2-0.6-0.6-0.6-1V155c2.8-2,4.8-5.2,4.8-8.9v-23.6c0-11.7-9.5-21.2-21.2-21.2h-2.6h-2.6
		c-11.7,0-21.2,9.5-21.2,21.2v23.6c0,3.8,1.8,6.9,4.8,8.9v22.6c0,0.4-0.2,0.8-0.6,1c-3.2,1.6-18.8,9.5-33.5,21.4
		c-2.6,2.2-4.2,5.4-4.2,8.7v16.1h49.7l5-22.4c-9.9-13.9,0.8-14.5,2.6-14.5l0,0l0,0c1.8,0,12.5,0.6,2.6,14.5l5,22.4H261v-16.1
		C261,205.3,259.6,202.1,256.8,200z"/>
</g>
<path class="st0" d="M174.5,67.6V80c7,1.4,12.8,4.6,17.2,9.6c4.2,4.8,6.4,10.8,6.8,18c0.2,1.8-1.4,3.2-3.2,3.2l-16.4,0.2
	c-1.6,0-3-1.2-3.2-2.8c-0.4-3.6-1.2-6.2-2.8-8.2c-2-2.4-4.4-3.6-7.6-3.6c-3.2,0-5.6,1-7.2,3s-2.4,4.6-2.4,7.6c0,3.2,0.8,5.6,2.4,7.6
	s4.8,4,9.2,6c10.6,4.4,18.2,9,23.2,13.4s7.4,10.8,7.4,19.2c0,7.8-2.4,14.2-7.4,19c-4.2,4-9.8,6.8-16.4,8v11.4c0,1.6-1.2,2.8-2.8,2.8
	h-10c-1.6,0-2.8-1.2-2.8-2.8v-11.2c-8.4-1-15.4-4-21-9c-5.2-4.8-8-11.4-8.4-20c0-1.8,1.4-3.2,3.2-3.2l16.2-0.2c1.6,0,3,1.2,3.2,2.8
	c0.4,4.2,1.6,7.2,3.6,9.2c2.4,2.4,5.6,3.8,9.6,3.8c3.2,0,5.8-1,7.4-2.8c1.6-2,2.6-4.4,2.6-7.4c0-3.6-0.8-6.4-2.6-8.4s-4.8-4-9.2-5.8
	c-10.8-4.2-18.4-8.6-23.4-13c-4.8-4.4-7.4-10.8-7.4-19.2c0-7.6,2.6-14,7.8-19c4.6-4.6,10.8-7.2,18.4-8.4v-12c0-1.6,1.2-2.8,2.8-2.8
	h10C173.3,64.8,174.5,66.2,174.5,67.6z M256.2,219l-54.7,32l-2,1c-7.2,3.8-14.6,4.6-22.8,3.8l-72.3-3.2c-1.2,3-4,5-7.6,5.2L80.4,259
	c-5.4,0.4-10.2-3.6-10.6-9l-2.6-36.2c-0.4-5.2,3.8-9.8,9.2-10.2l16.4-1.2c3.4-0.2,6.6,1.6,8.2,4.2c7.4-3.2,21.2-9.8,45.9-2.6
	c2.4,0.8,6.6,1.4,9.2,1.4l38.4,0.6c4.8-0.6,9.4,3.2,9.8,8.2c0.4,5-3.2,9.4-8,10l-42.9,4c-1.4,0.2-2.4,1.4-2.2,2.8
	c0.2,1.2,1.4,2.2,2.6,2h1.6c0,0,29-0.4,48.7-4.6c3.6-0.8,6.8-2,10-4c0.4-0.4,1.2-0.8,1.6-1c6.8-4.8,17.2-10.6,24.6-14.4
	c2-1,9.8-5.2,13.4-5c5.2,0.4,7.4,4.4,7.2,8.2C260.8,214.8,259,217.4,256.2,219z M92.2,245.2c0-3-2.6-5.4-5.6-5.4
	c-3.2,0-5.6,2.4-5.6,5.4s2.6,5.4,5.6,5.4C89.6,250.6,92.2,248.2,92.2,245.2z M214.8,215c5.6-4,17-10.2,23.4-13.4c2-1,4-2,6.2-2.8
	c-2.8-1.8-5.8-2-9-0.8c-6.2,2.4-17.4,7.8-23.2,11v0.2c0.4,1.2,0.8,2.4,0.8,3.8c0.2,1,0,2,0,3C213.6,215.8,214.2,215.4,214.8,215z
	 M220.8,193.9c-3.8,1.6-12.2,4.2-16,6.2c1.6,1,3,2.2,4.2,3.6c0.2-0.2,0.4-0.4,0.8-0.6l2.8-1.6c4-2.2,12.6-5.2,17.2-7.2
	C226.8,192.7,223.8,192.7,220.8,193.9z"/>
<g class="st0">
	<path class="st1" d="M226.2,160.8l-13.1-106c-0.2-1-0.7-2.1-2.8-2.1c0,0-10.1,0-10.9,0s-1.4,0.6-1.5,1.7l-12.5,106.5H174v5.3h-3.7
		v-48.7c0-2.9-10-5.2-22.4-5.2s-22.4,2.3-22.4,5.2v11.1h-14.6v12.8H91.3v29h143.4v-9.5L226.2,160.8L226.2,160.8z M221.4,155.3
		l-12.9-11.4l10.4-9.2L221.4,155.3z M217.7,125.1l-9.1-7.9l7.4-6.4L217.7,125.1z M211.9,90.7l-6.5,4.9l-6.5-4.9l6.5-4.2L211.9,90.7z
		 M200,78.2l5.4-6.9l5.4,6.9l-5.4,3.5L200,78.2z M214,107.1l-8.6,7.4l-8.6-7.4l8.6-6.5L214,107.1z M213.9,94.3l1,8.4l-6.1-4.6
		L213.9,94.3z M212.9,86.5l-3.7-2.4l3.2-2L212.9,86.5z M211.1,72l-3.1-4l2.3-2.9L211.1,72z M205.5,59.4l3.1,1.4l-3.1,3.9l-3.1-3.9
		L205.5,59.4z M200.6,65.1l2.3,2.9l-3.1,3.9L200.6,65.1z M198.6,82.1l3.1,2l-3.6,2.3L198.6,82.1z M197.2,94.4l4.9,3.7l-5.9,4.4
		L197.2,94.4z M195.3,111l7.1,6.2l-8.7,7.6L195.3,111z M205.5,119.9l12.2,10.5l-12.2,10.8l-12.2-10.8L205.5,119.9z M192.4,135.1
		l10,8.8l-12.3,10.9L192.4,135.1z M189.4,160.8l16-14.2l16.1,14.2H189.4L189.4,160.8z"/>
	<path class="st1" d="M223.9,253.4c0-0.1-0.1-0.2-0.1-0.3s-0.1-0.1-0.1-0.1l0,0c-0.2-0.4-0.6-0.6-1-0.6s-0.8,0.2-1.1,0.6
		c-0.1,0.2-0.2,0.3-0.2,0.5c-2.6,6.2-5.8,9-10.8,9l0,0c-5,0-8.2-2.8-10.8-9.1c0-0.1-0.1-0.2-0.1-0.3s-0.1-0.1-0.1-0.1l0,0
		c-0.2-0.4-0.6-0.6-1-0.6s-0.8,0.2-1,0.6c-0.1,0.2-0.2,0.3-0.2,0.5c-2.5,6.1-5.7,8.9-10.5,9c-4.8-0.1-8-2.9-10.6-9.1
		c0-0.1-0.1-0.2-0.1-0.3s0-0.1-0.1-0.1l0,0c-0.3-0.4-0.6-0.6-1.1-0.6c-0.4,0-0.8,0.3-1,0.6c-0.1,0.2-0.1,0.3-0.2,0.5
		c-2.6,6.2-5.8,9-10.7,9l0,0c-5,0-8.2-2.8-10.8-9.1c0-0.1-0.1-0.2-0.1-0.3s0-0.1-0.1-0.1l0,0c-0.3-0.4-0.6-0.6-1.1-0.6
		c-0.4,0-0.8,0.3-1,0.6c-0.1,0.2-0.1,0.3-0.2,0.5c-2.5,6.1-5.7,8.9-10.5,9c-4.8-0.1-8-2.9-10.5-9.1c0-0.1-0.1-0.2-0.1-0.3
		s0-0.1-0.1-0.1l0,0c-0.2-0.4-0.6-0.6-1-0.6s-0.8,0.3-1.1,0.6l0,0c-0.1,0.2-0.1,0.3-0.2,0.5c-2.6,6.2-5.8,9-10.8,9l0,0
		c-5,0-8.2-2.8-10.8-9.1c0-0.1-0.1-0.2-0.1-0.3s0-0.1-0.1-0.1l0,0c-0.2-0.4-0.6-0.6-1-0.6s-0.8,0.3-1,0.6c-0.1,0.2-0.1,0.3-0.2,0.5
		c-2.6,6.2-5.8,9-10.8,9h0.1v8.8h143.1v-8.8h0.2C229.7,262.6,226.5,259.7,223.9,253.4z"/>
	<rect x="91.3" y="174.9" class="st1" width="143.4" height="22.4"/>
	<path class="st1" d="M197.3,249.2c0-0.2,0.1-0.3,0.2-0.5c0.3-0.4,0.6-0.6,1-0.6s0.8,0.2,1,0.6l0,0c0,0.1,0,0.1,0.1,0.1
		c0,0.1,0.1,0.1,0.1,0.2c2,4.6,4.3,7.2,7.6,8.2v-54.4H188v54.7C192.1,257.2,195,254.5,197.3,249.2z"/>
	<path class="st1" d="M126.5,248.7c0.3-0.4,0.6-0.6,1-0.6s0.8,0.2,1,0.6l0,0c0,0.1,0,0.1,0.1,0.1c0,0.1,0.1,0.1,0.1,0.2
		c2,4.6,4.3,7.2,7.6,8.2v-54.4h-19.4v54.7c4.2-0.5,7-3.1,9.4-8.5C126.3,249,126.4,248.9,126.5,248.7z"/>
</g>
<path id="sport3" class="st0" d="M160.3,268.8C139.5,175.9,62,168.2,58.8,168C60.9,222.9,105.2,267,160.3,268.8z"/>
<path id="sport2" class="st0" d="M267.9,174.1c-4.7-0.7-99-15.6-113.2-114.8l0,0V59c-50.6,4.7-91,44.8-95.5,95.5c0.2,0,0.5,0,0.7,0
	c101.5,14.7,114.6,113.4,114.6,113.4l0,0c0,0,0,0.2,0.2,0.2h0.2c49.2-5.1,88.5-44.6,93.4-93.8C268.1,174.3,268.1,174.3,267.9,174.1z
	"/>
<path id="sport1" class="st0" d="M268.8,159.8c-2.1-54.6-46-98.7-100.6-101.1C168.7,64.8,178,139.5,268.8,159.8z"/>
<g class="st0">
	<path d="M251.2,133.4h-29.4c-0.7-1.3-1.3-3.3-2.6-5.2l-30.7-47.7c-7.2-11.8-25.5,0-18.3,11.8l26.8,41.2h-65.4l26.1-41.2
		c7.2-11.8-11.1-23.5-18.3-11.8l-30.7,47.7c-0.7,2-2,3.9-2,5.2H77.4c-15,0-15,35.3-0.7,35.3l11.1,44.4C91.1,226.2,98.9,238,112,238
		h102.6c13.1,0,20.9-11.8,24.2-24.8l12.4-44.4C265.6,168.7,265.6,133.4,251.2,133.4z M115.3,210.5l-6.5-32
		c-2.6-10.5,13.7-14.4,16.3-3.3l7.2,31.4C134.9,217.7,117.9,221.6,115.3,210.5z M172.8,209.2c0,11.1-17,11.1-17,0v-32.7
		c0-11.1,17-11.1,17,0V209.2z M219.8,178.5l-7.2,32c-2.6,11.1-19,7.2-17-3.9l7.2-31.4C205.5,164.1,221.8,168,219.8,178.5z"/>
</g>
<g class="st0">
	<g class="st1">
		<path d="M126.7,166.2v6.2h74.6v-6.2c0-15,10.7-27.6,24.9-30.4v-13.1c0-27.5-22.3-49.7-49.7-49.7h-24.9
			c-27.5,0-49.7,22.3-49.7,49.7v13.1C116,138.7,126.7,151.2,126.7,166.2z"/>
	</g>
	<g class="st1">
		<path d="M232.4,147.6c-10.3,0-18.6,8.4-18.6,18.6v18.6h-99.4v-18.6c0-10.3-8.4-18.6-18.6-18.6S77,155.9,77,166.2
			c0,8.1,5.2,14.9,12.4,17.5v1.1V247h24.9v-24.9h99.4V247h24.9v-62.1v-1.1c7.2-2.6,12.4-9.4,12.4-17.5
			C251,155.9,242.6,147.6,232.4,147.6z"/>
	</g>
</g>
<g class="st0">
	<path class="st1" d="M229.3,166.8c24.6,4.6,40.1,12.8,40.1,21.9c0,14.6-47.4,27.4-104.9,27.4s-104-12.8-104-27.4
		c0-9.1,15.5-17.3,40.1-21.9L108,123c1.8-11.9,9.1-21,20.1-21h73c11.9,0,19.2,9.1,21,21L229.3,166.8z"/>
</g>
<path class="st0" d="M157.1,262.9h-54.9v-120h54.9V262.9z M226,157.1h-54.9v105.7H226V157.1z M108.4,90.4v47.7h42.4V57.2L108.4,90.4
	z"/>
<g class="st0">
	<rect x="236.1" y="96.7" class="st1" width="22.9" height="51.9"/>
	<rect x="165" y="167.8" class="st1" width="51.6" height="22.9"/>
	<rect x="72.8" y="89.5" class="st1" width="51.6" height="23.2"/>
	<rect x="77.3" y="118" class="st1" width="42.6" height="59"/>
	<path class="st1" d="M212.3,196.1v1.1c-0.4,37.3-30.9,67.1-68.2,66.7c-36.7-0.4-66.3-30-66.7-66.7v-15.3H120v15.3
		c-0.2,13.7,10.7,25.1,24.4,25.3s25.1-10.7,25.3-24.4c0-0.3,0-0.6,0-0.9v-1.1H212.3z"/>
	<path class="st1" d="M226.5,101.4c-31.4,0-56.8,25.4-56.8,56.8v4.7h42.6v-4.7c0-7.8,6.4-14.2,14.2-14.2h4.7v-42.6L226.5,101.4z"/>
</g>
<g class="st0">
	<path class="st1" d="M249.2,138.1l-4.3-25.8l0,0v-0.4l0,0V86.6H85v26.8l-4.3,24.5c-0.6,3.6,3.9,6.7,9.9,7.1l0,0
		c6,0.4,11.2-2.4,11.8-6v-0.4c0.2,3.6,4.9,6.4,10.9,6.4h3.4c5.4,0,9.9-2.4,10.7-5.6c0.6,3.2,5.2,5.8,10.7,5.8h3.4
		c6,0,10.9-3,10.9-6.6c0,3.6,4.9,6.6,10.9,6.6h3.4c5.4,0,10.1-2.4,10.7-5.8c0.7,3.2,5.2,5.8,10.7,5.8h3.4c6,0,10.9-3,10.9-6.6v-0.2
		c0,3.6,4.9,6.6,10.9,6.6h3.4c6,0,10.9-3,10.9-6.6v-0.2l0.2,0.9c0.6,3.6,5.8,6.2,11.8,6C245.2,144.9,249.6,141.7,249.2,138.1z"/>
	<path class="st1" d="M88.9,238.6h108.8v-43.4h21.7v43.4h21.5v-86.9h-152V238.6z M103.2,172h80.5v52.4h-80.5V172z"/>
</g>
<polygon class="st0" points="236.3,189.3 206.2,189.3 202.6,189.3 172.5,189.3 172.5,159.2 202.6,159.2 206.2,159.2 236.3,159.2 "/>
<polygon class="st0" points="138.8,125.5 202.6,125.5 202.6,155.6 172.5,155.6 168.9,155.6 138.8,155.6 "/>
<polygon class="st0" points="105.1,159.2 135.2,159.2 168.9,159.2 168.9,189.3 138.8,189.3 135.2,189.3 105.1,189.3 "/>
<polygon class="st0" points="135.2,223 71.4,223 71.4,192.9 101.5,192.9 135.2,192.9 "/>
<polygon class="st0" points="202.6,223 138.8,223 138.8,192.9 168.9,192.9 172.5,192.9 202.6,192.9 "/>
<polygon class="st0" points="270,223 206.2,223 206.2,192.9 236.3,192.9 239.9,192.9 270,192.9 "/>
<rect x="239.9" y="159.2" class="st0" width="30.1" height="30.1"/>
<polygon class="st0" points="239.9,155.6 236.3,155.6 206.2,155.6 206.2,125.5 270,125.5 270,155.6 "/>
<rect x="78" y="87.9" transform="matrix(0.3335 -0.9427 0.9427 0.3335 -50.9129 167.6102)" class="st0" width="30.1" height="63.8"/>
<path class="st0" d="M240.5,231.3h-153c-4.7,0-8.5-3.8-8.5-8.5v-93.5c0-4.7,3.8-8.5,8.5-8.5h34v-8.5c0-14.1,11.4-25.5,25.5-25.5h34
	c14.1,0,25.5,11.4,25.5,25.5v8.5h34c4.7,0,8.5,3.8,8.5,8.5v93.5C249,227.4,245.2,231.3,240.5,231.3z M189.5,112.3
	c0-4.7-3.8-8.5-8.5-8.5h-34c-4.7,0-8.5,3.8-8.5,8.5v8.5h51V112.3z"/>
<g transform="translate(0,-1036.3622)" class="st0">
	<path class="st1" d="M213.3,1091.9L95,1210.2h59.1l-39.4,98.6L233,1190.5h-59.1L213.3,1091.9z"/>
</g>
<g class="st0">
	<g class="st1">
		<g>
			<path d="M219.4,105.6c-0.1,34.9-0.3,69.8-0.3,104.7c0,1.3,0.1,2.8,0.6,4c3.8,11.7,7.8,23.4,11.7,35c0.3,0.9,0.7,1.8,1.2,2.7
				c0.9,1.3,2.1,1.3,3,0c0.6-0.9,0.9-1.9,1.3-3c3.4-9.8,6.8-19.5,10.1-29.3c1.2-3.5,2.5-6.9,2.5-10.9c0-34,0.1-68,0.3-102
				c0-0.4,0-0.9,0-1.2c-10.2,0-20.3-0.1-30.3-0.1C219.4,105.4,219.4,105.5,219.4,105.6z M243.3,211.2c-0.1,0.6-0.4,1.3-0.7,2.1
				c-1.6,4.7-3.3,9.6-4.9,14.5c-0.3,1-0.9,1.5-1.8,1.3c-1.3-0.1-2.8,0-4.1-0.1c-0.4,0-0.9-0.4-1-0.9c-1.9-5.5-3.7-11.1-5.6-16.7
				c0-0.1,0-0.4,0-0.4C231.2,211.2,237.1,211.2,243.3,211.2z"/>
			<g>
				<path d="M249.8,97.1c-10.2,0-20.3-0.1-30.3-0.1c0-0.1-0.1-0.4-0.1-0.7c0-3.8,0-7.7,0-11.5c0-4.6,2.5-7.5,6.4-7.7
					c5.9,0,11.7,0,17.6,0c3.8,0,6.4,3.1,6.4,7.7C249.8,88.8,249.8,92.9,249.8,97.1z"/>
			</g>
		</g>
	</g>
	<g class="st1">
		<path d="M203.1,158.4c0-1.9-0.7-3.1-2.5-3.7c-8.1-3-14.2-8.3-18.3-16.3c-4.3-8.3-5.5-15.5-3.7-23.1c0.4-2.1-0.1-3.5-1.9-4.6
			c-1.5-0.9-3-1.8-4.4-2.7l-0.9-0.6c-2.2-1.3-4.9-3-7.2-4.4c-1.8-1.2-3.5-0.7-4.3-0.1c-0.4,0.1-0.7,0.4-1.2,0.7l-0.4,0.3
			c-1.5,1.2-3,2.4-4.7,3.4c-0.7,0.4-1.3,0.7-2.1,0.9c-6.4,2.2-12.3,3.1-17.6,2.8c-7.4-0.4-13.8-3.3-19.7-8.4
			c-1.9-1.8-3.7-1.5-5.2-0.6c-4.1,2.4-8.4,4.7-12.9,7.1c-1.9,1-2.5,2.4-2.1,4.6c2.2,13.5-2.7,24.7-15.1,34.6
			c-0.6,0.4-1.2,0.9-1.9,1.3c-1.6,0.9-3.7,1.6-5.3,2.2l-0.4,0.1c-0.4,0.1-0.9,0.3-1.3,0.6c-1.5,0.7-2.1,1.9-2.1,3.8
			c0,2.8-0.1,5.9-0.1,8.4v0.6c0,1.9-0.1,3.8-0.1,5.8c0,2.1,0.9,3.4,2.8,4.1c7.4,2.5,12.9,7.4,17.6,15.4c4.6,7.8,5.9,15.8,4.1,24.3
			c-0.4,1.8,0.1,3.1,1.8,4.1c4.9,3,9,5.5,13.2,8c0.4,0.3,1.2,0.6,1.9,0.7c0.6,0,1.2-0.1,1.8-0.4c0.4-0.1,0.7-0.4,1.2-0.9
			c1.3-1.3,3-2.7,4.9-3.7c5.6-3.1,13.3-4.4,21-3.7c7.8,0.7,14.6,3.7,18.6,8c0.6,0.7,1.6,1.5,3,1.6l0,0c0.9,0,1.8-0.1,3-0.9
			c2.2-1.3,4.4-2.5,5.9-3.4c1.5-0.9,3.7-2.1,6.1-3.4c3-1.6,2.8-3.7,2.4-5.3c-1.5-5.6-0.3-13,3.1-20c3.4-7.2,8.6-13,14.3-16.1
			c1.9-1,3.8-1.8,5.8-2.2c0.9-0.1,2.1-0.6,2.7-1.9c0.3-0.4,0.3-1,0.4-1.8C203,168.6,203.1,163.3,203.1,158.4z M149.3,190.2
			c-4.9,2.7-10.4,3.8-16,3.5c-9.6-0.6-18.2-5.8-22.9-13.9c-4.1-6.9-5.3-14.9-3.3-22.6c2.1-7.5,6.9-13.8,14-17.7
			c4.9-2.7,10.2-4,15.7-3.5c2.2,0.1,4.4,0.6,6.7,1.2c7.5,2.2,13.8,7.5,17.4,14.6C168.2,165.5,163,182.4,149.3,190.2z"/>
		<ellipse cx="135.2" cy="165" rx="16.9" ry="16.9"/>
	</g>
</g>
<path d="M202.8,153.3v-28.7c0-1.7-2.1-2.7-3.4-1.7l-40.1,30.4v-28.7c0-1.7-2.1-2.7-3.4-1.7l-40.3,30.4V97.1c0-1.2-1-2.1-2.1-2.1
	H85.6c-1.2,0-2.1,1-2.1,2.1v129.9c0,1.2,1,2.1,2.1,2.1h158.7c1.2,0,2.1-1,2.1-2.1v-73.6l0,0v-28.7c0-1.7-2.1-2.7-3.4-1.7
	L202.8,153.3z M128,202.1h-18.9c-1.2,0-2.1-1-2.1-2.1v-18.9c0-1.2,1-2.1,2.1-2.1H128c1.2,0,2.1,1,2.1,2.1V200
	C130.1,201,129.2,202.1,128,202.1z M174.5,202.1h-18.9c-1.2,0-2.1-1-2.1-2.1v-18.9c0-1.2,1-2.1,2.1-2.1h18.9c1.2,0,2.1,1,2.1,2.1
	V200C176.6,201,175.7,202.1,174.5,202.1z M221,202.1h-18.9c-1.2,0-2.1-1-2.1-2.1v-18.9c0-1.2,1-2.1,2.1-2.1H221c1.2,0,2.1,1,2.1,2.1
	V200C223.2,201,222.2,202.1,221,202.1z"/>
<path class="st0" d="M232.2,222.3c0,0.2,0,0.3,0,0.5v7.9c0,2.1-1.7,3.9-3.9,3.9h-20c-0.4,0-0.8-0.1-1.2-0.2c-1.6-0.5-2.7-2-2.7-3.7
	V224v-72.7l0.2-0.2c0,0,0.1-0.1,0.1-0.1c0.1-0.1,0.1-0.1,0.2-0.2l0,0l0,0c0,0-0.1,0.1-0.1,0.1c0,0,0,0,0,0.1
	c0.1-0.1,0.8-0.8,1.6-1.6l17.2-17.2l0,0l0,0l0,0l8.4-8.4l0,0l0,0l0,0l0,0l0.1,61.6L232.2,222.3z M168.3,187.1v35.7v0v7.9
	c0,2.1,1.7,3.9,3.9,3.9h20c2.1,0,3.9-1.7,3.9-3.9v-7.9l0,0v-63.2l-26,26C169.6,186.1,169,186.7,168.3,187.1z M138.9,174.4l-6.7,6.7
	v41.7l0,0v7.9c0,2.1,1.7,3.9,3.9,3.9h20c2.1,0,3.9-1.7,3.9-3.9v-7.9c0,0,0,0,0,0v-33.1c-3.8,0-7.3-1.5-10-4.2L138.9,174.4z
	 M104.6,208.6l-0.8,0.7c-0.1,0.1-0.6,0.6-1.4,1.4l-6.5,6.5v5.6l0,0v7.9c0,2.1,1.7,3.9,3.9,3.9h20c2.1,0,3.9-1.7,3.9-3.9v-7.9v0
	v-33.4l-18,18C105.4,207.8,105,208.3,104.6,208.6z M250.2,78.6c-0.8-1-2.2-1.2-3.2-1.2c-0.6,0-1.2,0.1-1.9,0.2l-37.1,8
	c-2.4,0.5-3.4,1.4-3.6,2.1c-0.2,0.6,0.2,2,1.9,3.7l8.9,8.9l-12.8,12.8l-38.3,38.3l-4.9,4.9l-17.5-17.5c-1.5-1.5-4-1.5-5.6,0
	l-1.5,1.5l-5.8,5.8l-47.5,47.5l-11.2,11.2c-0.9,0.9-1.3,2.1-1.1,3.3c-0.1,0.7,0.1,1.5,0.7,2.1l6.6,6.6c0.2,0.2,0.5,0.4,0.8,0.5
	l0.3,0.3c1.5,1.5,4,1.5,5.6,0l53.3-53.3l0,0l2.6-2.6l9.6,9.6c0.1,0.1,0.2,0.2,0.4,0.3c0.1,0.1,0.2,0.3,0.3,0.4l7.3,7.3
	c1.5,1.5,4,1.5,5.6,0l15-15l38.3-38.3l12.8-12.8l8.9,8.9c1.8,1.8,3,1.9,3.4,1.9c1.2,0,2-2,2.4-3.6l8-37
	C251.2,81.3,251,79.6,250.2,78.6z"/>
<g class="st0">
	<rect x="107.1" y="182" class="st1" width="16.5" height="41.4"/>
	<rect x="140.2" y="182" class="st1" width="16.5" height="41.4"/>
	<rect x="173.3" y="182" class="st1" width="16.5" height="41.4"/>
	<rect x="206.4" y="182" class="st1" width="16.5" height="41.4"/>
	<rect x="90.5" y="161.3" class="st1" width="148.9" height="16.5"/>
	<rect x="90.5" y="227.5" class="st1" width="148.9" height="16.5"/>
	<path class="st1" d="M222.7,157.1c0.1-1.4,0.2-2.7,0.2-4.1c0-29.2-21.6-53.2-49.6-57.3V70.3c0-4.6-3.7-8.3-8.3-8.3
		c-4.6,0-8.3,3.7-8.3,8.3v25.5c-28.1,4-49.6,28.1-49.6,57.2c0,1.4,0.1,2.8,0.2,4.1H222.7z"/>
</g>
<path d="M239.2,139.8h-50v-50c0-3.8-3.1-6.8-6.8-6.8h-34.8c-3.8,0-6.8,3.1-6.8,6.8v50h-50c-3.8,0-6.8,3.1-6.8,6.8v34.8
	c0,3.8,3.1,6.8,6.8,6.8h50v50c0,3.8,3.1,6.8,6.8,6.8h34.8c3.8,0,6.8-3.1,6.8-6.8v-50h50c3.8,0,6.8-3.1,6.8-6.8v-34.8
	C246,142.9,242.9,139.8,239.2,139.8z"/>
<g class="st0">
	<path class="st1" d="M250,230.8V248H78v-17.2h55.6l19.6-85l-40.7,13.7v28.4h8.5v25.8H86.8v-25.8h8.6v-22.6l-12,4L78,152.9
		l130.3-43.8l-5.4-16.2c-1.6-4.5,1-9.4,5.4-10.9l16.2-5.4c4.5-1.6,9.4,0.9,10.9,5.4l13.7,40.8c3,8.9-1.9,18.8-10.8,21.7
		c-1.8,0.6-3.7,0.9-5.5,0.9c-7.2,0-13.9-4.4-16.2-11.7l-2.8-8.2l-40.4,13.6l21.1,91.7L250,230.8L250,230.8z"/>
</g>
<g class="st0">
	<path class="st1" d="M192.3,144.2c16.3,0,29.6-13.3,29.6-29.6S208.6,85,192.3,85s-29.6,13.3-29.6,29.6S175.9,144.2,192.3,144.2z"/>
	<path class="st1" d="M192.3,155.9c-10.5,0-20.1-4-27.4-10.5c-11.3,4.1-19.3,14.8-19.3,27.5V237H239v-64.1
		c0-12.6-8.1-23.4-19.3-27.5C212.4,151.9,202.8,155.9,192.3,155.9z"/>
	<path class="st1" d="M124.9,145.2c14.3,0,25.9-11.4,26.4-25.6c-0.2-1.6-0.3-3.3-0.3-5c0,0,0,0,0,0c-2-12.6-12.9-22.2-26-22.2
		c-14.6,0-26.4,11.8-26.4,26.4C98.5,133.4,110.4,145.2,124.9,145.2z"/>
	<path class="st1" d="M138.3,154.4c-4.2,1.6-8.7,2.5-13.4,2.5c-9.2,0-17.6-3.3-24.2-8.7C90.3,152.6,83,163,83,175v48.7h50.9v-50.8
		C133.9,166.3,135.5,160,138.3,154.4z"/>
</g>
<g class="st0">
	<rect x="139.3" y="142.7" class="st1" width="5" height="54.7"/>
	<rect x="188.8" y="142.7" class="st1" width="5" height="54.7"/>
	<path class="st1" d="M166,75c-49.1,0-89,39.8-89,89s39.8,89,89,89s89-39.8,89-89C254.9,114.9,215.1,75.1,166,75z M216.8,201.9
		c0,3.7-2.9,6.6-6.6,6.6c0,0,0,0,0,0h-88.2c-3.7,0-6.6-2.9-6.6-6.6c0,0,0,0,0,0V139c0-3.7,2.9-6.6,6.6-6.6c0,0,0,0,0,0h20.3v-7.3
		c0-3.1,2.5-5.7,5.6-5.7c0,0,0,0,0.1,0h36.1c3.1,0,5.7,2.5,5.7,5.6c0,0,0,0,0,0.1v7.3h20.3c3.7,0,6.6,3,6.6,6.6c0,0,0,0,0,0V201.9z"
		/>
</g>
<g transform="translate(0,-952.36218)" class="st0">
	<path class="st1" d="M214.8,1035.6c-7.8,0-15.2,3.2-21.1,8.9c0,0-0.1,0.1-0.1,0.1c-6,5.9-8.7,13.4-8.7,20.9c0,3.1,0.1,6.2,1.1,8.9
		c0.3,0.7,0.1,1.5-0.4,2.1l-18.5,18.8l17,18.5l19.9-20c0.5-0.5,1.3-0.7,2-0.5c3.3,0.8,6.7,1.1,10.1,1.1c7.5,0,15.2-3.2,21.2-8.9
		c5.8-5.6,8.8-12.8,8.8-19.9c0-2.4-0.5-4.7-1.3-7l-19,18c-0.5,0.5-1.2,0.7-1.8,0.5l-15.4-3.5c-0.7-0.2-1.3-0.7-1.5-1.4l-4.8-15.4
		c-0.2-0.7,0-1.5,0.5-2l18.4-18.4C219,1036,216.9,1035.6,214.8,1035.6L214.8,1035.6z M116.9,1037.2c-1.6,0.1-3.1,0.3-4.7,0.5
		l17.8,19c0.5,0.5,0.7,1.3,0.4,2l-5.2,15.2c-0.2,0.7-0.8,1.2-1.5,1.3l-15.6,3.1c-0.7,0.1-1.4-0.1-1.8-0.6l-18.5-18.6
		c-0.8,2.3-1.4,4.6-1.5,7c-0.2,7.1,2.6,14.4,8.2,20.2c5.8,5.9,13.3,9.3,20.8,9.6c3.5,0.1,7-0.1,10.2-0.8c0.7-0.1,1.4,0.1,1.9,0.6
		l58.1,62.1c0.4,0.4,0.5,0.9,0.5,1.5l-0.8,19.5l15.9,17.2l23.3,0.9l10.2-9.4l7-6.5l0.9-23.3l-15.9-17.2l-23.6-0.9
		c-0.5,0-1-0.2-1.4-0.6l-55.3-60.1c-0.5-0.6-0.7-1.4-0.4-2.1c1-2.7,1.2-5.7,1.3-8.8c0.2-7.5-2.2-15.2-8.2-21.3
		c-5.7-5.9-13-9.4-20.8-9.6C118,1037.2,117.4,1037.2,116.9,1037.2L116.9,1037.2z M143.7,1119l-19.2,19.5c-0.4,0.4-1,0.7-1.5,0.6
		c-5-0.1-5.7-0.9-11.3-0.8c-7.5,0.1-15.2,3.4-21.1,9.2c-5.8,5.7-8.7,12.8-8.6,20c0,0,0,0,0,0.1c0,2.4,0.6,4.7,1.3,7l18.8-18.3
		c0.5-0.5,1.2-0.6,1.8-0.5l15.4,3.4c0.7,0.1,1.3,0.7,1.5,1.3l4.9,15.4c0.2,0.7,0,1.5-0.5,2l-18.2,18.6c2.1,0.3,4.2,0.7,6.3,0.6
		c7.8-0.1,15.1-3.4,21-9.2c6-5.9,8.7-13.5,8.7-20.9c0-0.1,0-0.2,0-0.3c-0.2-2-0.3-5.2-1.8-8.3c-0.3-0.8-0.1-1.7,0.4-2.3l18.9-19
		L143.7,1119L143.7,1119z M207.4,1148.6c0.1,0,0.3,0,0.4,0l14.2,0.5h0.4h0.1c0.5,0,1,0.2,1.4,0.6c0.1,0.1,0.1,0.1,0.2,0.2
		c0,0,0,0.1,0.1,0.1l9.8,10.4c0.4,0.4,0.5,0.9,0.5,1.5l-0.5,14.7c0,0.5-0.2,1-0.6,1.4l-10.8,10c-0.4,0.4-0.9,0.6-1.5,0.6l-14.7-0.6
		c-0.5,0-1-0.2-1.4-0.6l-10-10.8c-0.4-0.4-0.6-0.9-0.6-1.5l0.6-14.7c0-0.5,0.2-1,0.6-1.4l10.8-10
		C206.6,1148.9,207,1148.7,207.4,1148.6L207.4,1148.6z M208.5,1152.7l-9.6,8.9l-0.5,13l8.9,9.6l13,0.4l9.6-8.9l0.5-13l-8.8-9.5
		L208.5,1152.7L208.5,1152.7z"/>
</g>
<g class="st0">
	<path class="st1" d="M197,183.9h-9.4c11.2-11.7,18.1-27.5,18.1-44.9c0-35.8-29.1-64.9-64.9-64.9S76,103.1,76,138.9
		s29.1,64.9,64.9,64.9c12.9,0,24.9-3.8,35-10.3V205l53,53l21.2-21.2L197,183.9z M140.9,183.9c-24.8,0-44.9-20.2-44.9-44.9
		S116.1,94,140.9,94s44.9,20.2,44.9,44.9S165.7,183.9,140.9,183.9z"/>
</g>
<g transform="scale(1 -1)" class="st0">
	<g transform="translate(0 -75)" class="st1">
		<g>
			<path marker-end="none" marker-start="none" d="M193.8-160.2c-5.1,3.7-10,7.3-14.6,10.8l0.5,0l0.2,0
				c12.9,0.8,23.2,11.5,23.2,24.5v6.2c8.2,3.3,13.9,11.4,13.9,20.7c0,12.4-10,22.4-22.4,22.4c-12.4,0-22.4-10-22.4-22.4
				c0-9.4,5.8-17.5,14.1-20.8l0-6.2c0-4.3-3.5-7.8-7.8-7.8h-19.6c-16.7,15.1-25.9,28.3-25.9,41.6c0,20.5,16.6,37.1,37.1,37.1
				c9.8,0,18.6-3.8,25.3-9.9l0.3-0.3L196-64c6.6,6.2,15.5,9.9,25.3,9.9c20.5,0,37.1-16.6,37.1-37.1c0-20.8-22.6-41.4-60.9-69.1
				C196.5-161,194.9-161,193.8-160.2z M95.8-124.9l0,46.6c-8.7,1.2-15.2,4.5-19.7,10c-5.1,6.4-6.6,14.8-6.5,23.4
				c0,1.3,0.5,2.5,1.3,3.4l0,14.3c0,5.8,1.8,10.2,5.5,13.1c2.2,1.7,4.8,2.6,7.6,3.1c1,1.5,2.7,2.6,4.6,2.6h2.9c3,0,5.5-2.5,5.5-5.5
				v-0.6c0-3-2.5-5.5-5.5-5.5h-2.9c-1.5,0-2.8,0.6-3.8,1.5c-1.6-0.3-2.9-0.8-3.8-1.5c-1.4-1.1-2.6-3-2.6-7.1v-14.3
				c0.8-0.9,1.3-2.1,1.3-3.5c-0.1-7.7,1.3-13.3,4.3-17c2.8-3.5,7.8-6.3,17.2-6.6c9.4,0.3,14.4,3.1,17.2,6.6c3,3.7,4.4,9.3,4.3,17
				c0,1.3,0.5,2.5,1.3,3.5v14.3c0,4.1-1.2,6-2.6,7.1c-0.9,0.7-2.2,1.2-3.8,1.5c-1-0.9-2.3-1.5-3.8-1.5H111c-3,0-5.5,2.5-5.5,5.5v0.6
				c0,3,2.5,5.5,5.5,5.5h2.9c2,0,3.7-1,4.7-2.6c2.7-0.5,5.3-1.4,7.6-3.1c3.6-2.8,5.5-7.3,5.5-13.1v-14.3c0.8-0.9,1.3-2.1,1.3-3.4
				c0.1-8.6-1.4-17-6.5-23.4c-4.8-6-12.3-9.5-22.3-10.3v-46.4c0-6.6,5.4-12,12-12h62.4c6.6,0,12,5.4,12,12l0,10.1
				c-7.6,1.8-13.2,8.7-13.2,16.8c0,9.6,7.8,17.3,17.3,17.3c9.6,0,17.3-7.8,17.3-17.3c0-8.1-5.6-14.9-13.1-16.8v-10.2
				c0-10.8-8.5-19.7-19.2-20.3H115C104.3-144.6,95.8-135.7,95.8-124.9z M190.6-111.2v6.1c-2.5,1.4-4.2,4.1-4.2,7.2
				c0,4.6,3.7,8.3,8.3,8.3c4.6,0,8.3-3.7,8.3-8.3c0-3-1.6-5.7-4-7.1v-6.1c5.6,1.8,9.7,7.1,9.7,13.3c0,7.7-6.2,13.9-13.9,13.9
				c-7.7,0-13.9-6.2-13.9-13.9C180.8-104.2,184.9-109.5,190.6-111.2z M101.3-68.5c0,0-0.1,0-0.1,0h0.3
				C101.4-68.5,101.3-68.5,101.3-68.5z M115.6-14.5v0.6c0,0.9-0.8,1.7-1.7,1.7H111c-0.9,0-1.7-0.7-1.7-1.7v-0.6
				c0-0.9,0.7-1.7,1.7-1.7h2.9C114.9-16.2,115.6-15.5,115.6-14.5z M93.2-14.5v0.6c0,0.9-0.7,1.7-1.7,1.7h-2.9
				c-0.9,0-1.7-0.7-1.7-1.7v-0.6c0-0.9,0.7-1.7,1.7-1.7h2.9C92.5-16.2,93.2-15.5,93.2-14.5z"/>
		</g>
	</g>
</g>
<g class="st0">
	<rect x="69.1" y="214.4" class="st1" width="6.6" height="6.6"/>
	<path class="st1" d="M158.7,144.8c0-11-8.9-19.9-19.9-19.9s-19.9,8.9-19.9,19.9s8.9,19.9,19.9,19.9
		C149.8,164.7,158.7,155.8,158.7,144.8z M125.5,148.1v-6.6h10v-10h6.6v10h10v6.6h-10v10h-6.6v-10H125.5z"/>
	<path class="st1" d="M231.7,98.3c0-1.8-1.5-3.3-3.3-3.3c-1.8,0-3.3,1.5-3.3,3.3v3.3h6.6V98.3z"/>
	<path class="st1" d="M128.8,214.4c-5.5,0-10,4.5-10,10c0,5.5,4.5,10,10,10c5.5,0,10-4.5,10-10C138.8,218.9,134.3,214.4,128.8,214.4
		z M132.1,227.7h-6.6v-6.6h6.6V227.7z"/>
	<path class="st1" d="M195.2,184.6h-46.4v-6.6h46.4v-66.3h-46.4V105h46.4V95H82.4v10h46.4v6.6H82.4v66.3h46.4v6.6H82.4v10h112.8
		V184.6z M135.5,105h6.6v6.6h-6.6V105z M112.2,144.8c0-14.7,11.9-26.5,26.5-26.5c14.7,0,26.5,11.9,26.5,26.5
		c0,14.7-11.9,26.5-26.5,26.5C124.1,171.3,112.3,159.4,112.2,144.8z M142.1,184.6h-6.6v-6.6h6.6V184.6z"/>
	<polygon class="st1" points="218.4,161.3 244.4,161.3 238.7,121.5 218.4,121.5 	"/>
	<path class="st1" d="M238.3,184.6V168h-23.2c-1.8,0-3.3-1.5-3.3-3.3v-46.4c0-1.8,1.5-3.3,3.3-3.3h29.9v-6.6h-43.1v89.6
		c0,1.8-1.5,3.3-3.3,3.3H82.4v19.9h30.2c1.8-9,10.6-14.8,19.6-13c6.5,1.3,11.6,6.4,13,13h50.4c1.8-9,10.6-14.8,19.6-13
		c6.5,1.3,11.6,6.4,13,13h13.6c7.3,0,13.3-5.9,13.3-13.3v-19.9h-13.3C239.8,187.9,238.3,186.4,238.3,184.6z M225,181.3h-6.6v-6.6
		h6.6V181.3z"/>
	<path class="st1" d="M251.6,168h-6.6v13.3h10v-10C254.9,169.5,253.4,168,251.6,168z"/>
	<path class="st1" d="M211.8,214.4c-5.5,0-10,4.5-10,10c0,5.5,4.5,10,10,10c5.5,0,10-4.5,10-10C221.7,218.9,217.3,214.4,211.8,214.4
		z M215.1,227.7h-6.6v-6.6h6.6V227.7z"/>
</g>
<path class="st0" d="M246.3,76.9c-1-2.8-4-4.2-6.7-3.2c-2.8,1-4.2,4-3.2,6.7l0,0c8.1,23.4-8,40.9-20.4,50.2l-5-7.1
	c-2-2.6-5.1-4.2-8.3-4.4h-27.9c-3.4,0.1-6.7,1.1-9.6,2.9l-82.2,57.9c-4,2.7-5,8.2-2.2,12.2c0,0,0.1,0.1,0.1,0.1l37.4,53.5
	c2.9,4,7.3,3.5,11.3,0.7l82.3-57.7c2.7-2.1,4.8-4.9,6.1-8l8.8-27.6c0.9-3.2,0.4-6.5-1.3-9.3l-2.9-4.4
	C238.6,126.8,255.8,104.4,246.3,76.9z M208,158.9c-6.4,4.4-15.2,2.9-19.6-3.5c-4.4-6.4-2.9-15.2,3.5-19.6c4.9-3.4,11.5-3.4,16.3,0.1
	c-2.4,1.4-4,2.3-4.3,2.4c-2.6,1.3-3.8,4.4-2.5,7.1c1.3,2.6,4.4,3.8,7.1,2.5c1.7-0.8,3.5-1.8,5.4-2.9
	C214.7,150.4,212.4,155.8,208,158.9z"/>
<g class="st0">
	<path class="st1" d="M185.7,170.2c-17-1.2-29.3-11.2-34.3-18.1c-5.4-7.7-25.4-13.9-33.5-15.4c-6.2-1.2-11.9-0.4-17.7,1.5
		c-3.5,1.2-8.1,1.9-11.9,0c-10.4-5.4-11.6,7.3-11.6,7.3s-9.6,48.6,37.8,66.3c0,0,23.9,5,39.7,23.1c15.8,17.7,59.7,14.3,74,5
		c14.6-9.3,13.5-20.8,5.4-33.9C225.4,192.5,209.6,172.1,185.7,170.2z M137.9,203.7l-4.6-3.1c-1.9-1.2-2.3-3.9-1.2-5.8
		c1.2-1.9,3.9-2.3,5.8-1.2l4.6,3.1c1.9,1.2,2.3,3.9,1.2,5.8l0,0C142.5,204.1,139.8,204.9,137.9,203.7z M179.9,218.7
		c0,0.4-0.4,0.8-0.4,0.8c-0.8,1.5-3.1,2.3-5,1.9l-5-1.5c-2.3-0.8-3.5-3.1-2.7-5.4c0.8-2.3,3.1-3.5,5.4-2.7l5,1.5
		C179.1,214.1,180.3,216.4,179.9,218.7z M108.6,171.7c1.9,1.2,2.3,3.9,1.2,5.8l0,0c-1.2,1.9-3.9,2.3-5.8,1.2l-4.6-3.1
		c-1.9-1.2-2.3-3.9-1.2-5.8s3.9-2.3,5.8-1.2L108.6,171.7z M113.2,162.8c-1.9-1.5-2.3-3.9-0.8-5.8c1.5-1.9,3.9-2.3,5.8-0.8l4.2,3.1
		c1.9,1.2,2.3,3.9,1.2,5.4c0,0,0,0.4-0.4,0.4c-1.5,1.9-3.9,2.3-5.8,0.8L113.2,162.8z M142.5,179.4c0.8-2.3,3.1-3.5,5.4-2.7l5,1.5
		c2.3,0.8,3.5,3.1,2.7,5.4c0,0.4-0.4,0.8-0.4,0.8c-0.8,1.5-3.1,2.3-5,1.9l-5-1.5C143.3,184,142.1,181.7,142.5,179.4z M216.5,217.2
		c0,0.4-0.4,0.8-0.4,0.8c-0.8,1.5-3.1,2.3-5,1.9l-5-1.5c-2.3-0.8-3.5-3.1-2.7-5.4s3.1-3.5,5.4-2.7l5,1.5
		C216.1,213,217.3,215.3,216.5,217.2z M188.4,199.8c0,0.4-0.4,0.8-0.4,0.8c-0.8,1.5-3.1,2.3-5,1.9l-5-1.5c-2.3-0.8-3.5-3.1-2.7-5.4
		c0.8-2.3,3.1-3.5,5.4-2.7l5,1.5C187.6,195.2,188.7,197.5,188.4,199.8z"/>
	<path class="st1" d="M159.4,145.9c1.5,1.9,4.2,4.6,8.1,7.3l-0.4-1.2c-0.8-2.3,0.8-4.6,3.1-5c2.3-0.8,4.6,0.8,5,3.1l1.5,5.4
		c0.4,0.8,0,1.9-0.4,2.7c3.1,1.2,6.2,1.9,9.6,1.9c20.4,1.5,38.9,14.3,54,37c-1.2-11.2-4.6-23.1-13.9-32.4
		c-11.9-11.9-14.3-28.1-13.5-36.6c0.8-9.3-9.6-27.4-14.6-33.5c-3.5-4.6-8.5-8.1-13.9-10.4c-3.1-1.5-7.3-3.9-9.3-8.1
		c-4.2-10.8-13.5-2.3-13.5-2.3s-30.8,23.1-21.6,59.4C147.5,135.9,155.2,140.1,159.4,145.9z M177.2,110.4c-0.4-2.3,1.2-4.6,3.1-5
		c2.3-0.4,4.6,0.8,5,3.1l1.2,5.4c0.4,2.3-0.8,4.2-2.7,5h-0.4c-2.3,0.4-4.6-0.8-5-3.1L177.2,110.4z M188.4,142.4
		c1.9-1.2,4.6-0.8,5.8,1.5l2.7,4.6c1.2,1.9,0.8,4.6-1.5,5.8c-0.4,0-0.8,0.4-0.8,0.4c-1.9,0.8-3.9,0-5-1.9l-2.7-4.6
		C185.7,146.3,186.4,143.6,188.4,142.4z M158.3,110.8c-0.8-2.3,0.8-4.6,3.1-5c2.3-0.8,4.6,0.8,5,3.1l1.5,5.4c0.8,2.3-0.8,4.2-2.7,5
		c0,0,0,0-0.4,0c-2.3,0.8-4.6-0.8-5-3.1L158.3,110.8z"/>
</g>
<path class="st0" d="M200.7,84.8h-73.4c-2,0-3.6-1.6-3.6-3.6v-9.6c0-2,1.6-3.6,3.6-3.6h73.4c2,0,3.6,1.6,3.6,3.6v9.6
	C204.3,83.2,202.7,84.8,200.7,84.8z"/>
<path class="st0" d="M214.8,111.5l-13.8-22.4c0,0-13.9,0-23.1,0h-15.5h-12.1c-9.2,0-23.1,0-23.1,0l-13.8,22.4
	c-3.2,4.7-4.6,9.5-4.6,15.1v106.6c0,14.8,12,26.8,26.8,26.8h26.9h30.3c14.8,0,26.8-12,26.8-26.8V126.6
	C219.4,120.9,217.9,116.1,214.8,111.5z M213,205.8h-98.1v-72.4H213L213,205.8L213,205.8z"/>
<path d="M119.4,202.7c0,0,6.5,5,12.6,7.8c1.1,0.5,2.5,9.5,2.9,10.8c1.4,4.6,3.1,9,5.1,13.3c4.3,9.3,8.5,18.6,12,28.2
	c1.8,4.8,3.3,9.6,4.7,14.6c0.3,1,0.5,1.8,0.8,2.7c2.5,0.3,5,0.7,7.5,1c-5.7-16.2-13.2-32-20.3-47.5c-5-10.8-7.3-17.7-8.2-23
	c6-4.8,40.6-30.8,82.5-27.1c0,0-37.6,2.6-63.2,20.2c0,0,18.4,16.9,37.8,8.6c18.2-7.8,34.9-28.4,55.3-25.3c0,0-66.8-51.3-96.8,9.4
	c0,0-9.2,3.7-16.3,8.9c-0.4-9.9-1.5-71.9,38.1-116.9c0,0-28.5,45-29.9,88.7c0,0,37.9-6.2,41.4-35.9c3.5-29.7-3.1-63.5,17.5-84
	c0,0-114.2,32.9-70.3,117.8c0,0-3.3,18.6-1.5,32.2c-8.6-4.4-31.8-18.2-41.7-43.2c0,0,13.8,23.4,33.4,34.1c0,0,5-17.3-6.7-27.1
	c-10.9-9.2-29.5-13.3-34.1-27.4C82.2,143.4,70.7,202.9,119.4,202.7z"/>
</svg>
