<?xml version="1.0" encoding="utf-8"?>
<!-- Generator: Adobe Illustrator 22.1.0, SVG Export Plug-In . SVG Version: 6.00 Build 0)  -->
<svg version="1.1" id="Layer_4" xmlns="http://www.w3.org/2000/svg" xmlns:xlink="http://www.w3.org/1999/xlink" x="0px" y="0px"
	 viewBox="0 0 486 486" style="enable-background:new 0 0 486 486;" xml:space="preserve">
<title>svg_icons</title>
<path d="M478.2,1H243H7.8C3.5,1,0,4.5,0,8.8V244v235.2c0,4.3,3.5,7.8,7.8,7.8H243h82.6c3.1,0,5.9-1.8,7.2-4.6s0.7-6.1-1.3-8.4
	c-6.5-7.2-10-16.5-10-26.1c0-21.6,17.6-39.2,39.2-39.2c21.6,0,39.2,17.6,39.2,39.2c0,9.6-3.6,18.9-10,26.1c-2.1,2.3-2.6,5.6-1.3,8.4
	s4.1,4.6,7.2,4.6h82.6c4.3,0,7.8-3.5,7.8-7.8V244V8.8C486,4.5,482.5,1,478.2,1z M470.3,236.2h-60.2c3.5-7.3,5.3-15.3,5.3-23.5
	c0-24.6-16.1-45.7-39.2-52.6v-41.5c0-4.3-3.5-7.8-7.8-7.8H250.8V91.4V16.7h219.5V236.2z M360.6,267.5h-15.7H243h-70.5h-31.4h-15.7
	v-47h15.7H243h70.5h31.4h15.7V267.5z M243,361.6H125.4v-39.9v-7.1h15.7h19.3H243h101.9h15.7v47H243z M148.9,283.2h14.8
	c-1.2,5.7-3.7,11-7.2,15.7h-7.6V283.2z M235.2,298.9H175c2.4-5,4-10.2,4.8-15.7h55.4V298.9z M337.1,298.9h-86.2v-15.7h86.2V298.9z
	 M148.9,189.1h86.2v15.7h-86.2V189.1z M311,189.1c-2.4,5-4,10.2-4.8,15.7h-55.4v-15.7H311z M337.1,204.8h-14.8
	c1.2-5.7,3.7-11,7.2-15.7h7.6V204.8z M344.9,173.5h-19.3H243H141.1h-15.7v-47h39.9H243h117.6v39.9v7.1H344.9z M235.2,110.7h-59.3
	c6.1-14,19.8-23.5,35.7-23.5c8.5,0,16.7,2.9,23.5,8.1V110.7z M15.7,16.7h219.5v60.2c-7.3-3.5-15.3-5.3-23.5-5.3
	c-24.6,0-45.7,16.1-52.6,39.2h-41.5c-4.3,0-7.8,3.5-7.8,7.8v62.7c0,4.3,3.5,7.8,7.8,7.8h15.7v15.7h-15.7c-4.3,0-7.8,3.5-7.8,7.8
	v62.7c0,4.3,3.5,7.8,7.8,7.8h15.7v15.7h-15.7c-4.3,0-7.8,3.5-7.8,7.8v4.4c-14-6.1-23.5-19.8-23.5-35.7c0-9.6,3.6-18.9,10-26.1
	c2.1-2.3,2.6-5.6,1.3-8.4s-4.1-4.6-7.2-4.6H15.7V16.7z M15.7,251.8h60.2c-3.5,7.3-5.3,15.3-5.3,23.5c0,24.6,16.1,45.7,39.2,52.6
	v41.5c0,4.3,3.5,7.8,7.8,7.8h117.6v94.1H15.7V251.8z M470.3,471.3h-60.2c3.5-7.3,5.3-15.3,5.3-23.5c0-30.2-24.6-54.9-54.9-54.9
	c-30.2,0-54.9,24.6-54.9,54.9c0,8.2,1.8,16.2,5.3,23.5h-60.2v-94.1h117.6c4.3,0,7.8-3.5,7.8-7.8v-62.7c0-4.3-3.5-7.8-7.8-7.8h-15.7
	v-15.7h15.7c4.3,0,7.8-3.5,7.8-7.8v-62.7c0-4.3-3.5-7.8-7.8-7.8h-15.7v-15.7h15.7c4.3,0,7.8-3.5,7.8-7.8v-4.4
	c14,6.1,23.5,19.8,23.5,35.7c0,9.6-3.6,18.9-10,26.1c-2.1,2.3-2.6,5.6-1.3,8.4s4.1,4.6,7.2,4.6h74.8V471.3z"/>
<rect x="141.1" y="142.1" width="141.1" height="15.7"/>
<rect x="313.5" y="142.1" width="31.4" height="15.7"/>
<rect x="141.1" y="236.2" width="141.1" height="15.7"/>
<rect x="313.5" y="236.2" width="31.4" height="15.7"/>
<rect x="141.1" y="330.2" width="141.1" height="15.7"/>
<rect x="313.5" y="330.2" width="31.4" height="15.7"/>
</svg>
