<?xml version="1.0" encoding="utf-8"?>
<!-- Generator: Adobe Illustrator 22.1.0, SVG Export Plug-In . SVG Version: 6.00 Build 0)  -->
<svg version="1.1" id="Layer_5" xmlns="http://www.w3.org/2000/svg" xmlns:xlink="http://www.w3.org/1999/xlink" x="0px" y="0px"
	 viewBox="0 0 487 487" style="enable-background:new 0 0 487 487;" xml:space="preserve">
<title>svg_icons</title>
<g>
	<path d="M217.2,268.8c-14.1-14.1-14.1-37.5,0.5-51.6c14.1-14.1,37.5-14.1,51.6,0.5c14.1,14.1,14.1,37.5-0.5,51.6
		C254.2,282.9,231.3,282.9,217.2,268.8z M188.5,160.3c11.2-7.3,23.3-12.2,36-14.6v-18.5c0-4.4,3.9-8.3,8.3-8.3h22.4
		c4.4,0,8.3,3.9,8.3,8.3v18.5c12.6,2.4,24.8,7.3,35.5,15.1l13.1-13.1c3.4-3.4,8.3-2.9,11.7,0l15.6,15.6c3.4,3.4,2.9,8.3,0,11.7
		l-13.6,13.6c7.3,11.2,12.2,23.3,14.6,36h18.5c4.4,0,8.3,3.9,8.3,8.3v22.4c0,4.4-3.9,8.3-8.3,8.3h-18.5
		c-2.4,12.6-7.3,24.8-15.1,35.5l13.1,13.1c3.4,3.4,2.9,8.3,0,11.7l-15.6,15.6c-3.4,3.4-8.3,2.9-11.7,0l-13.6-13.6
		c-11.2,7.3-23.3,12.2-36,14.6v18.5c0,4.4-3.9,8.3-8.3,8.3h-22.4c-4.4,0-8.3-3.9-8.3-8.3v-18.5c-12.6-2.4-24.8-7.3-35.5-15.1
		l-13.1,13.1c-3.4,3.4-8.3,2.9-11.7,0l-15.6-15.6c-3.4-3.4-2.9-8.3,0-11.7l13.1-13.1c-7.3-11.2-12.2-23.3-14.6-36h-18.5
		c-4.4,0-8.3-3.9-8.3-8.3v-22.4c0-4.4,3.9-8.3,8.3-8.3h18.5c2.4-12.6,7.3-24.8,15.1-35.5l-13.1-13.1c-3.4-3.4-2.9-8.3,0-11.7
		l15.6-15.6c3.4-3.4,8.3-2.9,11.7,0L188.5,160.3z M202.6,202.1c-22.9,22.4-22.9,58.9-0.5,81.2s58.9,22.9,81.7,0.5
		c22.4-22.4,22.9-58.9,0.5-81.7C261.5,179.8,225,179.8,202.6,202.1z M295,135c-1,0-2.4,0-3.4,0H280V75.7c0-22.9,18.5-41.3,41.3-41.3
		H334c3.4-13.6,16.1-23.8,30.6-23.8c17.5,0,31.6,14.1,31.6,31.6s-14.1,31.6-31.6,31.6c-14.6,0-27.2-10.2-30.6-23.8h-13.1
		c-14.6,0-26.3,11.7-26.3,26.3V135H295z M347.6,41.6c0,9.2,7.3,16.5,16.5,16.5c9.2,0,16.5-7.3,16.5-16.5s-7.3-16.5-16.5-16.5
		C354.9,25.1,347.6,32.9,347.6,41.6z M235.2,103.4V72.7c-13.6-3.4-23.8-16.1-23.8-30.6c0-17.5,14.1-31.6,31.6-31.6
		s31.6,14.1,31.6,31.6c0,14.6-10.2,27.2-23.8,30.6v30.6H235.2z M243,58.2c9.2,0,16.5-7.3,16.5-16.5s-7.3-16.5-16.5-16.5
		c-9.2,0-16.5,7.3-16.5,16.5S233.8,58.2,243,58.2z M206.5,75.7V135h-9.7c-1.9,0-3.4,0-5.4,0.5V75.7c0-14.6-11.7-26.3-26.3-26.3
		h-12.6c-3.4,13.6-16.1,23.8-30.6,23.8c-17.5,0-31.6-14.1-31.6-31.6S104.4,10,121.9,10c14.6,0,27.2,10.2,30.6,23.8h12.6
		C188,34.3,206.5,52.8,206.5,75.7z M138.4,41.6c0-9.2-7.3-16.5-16.5-16.5s-16.5,7.3-16.5,16.5s7.3,16.5,16.5,16.5
		S138.4,50.9,138.4,41.6z M194.8,351.5h11.7v59.3c0,22.9-18.5,41.3-41.3,41.3h-12.6c-3.4,13.6-16.1,23.8-30.6,23.8
		c-17.5,0-31.6-14.1-31.6-31.6s14.1-31.6,31.6-31.6c14.6,0,27.2,10.2,30.6,23.8h12.6c14.6,0,26.3-11.7,26.3-26.3V351
		C192.4,351,193.4,351.5,194.8,351.5z M138.4,444.4c0-9.2-7.3-16.5-16.5-16.5s-16.5,7.3-16.5,16.5s7.3,16.5,16.5,16.5
		S138.4,453.1,138.4,444.4z M274.6,444.4c0,17.5-14.1,31.6-31.6,31.6s-31.6-14.1-31.6-31.6c0-14.6,10.2-27.2,23.8-30.6v-30.6h15.1
		v30.2C264.4,416.7,274.6,429.3,274.6,444.4z M259.5,444.4c0-9.2-7.3-16.5-16.5-16.5c-9.2,0-16.5,7.3-16.5,16.5s7.3,16.5,16.5,16.5
		C252.2,460.9,259.5,453.1,259.5,444.4z M395.7,444.4c0,17.5-14.1,31.6-31.6,31.6c-14.6,0-27.2-10.2-30.6-23.8h-12.6
		c-22.9,0-41.3-18.5-41.3-41.3v-59.3h9.7c1.9,0,3.4,0,5.4-0.5v59.8c0,14.6,11.7,26.3,26.3,26.3h12.6c3.4-13.6,16.1-23.8,30.6-23.8
		C381.6,412.3,395.7,426.9,395.7,444.4z M380.7,444.4c0-9.2-7.3-16.5-16.5-16.5c-9.2,0-16.5,7.3-16.5,16.5s7.3,16.5,16.5,16.5
		C373.4,460.9,380.7,453.1,380.7,444.4z M134.5,206.5H75.7c-22.9,0-41.3-18.5-41.3-41.3v-12.6c-13.6-3.4-23.8-16.1-23.8-30.6
		c0-17.5,14.1-31.6,31.6-31.6s31.6,14.1,31.6,31.6c0,14.6-10.2,27.2-23.8,30.6v12.6c0,14.6,11.7,26.3,26.3,26.3h59.3
		c0,1,0,2.4,0,3.4v11.7H134.5z M58.2,121.9c0-9.2-7.3-16.5-16.5-16.5s-16.5,7.3-16.5,16.5s7.3,16.5,16.5,16.5S58.2,131.1,58.2,121.9
		z M72.7,235.7h30.6v15.1H72.7c-3.4,13.6-16.1,23.8-30.6,23.8c-17.5,0-31.6-14.1-31.6-31.6s14.1-31.6,31.6-31.6
		C56.7,211.4,69.3,221.6,72.7,235.7z M58.2,243c0-9.2-7.3-16.5-16.5-16.5s-16.1,7.3-16.1,16.5c0,9.2,7.3,16.5,16.5,16.5
		S58.2,252.2,58.2,243z M49.4,320.8v12.6c13.6,3.4,23.8,16.1,23.8,30.6c0,17.5-14.1,31.6-31.6,31.6S10,381.6,10,364.1
		c0-14.6,10.2-27.2,23.8-30.6v-12.6c0-22.9,18.5-41.3,41.3-41.3h59.3v9.7c0,1.9,0,3.4,0.5,5.4H75.7C61.1,295,49.4,306.7,49.4,320.8z
		 M41.6,347.6c-9.2,0-16.5,7.3-16.5,16.5c0,9.2,7.3,16.5,16.5,16.5s16.5-7.3,16.5-16.5C58.2,354.9,50.9,347.6,41.6,347.6z
		 M476,364.1c0,17.5-14.1,31.6-31.6,31.6s-31.6-14.1-31.6-31.6c0-14.6,10.2-27.2,23.8-30.6v-12.6c0-14.6-11.7-26.3-26.3-26.3H351
		c0-1,0-2.4,0-3.4v-11.7h59.3c22.9,0,41.3,18.5,41.3,41.3v12.6C465.3,336.9,476,349,476,364.1z M460.4,364.1
		c0-9.2-7.3-16.5-16.5-16.5c-9.2,0-16.1,7.3-16.1,16.5c0,9.2,7.3,16.5,16.5,16.5S460.4,373.4,460.4,364.1z M476,243
		c0,17.5-14.1,31.6-31.6,31.6c-14.6,0-27.2-10.2-30.6-23.8h-30.6v-15.1h30.2c3.4-13.6,16.1-23.8,30.6-23.8
		C461.4,211.4,476,225.5,476,243z M460.4,243c0-9.2-7.3-16.5-16.5-16.5c-9.2,0-16.1,7.3-16.1,16.5c0,9.2,7.3,16.5,16.5,16.5
		S460.4,252.2,460.4,243z M476,121.9c0,14.6-10.2,27.2-23.8,30.6v12.6c0,22.9-18.5,41.3-41.3,41.3h-59.3v-9.7c0-1.9,0-3.4-0.5-5.4
		h59.8c14.6,0,26.3-11.7,26.3-26.3v-12.6c-13.6-3.4-23.8-16.1-23.8-30.6c0-17.5,14.1-31.6,31.6-31.6C461.4,90.3,476,104.4,476,121.9
		z M460.4,121.9c0-9.2-7.3-16.5-16.5-16.5c-9.2,0-16.1,7.3-16.1,16.5s7.3,16.5,16.5,16.5S460.4,131.1,460.4,121.9z"/>
</g>
</svg>
