<svg id="Layer_5" data-name="Layer 5" xmlns="http://www.w3.org/2000/svg" viewBox="0 0 487 487"><title>svg_icons</title><path d="M322.55,171.36V329.64H164.27V171.36H322.55m12.18-12.17H152.1V341.81H334.73V159.19Z" transform="translate(-6 -7)"></path><path d="M493,7H468.65V19.18H493V7ZM420,7H395.6V19.18H420V7ZM346.9,7H322.55V19.18H346.9V7Zm-73,0H249.5V19.18h24.35V7ZM200.8,7H176.45V19.18H200.8V7ZM127.75,7H103.4V19.18h24.35V7Zm-73,0H30.35V19.18H54.7V7ZM18.18,31.35H6V55.7H18.18V31.35Zm0,73.05H6v24.35H18.18V104.4Zm0,73H6V201.8H18.18V177.45Zm0,73.05H6v24.35H18.18V250.5Zm0,73.05H6V347.9H18.18V323.55Zm0,73.05H6V421H18.18V396.6Zm0,73H6V494H18.18V469.65Zm60.87,12.18H54.7V494H79.05V481.83Zm73.05,0H127.75V494H152.1V481.83Zm73.05,0H200.8V494h24.35V481.83Zm73,0H273.85V494H298.2V481.83Zm73.05,0H346.9V494h24.35V481.83Zm73.05,0H420V494H444.3V481.83ZM493,469.65H480.83V494H493V469.65Zm0-73H480.83V421H493V396.6Zm0-73.05H480.83V347.9H493V323.55Zm0-73.05H480.83v24.35H493V250.5Zm0-73.05H480.83V201.8H493V177.45Zm0-73H480.83v24.35H493V104.4Zm0-73.05H480.83V55.7H493V31.35Z" transform="translate(-6 -7)"></path><polygon points="426.13 109.58 413.95 109.58 413.95 73.05 383.51 73.05 383.51 60.88 426.13 60.88 426.13 109.58"></polygon><rect x="355.94" y="96.98" width="82.18" height="11.57" transform="translate(37.62 303.84) rotate(-45)"></rect><polygon points="426.13 432.21 377.43 432.21 377.43 420.04 413.95 420.04 413.95 389.6 426.13 389.6 426.13 432.21"></polygon><rect x="386.63" y="356.49" width="12.17" height="85.22" transform="translate(-173.18 387.59) rotate(-45)"></rect><polygon points="66.96 109.58 54.79 109.58 54.79 60.88 97.4 60.88 97.4 73.05 66.96 73.05 66.96 109.58"></polygon><rect x="90.41" y="62.18" width="11.57" height="81.57" transform="translate(-50.63 91.17) rotate(-45)"></rect><polygon points="103.49 432.21 54.79 432.21 54.79 389.6 66.96 389.6 66.96 420.04 103.49 420.04 103.49 432.21"></polygon><rect x="57.94" y="393.02" width="85.22" height="12.17" transform="translate(-258.76 180.99) rotate(-45)"></rect></svg>