<?xml version="1.0" encoding="utf-8"?>
<!-- Generator: Adobe Illustrator 22.1.0, SVG Export Plug-In . SVG Version: 6.00 Build 0)  -->
<svg version="1.1" id="Layer_3" xmlns="http://www.w3.org/2000/svg" xmlns:xlink="http://www.w3.org/1999/xlink" x="0px" y="0px"
	 viewBox="0 0 494 494" style="enable-background:new 0 0 494 494;" xml:space="preserve">
<style type="text/css">
	.st0{display:none;}
</style>
<title>sales</title>
<path d="M478.1,478.1h-79.7c-0.2,0.2-0.3,0.5-0.5,0.7c-0.3,0.5-0.7,0.9-1.1,1.3c0.4-0.4,0.7-0.9,1.1-1.3l0.5-0.7h-61.2V494H486
	c4.4,0,8-3.6,8-8V338.2h-15.9L478.1,478.1z M394.2,486.1c0-0.1,0-0.1,0-0.2s0-0.1,0-0.1V486.1z M396.9,492c-0.1-0.1-0.3-0.2-0.4-0.4
	c0.2,0.2,0.3,0.3,0.5,0.5L396.9,492z M486,0H337.2v15.9h140.9v141.9h16V8C494.1,3.6,490.5,0,486,0C486,0,486,0,486,0z M16,338.2H0
	V486c0,4.4,3.6,8,8,8h148.8v-15.9H16V338.2z M0,8v149.8h15.9V15.9h140.9V0H8C3.6,0,0,3.6,0,8z"/>
<path class="st0" d="M343.3,185.7L308,159.3h-78.5l-31.7,31.6c13.6,10.3,32.7,9,44.8-3c0.9-0.9,2-1.3,3.2-1.3h45.5
	c1.2,0,2.3,0.5,3.2,1.3l68.3,66.7c4.2,4.1,6.7,9.7,7,15.5c0.9-1,2.1-1.6,3.5-1.6h22.8v-81.9H346C345,186.6,344,186.3,343.3,185.7z"
	/>
<path class="st0" d="M289.5,195.7h-41.8c-17,15.6-43.3,15-59.7-1.3c-1.8-1.8-1.8-4.7,0-6.4c0,0,0,0,0,0l28.6-28.6h-33l-35.3,26.4
	c-0.8,0.6-1.7,0.9-2.7,0.9H95.6v81.9h23.7c-0.4,3-0.2,6.1,0.6,9.1c2.3,9.8,9.9,17.4,19.7,19.7c-5.9,13.5,0.3,29.1,13.7,35
	c6.8,3,14.5,3,21.3,0c3.4,14.3,17.8,23.1,32.1,19.7c4.8-1.1,9.1-3.6,12.6-7l1.3-1.3l6.4-6.4l9.3,9.3c5.3,5.3,14,5.3,19.3,0
	c6.1-6.1,6.2-16.1,0.1-22.3l-7.9-7.9c2.1-2.4,3.7-5.1,4.8-8.1l9.4,9.4c0.1,0.1,0.1,0.1,0.2,0.2l9.7,9.7c5.8,5.7,15.1,5.7,20.9-0.1
	c2.7-2.8,4.3-6.5,4.3-10.4c0-3.9-1.5-7.7-4.3-10.4l-31.9-31.9c-1.8-1.8-1.8-4.7,0-6.4s4.7-1.8,6.4,0l41,41c5.7,5.9,15,6.1,20.9,0.4
	c5.9-5.7,6.1-15,0.4-20.9c-0.1-0.1-0.3-0.3-0.4-0.4l-41-41c-1.8-1.8-1.8-4.7,0-6.4s4.7-1.8,6.4,0l41,41c5.8,5.8,15.1,5.8,20.9,0
	s5.8-15.1,0-20.9l0,0L289.5,195.7z M137.2,280c-4.7-4.7-4.7-12.3,0-17c0,0,0,0,0,0l9.1-9.1c4.7-4.7,12.3-4.7,17,0
	c4.7,4.7,4.7,12.3,0,17l0,0l-6.1,6.1l-3,3C149.5,284.7,141.9,284.7,137.2,280C137.2,280,137.2,280,137.2,280z M172.4,316.4
	c-4.7,4.7-12.3,4.7-17,0s-4.7-12.3,0-17l9.1-9.1l9.1-9.1l18.2-18.2c4.7-4.7,12.3-4.7,17,0s4.7,12.3,0,17L172.4,316.4z M236.1,307.3
	l-27.3,27.3c-4.7,4.7-12.3,4.7-17,0s-4.7-12.3,0-17l0,0l27.3-27.3c4.7-4.7,12.3-4.7,17,0S240.8,302.6,236.1,307.3L236.1,307.3z"/>
<path class="st0" d="M369.1,439.1h36.8c5.4,0,9.8-4.4,9.8-9.8v-1l23.6,8.3v-83.8L378,374.6v40.5l32.9,11.5v2.7
	c0,2.7-2.2,4.9-4.9,4.9h-36.8c-2.7,0-4.9-2.2-4.9-4.9v-19l8.9,3.1v-37.1l-24.4,8.7v19.9l10.6,3.7v20.7
	C359.3,434.7,363.7,439.1,369.1,439.1z"/>
<path class="st0" d="M84.5,48.5v0.8c0,18.8-15.3,34.1-34.1,34.1h-0.8V68.6h0.8c10.7,0,19.3-8.7,19.3-19.3v-0.8H84.5z"/>
<path class="st0" d="M107.3,48.5v0.8c-0.1,31.4-25.5,56.8-56.9,56.9h-0.8V91.4h0.8c23.3,0,42.1-18.9,42.1-42.1v-0.8H107.3z"/>
<path class="st0" d="M130.1,48.5v0.8c0,44-35.7,79.6-79.7,79.6h-0.8v-14.7h0.8c35.8-0.1,64.9-29.1,64.9-64.9v-0.8H130.1z"/>
<path class="st0" d="M61.8,48.5v0.8c0,6.2-5.1,11.3-11.3,11.3h-0.8V48.5H61.8z"/>
<path class="st0" d="M116.4,438c-7.3,6.6-27.2-1.4-44.2-18.5s-25.1-36.9-18.5-44.3h0.3l8-8c1.5-1.8,4.2-2.1,6-0.6
	c0.2,0.2,0.4,0.4,0.6,0.6l11.8,11.8c1.8,1.5,2.1,4.2,0.6,6c-0.2,0.2-0.4,0.4-0.6,0.6l-7.3,7.7c3.4,4.9,7.3,9.4,11.5,13.6
	c4.2,4.2,8.7,8.1,13.6,11.5l7.7-7.3c1.5-1.8,4.2-2.1,6-0.6c0.2,0.2,0.4,0.4,0.6,0.6l11.8,11.8c1.8,1.5,2.1,4.2,0.6,6
	c-0.2,0.2-0.4,0.4-0.6,0.6L116.4,438L116.4,438z"/>
<path class="st0" d="M441.6,82.6c0.5-0.5,0.8-1.2,0.8-1.9l-0.6-24.3c-0.1-3.7-3-6.7-6.7-6.7l-24.3-0.6c-0.7,0-1.4,0.3-1.9,0.8
	l-33,33c-4,4-4,10.5,0,14.6l0,0l18.2,18.2l0,0c4,4,10.5,4,14.6,0l0,0L441.6,82.6z M413.5,77.9c-3.7-3.7-3.7-9.7,0-13.4
	c3.7-3.7,9.7-3.7,13.4,0c3.7,3.7,3.7,9.7,0,13.4c0,0,0,0,0,0C423.2,81.6,417.2,81.6,413.5,77.9C413.5,77.9,413.5,77.9,413.5,77.9z"
	/>
<path class="st0" d="M336.4,480.1c-0.4-0.4-0.7-0.9-1.1-1.3C335.6,479.2,336,479.6,336.4,480.1z"/>
<path d="M264,54.8h-64c-9.9,0-18,8-18,18v9.7h-9.8c-7.1,0-12.8,5.7-12.8,12.8c0,0,0,0,0,0v52.3c0,7.1,5.7,12.8,12.8,12.8
	c0,0,0,0,0,0h13v14.8c0.1,1.5,1.3,2.6,2.8,2.5c0.6,0,1.2-0.3,1.6-0.7l16.5-16.5l0.1-0.1h35.3c7.1,0,12.8-5.7,12.8-12.8c0,0,0,0,0,0
	V139h9.5c9.9,0,17.9-8,18-18V72.8C282,62.9,274,54.8,264,54.8z M217,135c-1.5,1.8-3.5,3.1-5.8,3.7c-0.7,0.2-0.9,0.4-0.8,1.1
	s0,1.3,0,2c0,0.3,0,0.6,0,1c0.1,1-0.7,1.9-1.7,2c-0.1,0-0.2,0-0.3,0h-1.7h-1.5c-1.1,0.1-2-0.8-2-1.8c0-0.1,0-0.2,0-0.3v-2.1
	c0-0.3,0-0.7-0.1-1c-0.3-0.1-0.6-0.2-0.9-0.2c-2-0.3-3.9-0.8-5.8-1.7c-1.7-0.8-2-1.5-1.5-3.2c0.3-1.1,0.6-2.2,0.9-3.2
	c0.2-0.6,0.5-1.6,1.5-1.6c0.5,0,0.9,0.2,1.3,0.4c1.9,0.9,3.9,1.6,5.9,1.8c1.3,0.2,2.5,0,3.7-0.5c0.9-0.3,1.5-1.1,1.6-2
	c0.1-0.9-0.3-1.8-1.1-2.4c-0.7-0.5-1.4-0.9-2.1-1.2c-0.7-0.3-1.3-0.5-2-0.8c-1.5-0.6-3-1.3-4.4-2.1c-3.9-2.3-5.6-5.3-5.3-9.2
	c0.3-4.5,2.7-7.6,7.3-9.3c1.2-0.5,1.2-0.5,1.3-1.7v-0.6c0-0.4,0-0.8,0-1.2c0-1.7,0.5-2.2,2.2-2.2h1.5c2.9,0,3.2,0.5,3.2,3.5
	c0,1.4,0,1.4,1.4,1.6c1.6,0.2,3.1,0.7,4.5,1.3c1,0.3,1.6,1.4,1.2,2.4c0,0,0,0,0,0.1l-0.3,1c-0.3,0.9-0.5,1.8-0.8,2.7
	c-0.2,0.7-0.6,2.2-2.8,1.2c-2.1-1-4.4-1.5-6.6-1.3c-0.6,0-1.1,0.1-1.6,0.3c-0.7,0.3-1.2,0.9-1.3,1.6c-0.1,0.7,0.3,1.5,0.9,1.9
	c0.9,0.6,1.8,1.1,2.8,1.5l0.7,0.3c1.7,0.7,3.3,1.4,4.9,2.2c2.9,1.6,4.9,4.3,5.6,7.5C219.8,129.5,219,132.6,217,135z M269.7,121
	c0,3.1-2.5,5.7-5.7,5.7h-9.5V95.4c0-7.1-5.7-12.8-12.8-12.8l0,0h-47.4v-9.7c0-3.1,2.6-5.6,5.7-5.6h64c3.1,0,5.7,2.5,5.7,5.7
	L269.7,121z"/>
<g>
	<path d="M101.1,298.9v92.4c0,3.4,2.7,6.1,6.1,6.1h49c3.4,0,6.1-2.7,6.1-6.1v-49.1c17.2-0.9,30.6-15.1,30.6-32.3v-10.4h11.2
		l129.7,47.2v1.8c0,10.1,8.2,18.4,18.4,18.4c10.1,0,18.4-8.2,18.4-18.4v-68c16.6-3.4,27.3-19.5,23.9-36.1
		c-2.4-12.1-11.9-21.5-23.9-23.9v-68c0-10.1-8.2-18.4-18.4-18.4c-10.1,0-18.4,8.2-18.4,18.4v2.2l-130,59.1h-96.7
		c-23.7,0.2-42.7,19.5-42.6,43.2C64.8,277.9,80.2,295.7,101.1,298.9z M370.6,233.1c9.5,3.3,14.6,13.7,11.2,23.3
		c-1.8,5.3-6,9.4-11.2,11.2V233.1z M346.1,342.3V152.4c0-3.4,2.7-6.1,6.1-6.1c3.4,0,6.1,2.7,6.1,6.1v196c0,3.4-2.7,6.1-6.1,6.1
		c-3.4,0-6.1-2.7-6.1-6.1V342.3z M211.3,223.7L333.8,168v165.5L211.3,289V223.7z M150.1,385.1h-36.8v-12.3h12.3v-12.3h-12.3v-12.3
		h12.3v-12.3h-12.3v-12.3h12.3v-12.3h-12.3v-12.3h36.8V385.1z M180.7,309.8c0,10.4-8,19.2-18.4,20v-30.4h18.4V309.8z M85.6,234.9
		c5.7-5.8,13.5-9,21.7-9h91.9v61.3h-91.9c-16.9,0-30.6-13.7-30.6-30.6C76.6,248.4,79.8,240.6,85.6,234.9z"/>
	<path d="M131.7,274.9c10.1,0,18.4-8.2,18.4-18.4c0-10.1-8.2-18.4-18.4-18.4s-18.4,8.2-18.4,18.4
		C113.3,266.7,121.6,274.9,131.7,274.9z M131.7,250.4c3.4,0,6.1,2.7,6.1,6.1c0,3.4-2.7,6.1-6.1,6.1c-3.4,0-6.1-2.7-6.1-6.1
		C125.6,253.1,128.3,250.4,131.7,250.4z"/>
	<circle cx="235.8" cy="366.8" r="12.3"/>
	<path d="M430.8,118.4c-1.9-2.8-5.7-3.6-8.5-1.7c0,0,0,0,0,0l-36.8,24.5c-2.8,1.9-3.6,5.7-1.7,8.5c1.9,2.8,5.7,3.6,8.5,1.7l0,0
		l36.8-24.5C431.9,125,432.7,121.2,430.8,118.4C430.8,118.4,430.8,118.4,430.8,118.4z"/>
	<path d="M424.5,195.4l-30.6,6.1c-3.3,0.7-5.5,3.9-4.8,7.2c0.6,2.9,3.1,4.9,6,4.9c0.4,0,0.8,0,1.2-0.1l30.6-6.1
		c3.3-0.8,5.3-4.1,4.6-7.4C430.8,196.9,427.7,194.9,424.5,195.4L424.5,195.4z"/>
	<path d="M426.9,293.4l-30.6-6.1c-3.3-0.8-6.6,1.3-7.4,4.6c-0.8,3.3,1.3,6.6,4.6,7.4c0.1,0,0.3,0.1,0.4,0.1l30.6,6.1
		c0.4,0.1,0.8,0.1,1.2,0.1c3.4,0,6.1-2.7,6.1-6.1C431.9,296.5,429.8,294,426.9,293.4z"/>
	<path d="M428.5,361.3l-36.8-18.4c-3-1.5-6.7-0.3-8.2,2.7c-1.5,3-0.3,6.7,2.7,8.2l36.8,18.4c3,1.5,6.7,0.3,8.2-2.7
		C432.7,366.5,431.5,362.8,428.5,361.3z"/>
	<path d="M70.5,201.4c1.6,0,3.2-0.6,4.3-1.8l55.1-55.1c2.4-2.4,2.3-6.3-0.2-8.7c-2.4-2.3-6.1-2.3-8.5,0l-55.1,55.1
		c-2.4,2.4-2.4,6.3,0,8.7C67.3,200.7,68.8,201.4,70.5,201.4z"/>
	<circle cx="119.5" cy="189.1" r="12.3"/>
	<circle cx="76.6" cy="146.3" r="12.3"/>
	<path d="M254.2,330h-49c-3.4,0-6.1,2.7-6.1,6.1l0.1,48.9c0,1.6,0.7,3.1,1.8,4.3l55.1,55.1c2.4,2.4,6.3,2.4,8.7,0c0,0,0,0,0,0
		l48.9-48.9c2.4-2.4,2.4-6.3,0-8.7l-55.1-55.1C257.4,330.6,255.8,330,254.2,330z M260.5,431.5l-49-49l-0.1-40.2h40.3l49,49
		L260.5,431.5z"/>
</g>
</svg>
