<?xml version="1.0" encoding="utf-8"?>
<!-- Generator: Adobe Illustrator 22.1.0, SVG Export Plug-In . SVG Version: 6.00 Build 0)  -->
<svg version="1.1" id="Layer_1" xmlns="http://www.w3.org/2000/svg" xmlns:xlink="http://www.w3.org/1999/xlink" x="0px" y="0px"
	 viewBox="0 0 80.9 80.9" style="enable-background:new 0 0 80.9 80.9;" xml:space="preserve">
<style type="text/css">
	.st0{display:none;fill:#FFFFFF;}
</style>
<title>sales</title>
<polygon id="exit-white-bg" class="st0" points="80.9,1.6 80.9,79.6 79.6,80.9 1.3,80.9 0,79.6 0,51.2 15.5,51.2 15.8,45.8 
	36.5,45.8 36.8,35.1 57.2,35.1 57.3,24.3 79.7,1.6 "/>
<g>
	<rect x="9.3" y="28.4" width="33.7" height="1.9"/>
	<rect x="9.3" y="36.9" width="24.1" height="1.9"/>
	<rect x="9.3" y="70.1" width="29.4" height="1.9"/>
	<rect x="9.3" y="63.4" width="19.9" height="1.9"/>
	<rect x="9.3" y="19.8" width="62" height="1.9"/>
	<rect x="41.7" y="6.2" width="2.4" height="1.9"/>
	<rect x="48.5" y="6.2" width="2.4" height="1.9"/>
	<rect x="34.8" y="6.2" width="2.4" height="1.9"/>
	<rect x="28.1" y="6.2" width="2.4" height="1.9"/>
	<path d="M78.3,77.9H2.4v-72h15.7v9.1h44.6V5.9h15.7v29.3h2.4V3H62.6v-3.2H18.1V3H0v77.9h80.7V68.7h-2.4V77.9z M20.5,1.7h39.8v10.9
		H20.5V1.7z"/>
	<path d="M48.9,60.6l11.3-5.9l6.5-11l-11.3,5.9L48.9,60.6z M57.8,50c1.2,0,2.1,0.9,2.1,2.1s-0.9,2.1-2.1,2.1s-2.1-0.9-2.1-2.1
		S56.7,50,57.8,50z M74.6,49.9c-1-7.6-7-13.6-14.6-14.6l-2.2-3.8l-2.2,3.8c-7.6,1-13.6,7-14.6,14.6l-3.8,2.2l3.8,2.2
		c1,7.6,7,13.6,14.6,14.6l2.2,3.8l2.2-3.8c7.6-1,13.6-7,14.6-14.6l3.8-2.2L74.6,49.9z M57.8,66c-7.7,0-13.9-6.2-13.9-13.9
		s6.2-13.9,13.9-13.9s13.9,6.2,13.9,13.9S65.5,66,57.8,66z"/>
</g>
</svg>
