<?xml version="1.0" encoding="utf-8"?>
<!-- Generator: Adobe Illustrator 22.1.0, SVG Export Plug-In . SVG Version: 6.00 Build 0)  -->
<svg version="1.1" id="Layer_1" xmlns="http://www.w3.org/2000/svg" xmlns:xlink="http://www.w3.org/1999/xlink" x="0px" y="0px"
	 viewBox="0 0 80.9 80.9" style="enable-background:new 0 0 80.9 80.9;" xml:space="preserve">
<style type="text/css">
	.st0{fill:#FFFFFF;}
	.st1{display:none;fill:#FFFFFF;}
	.st2{display:none;}
	.st3{display:inline;}
</style>
<title>sales</title>
<rect x="20.5" y="1.7" class="st0" width="39.8" height="10.9"/>
<polygon class="st1" points="71.1,38.2 71.1,69.9 78.4,69.9 78.4,77.9 2.4,77.9 2.4,5.9 18.1,5.9 18.1,15 62.7,15 62.7,5.9 
	78.4,5.9 78.4,38.2 "/>
<polygon id="exit-white-bg" class="st1" points="80.9,1.6 80.9,79.6 79.6,80.9 1.3,80.9 0,79.6 0,51.2 15.5,51.2 15.8,45.8 
	36.5,45.8 36.8,35.1 57.2,35.1 57.3,24.3 79.7,1.6 "/>
<g>
	<rect x="41.7" y="6.2" width="2.4" height="1.9"/>
	<rect x="48.5" y="6.2" width="2.4" height="1.9"/>
	<rect x="34.8" y="6.2" width="2.4" height="1.9"/>
	<rect x="28.1" y="6.2" width="2.4" height="1.9"/>
	<path d="M62.6,3v-3.2H18.1V3l1.5-2.2H61l1.1,3.4l18.8,0.6V3H62.6z"/>
	<path d="M80.9,38.2V4.8L62.1,4.2L61,0.8H19.6L18.1,3H0v77.9h80.9v-11h-2.5v8h-76v-72h15.7V15h44.6V5.9h15.7v32.3H80.9z M60.3,12.6
		H20.5V1.7h39.8V12.6z"/>
</g>
<path d="M53,21.6l-1.7,1.3H9.2c-0.7,0-1.3-0.3-1.3-0.7c0-0.4,0.6-0.7,1.3-0.7H53z"/>
<path d="M47.9,25.6L46,26.9H9.2c-0.7,0-1.3-0.3-1.3-0.7c0-0.4,0.6-0.7,1.3-0.7H47.9z"/>
<path d="M42.4,29.6l-1.8,1.3H11c-1.7,0-3.1-0.3-3.1-0.7s1.4-0.7,3.1-0.7H42.4z"/>
<path d="M32.7,40.1l-0.6,1.3H9.2c-0.7,0-1.3-0.3-1.3-0.7c0-0.4,0.6-0.7,1.3-0.7H32.7z"/>
<path d="M30.9,44.1l-0.6,1.3H9.2c-0.7,0-1.3-0.3-1.3-0.7c0-0.4,0.6-0.7,1.3-0.7H30.9z"/>
<path d="M28.3,48.1l-1.2,1.3H11.3c-1.9,0-3.4-0.3-3.4-0.7c0-0.4,1.5-0.7,3.4-0.7H28.3z"/>
<path d="M34,60.6H9.2c-0.7,0-1.3-0.3-1.3-0.7s0.6-0.7,1.3-0.7h23.9L34,60.6z"/>
<path d="M36.6,64.5H9.2c-0.7,0-1.3-0.3-1.3-0.7c0-0.4,0.6-0.7,1.3-0.7h26.5L36.6,64.5z"/>
<path d="M40.2,68.5H10.6c-1.5,0-2.7-0.3-2.7-0.7c0-0.4,1.2-0.7,2.7-0.7h28.3L40.2,68.5z"/>
<g class="st2">
	<path class="st3" d="M41,69.1c0.1,0.3,0.2,0.6,0.4,0.9c0.6-0.1,1.1-0.2,1.6-0.4c0-0.3-0.1-0.6-0.1-0.9c0.3-0.2,0.7-0.3,1-0.6
		c0.2,0.2,0.5,0.4,0.8,0.6c0.4-0.3,0.8-0.7,1.2-1.2c-0.2-0.3-0.4-0.5-0.6-0.8c0.2-0.3,0.4-0.6,0.6-1c0.3,0.1,0.6,0.1,0.9,0.1
		c0.2-0.5,0.4-1.1,0.4-1.6c-0.3-0.1-0.6-0.3-0.9-0.4c0-0.4,0-0.7,0-1.1c0.3-0.1,0.6-0.2,0.9-0.4c-0.1-0.6-0.2-1.1-0.4-1.6
		c-0.3,0-0.6,0.1-0.9,0.1c-0.2-0.3-0.3-0.7-0.6-1c0.2-0.2,0.4-0.5,0.6-0.8c-0.3-0.4-0.7-0.8-1.2-1.2c-0.3,0.2-0.5,0.4-0.8,0.6
		c-0.3-0.2-0.6-0.4-1-0.6c0-0.3,0.1-0.6,0.1-0.9c-0.5-0.2-1.1-0.4-1.6-0.4c-0.1,0.3-0.3,0.6-0.4,0.9c-0.4,0-0.7,0-1.1,0
		c-0.1-0.3-0.2-0.6-0.4-0.9c-0.6,0.1-1.1,0.2-1.6,0.4c0,0.3,0.1,0.6,0.1,0.9c-0.3,0.2-0.7,0.3-1,0.6c-0.2-0.2-0.5-0.4-0.8-0.6
		c-0.4,0.3-0.8,0.7-1.2,1.2c0.2,0.3,0.4,0.5,0.6,0.8c-0.2,0.3-0.4,0.6-0.6,1c-0.3,0-0.6-0.1-0.9-0.1c-0.2,0.5-0.4,1.1-0.4,1.6
		c0.3,0.1,0.6,0.3,0.9,0.4c0,0.4,0,0.7,0,1.1c-0.3,0.1-0.6,0.2-0.9,0.4c0.1,0.6,0.2,1.1,0.4,1.6c0.3,0,0.6-0.1,0.9-0.1
		c0.2,0.3,0.3,0.7,0.6,1c-0.2,0.2-0.4,0.5-0.6,0.8c0.3,0.4,0.7,0.8,1.2,1.2c0.3-0.2,0.5-0.4,0.8-0.6c0.3,0.2,0.6,0.4,1,0.6
		c-0.1,0.3-0.1,0.6-0.1,0.9c0.5,0.2,1.1,0.4,1.6,0.4c0.1-0.3,0.3-0.6,0.4-0.9C40.2,69.2,40.6,69.2,41,69.1z M36.8,63.3
		c0-2,1.6-3.6,3.6-3.6c2,0,3.6,1.6,3.6,3.6c0,2-1.6,3.6-3.6,3.6C38.4,66.9,36.8,65.3,36.8,63.3z M51,73.1c0.1,0.2,0.2,0.4,0.3,0.5
		c0.4-0.1,0.7-0.3,1-0.5c-0.1-0.2-0.1-0.4-0.2-0.6c0.2-0.1,0.4-0.3,0.6-0.5c0.2,0.1,0.4,0.2,0.6,0.3c0.3-0.3,0.5-0.6,0.6-0.9
		c-0.1-0.2-0.3-0.3-0.5-0.4c0.1-0.2,0.2-0.5,0.3-0.7c0.2,0,0.4,0,0.6,0c0.1-0.4,0.1-0.7,0.1-1.1c-0.2-0.1-0.4-0.1-0.6-0.1
		c0-0.3-0.1-0.5-0.1-0.7c0.2-0.1,0.4-0.2,0.5-0.3c-0.1-0.4-0.3-0.7-0.5-1c-0.2,0.1-0.4,0.1-0.6,0.2c-0.1-0.2-0.3-0.4-0.5-0.6
		c0.1-0.2,0.2-0.4,0.3-0.6c-0.3-0.3-0.6-0.5-0.9-0.6c-0.2,0.1-0.3,0.3-0.4,0.5c-0.2-0.1-0.5-0.2-0.7-0.3c0-0.2,0-0.4,0-0.6
		c-0.4-0.1-0.7-0.1-1.1-0.1c-0.1,0.2-0.1,0.4-0.1,0.6c-0.3,0-0.5,0.1-0.7,0.1c-0.1-0.2-0.2-0.4-0.3-0.5c-0.4,0.1-0.7,0.3-1,0.5
		c0.1,0.2,0.1,0.4,0.2,0.6c-0.2,0.1-0.4,0.3-0.6,0.5c-0.2-0.1-0.4-0.2-0.6-0.3c-0.3,0.3-0.5,0.6-0.6,0.9c0.1,0.2,0.3,0.3,0.5,0.4
		c-0.1,0.2-0.2,0.5-0.3,0.7c-0.2,0-0.4,0-0.6,0c-0.1,0.4-0.1,0.7-0.1,1.1c0.2,0.1,0.4,0.1,0.6,0.1c0,0.3,0.1,0.5,0.1,0.7
		c-0.2,0.1-0.4,0.2-0.5,0.3c0.1,0.4,0.3,0.7,0.5,1c0.2-0.1,0.4-0.1,0.6-0.2c0.1,0.2,0.3,0.4,0.5,0.6c-0.1,0.2-0.2,0.4-0.3,0.6
		c0.3,0.3,0.6,0.5,0.9,0.6c0.2-0.1,0.3-0.3,0.4-0.5c0.2,0.1,0.5,0.2,0.7,0.3c0,0.2,0,0.4,0,0.6c0.4,0.1,0.7,0.1,1.1,0.1
		c0.1-0.2,0.1-0.4,0.1-0.6C50.5,73.2,50.7,73.2,51,73.1z M47.6,69.7c-0.2-1.3,0.6-2.6,2-2.8c1.3-0.2,2.6,0.6,2.8,2
		c0.2,1.3-0.6,2.6-2,2.8C49,71.9,47.8,71,47.6,69.7z M32.3,72.7c0.1,0.2,0.3,0.3,0.4,0.5c0.3-0.1,0.7-0.4,1-0.6
		c-0.1-0.2-0.2-0.4-0.3-0.6c0.2-0.2,0.4-0.3,0.5-0.5c0.2,0.1,0.4,0.2,0.6,0.2c0.2-0.3,0.4-0.6,0.5-1c-0.2-0.1-0.3-0.3-0.5-0.4
		c0.1-0.2,0.1-0.5,0.2-0.7c0.2,0,0.4-0.1,0.6-0.1c0-0.4,0-0.8,0-1.1c-0.2,0-0.4-0.1-0.6-0.1c0-0.2-0.1-0.5-0.2-0.7
		c0.2-0.1,0.3-0.3,0.5-0.4c-0.1-0.3-0.4-0.7-0.6-1c-0.2,0.1-0.4,0.2-0.6,0.3c-0.2-0.2-0.3-0.4-0.5-0.5c0.1-0.2,0.2-0.4,0.2-0.6
		c-0.3-0.2-0.6-0.4-1-0.5c-0.1,0.2-0.3,0.3-0.4,0.5c-0.2-0.1-0.5-0.1-0.7-0.2c0-0.2-0.1-0.4-0.1-0.6c-0.4,0-0.8,0-1.1,0
		c0,0.2-0.1,0.4-0.1,0.6c-0.2,0-0.5,0.1-0.7,0.2c-0.1-0.2-0.3-0.3-0.4-0.5c-0.3,0.1-0.7,0.4-1,0.6c0.1,0.2,0.2,0.4,0.3,0.6
		c-0.2,0.2-0.4,0.3-0.5,0.5c-0.2-0.1-0.4-0.2-0.6-0.2c-0.2,0.3-0.4,0.6-0.5,1c0.2,0.1,0.3,0.3,0.5,0.4C27.1,68,27,68.2,27,68.4
		c-0.2,0-0.4,0.1-0.6,0.1c0,0.4,0,0.8,0,1.1c0.2,0,0.4,0.1,0.6,0.1c0,0.2,0.1,0.5,0.2,0.7c-0.2,0.1-0.3,0.3-0.5,0.4
		c0.1,0.3,0.4,0.7,0.6,1c0.2-0.1,0.4-0.2,0.6-0.3c0.2,0.2,0.3,0.4,0.5,0.5c-0.1,0.2-0.2,0.4-0.2,0.6c0.3,0.2,0.6,0.4,1,0.5
		c0.1-0.2,0.3-0.3,0.4-0.5c0.2,0.1,0.5,0.1,0.7,0.2c0,0.2,0.1,0.4,0.1,0.6c0.4,0,0.8,0,1.1,0c0-0.2,0.1-0.4,0.1-0.6
		C31.9,72.8,32.1,72.8,32.3,72.7z M28.6,69.7c-0.4-1.3,0.4-2.6,1.6-3c1.3-0.4,2.6,0.4,3,1.6c0.4,1.3-0.4,2.6-1.6,3
		C30.3,71.7,28.9,71,28.6,69.7z"/>
</g>
<path d="M43.9,60.2l13.6-7.1l7.8-13.2L51.7,47L43.9,60.2z M54.6,47.4c1.4,0,2.5,1.1,2.5,2.5c0,1.4-1.1,2.5-2.5,2.5
	c-1.4,0-2.5-1.1-2.5-2.5C52.1,48.5,53.3,47.4,54.6,47.4z M74.8,47.3c-1.2-9.1-8.4-16.3-17.5-17.5l-2.6-4.6L52,29.8
	c-9.1,1.2-16.3,8.4-17.5,17.5L29.9,50l4.6,2.6c1.2,9.1,8.4,16.3,17.5,17.5l2.6,4.6l2.6-4.6c9.1-1.2,16.3-8.4,17.5-17.5l4.6-2.6
	L74.8,47.3z M54.6,66.7c-9.2,0-16.7-7.4-16.7-16.7s7.4-16.7,16.7-16.7S71.3,40.7,71.3,50S63.9,66.7,54.6,66.7z"/>
<rect x="78.4" y="69.9" width="2.5" height="0.1"/>
</svg>
