<?xml version="1.0" encoding="utf-8"?>
<!-- Generator: Adobe Illustrator 22.1.0, SVG Export Plug-In . SVG Version: 6.00 Build 0)  -->
<svg version="1.1" xmlns="http://www.w3.org/2000/svg" xmlns:xlink="http://www.w3.org/1999/xlink" x="0px" y="0px"
	 viewBox="0 0 80.9 80.9" style="enable-background:new 0 0 80.9 80.9;" xml:space="preserve">
<style type="text/css">
	.st0{display:none;fill:#FFFFFF;}
	.st1{display:none;}
</style>
<g id="Layer_6">
</g>
<g id="Layer_1">
	<title>sales</title>
	<polygon id="exit-white-bg" class="st0" points="80.9,1.6 80.9,79.6 79.6,80.9 1.3,80.9 0,79.6 0,51.2 15.5,51.2 15.8,45.8 
		36.5,45.8 36.8,35.1 57.2,35.1 57.3,24.3 79.7,1.6 	"/>
	<g>
		<path d="M0.1,0l0,10.5h2.4l0-7.6h12.8V0H0.1z M78.4,69l0,8.9h-76l0-8.9H0l0,11.9h80.9l0-11.9H78.4z M64.9,0v2.9h13.7l0,7.6H81
			L81,0H64.9z"/>
	</g>
	<path d="M46.9,9.4h-2.8c0,0.2,0.1,0.4,0.1,0.6s0,0.5-0.1,0.6h2.8c0-0.2-0.1-0.4-0.1-0.6S46.8,9.6,46.9,9.4z"/>
	<path d="M26.5,10c0,1.5-1.2,2.8-2.8,2.8c-1.5,0-2.8-1.2-2.8-2.8s1.2-2.8,2.8-2.8C25.2,7.3,26.5,8.5,26.5,10z M23.7,9
		c-0.6,0-1.1,0.5-1.1,1.1s0.5,1.1,1.1,1.1c0.6,0,1.1-0.5,1.1-1.1S24.2,9,23.7,9z"/>
	<path d="M35.2,10c0,1.5-1.2,2.8-2.8,2.8s-2.8-1.2-2.8-2.8s1.2-2.8,2.8-2.8S35.2,8.5,35.2,10z M32.4,9c-0.6,0-1.1,0.5-1.1,1.1
		s0.5,1.1,1.1,1.1s1.1-0.5,1.1-1.1C33.4,9.5,33,9,32.4,9z"/>
	<path d="M43.9,10c0,1.5-1.2,2.8-2.8,2.8s-2.8-1.2-2.8-2.8s1.2-2.8,2.8-2.8S43.9,8.5,43.9,10z M41.1,9C40.5,9,40,9.5,40,10.1
		s0.5,1.1,1.1,1.1s1.1-0.5,1.1-1.1S41.7,9,41.1,9z"/>
	<path d="M52.6,10c0,1.5-1.2,2.8-2.8,2.8s-2.8-1.2-2.8-2.8s1.2-2.8,2.8-2.8C51.4,7.3,52.6,8.5,52.6,10z M49.8,9
		c-0.6,0-1.1,0.5-1.1,1.1s0.5,1.1,1.1,1.1c0.6,0,1.1-0.5,1.1-1.1S50.4,9,49.8,9z"/>
	<path d="M20.6,10c0-0.2,0-0.5,0.1-0.6h-2.8v1.3h2.7C20.7,10.5,20.6,10.2,20.6,10z"/>
	<g>
		<path d="M29.4,10.7c0-0.2-0.1-0.4-0.1-0.6s0-0.5,0.1-0.6h-2.8c0,0.2,0.1,0.4,0.1,0.6s0,0.5-0.1,0.6H29.4z"/>
		<path d="M38.1,9.4h-2.8c0,0.2,0.1,0.4,0.1,0.6s0,0.5-0.1,0.6h2.8c0-0.2-0.1-0.4-0.1-0.6S38.1,9.6,38.1,9.4z"/>
	</g>
	<path d="M56.5,6.1l6,3.5c0.3,0.2,0.3,0.6,0,0.8l-6,3.5c-0.3,0.2-0.7,0-0.7-0.4v-7C55.8,6.1,56.2,5.9,56.5,6.1z"/>
	<path d="M52.8,9.4c0,0.2,0.1,0.4,0.1,0.6s0,0.5-0.1,0.6h2.6V9.4C55.4,9.4,52.8,9.4,52.8,9.4z"/>
</g>
<g id="Layer_2" class="st1">
	
		<image style="display:inline;overflow:visible;" width="883" height="884" xlink:href="C:\Users\shank\Desktop\fjhhgv.jpg"  transform="matrix(9.139297e-02 0 0 9.139297e-02 0 0)">
	</image>
</g>
<g id="Layer_4">
	<g>
		<g>
			<g>
				<g>
					<path d="M51.5,75.8h-1.9v-1.7h1.9V75.8z M51.5,72.4h-1.9v-1.7h1.9V72.4z M51.5,69.1h-1.9v-1.7h1.9V69.1z M51.5,65.7h-1.9V64
						h1.9V65.7z M51.5,62.3h-1.9v-1.7h1.9V62.3z M51.5,58.9h-1.9v-1.7h1.9V58.9z M51.5,55.5h-1.9v-1.7h1.9V55.5z M51.5,52.1h-1.9
						v-1.7h1.9V52.1z M51.5,48.7h-1.9V47h1.9V48.7z M51.5,45.3h-1.9v-1.7h1.9V45.3z M51.5,41.9h-1.9v-1.7h1.9V41.9z M51.5,38.6h-1.9
						v-1.7h1.9V38.6z M51.5,35.2h-1.9v-1.7h1.9V35.2z M51.5,31.8h-1.9v-1.7h1.9V31.8z M51.5,28.4h-1.9v-1.7h1.9V28.4z"/>
				</g>
			</g>
		</g>
	</g>
	<g>
		<g>
			<g>
				<g>
					<path d="M70.9,75.8H69v-1.7h1.9V75.8z M70.9,72.4H69v-1.7h1.9V72.4z M70.9,69.1H69v-1.7h1.9V69.1z M70.9,65.7H69V64h1.9V65.7z
						 M70.9,62.3H69v-1.7h1.9V62.3z M70.9,58.9H69v-1.7h1.9V58.9z M70.9,55.5H69v-1.7h1.9V55.5z M70.9,52.1H69v-1.7h1.9V52.1z
						 M70.9,48.7H69V47h1.9V48.7z M70.9,45.3H69v-1.7h1.9V45.3z M70.9,41.9H69v-1.7h1.9V41.9z"/>
				</g>
			</g>
		</g>
	</g>
	<g>
		<g>
			<g>
				<g>
					<path d="M40.6,75.8h-1.9V39.3h1.9V75.8z"/>
				</g>
			</g>
		</g>
	</g>
	<g>
		<g>
			<g>
				<g>
					<path d="M61.4,75.8h-1.9V27.6h1.9V75.8z"/>
				</g>
			</g>
		</g>
	</g>
	<g>
		<g>
			<g>
				<g>
					<path d="M30.7,75.8h-1.9v-1.7h1.9V75.8z M30.7,72.4h-1.9v-1.7h1.9V72.4z M30.7,69.1h-1.9v-1.7h1.9V69.1z M30.7,65.7h-1.9V64
						h1.9V65.7z M30.7,62.3h-1.9v-1.7h1.9V62.3z M30.7,58.9h-1.9v-1.7h1.9V58.9z M30.7,55.5h-1.9v-1.7h1.9V55.5z"/>
				</g>
			</g>
		</g>
	</g>
	<g>
		<g>
			<g>
				<g>
					<path d="M21.7,75.8h-1.9V64.9h1.9V75.8z"/>
				</g>
			</g>
		</g>
	</g>
</g>
<g id="Layer_5" class="st1">
</g>
<g id="Layer_3">
	<g>
		<path d="M76,35.9v3.4c-2.4-3.4-13.2-17.6-23.3-17.6c-8.1,0-14.8,10.4-21.8,21.4C23.3,54.9,15.6,67,4.7,68.6v-2
			C14.5,64.9,22,53.3,29.2,42c7.4-11.5,14.3-22.3,23.5-22.3C62.3,19.7,71.9,30.5,76,35.9z"/>
	</g>
</g>
</svg>
