<svg id="Layer_4" data-name="Layer 4" xmlns="http://www.w3.org/2000/svg" viewBox="0 0 486 486"><title>svg_icons</title><path d="M250,7C116,7,7,116,7,250S116,493,250,493,493,384,493,250,384,7,250,7ZM477.13,242.16h-39.2c-3.31-80.39-57.3-147.92-130.8-171.39l10.78-37.72C407.8,61.24,473.77,143.89,477.13,242.16ZM250,422.45c-95.09,0-172.45-77.36-172.45-172.45S154.91,77.55,250,77.55,422.45,154.91,422.45,250,345.09,422.45,250,422.45Zm0-399.77a227.26,227.26,0,0,1,52.77,6.24L292,66.65A187.75,187.75,0,0,0,99.3,137.5L66.69,115.76C108.1,59.37,174.83,22.68,250,22.68ZM22.68,250A225.87,225.87,0,0,1,57.87,128.73l32.6,21.73A186.88,186.88,0,0,0,61.87,250c0,101.1,80.18,183.8,180.29,187.93v39.2C120.43,473,22.68,372.71,22.68,250ZM257.84,477.13v-39.2c97.5-4,176.07-82.59,180.09-180.09h39.2C473.06,377,377,473.06,257.84,477.13Z" transform="translate(-7 -7)"></path><path d="M250,179.45A70.55,70.55,0,1,0,320.55,250,70.63,70.63,0,0,0,250,179.45Zm0,125.42A54.87,54.87,0,1,1,304.87,250,54.93,54.93,0,0,1,250,304.87Z" transform="translate(-7 -7)"></path><path d="M356.11,300.68a116.32,116.32,0,0,0,4.73-11.49H391.1V210.81H360.83a113,113,0,0,0-4.73-11.49L377.48,178l-55.43-55.43L300.68,143.9a116.32,116.32,0,0,0-11.49-4.73V108.9H210.81v30.27a113,113,0,0,0-11.49,4.73L178,122.52,122.52,178l21.38,21.37a116.32,116.32,0,0,0-4.73,11.49H108.9v78.38h30.27a113,113,0,0,0,4.73,11.49l-21.38,21.37L178,377.48l21.37-21.38a116.32,116.32,0,0,0,11.49,4.73V391.1h78.38V360.83a113,113,0,0,0,11.49-4.73l21.37,21.38,55.43-55.43Zm-34.06,54.63-18.44-18.44-5.14,2.78a101.32,101.32,0,0,1-19.36,8l-5.59,1.67v26.13h-47V349.29l-5.6-1.67a101,101,0,0,1-19.35-8l-5.15-2.78-18.44,18.44-33.26-33.26,18.44-18.44-2.78-5.14a102,102,0,0,1-8-19.36l-1.66-5.59H124.58v-47h26.13l1.67-5.6a101,101,0,0,1,8-19.35l2.78-5.15-18.44-18.44L178,144.68l18.44,18.44,5.14-2.78a102,102,0,0,1,19.36-8l5.59-1.66V124.58h47v26.13l5.6,1.67a101,101,0,0,1,19.35,8l5.15,2.78,18.44-18.44L355.32,178l-18.44,18.44,2.78,5.14a102,102,0,0,1,8,19.36l1.66,5.59h26.13v47H349.29l-1.67,5.6a101,101,0,0,1-8,19.35l-2.78,5.15,18.44,18.44Z" transform="translate(-7 -7)"></path><rect x="235.16" y="235.16" width="15.68" height="15.68"></rect><rect x="266.52" y="235.16" width="15.68" height="15.68"></rect><rect x="203.81" y="235.16" width="15.68" height="15.68"></rect><rect x="235.16" y="203.81" width="15.68" height="15.68"></rect><rect x="235.16" y="266.52" width="15.68" height="15.68"></rect><polygon points="15.68 15.68 78.39 15.68 78.39 0 0 0 0 78.39 15.68 78.39 15.68 15.68"></polygon><rect x="31.35" y="31.35" width="15.68" height="15.68"></rect><rect x="62.71" y="31.35" width="15.68" height="15.68"></rect><polygon points="407.61 0 407.61 15.68 470.32 15.68 470.32 78.39 486 78.39 486 0 407.61 0"></polygon><rect x="438.97" y="31.35" width="15.68" height="15.68"></rect><rect x="407.61" y="31.35" width="15.68" height="15.68"></rect><rect x="31.35" y="62.71" width="15.68" height="15.68"></rect><rect x="438.97" y="62.71" width="15.68" height="15.68"></rect><polygon points="15.68 407.61 0 407.61 0 486 78.39 486 78.39 470.32 15.68 470.32 15.68 407.61"></polygon><rect x="31.35" y="438.97" width="15.68" height="15.68"></rect><rect x="62.71" y="438.97" width="15.68" height="15.68"></rect><polygon points="470.32 470.32 407.61 470.32 407.61 486 486 486 486 407.61 470.32 407.61 470.32 470.32"></polygon><rect x="438.97" y="438.97" width="15.68" height="15.68"></rect><rect x="407.61" y="438.97" width="15.68" height="15.68"></rect><rect x="31.35" y="407.61" width="15.68" height="15.68"></rect><rect x="438.97" y="407.61" width="15.68" height="15.68"></rect></svg>