<?xml version="1.0" encoding="utf-8"?>
<!-- Generator: Adobe Illustrator 22.1.0, SVG Export Plug-In . SVG Version: 6.00 Build 0)  -->
<svg version="1.1" id="Layer_4" xmlns="http://www.w3.org/2000/svg" xmlns:xlink="http://www.w3.org/1999/xlink" x="0px" y="0px"
	 viewBox="0 0 486 486" style="enable-background:new 0 0 486 486;" xml:space="preserve">
<title>svg_icons</title>
<polygon points="15.7,15.7 78.4,15.7 78.4,0 0,0 0,78.4 15.7,78.4 "/>
<rect x="31.4" y="31.4" width="15.7" height="15.7"/>
<rect x="62.7" y="31.4" width="15.7" height="15.7"/>
<polygon points="407.6,0 407.6,15.7 470.3,15.7 470.3,78.4 486,78.4 486,0 "/>
<rect x="439" y="31.4" width="15.7" height="15.7"/>
<rect x="407.6" y="31.4" width="15.7" height="15.7"/>
<rect x="31.4" y="62.7" width="15.7" height="15.7"/>
<rect x="439" y="62.7" width="15.7" height="15.7"/>
<polygon points="15.7,407.6 0,407.6 0,486 78.4,486 78.4,470.3 15.7,470.3 "/>
<rect x="31.4" y="439" width="15.7" height="15.7"/>
<rect x="62.7" y="439" width="15.7" height="15.7"/>
<polygon points="470.3,470.3 407.6,470.3 407.6,486 486,486 486,407.6 470.3,407.6 "/>
<rect x="439" y="439" width="15.7" height="15.7"/>
<rect x="407.6" y="439" width="15.7" height="15.7"/>
<rect x="31.4" y="407.6" width="15.7" height="15.7"/>
<rect x="439" y="407.6" width="15.7" height="15.7"/>
<g>
	<path d="M189.8,460.9c1.3-2.4,2.6-4.8,3.9-7.1L189.8,460.9z"/>
	<path d="M482.5,297.7l-42.1-22.9c0.1-0.9,0.3-1.8,0.4-2.6c2.7-19,2.6-38.1-0.2-57l42.6-22.3c2.2-1.2,3.3-3.7,2.7-6.2
		c-5.5-19.7-13.7-45.3-28.6-69.3c-1.3-2-3.7-3-6-2.3l-45.8,13.5c-0.9-1.3-1.8-2.5-2.7-3.7c-11.7-15.5-25.4-29.1-40.8-40.5l12.9-43.2
		c0.3-0.8,0.5-1.7,0.7-2.5l0.3-1c0.6-2.3-0.4-4.7-2.4-6c-22.3-13.5-44.7-22.6-68.6-28c-2.3-0.5-4.6,0.5-5.8,2.5
		c-7.3,12.5-13.9,24.9-20,36.4l-2.9,5.6c-1.5-0.3-3-0.5-4.6-0.7c-18.5-2.6-37.2-2.6-55.5,0L193.1,4.5c-1.1-2.1-3.5-3.2-5.9-2.7
		c-22.2,5-44.2,13.6-69.1,27.1c-2.2,1.2-3.2,3.7-2.6,6c4,15.4,8.7,30.4,13.8,46.7c-1.8,1.2-3.5,2.5-5.2,3.8
		c-15.4,11.6-29,25.2-40.3,40.6l-43.4-13.4c-5.3-1.6-7.9-0.7-10.7,3.9c-6.2,9.8-10.9,18.9-14.3,27.8l-0.4,1
		c-0.5,1.4-1.1,2.8-1.7,4.2c-4.5,9.4-7.9,19.5-10.2,30.2c-1.2,5.6-0.1,8,4.9,10.7l39.5,21.1c-0.3,1.7-0.6,3.5-0.8,5.2
		c-2.7,18.9-2.6,38,0.1,56.8c-14.3,7.3-29,14.8-43.4,22.9c-2.1,1.2-3.2,3.7-2.5,6.1l1.7,6.1c1.3,4.7,2.6,9.3,4,14
		c1.1,3.7,2.1,6.9,3.6,10.2c4.3,9.2,8.8,18,12.5,25.4c1.5,3,3.2,5.9,4.8,8.9l2.2,3.9c1.2,2.2,3.7,3.2,6.1,2.5L82,360.1
		c0.9,1.3,1.9,2.6,2.8,3.9c12,15.9,26.1,29.8,42.1,41.4c-5,15.5-9.7,31-14.1,46c-0.7,2.3,0.3,4.8,2.4,6.1
		c19.9,12,42.3,21.4,68.4,28.7c0.5,0.1,1,0.2,1.4,0.2c1.9,0,3.7-1,4.7-2.8l19.1-35.8l3.1-5.8l1.1-2c1.5,0.3,3,0.5,4.6,0.7
		c18.5,2.6,37.2,2.6,55.5,0l6.2,10.7l17.1,31.9c0.9,1.7,3.1,2.8,5.1,2.8c0.5,0,1.2,0.1,2.2-0.2l2.2-0.5c2-0.5,4-1,6-1.6
		c16.5-5.1,33.2-11.9,49.8-20.4c1.8-0.9,3.7-1.8,5.6-2.7l3-1.5c0.3-0.2,1-0.6,1.2-0.8l0.5-0.4c2-1.4,2.7-3.9,1.9-6.2l-0.4-1.1
		c-0.2-0.4-0.3-0.8-0.5-1.2c-4.5-16.8-8.5-30.9-12.6-44c1-0.7,2-1.4,3-2.2c16-12.1,30-26.3,41.5-42.3l43.7,13.9
		c0.6,0.2,1.3,0.3,1.8,0.5l0.5,0.1c2.3,0.6,4.7-0.4,6-2.4c14.1-23.5,23.3-46.3,28.2-69.7C485.6,301.1,484.5,298.8,482.5,297.7z
		 M449.9,364.2l-45.4-14.5c-2.2-0.7-4.7,0.1-6,2c-11.4,16.4-25.3,30.9-41.5,43c-1.9,1.4-3.9,2.8-5.8,4.2c-1.9,1.3-2.7,3.8-2,6
		c4.3,13.7,8.6,28.3,13.4,46.1c-1.8,0.9-3.7,1.8-5.5,2.7c-16.1,8.2-32.3,14.8-48.1,19.7c-1.6,0.5-3.2,0.9-4.8,1.2l-14-25.1
		l-9.3-17.4c-1.1-2-3.3-3.1-5.5-2.8c-18.5,3-37.4,3.2-56.2,0.6c-2.7-0.4-5.3-0.8-8-1.3c-2.3-0.4-4.6,0.7-5.7,2.8l-4.7,9
		c-1.8,3.5-3.7,7-5.6,10.6c-0.5,0.9-1,1.8-1.4,2.7c-1.3,2.4-2.5,4.7-3.9,7.1l-0.6,1.1h0l-6.8,12.7c-21.9-6.4-40.9-14.3-58.1-24.3
		c4.4-14.9,9.1-30.1,14-45.5c0.7-2.2-0.1-4.7-2-6c-16.3-11.4-30.7-25.3-42.8-41.4c-1.7-2.2-3.2-4.4-4.8-6.7
		c-1.3-1.9-3.6-2.7-5.8-2.1l-45.7,13l-0.1-0.3c-1.6-2.8-3.2-5.6-4.6-8.4c-3.7-7.4-8.1-16.1-12.4-25.2c-1.2-2.6-2.1-5.4-3-8.7
		c-1.3-4.5-2.6-9.1-3.9-13.8l-0.6-2.1C26,296,39.8,289,53.3,282.1l2-1c2.1-1.1,3.2-3.3,2.8-5.6c-3.2-18.9-3.4-38.3-0.7-57.4
		c0.4-2.9,0.9-5.7,1.4-8.6c0.4-2.3-0.7-4.6-2.7-5.7l-42.3-22.6c2.1-9.6,5.2-18.7,9.2-27.1c0.8-1.6,1.4-3.3,2.1-5l0.4-1
		c3.1-8,7.3-16.2,12.8-25.1l46.1,14.3c2.2,0.7,4.6-0.1,5.9-2c11.2-15.7,24.7-29.6,40.3-41.4c2.6-2,5.3-3.9,8-5.7
		c2-1.3,2.8-3.8,2.1-6c-5.1-16.2-9.8-31-13.8-45.9c21.1-11.1,39.9-18.6,58.7-23.2l22.7,42.6c1.1,2,3.3,3.1,5.5,2.8
		c18.5-3,37.4-3.2,56.2-0.5c2.7,0.4,5.3,0.8,8,1.3c2.3,0.4,4.6-0.7,5.7-2.8l4.7-9c5.5-10.4,11.4-21.5,17.8-32.6
		c20.1,4.9,39.2,12.7,58.2,23.8l-13.8,46.2c-0.7,2.2,0.1,4.5,2,5.9c15.8,11.2,29.8,24.8,41.6,40.4c1.6,2.2,3.2,4.3,4.7,6.5
		c1.3,1.9,3.7,2.7,5.9,2.1l45.5-13.4c11.9,20.3,19.1,41.6,24.1,59l-42.2,22.1c-2,1.1-3.2,3.3-2.8,5.6c3.2,19,3.5,38.4,0.8,57.6
		c-0.3,2-0.6,4.1-1,6.1c-0.4,2.3,0.7,4.5,2.7,5.6l42,22.8C469.3,324.9,461.4,344.3,449.9,364.2z"/>
</g>
<path d="M189.2,462c0.2-0.4,0.4-0.7,0.6-1.1L189.2,462L189.2,462z"/>
<path d="M212,441.9l-1.9,3.6c-0.4,0.8-0.8,1.5-1.3,2.3L212,441.9z"/>
<g transform="translate(0,-952.36218)">
	<path d="M168.3,1116.8c0,28.3,16,52.6,39.2,65.4l0,134.1c0,1.5,0.5,2.9,1.4,4.1l26.5,32.7c2.3,2.8,6.4,3.3,9.2,1
		c0.5-0.4,0.9-0.8,1.2-1.3l32.4-45.8c1.7-2.4,1.6-5.7-0.3-8l-12.9-15.4l12.9-15.4c2-2.4,2-6,0-8.4l-12.9-15.4l12.9-15.4
		c1-1.2,1.5-2.7,1.5-4.2l0-42.5c23.2-12.8,39.2-37.1,39.2-65.4c0-41.5-33.8-75.2-75.2-75.2C202,1041.6,168.3,1075.3,168.3,1116.8
		L168.3,1116.8z M181.4,1116.8c0-34.4,27.7-62.1,62.1-62.1s62.1,27.7,62.1,62.1c0,24.8-14.6,46-35.6,56c-2.3,1.1-3.7,3.4-3.7,5.9
		l0,43.5l-14.9,17.9c-2,2.4-2,6,0,8.4l12.9,15.4l-12.9,15.4c-2,2.4-2,6,0,8.4l13.2,15.7l-24.5,34.6l-19.5-24l0-135.4
		c0-2.5-1.5-4.9-3.8-5.9C195.8,1162.8,181.4,1141.6,181.4,1116.8L181.4,1116.8z M217.3,1093.9c0,14.4,11.8,26.2,26.2,26.2
		s26.2-11.8,26.2-26.2c0-14.4-11.8-26.2-26.2-26.2C229.1,1067.7,217.3,1079.5,217.3,1093.9z M230.4,1093.9c0-7.3,5.8-13.1,13.1-13.1
		c7.3,0,13.1,5.8,13.1,13.1c0,7.3-5.8,13.1-13.1,13.1C236.2,1107,230.4,1101.2,230.4,1093.9z"/>
</g>
</svg>
