<?xml version="1.0" encoding="utf-8"?>
<!-- Generator: Adobe Illustrator 22.1.0, SVG Export Plug-In . SVG Version: 6.00 Build 0)  -->
<svg version="1.1" id="Layer_3" xmlns="http://www.w3.org/2000/svg" xmlns:xlink="http://www.w3.org/1999/xlink" x="0px" y="0px"
	 viewBox="0 0 494 494" style="enable-background:new 0 0 494 494;" xml:space="preserve">
<style type="text/css">
	.st0{display:none;}
</style>
<title>sales</title>
<path d="M478.1,478.1h-79.7c-0.2,0.2-0.3,0.5-0.5,0.7c-0.3,0.5-0.7,0.9-1.1,1.3c0.4-0.4,0.7-0.9,1.1-1.3l0.5-0.7h-61.2V494H486
	c4.4,0,8-3.6,8-8V338.2h-15.9L478.1,478.1z M394.2,486.1c0-0.1,0-0.1,0-0.2s0-0.1,0-0.1V486.1z M396.9,492c-0.1-0.1-0.3-0.2-0.4-0.4
	c0.2,0.2,0.3,0.3,0.5,0.5L396.9,492z M486,0H337.2v15.9h140.9v141.9h16V8C494.1,3.6,490.5,0,486,0C486,0,486,0,486,0z M16,338.2H0
	V486c0,4.4,3.6,8,8,8h148.8v-15.9H16V338.2z M0,8v149.8h15.9V15.9h140.9V0H8C3.6,0,0,3.6,0,8z"/>
<path class="st0" d="M343.3,185.7L308,159.3h-78.5l-31.7,31.6c13.6,10.3,32.7,9,44.8-3c0.9-0.9,2-1.3,3.2-1.3h45.5
	c1.2,0,2.3,0.5,3.2,1.3l68.3,66.7c4.2,4.1,6.7,9.7,7,15.5c0.9-1,2.1-1.6,3.5-1.6h22.8v-81.9H346C345,186.6,344,186.3,343.3,185.7z"
	/>
<path class="st0" d="M289.5,195.7h-41.8c-17,15.6-43.3,15-59.7-1.3c-1.8-1.8-1.8-4.7,0-6.4c0,0,0,0,0,0l28.6-28.6h-33l-35.3,26.4
	c-0.8,0.6-1.7,0.9-2.7,0.9H95.6v81.9h23.7c-0.4,3-0.2,6.1,0.6,9.1c2.3,9.8,9.9,17.4,19.7,19.7c-5.9,13.5,0.3,29.1,13.7,35
	c6.8,3,14.5,3,21.3,0c3.4,14.3,17.8,23.1,32.1,19.7c4.8-1.1,9.1-3.6,12.6-7l1.3-1.3l6.4-6.4l9.3,9.3c5.3,5.3,14,5.3,19.3,0
	c6.1-6.1,6.2-16.1,0.1-22.3l-7.9-7.9c2.1-2.4,3.7-5.1,4.8-8.1l9.4,9.4c0.1,0.1,0.1,0.1,0.2,0.2l9.7,9.7c5.8,5.7,15.1,5.7,20.9-0.1
	c2.7-2.8,4.3-6.5,4.3-10.4c0-3.9-1.5-7.7-4.3-10.4l-31.9-31.9c-1.8-1.8-1.8-4.7,0-6.4s4.7-1.8,6.4,0l41,41c5.7,5.9,15,6.1,20.9,0.4
	c5.9-5.7,6.1-15,0.4-20.9c-0.1-0.1-0.3-0.3-0.4-0.4l-41-41c-1.8-1.8-1.8-4.7,0-6.4s4.7-1.8,6.4,0l41,41c5.8,5.8,15.1,5.8,20.9,0
	s5.8-15.1,0-20.9l0,0L289.5,195.7z M137.2,280c-4.7-4.7-4.7-12.3,0-17c0,0,0,0,0,0l9.1-9.1c4.7-4.7,12.3-4.7,17,0
	c4.7,4.7,4.7,12.3,0,17l0,0l-6.1,6.1l-3,3C149.5,284.7,141.9,284.7,137.2,280C137.2,280,137.2,280,137.2,280z M172.4,316.4
	c-4.7,4.7-12.3,4.7-17,0s-4.7-12.3,0-17l9.1-9.1l9.1-9.1l18.2-18.2c4.7-4.7,12.3-4.7,17,0s4.7,12.3,0,17L172.4,316.4z M236.1,307.3
	l-27.3,27.3c-4.7,4.7-12.3,4.7-17,0s-4.7-12.3,0-17l0,0l27.3-27.3c4.7-4.7,12.3-4.7,17,0S240.8,302.6,236.1,307.3L236.1,307.3z"/>
<path class="st0" d="M369.1,439.1h36.8c5.4,0,9.8-4.4,9.8-9.8v-1l23.6,8.3v-83.8L378,374.6v40.5l32.9,11.5v2.7
	c0,2.7-2.2,4.9-4.9,4.9h-36.8c-2.7,0-4.9-2.2-4.9-4.9v-19l8.9,3.1v-37.1l-24.4,8.7v19.9l10.6,3.7v20.7
	C359.3,434.7,363.7,439.1,369.1,439.1z"/>
<path class="st0" d="M84.5,48.5v0.8c0,18.8-15.3,34.1-34.1,34.1h-0.8V68.6h0.8c10.7,0,19.3-8.7,19.3-19.3v-0.8H84.5z"/>
<path class="st0" d="M107.3,48.5v0.8c-0.1,31.4-25.5,56.8-56.9,56.9h-0.8V91.4h0.8c23.3,0,42.1-18.9,42.1-42.1v-0.8H107.3z"/>
<path class="st0" d="M130.1,48.5v0.8c0,44-35.7,79.6-79.7,79.6h-0.8v-14.7h0.8c35.8-0.1,64.9-29.1,64.9-64.9v-0.8H130.1z"/>
<path class="st0" d="M61.8,48.5v0.8c0,6.2-5.1,11.3-11.3,11.3h-0.8V48.5H61.8z"/>
<path class="st0" d="M116.4,438c-7.3,6.6-27.2-1.4-44.2-18.5s-25.1-36.9-18.5-44.3h0.3l8-8c1.5-1.8,4.2-2.1,6-0.6
	c0.2,0.2,0.4,0.4,0.6,0.6l11.8,11.8c1.8,1.5,2.1,4.2,0.6,6c-0.2,0.2-0.4,0.4-0.6,0.6l-7.3,7.7c3.4,4.9,7.3,9.4,11.5,13.6
	c4.2,4.2,8.7,8.1,13.6,11.5l7.7-7.3c1.5-1.8,4.2-2.1,6-0.6c0.2,0.2,0.4,0.4,0.6,0.6l11.8,11.8c1.8,1.5,2.1,4.2,0.6,6
	c-0.2,0.2-0.4,0.4-0.6,0.6L116.4,438L116.4,438z"/>
<path class="st0" d="M441.6,82.6c0.5-0.5,0.8-1.2,0.8-1.9l-0.6-24.3c-0.1-3.7-3-6.7-6.7-6.7l-24.3-0.6c-0.7,0-1.4,0.3-1.9,0.8
	l-33,33c-4,4-4,10.5,0,14.6l0,0l18.2,18.2l0,0c4,4,10.5,4,14.6,0l0,0L441.6,82.6z M413.5,77.9c-3.7-3.7-3.7-9.7,0-13.4
	c3.7-3.7,9.7-3.7,13.4,0c3.7,3.7,3.7,9.7,0,13.4c0,0,0,0,0,0C423.2,81.6,417.2,81.6,413.5,77.9C413.5,77.9,413.5,77.9,413.5,77.9z"
	/>
<path class="st0" d="M336.4,480.1c-0.4-0.4-0.7-0.9-1.1-1.3C335.6,479.2,336,479.6,336.4,480.1z"/>
<g>
	<path d="M350.9,49.4l-59.7,68.2h29.6v97c3.2,0.6,6.3,1.2,9.5,1.8V108.1h-18.2l38.8-44.4l38.8,44.4h-18.2v118.4
		c3.2,0.9,6.3,1.9,9.5,2.9V117.6h29.6L350.9,49.4z M346.2,219.9c3.2,0.7,6.3,1.5,9.5,2.3V92h-9.5V219.9z M187.7,157.6h29.6V207
		c3.2-0.1,6.3-0.2,9.5-0.2v-58.6h-18.2l38.8-44.4l38.8,44.4h-18.2v59.9c3.2,0.2,6.3,0.5,9.5,0.8v-51.2h29.6l-59.7-68.2L187.7,157.6z
		 M242.1,206.9c3.2,0.1,6.3,0.1,9.5,0.3v-72.8h-9.5V206.9z M83.3,198.5h29.6V221c3.1-0.8,6.3-1.5,9.5-2.2V189h-18.2l38.8-44.4
		l38.8,44.4h-18.2v22.4c3.1-0.4,6.3-0.8,9.5-1.2v-11.7h29.6L143,130.3L83.3,198.5z M138.2,215.5c3.1-0.6,6.3-1.2,9.5-1.7v-40.9h-9.5
		V215.5z"/>
</g>
<g>
	<path d="M433.1,394.5c0-34.1-27.8-61.9-61.9-61.9h-21c-14.2,0-27.3,4.5-38.1,13.1h-18.8c-13.6,0-27.3,4.5-38.1,13.1h-17
		c-10.8-8.5-23.9-13.1-38.1-13.1h-18.2c-10.8-8.5-23.9-13.1-38.1-13.1h-21c-34.1,0-61.9,27.8-61.9,61.9v4.5h56.8
		c-0.6,2.8-0.6,5.7-0.6,9.1v4.5h57.4c0,0.6,0,0.6,0,1.1v11.9h144.9v-11.9c0-0.6,0-0.6,0-1.1h56.8v-4.5c0-2.8-0.6-5.7-0.6-9.1h57.4
		V394.5z M69.4,389.9c2.3-27.8,25.6-49.4,53.4-49.4h21c8.5,0,16.5,1.7,23.9,5.7c-22.7,4.5-41.5,21.6-47.7,43.8H69.4z M125.7,403
		c2.3-27.8,25.6-49.4,53.4-49.4h21c8,0,15.3,1.7,22.7,5.1c-23.9,2.8-43.2,21-47.2,44.3H125.7z M310.9,416H183.1v-3.4
		c0-25.6,20.5-46,46-46h36.4c25.6,0,46,20.5,46,46v3.4H310.9z M318.9,403c-4-23.9-23.9-42-47.7-44.3c6.8-3.4,14.2-5.1,22.2-5.1h21
		c27.8,0,51.1,21.6,53.4,49.4H318.9z M373.4,389.9c-6.3-22.2-25-39.2-47.7-43.8c7.4-4,15.3-5.7,23.9-5.7h21
		c27.8,0,51.1,21.6,53.4,49.4H373.4z"/>
	<path d="M133.1,323.4c8.5,0,17-2.8,23.3-8.5c5.7,13.1,18.2,21.6,33,21.6c9.1,0,17.6-3.4,23.9-9.1c5.7,13.1,18.2,22.2,33.5,22.2
		c14.8,0,27.8-9.1,33-21.6c6.3,5.7,14.8,8.5,23.3,8.5c14.8,0,27.8-9.1,33-21.6c6.3,5.7,14.8,8.5,23.3,8.5
		c19.9,0,35.8-15.9,35.8-35.8s-15.9-35.8-35.8-35.8c-14.8,0-27.3,9.1-33,22.2c-2.8-2.3-5.7-4-8.5-5.7c0-1.7,0.6-2.8,0.6-4.5
		c0-19.9-15.9-35.8-35.8-35.8c-13.1,0-25.6,7.4-31.8,18.8c-5.7-3.4-11.9-5.1-18.8-5.1s-13.1,1.7-18.8,5.1
		c-3.4-15.9-18.2-27.8-35.2-27.8c-19.9,0-35.8,15.9-35.8,35.2c-2.8-0.6-6.3-1.1-9.7-1.1c-19.9,0-35.8,15.9-35.8,35.8
		C97.3,307.5,113.2,323.4,133.1,323.4z M189.9,328c-15.3,0-27.3-12.5-27.3-27.3c0-15.3,12.5-27.3,27.3-27.3
		c13.1,0,23.9,9.1,26.7,21.6c-3.4,5.7-5.7,11.9-5.7,19.3c0,1.1,0,2.8,0,4C205.8,324.6,198.4,328,189.9,328z M247.3,341
		c-15.3,0-27.3-12.5-27.3-27.3c0-15.3,12.5-27.3,27.3-27.3c15.3,0,27.3,12.5,27.3,27.3C274.6,329.1,262.1,341,247.3,341z
		 M360.4,259.8c15.3,0,27.3,12.5,27.3,27.3c0,15.3-12.5,27.3-27.3,27.3c-8,0-15.9-3.4-21-9.7c0-1.7,0.6-3.4,0.6-4.5
		c0-7.4-2.3-14.2-6.3-19.9C336.5,268.3,347.9,259.8,360.4,259.8z M331.4,300.7c0,15.3-12.5,27.3-27.3,27.3c-8,0-15.9-3.4-21-9.7
		c0-1.7,0.6-3.4,0.6-4.5c0-7.4-2.3-14.2-6.3-19.9c2.8-11.9,14.2-20.5,26.7-20.5C318.9,272.9,331.4,285.4,331.4,300.7z M282.5,235.4
		c15.3,0,27.3,12.5,27.3,27.3c0,0.6,0,1.1,0,2.3c-2.3-0.6-4-0.6-6.3-0.6c-14.8,0-27.3,9.1-33,22.2c-1.1-0.6-1.7-1.7-2.8-2.3
		c0.6-2.3,1.1-5.1,1.1-7.4c0-9.7-4-18.8-10.2-25.6C262.6,241.6,272.3,235.4,282.5,235.4z M250.1,255.3c6.3,5.1,9.7,13.1,9.7,21
		c0,1.1,0,2.3,0,3.4c-4-1.7-8-2.3-12.5-2.3c-9.1,0-17.6,3.4-23.9,9.1c-3.4-8-9.7-14.2-17-18.2c3.4-11.4,14.2-19.9,26.1-19.9
		C238.8,249,245,251.3,250.1,255.3z M151.3,253.5c0-15.3,12.5-27.3,27.3-27.3c14.8,0,26.7,11.4,27.3,25.6c-3.4,4-6.3,8.5-8,13.6
		c-2.8-0.6-5.7-1.1-8.5-1.1c-9.1,0-17,3.4-23.3,8.5c-2.8-7.4-8.5-13.1-14.8-17C151.3,255.3,151.3,254.7,151.3,253.5z M133.1,259.8
		c12.5,0,23.3,8.5,26.7,20.5c-4,5.7-6.3,12.5-6.3,19.9c0,1.7,0,3.4,0.6,4.5c-5.1,6.3-12.5,9.7-21,9.7c-15.3,0-27.3-12.5-27.3-27.3
		C105.8,272.3,118.3,259.8,133.1,259.8z"/>
</g>
</svg>
