<svg id="Layer_3" data-name="Layer 3" xmlns="http://www.w3.org/2000/svg" viewBox="0 0 494 494"><title>sales</title><path class="cls-1" d="M478.07,478.06H398.4a8.46,8.46,0,0,1-.54.68,16.57,16.57,0,0,1-1.09,1.32c.37-.43.74-.88,1.09-1.32l.51-.68H337.19V494H486a8,8,0,0,0,8-8V338.18H478.09Zm-83.84,8c0-.07,0-.13,0-.2s0-.07,0-.11Zm2.68,5.91a4.17,4.17,0,0,1-.37-.36c.16.16.33.32.5.46ZM486,0H337.19V15.94H478.07l0,141.88h16V8A8,8,0,0,0,486,0ZM16,338.18H0V486a8,8,0,0,0,8,8H156.83V478.06H16ZM0,8V157.82H15.94V15.94H156.83V0H8A8,8,0,0,0,0,8Z" transform="translate(-0.01)"></path><path d="M343.26,185.67l-35.21-26.41H229.51l-31.66,31.65a34.13,34.13,0,0,0,44.77-3,4.56,4.56,0,0,1,3.22-1.33h45.52a4.55,4.55,0,0,1,3.19,1.29l68.29,66.73a23.75,23.75,0,0,1,7,15.55,4.55,4.55,0,0,1,3.49-1.62h22.76V186.58H346A4.58,4.58,0,0,1,343.26,185.67Z" transform="translate(-0.01)"></path><path d="M289.51,195.68H247.66A43.18,43.18,0,0,1,188,194.35a4.55,4.55,0,0,1,0-6.44l28.65-28.65h-33L148.4,185.67a4.53,4.53,0,0,1-2.73.91H95.59v81.95h23.66a25.6,25.6,0,0,0,.55,9.1,26.43,26.43,0,0,0,19.69,19.72,26.58,26.58,0,0,0,35,35A26.6,26.6,0,0,0,219.12,345l1.33-1.34,6.44-6.43,9.29,9.28a13.67,13.67,0,0,0,19.32,0,15.85,15.85,0,0,0,.14-22.29l-7.93-7.94a26.31,26.31,0,0,0,4.81-8.06l9.42,9.42a1.45,1.45,0,0,1,.17.18l9.71,9.71A14.77,14.77,0,0,0,297,317.06a14.64,14.64,0,0,0-4.33-10.44l-31.87-31.87a4.55,4.55,0,1,1,6.44-6.44l41,41a14.76,14.76,0,1,0,20.87-20.87l-41-41a4.55,4.55,0,0,1,6.44-6.44l41,41a14.76,14.76,0,1,0,20.88-20.88ZM137.16,280a12,12,0,0,1,0-17l9.11-9.11a12,12,0,0,1,17,17L157.21,277l-3,3A12.05,12.05,0,0,1,137.16,280Zm35.23,36.42a12,12,0,0,1-17-17l9.11-9.1,9.1-9.11L191.8,263a12,12,0,1,1,17,17Zm63.74-9.11-27.32,27.32a12,12,0,1,1-17-17l27.31-27.31a12,12,0,1,1,17,17Z" transform="translate(-0.01)"></path><path d="M369.12,439.08h36.81a9.82,9.82,0,0,0,9.82-9.81v-.95l23.64,8.25V352.74L378,374.59v40.54l32.85,11.47v2.67a4.91,4.91,0,0,1-4.91,4.9H369.12a4.91,4.91,0,0,1-4.9-4.9V410.32l8.86,3.1V376.33L348.69,385V404.9l10.62,3.71v20.66A9.82,9.82,0,0,0,369.12,439.08Z" transform="translate(-0.01)"></path><path d="M84.54,48.45v.8a34.13,34.13,0,0,1-34.09,34.1h-.81V68.56h.81A19.37,19.37,0,0,0,69.76,49.25v-.8Z" transform="translate(-0.01)"></path><path d="M107.32,48.45v.8a57,57,0,0,1-56.87,56.88h-.81V91.38h.81A42.16,42.16,0,0,0,92.57,49.25v-.8Z" transform="translate(-0.01)"></path><path d="M130.1,48.45v.8A79.74,79.74,0,0,1,50.45,128.9h-.81V114.16h.81a65,65,0,0,0,64.9-64.91v-.8Z" transform="translate(-0.01)"></path><path d="M61.77,48.45v.8A11.33,11.33,0,0,1,50.45,60.57h-.81V48.45Z" transform="translate(-0.01)"></path><path d="M116.42,438c-7.31,6.62-27.16-1.39-44.22-18.45S47.13,382.61,53.74,375.3h.35l8-8a4.28,4.28,0,0,1,6.62,0l11.84,11.84a4.28,4.28,0,0,1,0,6.62l-7.32,7.66A99.57,99.57,0,0,0,84.74,407a98.16,98.16,0,0,0,13.58,11.49l7.66-7.31a4.27,4.27,0,0,1,6.61,0L124.43,423a4.27,4.27,0,0,1,0,6.61l-8,8.36Z" transform="translate(-0.01)"></path><path d="M441.63,82.57a2.5,2.5,0,0,0,.76-1.88l-.58-24.33a6.86,6.86,0,0,0-6.72-6.73l-24.34-.56a2.6,2.6,0,0,0-1.88.75l-33,33a10.31,10.31,0,0,0,0,14.56l0,0,18.2,18.18h0a10.3,10.3,0,0,0,14.56,0l0,0Zm-28.11-4.63a9.44,9.44,0,1,1,13.35,0,9.43,9.43,0,0,1-13.35,0Z" transform="translate(-0.01)"></path><path d="M336.38,480.06a16.57,16.57,0,0,1-1.09-1.32C335.64,479.18,336,479.63,336.38,480.06Z" transform="translate(-0.01)"></path></svg>