<?xml version="1.0" encoding="utf-8"?>
<!-- Generator: Adobe Illustrator 22.1.0, SVG Export Plug-In . SVG Version: 6.00 Build 0)  -->
<svg version="1.1" id="Layer_1" xmlns="http://www.w3.org/2000/svg" xmlns:xlink="http://www.w3.org/1999/xlink" x="0px" y="0px"
	 viewBox="0 0 328 328" style="enable-background:new 0 0 328 328;" xml:space="preserve">
<style type="text/css">
	.st0{display:none;}
	.st1{display:inline;}
	.st2{display:none;fill:none;}
</style>
<title>food_icon</title>
<path d="M164,328C73.6,328,0,254.4,0,164S73.6,0,164,0s164,73.6,164,164S254.4,328,164,328z M164,15C81.8,15,15,81.8,15,164
	s66.8,149,149,149s149-66.8,149-149S246.2,15,164,15z"/>
<path class="st0" d="M228.3,166.8c24.6,4.6,40.1,12.8,40.1,21.9c0,14.6-47.4,27.4-104.9,27.4s-104-12.8-104-27.4
	c0-9.1,15.5-17.3,40.1-21.9L107,123c1.8-11.9,9.1-21,20.1-21h73c11.9,0,19.2,9.1,21,21L228.3,166.8z"/>
<g class="st0">
	<g class="st1">
		<path d="M132.4,96.4h-20.6l-18.7,20.1c-2.7,3.3-4.1,7.4-4.1,11.6v23.2h66.3V128c0-4.2-1.5-8.3-4.1-11.6L132.4,96.4z"/>
		<path d="M89,226.6c0,10.1,8.2,18.3,18.3,18.3H137c10.1,0,18.3-8.2,18.3-18.3v-29.7H89V226.6z"/>
		<rect x="91.3" y="160.4" width="61.7" height="9.1"/>
		<rect x="91.3" y="178.6" width="61.7" height="9.1"/>
		<rect x="111.9" y="78.1" width="20.6" height="11.4"/>
		<rect x="185" y="105.5" width="20.6" height="11.4"/>
		<path d="M243.6,152.7l-23.6-23.6c-3.4-3.4-8.1-5.4-12.9-5.4H185c-7.6,0-13.7,6.1-13.7,13.7v89.1c0,10.1,7.5,18.3,17.6,18.3h41.9
			c10.1,0,18.3-8.2,18.3-18.3v-61C249,160.8,247.1,156.1,243.6,152.7z M233.9,168.2c-0.9,0.9-2.1,1.3-3.2,1.3
			c-1.2,0-2.3-0.4-3.2-1.3l-20.6-20.6c-1.8-1.8-1.8-4.7,0-6.5c1.8-1.8,4.7-1.8,6.5,0l20.6,20.6C235.7,163.5,235.7,166.4,233.9,168.2
			z"/>
	</g>
</g>
<g class="st0">
	<polygon class="st1" points="196.2,203.2 164,183.9 131.8,203.2 103.5,186.3 103.5,216.1 164,252.4 224.5,216.1 224.5,186.3 	"/>
	<polygon class="st1" points="220.8,141 192.5,124.1 164,106.9 135.5,124.1 107.2,141 135.5,158.2 164,175.4 192.5,158.2 	"/>
	<polygon class="st1" points="131.8,194.4 156.7,179.7 99.9,145.6 75,160.3 	"/>
	<polygon class="st1" points="253,160.3 228.1,145.6 171.3,179.7 196.2,194.4 	"/>
	<polygon class="st1" points="99.9,136.8 156.7,102.7 131.8,87.6 75,122 	"/>
	<polygon class="st1" points="228.1,136.8 253,122 196.2,87.6 171.3,102.7 	"/>
</g>
<path class="st0" d="M164,73c-50.9,0-92,41.1-92,92s41.1,92,92,92s92-41.1,92-92S214.9,73,164,73z M150.9,150.7
	c7.2-7.2,18.8-7.2,26,0c4.9,4.9,6.3,11.9,4.7,18l40.9,53.6l-53.6-40.9c-6.1,1.6-13.1,0.2-18-4.7
	C143.8,169.5,143.8,157.8,150.9,150.7z"/>
<path class="st0" d="M239.2,125.2h-78.4c-4.3,0-7.7,3.5-7.7,7.7l0,0v3.2h-40.2c-2.8,0-5.5,1.5-7,3.9l-22.7,35.6
	c-1.4,2.2-2.1,4.7-2.1,7.3v34.5c0,4.2,3.4,7.7,7.7,7.7c0,0,0,0,0,0h9.6c2.6,8.8,10.7,14.9,20,14.9c9.3,0.1,17.4-6.1,20-15h50
	c2.6,8.9,10.8,15,20.1,15c9.3,0.1,17.4-6.1,20-15h11c4.2,0,7.7-3.4,7.7-7.7c0,0,0,0,0,0v-84.4C247,128.7,243.5,125.2,239.2,125.2
	C239.2,125.2,239.2,125.2,239.2,125.2z M118.3,229.7c-5.7-0.1-10.3-4.7-10.4-10.4c0-5.7,4.7-10.4,10.4-10.4
	c5.7,0.1,10.3,4.7,10.4,10.4C128.7,225,124,229.6,118.3,229.7z M131.8,175.9c0,1-0.9,1.9-1.9,1.9H99.4c-1.1,0-1.9-0.9-1.9-1.9
	c0-0.4,0.1-0.7,0.3-1l16-25.2c0.3-0.5,1-0.9,1.6-0.9h14.5c1.1,0,1.9,0.9,1.9,1.9V175.9z M208.3,229.7c-5.7,0-10.4-4.7-10.4-10.4
	c0-5.7,4.7-10.4,10.4-10.4c5.7,0.1,10.3,4.7,10.4,10.4C218.7,225,214,229.6,208.3,229.7z M246.9,99v7.3c0,2-1.6,3.6-3.6,3.6l0,0
	H127.1v2.5c0,1.6-1.3,2.9-2.9,2.9c-0.6,0-1.2-0.2-1.7-0.6l-13.6-9.8c-1.3-0.9-1.6-2.8-0.7-4.1c0.2-0.3,0.4-0.5,0.7-0.7l13.6-9.8
	c1.3-0.9,3.2-0.6,4.1,0.7c0.3,0.5,0.5,1.1,0.5,1.7v2.5h116.2C245.3,95.4,246.9,97,246.9,99z"/>
<path class="st0" d="M159.4,151.8H90.9v30.5h68.5V151.8z M207.5,191.6v30.5H276v-30.5H207.5z M168.6,182.3h68.5v-30.5h-68.5V182.3z
	 M198.2,112h-68.5v30.5h68.5C198.2,142.5,198.2,112,198.2,112z M129.8,222.1h68.5v-30.5h-68.5V222.1z M52,222.1h68.5v-30.5H52V222.1
	z"/>
<g class="st0">
	<path class="st1" d="M252,188h-46c-1.1,0-2,0.9-2,2v26c0,1.1-0.9,2-2,2h-76c-1.1,0-2-0.9-2-2v-26c0-1.1-0.9-2-2-2H76
		c-1.1,0-2,0.9-2,2v56c0,1.1,0.9,2,2,2h176c1.1,0,2-0.9,2-2v-56C254,188.9,253.1,188,252,188z"/>
	<path class="st1" d="M197.1,168.9c0.7,0.1,3-0.3,3.5-1.3l7.2-14c0.5-1,0.1-2.2-0.9-2.7L201,148c-1-0.5-1.9,0-2.1,1.1l-2.8,17.6
		C195.9,167.8,196.4,168.8,197.1,168.9z"/>
	<path class="st1" d="M205.1,177.9l2.2,1.6c0.9,0.7,2.4,0.8,3.4,0.3l19.1-9.4c1-0.5,1.4-1.7,0.8-2.6l-5.4-9.7
		c-0.5-1-1.6-1.1-2.4-0.3l-17.8,17.6C204.2,176,204.2,177.2,205.1,177.9z"/>
	<path class="st1" d="M102.7,164.8l20.6,11.5c1,0.5,2,0.3,2.4-0.6c0.3-0.9,0.7-3.9,0-4.8l-15.1-18.1c-0.7-0.8-1.8-0.8-2.4,0.1
		l-6.2,9.3C101.5,163.1,101.8,164.3,102.7,164.8z"/>
	<path class="st1" d="M132.1,164.9c0.4,1,2.2,1.6,2.7,1.5c0.6-0.1,1-1.1,1-2.2l-0.3-10.9c0-1.1-0.9-1.7-1.9-1.3l-3.6,1.3
		c-1,0.4-1.6,1.5-1.2,2.6L132.1,164.9z"/>
	<path class="st1" d="M176.7,206.3c-0.8,0.8-0.5,1.4,0.6,1.4h4.1c1.1,0,2-0.9,2-2v-4.1c0-1.1-0.6-1.4-1.4-0.6L176.7,206.3z"/>
	<path class="st1" d="M146.3,207.7h10.4c1.1,0,2.6-0.6,3.4-1.4l22-22c0.8-0.8,1.4-2.3,1.4-3.4v-13.3c0-1.1-0.6-1.4-1.4-0.6
		l-36.3,36.3c-0.8,0.8-1.4,2.1-1.4,2.9C144.3,207,145.2,207.7,146.3,207.7z"/>
	<path class="st1" d="M145.7,150.7l36.3-36.3c0.8-0.8,1.4-2.3,1.4-3.4V70c0-1.1-0.9-2-2-2h-35.2c-1.1,0-2,0.9-2,2v80.1
		C144.3,151.2,144.9,151.5,145.7,150.7z"/>
	<path class="st1" d="M145.7,186.6l36.3-36.3c0.8-0.8,1.4-2.3,1.4-3.4v-15.3c0-1.1-0.6-1.4-1.4-0.6l-36.3,36.3
		c-0.8,0.8-1.4,2.3-1.4,3.4V186C144.3,187.1,144.9,187.4,145.7,186.6z"/>
</g>
<g class="st0">
	<polygon class="st1" points="117.1,233.2 213,233.2 191.8,172 138.2,172 	"/>
	<path class="st1" d="M194,115V87.2h4.5c4.8,0,8.7-3.8,8.7-8.6c0-4.8-3.9-8.6-8.7-8.6h-67c-4.8,0-8.7,3.8-8.7,8.6s3.9,8.6,8.7,8.6
		h5.3V115L94,238.1v0.4c0,4.6,3,8.3,6.1,10.7c3.2,2.5,7.7,3.5,12,3.5h105.7c4.3,0,7.8-1,11-3.5c3.2-2.5,5.1-6.1,5.1-10.7v-0.5
		L194,115z M109.1,238.6l42-123.5V87.2h28.6V115l41.7,123.6L109.1,238.6z"/>
</g>
<rect x="44" y="50" class="st2" width="232" height="232"/>
<path class="st0" d="M229.1,162.4H259v-12.1H135.1H78.6c0,0-10.5,0.5-11.7,4c0,0-0.9,7.7,11,12l57.1,19.9v28.2h0
	c0,0-2.6,14.7-11.8,14.7h-9.2v10.6h67.9h0.1h67.9v-10.6h-9.2c-9.2,0-11.8-14.7-11.8-14.7h0C229.1,214.4,229.1,162.4,229.1,162.4z"/>
<polygon class="st0" points="172,106.6 172,85.6 154.9,85.6 154.9,106.6 122.6,106.6 122.6,138.9 204.3,138.9 204.3,106.6 "/>
<polygon class="st0" points="110.7,139.2 74.1,139.2 74.1,131.8 110.7,131.8 "/>
<polygon class="st0" points="111.3,122.4 72.8,102.5 75.5,95.8 114.1,115.6 "/>
<polygon class="st0" points="252,139.2 215.5,139.2 215.5,131.8 252,131.8 "/>
<polygon class="st0" points="216.9,122.4 214.1,115.8 241.4,101.1 244.2,107.8 "/>
<polygon class="st0" points="111.3,103.1 94.9,84.1 99.7,79 116,98 "/>
<g class="st0">
	<path class="st1" d="M140.1,171.6C140.1,171.6,140.1,171.6,140.1,171.6c0-0.2-0.1-0.4-0.1-0.6c0,0,0,0,0,0l-30.8-14
		c-0.3,2.5-0.6,5-0.6,7.5c0,13.2,4.6,25.3,12.3,34.9L140.1,171.6z"/>
	<path class="st1" d="M164.2,189.9c-0.8,0-1.5,0-2.3-0.1l0,0l-23.9,24c7.9,4.3,16.9,6.7,26.4,6.7c7.4,0,14.4-1.5,20.9-4.1
		L164.2,189.9C164.2,189.9,164.2,189.9,164.2,189.9z"/>
	<path class="st1" d="M148.6,164.5c0,8.7,7.1,15.9,15.9,15.9c8.7,0,15.9-7.1,15.9-15.9c0-8.7-7.1-15.8-15.9-15.8
		C155.7,148.6,148.6,155.7,148.6,164.5z"/>
	<path class="st1" d="M149.3,144.1c0.3-0.2,0.6-0.5,0.9-0.7c0,0,0,0,0,0l3-33.7c-15.6,3.2-28.9,12.9-36.8,26.2L149.3,144.1
		C149.3,144.1,149.3,144.1,149.3,144.1z"/>
	<path class="st1" d="M187.9,174.2C187.9,174.2,187.9,174.2,187.9,174.2L204,204c10.1-10.1,16.4-24.1,16.4-39.5
		c0-1.7-0.1-3.4-0.3-5.1L188.7,172C188.5,172.8,188.2,173.5,187.9,174.2z"/>
	<path class="st1" d="M178.7,143.4c0.6,0.4,1.2,0.9,1.8,1.4c0,0,0,0,0,0l33.2-6.8c-7.8-14.4-21.6-25-38.1-28.3L178.7,143.4
		C178.7,143.4,178.7,143.4,178.7,143.4z"/>
	<path class="st1" d="M164.5,268.8c57.5,0,104.3-46.8,104.3-104.3c0-57.5-46.8-104.3-104.3-104.3c-57.5,0-104.3,46.8-104.3,104.3
		C60.1,222,106.9,268.8,164.5,268.8z M164.5,99c36.1,0,65.5,29.4,65.5,65.5s-29.4,65.5-65.5,65.5S99,200.6,99,164.5
		S128.4,99,164.5,99z"/>
</g>
<path class="st0" d="M164,63c-56.3,0-102,45.7-102,102s45.7,102,102,102s102-45.7,102-102S220.3,63,164,63z M222.4,194.4
	c-2.7,2.7-7.4,0.8-7.4-3.1v-16.1h-34.5l-17.6,35.2c-1.7,3.5-5.3,5.6-9.1,5.6H113c-5.6,0-10.2-4.6-10.2-10.2
	c0-5.6,4.6-10.2,10.2-10.2h34.5l15.3-30.6l-15.3-30.6H113c-5.6,0-10.2-4.6-10.2-10.2S107.4,114,113,114h40.8c3.9,0,7.4,2.2,9.1,5.6
	l17.6,35.1H215v-16.1c0-3.9,4.7-5.8,7.4-3.1l22,26.3c1.7,1.7,1.7,4.4,0,6.1L222.4,194.4z"/>
<g class="st0">
	<path class="st1" d="M91.3,185.4h58.2v55.7h5.7v-61.5h-25.7V67h82.2v78.1h-40v96h5.1v-90.3h58.8v90.3h9.1c6.9,0,6.9,10.9,0,10.9
		H82.1c-6.9,0-6.9-10.9,0-10.9h9.1V185.4z"/>
</g>
<g class="st0">
	<path class="st1" d="M213.9,170c3,8.6,12.5,13.1,21,10c8.6-3,13.1-12.5,10-21c-3-8.6-12.5-13.1-21-10c-4.7,1.7-8.4,5.4-10,10h-23
		v-27.5c0-13.5,9.8-24.9,23.1-27c3.2,8.5,12.8,12.8,21.3,9.6c8.5-3.2,12.8-12.8,9.6-21.3c-3.2-8.5-12.8-12.8-21.3-9.6
		c-4.7,1.8-8.3,5.6-9.9,10.4c-19.3,2.3-33.8,18.6-33.8,38v27.5h-33v-11c0-12.1-9.8-22-22-22H92c-12.1,0-22,9.8-22,22v33
		c0,12.1,9.8,22,22,22h33c12.1,0,22-9.8,22-22v-11h33v27.5c0.1,19.4,14.6,35.7,33.8,38c2.8,8.6,12.1,13.3,20.7,10.5
		c8.6-2.8,13.3-12.1,10.5-20.7c-2.8-8.6-12.1-13.3-20.7-10.5c-4.7,1.5-8.5,5.1-10.3,9.7c-13.3-2.1-23.1-13.6-23.1-27V170H213.9z"/>
</g>
<g class="st0">
	<path class="st1" d="M220.1,250.5c23.1,0,41.9-18.5,41.9-41.4s-18.8-41.4-41.9-41.4s-41.9,18.5-41.9,41.4S197,250.5,220.1,250.5z
		 M216.1,182.3c0-2.3,1.8-4.1,4.1-4.1c2.3,0,4.1,1.8,4.1,4.1v20.3c0,1.5,1,2.5,2.5,2.5h14.7c2.3,0,4.1,1.8,4.1,4.1
		c0,2.3-1.8,4.1-4.1,4.1h-20.6c-2.8,0-4.8-2.3-4.8-4.8V182.3z"/>
	<path class="st1" d="M200.8,77.5c-1.8,0-3,1.5-3,3.3v36.3c0,1.8,1.5,3.3,3,3.3c1.8,0,3-1.5,3-3.3V81
		C203.9,79,202.6,77.5,200.8,77.5z"/>
	<path class="st1" d="M111.5,77.5c-1.8,0-3,1.5-3,3.3v36.3c0,1.8,1.5,3.3,3,3.3c1.8,0,3-1.5,3-3.3V81
		C114.6,79,113.3,77.5,111.5,77.5z"/>
	<path class="st1" d="M170.7,209.2c0-26.9,22.3-49,49.5-49c2.3,0,4.8,0.3,7.1,0.5c1.8,0.3,3.3-1,3.3-3v-53.8c0-3-2.3-5.6-5.1-5.6
		h-12.7c-1.3,0-2.3,1-2.3,2.5v16c0,5.3-3.6,10.1-8.4,10.7c-5.6,0.5-10.4-4.1-10.4-10.1v-16.7c0-1.3-1-2.5-2.3-2.5h-66.2
		c-1.3,0-2.3,1-2.3,2.5v16c0,5.3-3.6,10.1-8.4,10.7c-5.6,0.5-10.4-4.1-10.4-10.1v-16.5c0-1.3-1-2.5-2.3-2.5H87.2
		c-2.8,0-5.1,2.5-5.1,5.6v128.9c0,3,2.3,5.6,5.1,5.6H175c2.3,0,3.8-2.5,2.5-4.3C173.2,226.4,170.7,218,170.7,209.2z M194,143.2
		c0-0.8,0.5-1.5,1.3-1.5h17.3c0.8,0,1.3,0.5,1.3,1.5v12.9c0,0.8-0.5,1.5-1.3,1.5h-17.3c-0.8,0-1.3-0.5-1.3-1.5V143.2z M118.4,218
		c0,0.8-0.5,1.5-1.3,1.5H99.9c-0.8,0-1.3-0.5-1.3-1.5v-12.9c0-0.8,0.5-1.5,1.3-1.5h17.3c0.8,0,1.3,0.5,1.3,1.5V218z M118.4,187.1
		c0,0.8-0.5,1.5-1.3,1.5H99.9c-0.8,0-1.3-0.8-1.3-1.5v-12.9c0-0.8,0.5-1.5,1.3-1.5h17.3c0.8,0,1.3,0.5,1.3,1.5V187.1z M118.4,156.1
		c0,0.8-0.5,1.5-1.3,1.5H99.9c-0.8,0-1.3-0.5-1.3-1.5v-12.9c0-0.8,0.5-1.5,1.3-1.5h17.3c0.8,0,1.3,0.5,1.3,1.5V156.1z M166.1,218
		c0,0.8-0.5,1.5-1.3,1.5h-17.3c-0.8,0-1.3-0.5-1.3-1.5v-12.9c0-0.8,0.5-1.5,1.3-1.5h17.3c0.8,0,1.3,0.5,1.3,1.5V218z M166.1,187.1
		c0,0.8-0.5,1.5-1.3,1.5h-17.3c-0.8,0-1.3-0.8-1.3-1.5v-12.9c0-0.8,0.5-1.5,1.3-1.5h17.3c0.8,0,1.3,0.5,1.3,1.5V187.1z M166.1,156.1
		c0,0.8-0.5,1.5-1.3,1.5h-17.3c-0.8,0-1.3-0.5-1.3-1.5v-12.9c0-0.8,0.5-1.5,1.3-1.5h17.3c0.8,0,1.3,0.5,1.3,1.5V156.1z"/>
</g>
<path class="st0" d="M208.2,148l-18.1,22.6c1.3,8.7-4.8,16.9-13.6,18.1c-8.7,1.3-16.9-4.8-18.1-13.6s4.8-16.9,13.6-18.1
	c1.5-0.2,3-0.2,4.6,0l22.6-18.1c2.8-2.2,6.8-1.8,9.1,1C210.1,142.3,210.1,145.6,208.2,148L208.2,148z M246.2,116
	c1.7-1.7,2.9-3.8,3.2-6.2c0.8-5.6-3.1-10.8-8.8-11.6c-0.9-0.1-1.8-0.1-2.7,0c-2.4,0.4-4.6,1.5-6.2,3.3l-8.5,8.5
	c-11.2-8.8-24.6-14.4-38.7-16.2V86h7.5c5.4,0.1,9.9-3.9,10.7-9.2c0.6-5.7-3.6-10.7-9.2-11.2c-0.3,0-0.7,0-1,0h-35.8
	c-5.4-0.1-10,3.9-10.7,9.2c-0.6,5.7,3.6,10.7,9.2,11.2c0.3,0,0.7,0,1,0h7.8v7.7c-13.3,1.8-26,6.8-36.8,14.8
	c-4.6,3.3-5.5,9.8-2.2,14.3c3.3,4.6,9.8,5.5,14.3,2.2c26.3-19.4,63.3-13.8,82.7,12.5s13.8,63.3-12.5,82.7
	c-19.6,14.4-45.9,15.4-66.5,2.5c-4.9-2.8-11.2-1.1-14,3.8c-2.6,4.6-1.4,10.4,2.9,13.5c16.2,10.3,35.6,14.3,54.5,11.4
	c38.5-6,67-38.9,67.5-77.8c0.3-17.7-5.5-35.1-16.3-49.1L246.2,116z M82.9,168.1c-4.5-0.2-8.4,3.3-8.6,7.8c-0.2,4.5,3.3,8.4,7.8,8.6
	c0.3,0,0.5,0,0.8,0h47.3c4.5,0.2,8.4-3.3,8.6-7.8c0.2-4.5-3.3-8.4-7.8-8.6c-0.3,0-0.5,0-0.8,0H82.9z M149,147.1
	c0-4.5-3.7-8.2-8.2-8.2H93.5c-4.5-0.2-8.4,3.3-8.6,7.8c-0.2,4.5,3.3,8.4,7.8,8.6c0.3,0,0.5,0,0.8,0h47.3
	C145.3,155.3,149,151.6,149,147.1z M119.7,213.7c4.5,0.2,8.4-3.3,8.6-7.8c0.2-4.5-3.3-8.4-7.8-8.6c-0.3,0-0.5,0-0.8,0H72.4
	c-4.5-0.2-8.4,3.3-8.6,7.8c-0.2,4.5,3.3,8.4,7.8,8.6c0.3,0,0.5,0,0.8,0H119.7z"/>
<g class="st0">
	<path class="st1" d="M153.9,146.9c-2.9,2.8-5.6,5.9-8.1,9.1v-9.1H153.9z"/>
	<path class="st1" d="M145.8,59.2v36c10.3-0.1,20.4-0.7,30.1-1.8c-1.4-3.7-2.9-7.2-4.6-10.4C164.3,69.2,155.3,60.9,145.8,59.2z"/>
	<path class="st1" d="M183.6,128.4c-7.8,2.8-15.1,6.7-21.7,11.6h-16.1v-37.9c11.1-0.1,21.9-0.8,32.4-2.1
		C180.9,108.8,182.7,118.3,183.6,128.4z"/>
	<path class="st1" d="M225.3,125c-4.6-0.8-9.4-1.3-14.3-1.3c-7.1,0-14,0.9-20.6,2.6c-1-9.6-2.7-18.7-5.2-27.2
		c9.1-1.3,17.8-3.1,25.9-5.2C217.9,103.3,222.7,113.8,225.3,125z"/>
	<path class="st1" d="M164.6,61.8c4.8,4.5,9.1,10.5,12.9,17.9c2,4,3.9,8.2,5.5,12.7c8.1-1.1,15.9-2.6,23.4-4.5
		c-1.2-1.4-2.5-2.8-3.9-4.2C191.8,73.1,178.8,65.7,164.6,61.8z"/>
	<path class="st1" d="M73.5,194c8.1-2.1,16.7-3.9,25.7-5.2c-3.7-12.7-5.8-27-6.1-41.8H57.3C57.9,164.1,63.5,180.3,73.5,194z"/>
	<path class="st1" d="M138.9,102.1c-11.2-0.1-22.2-0.8-32.8-2.1c-3.7,12-5.8,25.7-6.1,40h38.9V102.1z"/>
	<path class="st1" d="M138.9,146.9v19.9c-3.2,6-5.7,12.4-7.3,19.1c-8.7,0.3-17.2,0.9-25.4,1.9c-3.7-12.3-5.8-26.3-6.1-40.9H138.9z"
		/>
	<path class="st1" d="M138.9,59.1c-9.6,1.5-18.7,9.8-25.9,23.8c-1.7,3.3-3.2,6.7-4.6,10.4c9.9,1.1,20.1,1.8,30.5,1.9V59.1z"/>
	<path class="st1" d="M106.8,79.7c3.8-7.3,8.1-13.3,12.8-17.8c-14,3.9-26.9,11.3-37.4,21.9c-1.4,1.4-2.7,2.7-3.9,4.2
		c7.3,1.8,15,3.3,23.1,4.4C102.9,87.9,104.8,83.7,106.8,79.7z"/>
	<path class="st1" d="M57.4,140h35.7c0.3-14.5,2.4-28.5,6.1-40.9c-9-1.3-17.6-3-25.7-5.2C63.7,107.3,58.1,123.2,57.4,140z"/>
	<path class="st1" d="M131.9,226.4c-7-3.6-13.5-10.9-18.9-21.4c-1.7-3.3-3.2-6.7-4.6-10.4c7.1-0.8,14.4-1.4,21.8-1.7
		c-0.6,4.1-1,8.3-1,12.6C129.2,212.7,130.1,219.7,131.9,226.4z"/>
	<path class="st1" d="M119.7,226c-4.7-4.5-9.1-10.5-12.9-17.8c-2-3.9-3.9-8.2-5.5-12.7c-8,1.1-15.8,2.6-23.1,4.4
		c1.3,1.4,2.6,2.8,3.9,4.2C92.8,214.7,105.6,222.1,119.7,226z"/>
</g>
<path class="st0" d="M269.5,208.5c-2.4-0.6-4.4-1-4.4-1l-5-1.1c-2.2-0.5-3.9-0.9-3.9-0.9c0,0,0,0,0,0c0-3.5-0.4-6.8-1.1-10.1
	c-0.8-3.4-1.8-5.9-1.8-5.9c-0.8-2-0.1-4.8,1.6-6.2l4-3.2c0,0,1.6-1.3,3.6-2.8c2-1.6,2.1-4.6,0.4-6.8c-1.7-2.2-4.5-5.7-6.3-7.9
	c-1.7-2.2-4.7-2.7-6.7-1.1c-2,1.6-3.6,2.8-3.6,2.8l-4,3.2c-1.7,1.4-4.6,1.5-6.4,0.2c0,0-2.2-1.6-5.3-3.1c-3-1.5-5.7-2.2-5.7-2.2
	c-2.1-0.6-3.9-2.9-3.9-5.1v-5.1c0,0,0-2.1,0-4.6s-2.3-4.6-5-4.6c-2.8,0-7.3,0-10.1,0s-5,2.1-5,4.6c0,2.5,0,4.6,0,4.6v5.1
	c0,2.2-1.7,4.5-3.9,5.1c0,0-2.7,0.8-5.7,2.2c-3.1,1.5-5.3,3.1-5.3,3.1c-1.8,1.3-4.7,1.2-6.4-0.2l-4-3.2c0,0-1.6-1.3-3.6-2.8
	c-2-1.6-5-1.1-6.7,1.1h0c-1.7,2.2-4.5,5.7-6.3,7.9c-1.7,2.2-1.5,5.2,0.4,6.8c2,1.6,3.6,2.8,3.6,2.8l4,3.2c1.7,1.4,2.4,4.2,1.6,6.2
	c0,0-1,2.5-1.8,5.9c-0.7,3.2-1.1,6.6-1.1,10.1c0,0,0,0,0,0c0,0-1.8,0.4-3.9,0.9l-5,1.1c0,0-2,0.5-4.4,1c-2.4,0.6-3.9,3.2-3.3,5.9
	c0.6,2.7,1.6,7.1,2.2,9.8v0c0.6,2.7,3.1,4.4,5.6,3.9c2.4-0.6,4.4-1,4.4-1l5-1.1c2.2-0.5,4.8,0.7,5.9,2.6c0,0,1.3,2.4,3.5,5.1
	c2.1,2.7,4.2,4.5,4.2,4.5c1.6,1.5,2.2,4.3,1.3,6.3l-2.2,4.6c0,0-0.9,1.8-2,4.1c-1.1,2.3,0.1,5.1,2.6,6.3c2.5,1.2,6.6,3.2,9.1,4.4v0
	c2.5,1.2,5.4,0.3,6.5-1.9c1.1-2.3,2-4.1,2-4.1l2.2-4.6c1-2,3.5-3.3,5.7-2.9c0,0,2.6,0.5,6.1,0.5c3.5,0,6.1-0.5,6.1-0.5
	c2.2-0.4,4.7,0.9,5.7,2.9l2.2,4.6c0,0,0.9,1.8,2,4.1c1.1,2.3,4,3.1,6.5,1.9c2.5-1.2,6.6-3.2,9.1-4.4h0c2.5-1.2,3.6-4,2.6-6.3
	c-1.1-2.3-2-4.1-2-4.1l-2.2-4.6c-1-2-0.4-4.8,1.3-6.3c0,0,2.1-1.8,4.2-4.5c2.1-2.6,3.5-5.1,3.5-5.1c1.1-1.9,3.7-3.1,5.9-2.6l5,1.1
	c0,0,2,0.5,4.4,1c2.4,0.6,4.9-1.2,5.6-3.9c0.6-2.7,1.6-7.1,2.2-9.8C273.5,211.8,272,209.1,269.5,208.5z M211,230.3
	c-13.7,0-24.8-11.1-24.8-24.8c0-13.7,11.1-24.8,24.8-24.8c13.7,0,24.8,11.1,24.8,24.8C235.8,219.2,224.7,230.3,211,230.3z"/>
<g class="st0">
	<path class="st1" d="M163.4,266.9c56.9,0,102.9-46.1,102.9-102.9S220.3,61.1,163.4,61.1S60.5,107.1,60.5,164
		S106.6,266.9,163.4,266.9z M220.3,205.3c0,11.5,0,12.5,0,12.5h-48.9c0-0.1,0-1.1,0-12.5c0-13.3,14.4-13.5,14.4-13.5h20.1
		C205.9,191.8,220.3,192.1,220.3,205.3z M210,172.2c0,7.8-6.3,14.2-14.2,14.2c-7.8,0-14.2-6.3-14.2-14.2c0-7.8,6.3-14.2,14.2-14.2
		C203.7,158,210,164.4,210,172.2z M163.4,90.8c7.8,0,14.2,6.3,14.2,14.2c0,7.8-6.3,14.2-14.2,14.2c-7.8,0-14.2-6.3-14.2-14.2
		C149.3,97.1,155.6,90.8,163.4,90.8z M139,138c0-13.3,14.4-13.5,14.4-13.5h20.1c0,0,14.4,0.2,14.4,13.5c0,11.5,0,12.5,0,12.5H139
		C139,150.5,139,149.5,139,138z M131,158c7.8,0,14.2,6.3,14.2,14.2c0,7.8-6.3,14.2-14.2,14.2c-7.8,0-14.2-6.3-14.2-14.2
		C116.9,164.4,123.2,158,131,158z M106.6,205.3c0-13.3,14.4-13.5,14.4-13.5h20.1c0,0,14.4,0.2,14.4,13.5c0,11.5,0,12.5,0,12.5h-48.9
		C106.6,217.8,106.6,216.8,106.6,205.3z"/>
</g>
<g class="st0">
	<g transform="translate(-219.000000, -196.000000)" class="st1">
		<g transform="translate(212.000000, 192.000000)">
			<path d="M216.4,268.4h13.4v-14.7c25-2.1,36.2-16.8,36.2-33.4c0-21.9-18.9-28.2-36.2-32.6v-28.2c8.2,1.6,16.2,5.4,22.5,11.6
				l11-14.2c-8.7-8.2-20-13.4-33.6-14.8v-15.2h-13.4v15c-21.5,1.8-35.2,15-35.2,31.6c0,21.2,18,27.2,35.2,31.5v31.6
				c-12-1.8-21.7-8-27.9-14.7l-11,14.8c8.8,9,21.7,15.7,38.9,17V268.4z M247.5,221.2c0,6-5.1,12.2-17.7,13.7v-26.5
				C239.8,210.9,247.5,214.3,247.5,221.2z M201.2,172.5c0-7.4,6.8-12.7,17.7-13.9v26.5C208.6,182.4,201.2,179.1,201.2,172.5z"/>
		</g>
	</g>
</g>
<path class="st0" d="M211.2,64.9c-0.6-2.3-3.8-2.9-4.9-0.6L197,80l-27.5,4.6l-8.7-26.4l9.3-15.6c1.2-2-0.6-4.6-2.9-4.1
	c-10.1,2.3-19.4,8.7-24.6,18.8c-6.4,11.6-5.5,25.8,1.2,36.5l-50.4,83.1c-13.6-1.2-27.5,5.2-35.3,18c-5.5,9-6.7,19.4-4.1,29
	c0.6,2.3,3.8,2.9,4.9,0.6l9.3-15.6l27.5-4.6l8.7,26.4L95,246.3c-1.2,2,0.6,4.6,2.9,4.1c10.1-2.3,19.4-8.7,24.6-18.8
	c6.1-11.3,5.5-24.9-0.6-35.6l51.3-84.3c13.3,0.9,26.7-5.8,33.9-18C212.6,84.6,213.8,74.2,211.2,64.9z"/>
</svg>
