<?xml version="1.0" encoding="utf-8"?>
<!-- Generator: Adobe Illustrator 22.1.0, SVG Export Plug-In . SVG Version: 6.00 Build 0)  -->
<svg version="1.1" id="Layer_1" xmlns="http://www.w3.org/2000/svg" xmlns:xlink="http://www.w3.org/1999/xlink" x="0px" y="0px"
	 viewBox="0 0 328 328" style="enable-background:new 0 0 328 328;" xml:space="preserve">
<style type="text/css">
	.st0{display:none;}
	.st1{display:inline;}
	.st2{display:none;fill:none;}
</style>
<title>food_icon</title>
<path d="M164,328C73.6,328,0,254.4,0,164S73.6,0,164,0s164,73.6,164,164S254.4,328,164,328z M164,15C81.8,15,15,81.8,15,164
	s66.8,149,149,149s149-66.8,149-149S246.2,15,164,15z"/>
<path class="st0" d="M228.3,166.8c24.6,4.6,40.1,12.8,40.1,21.9c0,14.6-47.4,27.4-104.9,27.4s-104-12.8-104-27.4
	c0-9.1,15.5-17.3,40.1-21.9L107,123c1.8-11.9,9.1-21,20.1-21h73c11.9,0,19.2,9.1,21,21L228.3,166.8z"/>
<g class="st0">
	<g class="st1">
		<path d="M132.4,96.4h-20.6l-18.7,20.1c-2.7,3.3-4.1,7.4-4.1,11.6v23.2h66.3V128c0-4.2-1.5-8.3-4.1-11.6L132.4,96.4z"/>
		<path d="M89,226.6c0,10.1,8.2,18.3,18.3,18.3H137c10.1,0,18.3-8.2,18.3-18.3v-29.7H89V226.6z"/>
		<rect x="91.3" y="160.4" width="61.7" height="9.1"/>
		<rect x="91.3" y="178.6" width="61.7" height="9.1"/>
		<rect x="111.9" y="78.1" width="20.6" height="11.4"/>
		<rect x="185" y="105.5" width="20.6" height="11.4"/>
		<path d="M243.6,152.7l-23.6-23.6c-3.4-3.4-8.1-5.4-12.9-5.4H185c-7.6,0-13.7,6.1-13.7,13.7v89.1c0,10.1,7.5,18.3,17.6,18.3h41.9
			c10.1,0,18.3-8.2,18.3-18.3v-61C249,160.8,247.1,156.1,243.6,152.7z M233.9,168.2c-0.9,0.9-2.1,1.3-3.2,1.3
			c-1.2,0-2.3-0.4-3.2-1.3l-20.6-20.6c-1.8-1.8-1.8-4.7,0-6.5c1.8-1.8,4.7-1.8,6.5,0l20.6,20.6C235.7,163.5,235.7,166.4,233.9,168.2
			z"/>
	</g>
</g>
<g class="st0">
	<polygon class="st1" points="196.2,203.2 164,183.9 131.8,203.2 103.5,186.3 103.5,216.1 164,252.4 224.5,216.1 224.5,186.3 	"/>
	<polygon class="st1" points="220.8,141 192.5,124.1 164,106.9 135.5,124.1 107.2,141 135.5,158.2 164,175.4 192.5,158.2 	"/>
	<polygon class="st1" points="131.8,194.4 156.7,179.7 99.9,145.6 75,160.3 	"/>
	<polygon class="st1" points="253,160.3 228.1,145.6 171.3,179.7 196.2,194.4 	"/>
	<polygon class="st1" points="99.9,136.8 156.7,102.7 131.8,87.6 75,122 	"/>
	<polygon class="st1" points="228.1,136.8 253,122 196.2,87.6 171.3,102.7 	"/>
</g>
<path class="st0" d="M164,73c-50.9,0-92,41.1-92,92s41.1,92,92,92s92-41.1,92-92S214.9,73,164,73z M150.9,150.7
	c7.2-7.2,18.8-7.2,26,0c4.9,4.9,6.3,11.9,4.7,18l40.9,53.6l-53.6-40.9c-6.1,1.6-13.1,0.2-18-4.7
	C143.8,169.5,143.8,157.8,150.9,150.7z"/>
<path d="M239.2,125.2h-78.4c-4.3,0-7.7,3.5-7.7,7.7l0,0v3.2h-40.2c-2.8,0-5.5,1.5-7,3.9l-22.7,35.6c-1.4,2.2-2.1,4.7-2.1,7.3v34.5
	c0,4.2,3.4,7.7,7.7,7.7c0,0,0,0,0,0h9.6c2.6,8.8,10.7,14.9,20,14.9c9.3,0.1,17.4-6.1,20-15h50c2.6,8.9,10.8,15,20.1,15
	c9.3,0.1,17.4-6.1,20-15h11c4.2,0,7.7-3.4,7.7-7.7c0,0,0,0,0,0v-84.4C247,128.7,243.5,125.2,239.2,125.2
	C239.2,125.2,239.2,125.2,239.2,125.2z M118.3,229.7c-5.7-0.1-10.3-4.7-10.4-10.4c0-5.7,4.7-10.4,10.4-10.4
	c5.7,0.1,10.3,4.7,10.4,10.4C128.7,225,124,229.6,118.3,229.7z M131.8,175.9c0,1-0.9,1.9-1.9,1.9H99.4c-1.1,0-1.9-0.9-1.9-1.9
	c0-0.4,0.1-0.7,0.3-1l16-25.2c0.3-0.5,1-0.9,1.6-0.9h14.5c1.1,0,1.9,0.9,1.9,1.9V175.9z M208.3,229.7c-5.7,0-10.4-4.7-10.4-10.4
	c0-5.7,4.7-10.4,10.4-10.4c5.7,0.1,10.3,4.7,10.4,10.4C218.7,225,214,229.6,208.3,229.7z M246.9,99v7.3c0,2-1.6,3.6-3.6,3.6l0,0
	H127.1v2.5c0,1.6-1.3,2.9-2.9,2.9c-0.6,0-1.2-0.2-1.7-0.6l-13.6-9.8c-1.3-0.9-1.6-2.8-0.7-4.1c0.2-0.3,0.4-0.5,0.7-0.7l13.6-9.8
	c1.3-0.9,3.2-0.6,4.1,0.7c0.3,0.5,0.5,1.1,0.5,1.7v2.5h116.2C245.3,95.4,246.9,97,246.9,99z"/>
<path class="st0" d="M159.4,151.8H90.9v30.5h68.5V151.8z M207.5,191.6v30.5H276v-30.5H207.5z M168.6,182.3h68.5v-30.5h-68.5V182.3z
	 M198.2,112h-68.5v30.5h68.5C198.2,142.5,198.2,112,198.2,112z M129.8,222.1h68.5v-30.5h-68.5V222.1z M52,222.1h68.5v-30.5H52V222.1
	z"/>
<g class="st0">
	<path class="st1" d="M252,188h-46c-1.1,0-2,0.9-2,2v26c0,1.1-0.9,2-2,2h-76c-1.1,0-2-0.9-2-2v-26c0-1.1-0.9-2-2-2H76
		c-1.1,0-2,0.9-2,2v56c0,1.1,0.9,2,2,2h176c1.1,0,2-0.9,2-2v-56C254,188.9,253.1,188,252,188z"/>
	<path class="st1" d="M197.1,168.9c0.7,0.1,3-0.3,3.5-1.3l7.2-14c0.5-1,0.1-2.2-0.9-2.7L201,148c-1-0.5-1.9,0-2.1,1.1l-2.8,17.6
		C195.9,167.8,196.4,168.8,197.1,168.9z"/>
	<path class="st1" d="M205.1,177.9l2.2,1.6c0.9,0.7,2.4,0.8,3.4,0.3l19.1-9.4c1-0.5,1.4-1.7,0.8-2.6l-5.4-9.7
		c-0.5-1-1.6-1.1-2.4-0.3l-17.8,17.6C204.2,176,204.2,177.2,205.1,177.9z"/>
	<path class="st1" d="M102.7,164.8l20.6,11.5c1,0.5,2,0.3,2.4-0.6c0.3-0.9,0.7-3.9,0-4.8l-15.1-18.1c-0.7-0.8-1.8-0.8-2.4,0.1
		l-6.2,9.3C101.5,163.1,101.8,164.3,102.7,164.8z"/>
	<path class="st1" d="M132.1,164.9c0.4,1,2.2,1.6,2.7,1.5c0.6-0.1,1-1.1,1-2.2l-0.3-10.9c0-1.1-0.9-1.7-1.9-1.3l-3.6,1.3
		c-1,0.4-1.6,1.5-1.2,2.6L132.1,164.9z"/>
	<path class="st1" d="M176.7,206.3c-0.8,0.8-0.5,1.4,0.6,1.4h4.1c1.1,0,2-0.9,2-2v-4.1c0-1.1-0.6-1.4-1.4-0.6L176.7,206.3z"/>
	<path class="st1" d="M146.3,207.7h10.4c1.1,0,2.6-0.6,3.4-1.4l22-22c0.8-0.8,1.4-2.3,1.4-3.4v-13.3c0-1.1-0.6-1.4-1.4-0.6
		l-36.3,36.3c-0.8,0.8-1.4,2.1-1.4,2.9C144.3,207,145.2,207.7,146.3,207.7z"/>
	<path class="st1" d="M145.7,150.7l36.3-36.3c0.8-0.8,1.4-2.3,1.4-3.4V70c0-1.1-0.9-2-2-2h-35.2c-1.1,0-2,0.9-2,2v80.1
		C144.3,151.2,144.9,151.5,145.7,150.7z"/>
	<path class="st1" d="M145.7,186.6l36.3-36.3c0.8-0.8,1.4-2.3,1.4-3.4v-15.3c0-1.1-0.6-1.4-1.4-0.6l-36.3,36.3
		c-0.8,0.8-1.4,2.3-1.4,3.4V186C144.3,187.1,144.9,187.4,145.7,186.6z"/>
</g>
<g class="st0">
	<polygon class="st1" points="117.1,233.2 213,233.2 191.8,172 138.2,172 	"/>
	<path class="st1" d="M194,115V87.2h4.5c4.8,0,8.7-3.8,8.7-8.6c0-4.8-3.9-8.6-8.7-8.6h-67c-4.8,0-8.7,3.8-8.7,8.6s3.9,8.6,8.7,8.6
		h5.3V115L94,238.1v0.4c0,4.6,3,8.3,6.1,10.7c3.2,2.5,7.7,3.5,12,3.5h105.7c4.3,0,7.8-1,11-3.5c3.2-2.5,5.1-6.1,5.1-10.7v-0.5
		L194,115z M109.1,238.6l42-123.5V87.2h28.6V115l41.7,123.6L109.1,238.6z"/>
</g>
<rect x="44" y="50" class="st2" width="232" height="232"/>
<path class="st0" d="M229.1,162.4H259v-12.1H135.1H78.6c0,0-10.5,0.5-11.7,4c0,0-0.9,7.7,11,12l57.1,19.9v28.2h0
	c0,0-2.6,14.7-11.8,14.7h-9.2v10.6h67.9h0.1h67.9v-10.6h-9.2c-9.2,0-11.8-14.7-11.8-14.7h0C229.1,214.4,229.1,162.4,229.1,162.4z"/>
<polygon class="st0" points="172,106.6 172,85.6 154.9,85.6 154.9,106.6 122.6,106.6 122.6,138.9 204.3,138.9 204.3,106.6 "/>
<polygon class="st0" points="110.7,139.2 74.1,139.2 74.1,131.8 110.7,131.8 "/>
<polygon class="st0" points="111.3,122.4 72.8,102.5 75.5,95.8 114.1,115.6 "/>
<polygon class="st0" points="252,139.2 215.5,139.2 215.5,131.8 252,131.8 "/>
<polygon class="st0" points="216.9,122.4 214.1,115.8 241.4,101.1 244.2,107.8 "/>
<polygon class="st0" points="111.3,103.1 94.9,84.1 99.7,79 116,98 "/>
<g class="st0">
	<path class="st1" d="M140.1,171.6C140.1,171.6,140.1,171.6,140.1,171.6c0-0.2-0.1-0.4-0.1-0.6c0,0,0,0,0,0l-30.8-14
		c-0.3,2.5-0.6,5-0.6,7.5c0,13.2,4.6,25.3,12.3,34.9L140.1,171.6z"/>
	<path class="st1" d="M164.2,189.9c-0.8,0-1.5,0-2.3-0.1l0,0l-23.9,24c7.9,4.3,16.9,6.7,26.4,6.7c7.4,0,14.4-1.5,20.9-4.1
		L164.2,189.9C164.2,189.9,164.2,189.9,164.2,189.9z"/>
	<path class="st1" d="M148.6,164.5c0,8.7,7.1,15.9,15.9,15.9c8.7,0,15.9-7.1,15.9-15.9c0-8.7-7.1-15.8-15.9-15.8
		C155.7,148.6,148.6,155.7,148.6,164.5z"/>
	<path class="st1" d="M149.3,144.1c0.3-0.2,0.6-0.5,0.9-0.7c0,0,0,0,0,0l3-33.7c-15.6,3.2-28.9,12.9-36.8,26.2L149.3,144.1
		C149.3,144.1,149.3,144.1,149.3,144.1z"/>
	<path class="st1" d="M187.9,174.2C187.9,174.2,187.9,174.2,187.9,174.2L204,204c10.1-10.1,16.4-24.1,16.4-39.5
		c0-1.7-0.1-3.4-0.3-5.1L188.7,172C188.5,172.8,188.2,173.5,187.9,174.2z"/>
	<path class="st1" d="M178.7,143.4c0.6,0.4,1.2,0.9,1.8,1.4c0,0,0,0,0,0l33.2-6.8c-7.8-14.4-21.6-25-38.1-28.3L178.7,143.4
		C178.7,143.4,178.7,143.4,178.7,143.4z"/>
	<path class="st1" d="M164.5,268.8c57.5,0,104.3-46.8,104.3-104.3c0-57.5-46.8-104.3-104.3-104.3c-57.5,0-104.3,46.8-104.3,104.3
		C60.1,222,106.9,268.8,164.5,268.8z M164.5,99c36.1,0,65.5,29.4,65.5,65.5s-29.4,65.5-65.5,65.5S99,200.6,99,164.5
		S128.4,99,164.5,99z"/>
</g>
</svg>
