<?xml version="1.0" encoding="utf-8"?>
<!-- Generator: Adobe Illustrator 22.1.0, SVG Export Plug-In . SVG Version: 6.00 Build 0)  -->
<svg version="1.1" id="Layer_4" xmlns="http://www.w3.org/2000/svg" xmlns:xlink="http://www.w3.org/1999/xlink" x="0px" y="0px"
	 viewBox="0 0 486 486" style="enable-background:new 0 0 486 486;" xml:space="preserve">
<title>svg_icons</title>
<title>Exit_preperation</title>
<g>
	<g>
		<path d="M286.6,263.4c-5.2-8.9-14.8-14-24.4-14h-54.7c-4.4,0-7.4,3-7.4,7.4v120.4H6.6c-2.2,0-3.7,0.7-5.2,2.2
			c-1.5,1.5-2.2,3.7-2.2,5.2v53.9c0,4.4,3,7.4,7.4,7.4h39.9C45.8,469.5,65,488,87.9,488s41.4-18.5,40.6-42.1H209
			c-0.7,23.6,17.7,42.1,40.6,42.1s41.4-18.5,40.6-42.1h26.6c4.4,0,7.4-3,7.4-7.4c0-98.3,0-8.1,0-104.9c0-5.2-1.5-10.3-4.4-14.8
			L286.6,263.4z M214.9,340.9h94.6v36.2h-94.6V340.9z M274,270.8l34,55.4h-93.1v-62.1h47.3C266.6,264.1,271.1,267.1,274,270.8z
			 M87.9,473.2c-14,0-25.9-11.8-25.9-25.9c-0.7-14.8,11.1-25.9,25.9-25.9c14,0,25.9,11.8,25.9,25.9
			C113.7,461.4,101.9,473.2,87.9,473.2z M248.9,473.2c-14,0-25.9-11.8-25.9-25.9c0-14,11.8-25.9,25.9-25.9s25.9,11.8,25.9,25.9
			C275.5,461.4,263.7,473.2,248.9,473.2z M309.5,431.1h-22.9c-5.9-14.8-20.7-24.4-37.7-24.4s-31,10.3-37.7,24.4h-86.4
			c-5.9-14.8-20.7-24.4-37.7-24.4s-31,10.3-37.7,24.4H14v-39.2h295.5V431.1z"/>
	</g>
	<g>
		<path d="M114.5,290c-4.4,0-7.4,3-7.4,7.4v62.1c0,4.4,3,7.4,7.4,7.4h68.7c4.4,0,7.4-3,7.4-7.4v-62.1c0-4.4-3-7.4-7.4-7.4
			C183.2,290,114.5,290,114.5,290z M175,352h-53.9v-47.3H175V352z"/>
	</g>
	<g>
		<path d="M12.5,290c-4.4,0-7.4,3-7.4,7.4v62.1c0,4.4,3,7.4,7.4,7.4h68.7c4.4,0,7.4-3,7.4-7.4v-62.1c0-4.4-3-7.4-7.4-7.4
			C81.2,290,12.5,290,12.5,290z M73.8,352H19.9v-47.3h53.9V352z"/>
	</g>
	<g>
		<path d="M28.8,157L28.8,157c-8.9,9.6-15.5,16.3-11.8,23.6c2.2,5.2,7.4,5.9,15.5,5.9c3,0,6.6,0,10.3-0.7l0,0l-3.7,31
			c-0.7,5.2,3.7,8.9,8.9,8.1l17-3c2.2-0.7,4.4-2.2,5.2-4.4l17-37.7c22.9-5.9,59.8-17,101.9-33.2l4.4,62.8c0,2.2,1.5,4.4,3.7,5.9
			c2.2,1.5,4.4,1.5,6.6,0.7l24.4-8.9c2.2-0.7,4.4-3,4.4-5.2l16.3-84.2c45.1-26.6,63.5-50.2,53.9-71.7c-9.6-20.7-39.9-22.2-89.4-4.4
			L138.1,1.1c-2.2-1.5-5.2-1.5-7.4,0l-22.9,13.3c-2.2,1.5-3.7,3-3.7,5.9c0,2.2,0.7,4.4,2.2,5.9l45.8,43.6
			C113,92,80.5,113.4,61.3,126.7l-39.9-11.1c-2.2-0.7-5.2,0-6.6,1.5L1.4,128.2c-1.5,1.5-2.2,4.4-2.2,6.6c0,2.2,1.5,4.4,3.7,5.9
			L28.8,157z M21.4,131.1l39.9,11.1c2.2,0.7,5.2,0,6.6-1.5c19.2-14.8,56.1-38.4,100.5-62.8c4.4-2.2,5.2-8.9,1.5-11.8l-46.5-43.6
			l11.1-5.9L209,57.3c1.5,0.7,4.4,1.5,5.9,0.7c41.4-15.5,68-17,73.9-4.4s-12.6,32.5-50.2,53.9c-1.5,0.7-3,3-3.7,5.2l-16.3,82.7
			l-11.8,4.4l-4.4-63.5c0-5.2-5.9-8.1-10.3-6.6c-47.3,19.2-89.4,31.8-113,36.9c-1.5,0.7-4.4,2.2-5.2,4.4l-15.5,37.7l-3.7,0.7
			l3.7-29.6c0.7-4.4-3-8.1-7.4-8.1l0,0c-4.4,0-11.1,0.7-15.5,0.7c3-3.7,7.4-8.1,10.3-11.8c3-3.7,2.2-8.9-1.5-11.1l-25.1-16.3
			L21.4,131.1z"/>
	</g>
	<g>
		<path d="M479.4,348.3H354.6c-4.4,0-7.4,3-7.4,7.4v124.9c0,4.4,3,7.4,7.4,7.4h124.9c4.4,0,7.4-3,7.4-7.4V355.7
			C486.8,351.3,483.8,348.3,479.4,348.3z M429.9,363.1v110.1H404V363.1H429.9z M361.9,363.1h27.3v110.1h-27.3V363.1z M472,473.2
			h-27.3V363.1H472V473.2z"/>
	</g>
	<g>
		<path d="M479.4,185.8H354.6c-4.4,0-7.4,3-7.4,7.4V318c0,4.4,3,7.4,7.4,7.4h124.9c4.4,0,7.4-3,7.4-7.4V193.2
			C486.8,189.5,483.8,185.8,479.4,185.8z M429.9,200.6v110.1H404V200.6H429.9z M361.9,200.6h27.3v110.1h-27.3V200.6z M472,311.4
			h-27.3V200.6H472V311.4z"/>
	</g>
	<g>
		<path d="M479.4,24H354.6c-4.4,0-7.4,3-7.4,7.4v124.9c0,4.4,3,7.4,7.4,7.4h42.1l0,0l0,0h40.6l0,0l0,0h42.1c4.4,0,7.4-3,7.4-7.4
			V31.4C486.8,27,483.8,24,479.4,24z M429.9,38.8v110.1H404V38.8H429.9z M361.9,38.8h27.3v110.1h-27.3V38.8z M472,148.9h-27.3V38.8
			H472V148.9z"/>
	</g>
</g>
</svg>
