<svg data-name="Layer 1" id="Layer_1" viewBox="0 0 431 431" xmlns="http://www.w3.org/2000/svg"><title></title><path d="M250.38,63c-119,0-215.5,96.48-215.5,215.5S131.36,494,250.38,494s215.5-96.48,215.5-215.5S369.39,63,250.38,63ZM180.25,191.25h65.63V217.5H180.25Zm0,39.37h105v26.26h-105Zm0,39.38H324.62v26.25H180.25ZM364,375H154V165h13.12V361.88h26.26V348.75H206.5v13.13h26.25V348.75h13.13v13.13h26.24V348.75h13.13v13.13H311.5V348.75h13.12v13.13H364Zm0-39.38H180.25V309.38H364Z" transform="translate(-34.88 -63)"></path></svg>
