<?xml version="1.0" encoding="utf-8"?>
<!-- Generator: Adobe Illustrator 22.1.0, SVG Export Plug-In . SVG Version: 6.00 Build 0)  -->
<svg version="1.1" id="Layer_1" xmlns="http://www.w3.org/2000/svg" xmlns:xlink="http://www.w3.org/1999/xlink" x="0px" y="0px"
	 viewBox="0 0 431 431" style="enable-background:new 0 0 431 431;" xml:space="preserve">
<title></title>
<path d="M215.5,0C96.5,0,0,96.5,0,215.5S96.5,431,215.5,431S431,334.5,431,215.5S334.5,0,215.5,0z M125.1,177.7
	c3.5,0,6.5,1.6,8.7,3.9l22.6-11.1v-0.3c0-6.6,5.4-12,12-12c3.7,0,6.9,1.6,9.1,4.2l23.5-10.4c0,0,0,0,0,0c0-6.6,5.4-12,12-12
	c4,0,7.5,1.9,9.7,4.9l22.5-6.7c0-0.3-0.2-0.5-0.2-0.7c0-6.5,5.3-11.9,11.9-11.9c2.8,0,5.3,1.1,7.4,2.8l25.3-14.9
	c-0.2-0.9-0.6-1.8-0.6-2.9c0-6.5,5.3-11.9,11.9-11.9c6.5,0,11.9,5.3,11.9,11.9c0,6.5-5.3,11.9-11.9,11.9c-2.7,0-5-1-7-2.6l-25.5,15
	c0.2,0.8,0.5,1.6,0.5,2.5c0,6.5-5.3,11.9-11.9,11.9c-3.5,0-6.6-1.6-8.8-4l-23.1,7.3c-0.3,6.3-5.6,11.4-12,11.4c-3.7,0-7-1.7-9.2-4.3
	l-23.4,10.4v0.1c0,6.6-5.4,12-12,12c-3.7,0-7.1-1.7-9.3-4.4l-22.3,10.8c0,0.3,0.2,0.5,0.2,0.8c0,6.5-5.3,11.9-11.9,11.9
	c-6.6,0-11.9-5.3-11.9-11.9C113.2,183,118.5,177.7,125.1,177.7z M321.2,315.4H104.6c-2.1,0-3.9-1.7-3.9-3.8c0-2.1,1.7-3.9,3.9-3.9
	h6.7v-89.3c0-2.1,1.7-3.8,3.8-3.8H135c2.1,0,3.8,1.7,3.8,3.8v89.3h16.4V199.3c0-2.1,1.7-3.9,3.9-3.9h19.9c2.1,0,3.8,1.7,3.8,3.9
	v108.4h16.4V180.6c0-2.1,1.7-3.9,3.8-3.9h19.8c2.1,0,3.9,1.7,3.9,3.9v127.1H243V167.1c0-2.1,1.7-3.8,3.9-3.8h19.9
	c2.1,0,3.8,1.7,3.8,3.8v140.6H287V140.1c0-2.1,1.7-3.8,3.8-3.8h19.8c2.1,0,3.9,1.7,3.9,3.8v167.6h6.7c2.1,0,3.9,1.7,3.9,3.9
	C325.1,313.7,323.3,315.4,321.2,315.4z"/>
<g>
</g>
</svg>
