<svg xmlns="http://www.w3.org/2000/svg" viewBox="0 0 64 80" x="0px" y="0px"><title>ambulance-transport-medical-service</title><g><rect x="4" y="54" width="2" height="2"/><path d="M31,33a6,6,0,1,0-6,6A6.006,6.006,0,0,0,31,33ZM21,34V32h3V29h2v3h3v2H26v3H24V34Z"/><path d="M53,19a1,1,0,0,0-2,0v1h2Z"/><path d="M22,54a3,3,0,1,0,3,3A3,3,0,0,0,22,54Zm1,4H21V56h2Z"/><path d="M42,45H28V43H42V23H28V21H42V18H8v3H22v2H8V43H22v2H8v3H42ZM24,21h2v2H24ZM17,33a8,8,0,1,1,8,8A8.009,8.009,0,0,1,17,33Zm9,12H24V43h2Z"/><polygon points="49 38 56.847 38 55.132 26 49 26 49 38"/><path d="M55,45V40H48a1,1,0,0,1-1-1V25a1,1,0,0,1,1-1h9V22H44V49a1,1,0,0,1-1,1H8v6h9.1a5,5,0,0,1,9.8,0H42.1a5,5,0,0,1,9.8,0H56a4,4,0,0,0,4-4V46H56A1,1,0,0,1,55,45Zm-4-1H49V42h2Z"/><path d="M59,40H57v4h3V41A1,1,0,0,0,59,40Z"/><path d="M47,54a3,3,0,1,0,3,3A3,3,0,0,0,47,54Zm1,4H46V56h2Z"/></g><text x="0" y="79" fill="#000000" font-size="5px" font-weight="bold" font-family="'Helvetica Neue', Helvetica, Arial-Unicode, Arial, Sans-serif">Created by Nhor</text><text x="0" y="84" fill="#000000" font-size="5px" font-weight="bold" font-family="'Helvetica Neue', Helvetica, Arial-Unicode, Arial, Sans-serif">from the Noun Project</text></svg>