<svg xmlns:xlink="http://www.w3.org/1999/xlink" xmlns="http://www.w3.org/2000/svg" stroke-width="0.501" stroke-linejoin="bevel" fill-rule="evenodd" version="1.1" overflow="visible" viewBox="0 0 75 93.75" x="0px" y="0px"><g fill="none" stroke="black" font-family="Times New Roman" font-size="16" transform="scale(1 -1)"><g transform="translate(0 -75)"><g><path d="M 45.786,13.907 C 44.029,15.177 42.371,16.403 40.815,17.591 L 40.982,17.592 L 41.056,17.594 C 45.464,17.851 48.961,21.505 48.961,25.973 L 48.961,28.095 C 51.751,29.235 53.719,31.977 53.719,35.175 C 53.719,39.394 50.293,42.82 46.073,42.82 C 41.853,42.82 38.427,39.394 38.427,35.175 C 38.427,31.956 40.42,29.2 43.238,28.073 L 43.239,25.973 C 43.239,24.499 42.039,23.301 40.565,23.301 L 33.858,23.301 C 28.151,28.453 25.013,32.961 25.013,37.491 C 25.013,44.49 30.693,50.17 37.692,50.17 C 41.023,50.17 44.056,48.879 46.319,46.776 L 46.422,46.67 L 46.525,46.776 C 48.787,48.879 51.821,50.17 55.153,50.17 C 62.152,50.17 67.832,44.49 67.832,37.491 C 67.832,30.405 60.134,23.364 47.059,13.907 C 46.679,13.632 46.166,13.632 45.786,13.907 Z M 12.314,25.973 L 12.313,41.895 C 9.333,42.288 7.108,43.423 5.602,45.305 C 3.85,47.493 3.35,50.374 3.371,53.303 C 3.375,53.747 3.544,54.152 3.822,54.457 L 3.823,59.327 C 3.825,61.303 4.45,62.822 5.699,63.79 C 6.453,64.378 7.351,64.694 8.284,64.848 C 8.615,65.375 9.202,65.727 9.87,65.727 L 10.866,65.727 C 11.898,65.727 12.735,64.888 12.735,63.857 L 12.735,63.642 C 12.735,62.611 11.898,61.773 10.866,61.773 L 9.87,61.773 C 9.371,61.773 8.919,61.968 8.583,62.286 C 8.022,62.18 7.591,62 7.278,61.757 C 6.801,61.387 6.4,60.718 6.397,59.325 L 6.397,54.46 C 6.68,54.147 6.853,53.732 6.85,53.277 C 6.831,50.664 7.3,48.749 8.317,47.48 C 9.282,46.274 10.988,45.332 14.192,45.23 C 17.39,45.332 19.108,46.278 20.069,47.48 C 21.088,48.751 21.556,50.663 21.537,53.277 C 21.534,53.732 21.706,54.147 21.989,54.458 L 21.989,59.325 C 21.988,60.711 21.59,61.382 21.109,61.757 C 20.795,62 20.366,62.178 19.806,62.285 C 19.471,61.967 19.017,61.772 18.518,61.772 L 17.522,61.772 C 16.488,61.772 15.649,62.609 15.649,63.642 L 15.649,63.858 C 15.649,64.892 16.488,65.729 17.522,65.729 L 18.518,65.729 C 19.188,65.729 19.776,65.375 20.107,64.847 C 21.036,64.692 21.933,64.375 22.688,63.79 C 23.933,62.824 24.561,61.309 24.564,59.327 L 24.564,54.456 C 24.842,54.152 25.011,53.747 25.016,53.303 C 25.037,50.374 24.539,47.494 22.785,45.305 C 21.134,43.241 18.598,42.071 15.164,41.8 L 15.164,25.973 C 15.164,23.706 17.007,21.865 19.275,21.865 L 40.565,21.865 C 42.833,21.865 44.676,23.706 44.676,25.973 L 44.675,29.426 C 42.082,30.054 40.156,32.391 40.156,35.176 C 40.156,38.441 42.806,41.092 46.073,41.092 C 49.338,41.092 51.991,38.441 51.991,35.176 C 51.991,32.41 50.089,30.086 47.524,29.439 L 47.524,25.973 C 47.524,22.272 44.626,19.242 40.978,19.028 L 18.862,19.028 C 15.214,19.242 12.314,22.272 12.314,25.973 Z M 44.675,30.636 L 44.675,32.714 C 43.82,33.201 43.244,34.121 43.244,35.175 C 43.244,36.736 44.511,38.004 46.073,38.004 C 47.635,38.004 48.902,36.736 48.902,35.175 C 48.902,34.144 48.349,33.24 47.524,32.746 L 47.524,30.653 C 49.436,31.267 50.823,33.061 50.823,35.176 C 50.823,37.796 48.694,39.925 46.073,39.925 C 43.453,39.925 41.324,37.796 41.324,35.176 C 41.324,33.042 42.736,31.234 44.675,30.636 Z M 14.192,45.23 C 14.178,45.229 14.163,45.229 14.149,45.229 L 14.237,45.229 C 14.222,45.229 14.207,45.229 14.192,45.23 Z M 19.088,63.642 L 19.088,63.858 C 19.088,64.17 18.831,64.426 18.518,64.426 L 17.522,64.426 C 17.206,64.426 16.952,64.17 16.952,63.858 L 16.952,63.642 C 16.952,63.329 17.206,63.075 17.522,63.075 L 18.518,63.075 C 18.831,63.075 19.088,63.329 19.088,63.642 Z M 11.432,63.642 L 11.432,63.857 C 11.432,64.17 11.178,64.424 10.866,64.424 L 9.87,64.424 C 9.557,64.424 9.303,64.17 9.303,63.857 L 9.303,63.642 C 9.303,63.33 9.557,63.076 9.87,63.076 L 10.866,63.076 C 11.178,63.076 11.432,63.33 11.432,63.642 Z" fill="#000000" fill-rule="evenodd" stroke-width="0.361" stroke="none" marker-start="none" marker-end="none" stroke-miterlimit="79.8403193612775"/></g></g></g><text x="0" y="90" fill="#000000" font-size="5px" font-weight="bold" font-family="'Helvetica Neue', Helvetica, Arial-Unicode, Arial, Sans-serif">Created by Peter van Driel</text><text x="0" y="95" fill="#000000" font-size="5px" font-weight="bold" font-family="'Helvetica Neue', Helvetica, Arial-Unicode, Arial, Sans-serif">from the Noun Project</text></svg>