<svg xmlns="http://www.w3.org/2000/svg" xmlns:xlink="http://www.w3.org/1999/xlink" version="1.1" x="0px" y="0px" viewBox="0 0 50 62.5" enable-background="new 0 0 50 50" xml:space="preserve"><path fill="#000000" d="M17.408,30.299c0,0,1.165,0.895,2.256,1.39c0.188,0.087,0.447,1.688,0.523,1.924  c0.257,0.813,0.561,1.601,0.915,2.372c0.762,1.666,1.513,3.323,2.148,5.035c0.316,0.858,0.595,1.722,0.846,2.601  c0.051,0.174,0.093,0.326,0.137,0.479c0.439,0.062,0.886,0.122,1.333,0.183c-1.025-2.89-2.354-5.719-3.629-8.486  c-0.884-1.925-1.3-3.164-1.473-4.106c1.07-0.857,7.249-5.501,14.724-4.847c0,0-6.722,0.468-11.281,3.612  c0,0,3.283,3.021,6.757,1.531c3.247-1.398,6.235-5.08,9.878-4.523c0,0-11.92-9.167-17.277,1.675c0,0-1.643,0.658-2.909,1.581  c-0.076-1.764-0.259-12.847,6.808-20.874c0,0-5.09,8.031-5.331,15.844c0,0,6.759-1.099,7.394-6.403  c0.631-5.302-0.559-11.334,3.122-15.003c0,0-20.39,5.876-12.552,21.036c0,0-0.597,3.317-0.268,5.755  c-1.527-0.781-5.671-3.243-7.439-7.708c0,0,2.466,4.175,5.958,6.097c0,0,0.888-3.086-1.194-4.842  c-1.941-1.639-5.276-2.378-6.089-4.901C10.764,19.718,8.705,30.344,17.408,30.299z"/><text x="0" y="65" fill="#000000" font-size="5px" font-weight="bold" font-family="'Helvetica Neue', Helvetica, Arial-Unicode, Arial, Sans-serif">Created by Kick</text><text x="0" y="70" fill="#000000" font-size="5px" font-weight="bold" font-family="'Helvetica Neue', Helvetica, Arial-Unicode, Arial, Sans-serif">from the Noun Project</text></svg>