<svg xmlns="http://www.w3.org/2000/svg" data-name="Layer 1" viewBox="0 0 100 125" x="0px" y="0px"><title>universal lanjutan 2 jadi</title><path d="M78.16,21.21a1.81,1.81,0,0,0-3.42,1.2c2.79,8-2.74,14-7,17.2l-1.7-2.44a4,4,0,0,0-2.85-1.51l-9.56,0a6.49,6.49,0,0,0-3.29,1L22.19,56.47a3,3,0,0,0-.74,4.21L34.25,79c1,1.36,2.49,1.2,3.86.25L66.3,59.49a6.64,6.64,0,0,0,2.08-2.75l3-9.44a4,4,0,0,0-.44-3.2l-1-1.49C75.55,38.27,81.43,30.6,78.16,21.21ZM65.05,49.29a4.83,4.83,0,1,1,.07-7.88c-.82.49-1.38.78-1.48.83a1.81,1.81,0,1,0,1.55,3.28c.58-.28,1.21-.6,1.86-1A4.85,4.85,0,0,1,65.05,49.29Z"/><text x="0" y="115" fill="#000000" font-size="5px" font-weight="bold" font-family="'Helvetica Neue', Helvetica, Arial-Unicode, Arial, Sans-serif">Created by Graphic Enginer</text><text x="0" y="120" fill="#000000" font-size="5px" font-weight="bold" font-family="'Helvetica Neue', Helvetica, Arial-Unicode, Arial, Sans-serif">from the Noun Project</text></svg>