<svg xmlns="http://www.w3.org/2000/svg" xmlns:xlink="http://www.w3.org/1999/xlink" version="1.1" x="0px" y="0px" viewBox="0 0 90 112.5" enable-background="new 0 0 90 90" xml:space="preserve"><path d="M60.434,11.856H29.729c-0.827,0-1.496-0.67-1.496-1.496V6.339c0-0.826,0.669-1.496,1.496-1.496h30.704  c0.827,0,1.496,0.67,1.496,1.496v4.021C61.93,11.186,61.261,11.856,60.434,11.856z"/><path d="M66.315,23.022l-5.792-9.349c0,0-5.825,0-9.663,0h-6.492h-5.064c-3.838,0-9.663,0-9.663,0l-5.793,9.349  c-1.327,1.949-1.945,3.956-1.945,6.314v44.601c0,6.195,5.023,11.219,11.22,11.219h11.246h12.673c6.197,0,11.22-5.023,11.22-11.219  V29.336C68.261,26.979,67.643,24.972,66.315,23.022z M65.599,62.487H24.565V32.188h41.033V62.487z"/><text x="0" y="105" fill="#000000" font-size="5px" font-weight="bold" font-family="'Helvetica Neue', Helvetica, Arial-Unicode, Arial, Sans-serif">Created by Louis Dawson</text><text x="0" y="110" fill="#000000" font-size="5px" font-weight="bold" font-family="'Helvetica Neue', Helvetica, Arial-Unicode, Arial, Sans-serif">from the Noun Project</text></svg>