<svg xmlns="http://www.w3.org/2000/svg" xmlns:xlink="http://www.w3.org/1999/xlink" version="1.1" x="0px" y="0px" viewBox="0 0 100 125" enable-background="new 0 0 100 100" xml:space="preserve"><g><rect x="21.363" y="64.318" fill="#000000" width="8.183" height="20.455"/><rect x="37.728" y="64.318" fill="#000000" width="8.182" height="20.455"/><rect x="54.091" y="64.318" fill="#000000" width="8.182" height="20.455"/><rect x="70.454" y="64.318" fill="#000000" width="8.183" height="20.455"/><rect x="13.182" y="54.091" fill="#000000" width="73.637" height="8.182"/><rect x="13.182" y="86.818" fill="#000000" width="73.637" height="8.182"/><path fill="#000000" d="M78.534,52.045c0.046-0.679,0.103-1.354,0.103-2.045c0-14.422-10.675-26.319-24.546-28.311V9.091   C54.091,6.833,52.257,5,50,5c-2.261,0-4.091,1.833-4.091,4.091v12.599C32.038,23.681,21.363,35.578,21.363,50   c0,0.691,0.055,1.366,0.104,2.045H78.534z"/></g><text x="0" y="115" fill="#000000" font-size="5px" font-weight="bold" font-family="'Helvetica Neue', Helvetica, Arial-Unicode, Arial, Sans-serif">Created by Vicons Design</text><text x="0" y="120" fill="#000000" font-size="5px" font-weight="bold" font-family="'Helvetica Neue', Helvetica, Arial-Unicode, Arial, Sans-serif">from the Noun Project</text></svg>