<svg xmlns="http://www.w3.org/2000/svg" xmlns:xlink="http://www.w3.org/1999/xlink" version="1.1" x="0px" y="0px" viewBox="0 0 100 125" enable-background="new 0 0 100 100" xml:space="preserve"><g><path d="M95,36.9l-2.3-13.8l0,0v-0.2h0V9.4H7.3v14.3L5,36.8c-0.3,1.9,2.1,3.6,5.3,3.8h0c3.2,0.2,6-1.3,6.3-3.2l0-0.2   c0.1,1.9,2.6,3.4,5.8,3.4h1.8c2.9,0,5.3-1.3,5.7-3c0.3,1.7,2.8,3.1,5.7,3.1h1.8c3.2,0,5.8-1.6,5.8-3.5c0,1.9,2.6,3.5,5.8,3.5h1.8   c2.9,0,5.4-1.3,5.7-3.1c0.4,1.7,2.8,3.1,5.7,3.1h1.8c3.2,0,5.8-1.6,5.8-3.5v-0.1c0,1.9,2.6,3.5,5.8,3.5h1.8c3.2,0,5.8-1.6,5.8-3.5   v-0.1l0.1,0.5c0.3,1.9,3.1,3.3,6.3,3.2C92.9,40.5,95.2,38.8,95,36.9z"/><path d="M9.4,90.6h58.1V67.4h11.6v23.2h11.5V44.2H9.4V90.6z M17,55h43v28H17V55z"/></g><text x="0" y="115" fill="#000000" font-size="5px" font-weight="bold" font-family="'Helvetica Neue', Helvetica, Arial-Unicode, Arial, Sans-serif">Created by Curve</text><text x="0" y="120" fill="#000000" font-size="5px" font-weight="bold" font-family="'Helvetica Neue', Helvetica, Arial-Unicode, Arial, Sans-serif">from the Noun Project</text></svg>