<svg xmlns="http://www.w3.org/2000/svg" xmlns:xlink="http://www.w3.org/1999/xlink" version="1.1" x="0px" y="0px" viewBox="0 0 100 125" enable-background="new 0 0 100 100" xml:space="preserve"><polygon points="80.567,62.811 67.846,62.811 66.313,62.811 53.594,62.811 53.594,50.09 66.313,50.09 67.846,50.09 80.567,50.09 "/><polygon points="39.34,35.838 66.313,35.838 66.313,48.558 53.594,48.558 52.063,48.558 39.34,48.558 "/><polygon points="25.089,50.09 37.809,50.09 52.063,50.09 52.063,62.811 39.34,62.811 37.809,62.811 25.089,62.811 "/><polygon points="37.809,77.063 10.836,77.063 10.836,64.342 23.558,64.342 37.809,64.342 "/><polygon points="66.313,77.063 39.34,77.063 39.34,64.342 52.063,64.342 53.594,64.342 66.313,64.342 "/><polygon points="94.818,77.063 67.846,77.063 67.846,64.342 80.567,64.342 82.099,64.342 94.818,64.342 "/><rect x="82.099" y="50.09" width="12.72" height="12.721"/><polygon points="82.099,48.558 80.567,48.558 67.846,48.558 67.846,35.838 94.818,35.838 94.818,48.558 "/><rect x="6.531" y="27.07" transform="matrix(-0.9427 -0.3335 0.3335 -0.9427 27.7387 71.6226)" width="26.973" height="12.721"/><text x="0" y="115" fill="#000000" font-size="5px" font-weight="bold" font-family="'Helvetica Neue', Helvetica, Arial-Unicode, Arial, Sans-serif">Created by Bakunetsu Kaito</text><text x="0" y="120" fill="#000000" font-size="5px" font-weight="bold" font-family="'Helvetica Neue', Helvetica, Arial-Unicode, Arial, Sans-serif">from the Noun Project</text></svg>