<svg xmlns="http://www.w3.org/2000/svg" xmlns:xlink="http://www.w3.org/1999/xlink" version="1.1" x="0px" y="0px" viewBox="0 0 90 112.5" enable-background="new 0 0 90 90" xml:space="preserve"><path d="M79.681,76.838c0.01,0.078,0.017,0.158,0.017,0.239v3.798c0,1.032-0.836,1.868-1.868,1.868h-9.621  c-0.193,0-0.38-0.029-0.555-0.084c-0.76-0.236-1.312-0.946-1.312-1.784v-3.24V42.733l0.089-0.09c0.02-0.02,0.039-0.041,0.058-0.061  c0.032-0.034,0.065-0.068,0.097-0.102c0,0-0.001,0.001-0.001,0.001c0,0,0.001-0.001,0.001-0.001  c-0.013,0.014-0.026,0.028-0.039,0.043c-0.008,0.008-0.015,0.017-0.023,0.025c0.07-0.07,0.385-0.386,0.761-0.762l8.253-8.253v0l0,0  l0.012,0.012l4.023-4.023l0.014-0.014l0.018-0.018v0l0,0l0.048,29.602L79.681,76.838z M48.992,59.943v17.133c0,0,0,0.001,0,0.001  v3.798c0,1.032,0.836,1.868,1.868,1.868h9.621c1.032,0,1.868-0.836,1.868-1.868v-3.798v0V46.726L49.878,59.196  C49.602,59.473,49.305,59.721,48.992,59.943z M34.853,53.837l-3.209,3.209v20.03c0,0,0,0,0,0v3.798c0,1.032,0.836,1.868,1.868,1.868  h9.621c1.031,0,1.868-0.836,1.868-1.868v-3.798c0,0,0,0,0-0.001V61.196c-1.809-0.012-3.508-0.72-4.788-1.999L34.853,53.837z   M18.418,70.267l-0.363,0.345c-0.051,0.048-0.278,0.27-0.656,0.649l-3.104,3.104v2.712v0v3.798c0,1.032,0.836,1.868,1.868,1.868  h9.621c1.032,0,1.868-0.836,1.868-1.868v-3.798c0,0,0-0.001,0-0.001V61.039l-8.626,8.626C18.79,69.9,18.575,70.113,18.418,70.267z   M88.315,7.845c-0.392-0.486-1.047-0.588-1.527-0.588c-0.287,0-0.597,0.036-0.921,0.106l-17.807,3.86  c-1.13,0.245-1.636,0.689-1.726,0.994c-0.09,0.306,0.095,0.952,0.913,1.768l4.274,4.268l-6.152,6.152l-18.39,18.39l-2.349,2.349  l-8.424-8.424c-0.741-0.741-1.944-0.741-2.685,0l-0.722,0.722l-2.769,2.769L7.224,63.016l-5.372,5.372  c-0.435,0.435-0.613,1.028-0.537,1.593c-0.061,0.353,0.042,0.73,0.314,1.001l3.175,3.175c0.113,0.113,0.245,0.196,0.385,0.252  l0.154,0.154c0.741,0.741,1.944,0.741,2.685,0L33.601,48.99l0,0l1.26-1.26l4.598,4.598c0.057,0.057,0.117,0.108,0.179,0.156  c0.048,0.062,0.099,0.122,0.156,0.179l3.491,3.491c0.741,0.741,1.944,0.741,2.685,0l7.182-7.182l18.39-18.39l6.157-6.157  l4.262,4.256c0.867,0.866,1.452,0.933,1.61,0.933c0.573,0,0.981-0.94,1.156-1.745l3.865-17.78  C88.804,9.125,88.705,8.328,88.315,7.845z"/><text x="0" y="105" fill="#000000" font-size="5px" font-weight="bold" font-family="'Helvetica Neue', Helvetica, Arial-Unicode, Arial, Sans-serif">Created by Gregor Cresnar</text><text x="0" y="110" fill="#000000" font-size="5px" font-weight="bold" font-family="'Helvetica Neue', Helvetica, Arial-Unicode, Arial, Sans-serif">from the Noun Project</text></svg>