<svg xmlns="http://www.w3.org/2000/svg" xmlns:xlink="http://www.w3.org/1999/xlink" version="1.1" viewBox="0 0 24 30" x="0px" y="0px"><path fill="#000000" d="M21 19h-18c-0.552 0-1-0.448-1-1v-11c0-0.552 0.448-1 1-1h4v-1c0-1.657 1.343-3 3-3h4c1.657 0 3 1.343 3 3v1h4c0.552 0 1 0.448 1 1v11c0 0.552-0.448 1-1 1zM15 5c0-0.552-0.448-1-1-1h-4c-0.552 0-1 0.448-1 1v1h6v-1z"/><text x="0" y="39" fill="#000000" font-size="5px" font-weight="bold" font-family="'Helvetica Neue', Helvetica, Arial-Unicode, Arial, Sans-serif">Created by Travis Avery</text><text x="0" y="44" fill="#000000" font-size="5px" font-weight="bold" font-family="'Helvetica Neue', Helvetica, Arial-Unicode, Arial, Sans-serif">from the Noun Project</text></svg>