<svg xmlns="http://www.w3.org/2000/svg" xmlns:xlink="http://www.w3.org/1999/xlink" version="1.1" x="0px" y="0px" viewBox="0 0 128 160" style="enable-background:new 0 0 128 128;" xml:space="preserve"><g><g><g><path d="M105.1,23.9c-0.1,23.6-0.2,47.2-0.2,70.8c0,0.9,0.1,1.9,0.4,2.7c2.6,7.9,5.3,15.8,7.9,23.7c0.2,0.6,0.5,1.2,0.8,1.8     c0.6,0.9,1.4,0.9,2,0c0.4-0.6,0.6-1.3,0.9-2c2.3-6.6,4.6-13.2,6.8-19.8c0.8-2.4,1.7-4.7,1.7-7.4c0-23,0.1-46,0.2-69     c0-0.3,0-0.6,0-0.8c-6.9,0-13.7-0.1-20.5-0.1C105.1,23.7,105.1,23.8,105.1,23.9z M121.3,95.3c-0.1,0.4-0.3,0.9-0.5,1.4     c-1.1,3.2-2.2,6.5-3.3,9.8c-0.2,0.7-0.6,1-1.2,0.9c-0.9-0.1-1.9,0-2.8-0.1c-0.3,0-0.6-0.3-0.7-0.6c-1.3-3.7-2.5-7.5-3.8-11.3     c0-0.1,0-0.3,0-0.3C113.1,95.3,117.1,95.3,121.3,95.3z"/><g><path d="M125.7,18.1c-6.9,0-13.7-0.1-20.5-0.1c0-0.1-0.1-0.3-0.1-0.5c0-2.6,0-5.2,0-7.8c0-3.1,1.7-5.1,4.3-5.2c4,0,7.9,0,11.9,0      c2.6,0,4.3,2.1,4.3,5.2C125.7,12.5,125.7,15.3,125.7,18.1z"/></g></g></g><g><path d="M94.1,59.6c0-1.3-0.5-2.1-1.7-2.5c-5.5-2-9.6-5.6-12.4-11c-2.9-5.6-3.7-10.5-2.5-15.6c0.3-1.4-0.1-2.4-1.3-3.1    c-1-0.6-2-1.2-3-1.8l-0.6-0.4c-1.5-0.9-3.3-2-4.9-3c-1.2-0.8-2.4-0.5-2.9-0.1c-0.3,0.1-0.5,0.3-0.8,0.5l-0.3,0.2    c-1,0.8-2,1.6-3.2,2.3c-0.5,0.3-0.9,0.5-1.4,0.6c-4.3,1.5-8.3,2.1-11.9,1.9c-5-0.3-9.3-2.2-13.3-5.7c-1.3-1.2-2.5-1-3.5-0.4    c-2.8,1.6-5.7,3.2-8.7,4.8c-1.3,0.7-1.7,1.6-1.4,3.1c1.5,9.1-1.8,16.7-10.2,23.4c-0.4,0.3-0.8,0.6-1.3,0.9    c-1.1,0.6-2.5,1.1-3.6,1.5l-0.3,0.1c-0.3,0.1-0.6,0.2-0.9,0.4c-1,0.5-1.4,1.3-1.4,2.6c0,1.9-0.1,4-0.1,5.7l0,0.4    c0,1.3-0.1,2.6-0.1,3.9c0,1.4,0.6,2.3,1.9,2.8c5,1.7,8.7,5,11.9,10.4c3.1,5.3,4,10.7,2.8,16.4c-0.3,1.2,0.1,2.1,1.2,2.8    c3.3,2,6.1,3.7,8.9,5.4c0.3,0.2,0.8,0.4,1.3,0.5c0.4,0,0.8-0.1,1.2-0.3c0.3-0.1,0.5-0.3,0.8-0.6c0.9-0.9,2-1.8,3.3-2.5    c3.8-2.1,9-3,14.2-2.5c5.3,0.5,9.9,2.5,12.6,5.4c0.4,0.5,1.1,1,2,1.1l0,0c0.6,0,1.2-0.1,2-0.6c1.5-0.9,3-1.7,4-2.3    c1-0.6,2.5-1.4,4.1-2.3c2-1.1,1.9-2.5,1.6-3.6c-1-3.8-0.2-8.8,2.1-13.5C80.6,80,84.1,76.1,88,74c1.3-0.7,2.6-1.2,3.9-1.5    c0.6-0.1,1.4-0.4,1.8-1.3c0.2-0.3,0.2-0.7,0.3-1.2C94,66.5,94.1,62.9,94.1,59.6z M57.7,81.1c-3.3,1.8-7,2.6-10.8,2.4    c-6.5-0.4-12.3-3.9-15.5-9.4c-2.8-4.7-3.6-10.1-2.2-15.3c1.4-5.1,4.7-9.3,9.5-12c3.3-1.8,6.9-2.7,10.6-2.4c1.5,0.1,3,0.4,4.5,0.8    c5.1,1.5,9.3,5.1,11.8,9.9C70.5,64.4,67,75.8,57.7,81.1z"/><ellipse transform="matrix(0.8749 -0.4844 0.4844 0.8749 -24.9693 31.3698)" cx="48.2" cy="64" rx="11.4" ry="11.4"/></g></g><text x="0" y="143" fill="#000000" font-size="5px" font-weight="bold" font-family="'Helvetica Neue', Helvetica, Arial-Unicode, Arial, Sans-serif">Created by Delwar Hossain</text><text x="0" y="148" fill="#000000" font-size="5px" font-weight="bold" font-family="'Helvetica Neue', Helvetica, Arial-Unicode, Arial, Sans-serif">from the Noun Project</text></svg>