<svg xmlns="http://www.w3.org/2000/svg" data-name="Layer 2" viewBox="0 0 128 160" x="0px" y="0px"><title>Artboard 5</title><g data-name="Group"><rect data-name="Path" x="46.83582" y="50.37354" width="3.20764" height="35.03302"/><rect data-name="Path" x="78.60492" y="50.37354" width="3.20756" height="35.03302"/><path data-name="Compound Path" d="M64,7a57,57,0,1,0,57,57A57.06476,57.06476,0,0,0,64,7ZM96.5,88.28412a4.235,4.235,0,0,1-4.24316,4.24316H35.74316A4.235,4.235,0,0,1,31.5,88.28412V47.99933a4.235,4.235,0,0,1,4.24316-4.24316H48.777V39.10724a3.61825,3.61825,0,0,1,3.63458-3.63458h23.16a3.61833,3.61833,0,0,1,3.63458,3.63458v4.64893H92.23993A4.253,4.253,0,0,1,96.5,48.01624Z"/></g><text x="0" y="143" fill="#000000" font-size="5px" font-weight="bold" font-family="'Helvetica Neue', Helvetica, Arial-Unicode, Arial, Sans-serif">Created by SBTS</text><text x="0" y="148" fill="#000000" font-size="5px" font-weight="bold" font-family="'Helvetica Neue', Helvetica, Arial-Unicode, Arial, Sans-serif">from the Noun Project</text></svg>