<svg xmlns="http://www.w3.org/2000/svg" xmlns:xlink="http://www.w3.org/1999/xlink" version="1.1" x="0px" y="0px" viewBox="0 0 512 640" enable-background="new 0 0 512 512" xml:space="preserve"><g><path d="M443.4,405.9v37.5H68.5v-37.5h121.3l42.7-185.4l-88.7,29.8v61.9h18.6v56.2H87.6v-56.2h18.7v-49.3l-26.1,8.8l-11.8-35.6   l284-95.4l-11.8-35.4c-3.4-9.9,2.1-20.4,11.8-23.8l35.4-11.8c9.9-3.4,20.4,1.9,23.8,11.8l29.8,88.9c6.6,19.5-4.1,40.9-23.6,47.4   c-3.9,1.3-8.1,1.9-12,1.9c-15.6,0-30.2-9.7-35.4-25.5l-6-17.8l-88.1,29.6l46.1,200H443.4z"/></g><text x="0" y="527" fill="#000000" font-size="5px" font-weight="bold" font-family="'Helvetica Neue', Helvetica, Arial-Unicode, Arial, Sans-serif">Created by Creative Stall</text><text x="0" y="532" fill="#000000" font-size="5px" font-weight="bold" font-family="'Helvetica Neue', Helvetica, Arial-Unicode, Arial, Sans-serif">from the Noun Project</text></svg>