<svg xmlns:rdf="http://www.w3.org/1999/02/22-rdf-syntax-ns#" xmlns="http://www.w3.org/2000/svg" xmlns:cc="http://creativecommons.org/ns#" xmlns:dc="http://purl.org/dc/elements/1.1/" version="1.1" x="0px" y="0px" viewBox="0 0 100 125"><g transform="translate(0,-952.36218)"><path style="baseline-shift:baseline;block-progression:tb;color:#000000;direction:ltr;text-indent:0;enable-background:accumulate;text-transform:none;" d="m75.11,962.47c-3.8758,0.005-7.5172,1.5944-10.438,4.4062-0.0199,0.0217-0.0408,0.0426-0.0625,0.0625-2.9791,2.9038-4.3175,6.6405-4.3125,10.344,0.002,1.5494,0.0653,3.0446,0.53125,4.375,0.12555,0.34817,0.0373,0.76403-0.21875,1.0312l-9.125,9.2812,8.4062,9.125,9.8438-9.875c0.24917-0.245,0.63227-0.3436,0.96875-0.25,1.6106,0.39668,3.2954,0.53325,5,0.53125,3.6967-0.005,7.5208-1.5952,10.469-4.4062,2.883-2.7758,4.3488-6.312,4.3438-9.8438-0.001-1.162-0.25451-2.3286-0.625-3.4688l-9.4062,8.9062c-0.23681,0.2244-0.58789,0.3212-0.90625,0.25l-7.625-1.75c-0.33682-0.0834-0.62045-0.35472-0.71875-0.6875l-2.375-7.5938c-0.10544-0.34523-0.005-0.74501,0.25-1l9.0938-9.0938c-1.0221-0.13819-2.0413-0.34475-3.0938-0.34375zm-48.375,0.78125c-0.77807,0.0412-1.5472,0.1722-2.3125,0.25l8.7812,9.375a1.0001,1.0001,0,0,1,0.21875,1l-2.5938,7.5312a1.0001,1.0001,0,0,1,-0.75,0.65625l-7.6875,1.5312a1.0001,1.0001,0,0,1,-0.90625,-0.28125l-9.125-9.1875c-0.40274,1.1281-0.68105,2.2832-0.71875,3.4375-0.11509,3.5286,1.2665,7.1022,4.0625,9.9688,2.859,2.9027,6.5857,4.5981,10.281,4.7188,1.7093,0.0558,3.4472-0.0305,5.0625-0.375a1.0001,1.0001,0,0,1,0.9375,0.3125l28.688,30.688a1.0001,1.0001,0,0,1,0.25,0.7187l-0.375,9.6563,7.8438,8.5,11.5,0.4375,5.0625-4.625,3.4688-3.1875,0.4375-11.531-7.8438-8.5-11.656-0.4375a1.0001,1.0001,0,0,1,-0.6875,-0.3125l-27.312-29.687a1.0001,1.0001,0,0,1,-0.1875,-1.0312c0.50745-1.3157,0.60575-2.7951,0.65625-4.3438,0.1217-3.7274-1.1-7.5258-4.0312-10.531-2.8315-2.9027-6.4068-4.6236-10.281-4.75-0.26149-0.009-0.52189-0.0137-0.78125,0zm13.25,40.406-9.5,9.625c-0.19167,0.2026-0.47118,0.3225-0.75,0.3125-2.4828-0.061-2.7931-0.4442-5.5938-0.4062-3.6977,0.042-7.487,1.691-10.406,4.5312-2.8547,2.8043-4.2898,6.3439-4.25,9.875,0.00016,0.01,0.00016,0.021,0,0.031,0.0132,1.1716,0.27464,2.3287,0.65625,3.4688l9.3125-9.0313c0.23681-0.224,0.58789-0.321,0.90625-0.25l7.625,1.6875c0.341,0.068,0.63718,0.3273,0.75,0.6563l2.4375,7.5937c0.10544,0.3453,0.005,0.745-0.25,1l-9,9.1875c1.0356,0.1277,2.0592,0.3245,3.125,0.3125,3.8748-0.044,7.4813-1.6885,10.375-4.5312,2.9623-2.91,4.2928-6.6558,4.2812-10.344-0.004-0.032,0.004-0.091,0-0.125-0.1121-0.9822-0.14261-2.5697-0.90625-4.125-0.16516-0.3717-0.0737-0.8422,0.21875-1.125l9.3438-9.375-8.375-8.9687zm31.438,14.656a1.0001,1.0001,0,0,1,0.21875,0l7.0312,0.25h0.1875,0.0312a1.0001,1.0001,0,0,1,0.6875,0.3125,1.0001,1.0001,0,0,1,0.0937,0.094,1.0001,1.0001,0,0,1,0.0312,0.062l4.8438,5.1562a1.0001,1.0001,0,0,1,0.25,0.7188l-0.25,7.2812a1.0001,1.0001,0,0,1,-0.31235,0.6875l-5.3438,4.9375a1.0001,1.0001,0,0,1,-0.71875,0.2813l-7.25-0.2813a1.0001,1.0001,0,0,1,-0.6875,-0.3125l-4.9375-5.3125a1.0001,1.0001,0,0,1,-0.28125,-0.7187l0.28125-7.2813a1.0001,1.0001,0,0,1,0.3125,-0.6875l5.3125-4.9375a1.0001,1.0001,0,0,1,0.5,-0.25zm0.5625,2-4.7188,4.375-0.25,6.4375,4.4062,4.7187,6.4062,0.2188,4.7188-4.375,0.25-6.4375-4.3438-4.6875-6.4688-0.25z" fill-rule="nonzero" fill="#000"/></g><text x="0" y="115" fill="#000000" font-size="5px" font-weight="bold" font-family="'Helvetica Neue', Helvetica, Arial-Unicode, Arial, Sans-serif">Created by Mansion@design</text><text x="0" y="120" fill="#000000" font-size="5px" font-weight="bold" font-family="'Helvetica Neue', Helvetica, Arial-Unicode, Arial, Sans-serif">from the Noun Project</text></svg>