<svg xmlns="http://www.w3.org/2000/svg" xmlns:xlink="http://www.w3.org/1999/xlink" version="1.1" x="0px" y="0px" viewBox="0 0 100 125" enable-background="new 0 0 100 100" xml:space="preserve"><g display="none"><rect x="-758.378" y="-54.877" display="inline" fill="#000000" stroke="#000000" stroke-width="4" stroke-miterlimit="10" width="1243.174" height="368.982"/></g><g><path d="M68.047,40.313c9.424,0,17.092-7.668,17.092-17.092S77.472,6.129,68.047,6.129s-17.09,7.667-17.09,17.091   S58.623,40.313,68.047,40.313z"/><path d="M68.047,47.057c-6.06,0-11.581-2.292-15.791-6.031c-6.496,2.344-11.16,8.553-11.16,15.847v36.997H95V56.873   c0-7.294-4.665-13.503-11.16-15.847C79.629,44.765,74.107,47.057,68.047,47.057z"/><path d="M29.195,40.887c8.248,0,14.971-6.595,15.209-14.787c-0.115-0.946-0.192-1.903-0.192-2.879c0-0.001,0-0.002,0-0.003   c-1.173-7.241-7.451-12.793-15.018-12.793c-8.399,0-15.232,6.833-15.232,15.231C13.963,34.054,20.796,40.887,29.195,40.887z"/><path d="M36.932,46.198c-2.411,0.911-5.011,1.433-7.737,1.433c-5.306,0-10.179-1.891-13.98-5.033C9.214,45.182,5,51.15,5,58.088   v28.116h29.352v-29.33C34.352,53.029,35.295,49.408,36.932,46.198z"/></g><text x="0" y="115" fill="#000000" font-size="5px" font-weight="bold" font-family="'Helvetica Neue', Helvetica, Arial-Unicode, Arial, Sans-serif">Created by Anastasia Latysheva</text><text x="0" y="120" fill="#000000" font-size="5px" font-weight="bold" font-family="'Helvetica Neue', Helvetica, Arial-Unicode, Arial, Sans-serif">from the Noun Project</text></svg>