<svg xmlns="http://www.w3.org/2000/svg" xmlns:xlink="http://www.w3.org/1999/xlink" version="1.1" x="0px" y="0px" viewBox="0 0 24 30" style="enable-background:new 0 0 24 24;" xml:space="preserve"><g><path d="M16.1213379,14.5753784h-0.9377441C16.3062744,13.4071655,17,11.8235474,17,10.0753784c0-3.5898438-2.9101562-6.5-6.5-6.5   s-6.5,2.9101562-6.5,6.5s2.9101562,6.5,6.5,6.5c1.289978,0,2.4890137-0.3804932,3.5-1.0285645v1.1499023L19.3032837,22   l2.1213379-2.1213379L16.1213379,14.5753784z M10.5,14.5753784c-2.4813232,0-4.5-2.0186768-4.5-4.5s2.0186768-4.5,4.5-4.5   s4.5,2.0186768,4.5,4.5S12.9813232,14.5753784,10.5,14.5753784z"/></g><text x="0" y="39" fill="#000000" font-size="5px" font-weight="bold" font-family="'Helvetica Neue', Helvetica, Arial-Unicode, Arial, Sans-serif">Created by Sophia Bai</text><text x="0" y="44" fill="#000000" font-size="5px" font-weight="bold" font-family="'Helvetica Neue', Helvetica, Arial-Unicode, Arial, Sans-serif">from the Noun Project</text></svg>