<svg xmlns="http://www.w3.org/2000/svg" xmlns:xlink="http://www.w3.org/1999/xlink" version="1.1" x="0px" y="0px" viewBox="0 0 128 160" style="enable-background:new 0 0 128 128;" xml:space="preserve"><path d="M87.3944702,7.671875c1.6260376,0.3348999,3.2373047,1.9121094,3.6690063,3.5888062  c0.2744141,1.0703735,1.359436,1.7139282,2.4345093,1.4384766c1.0703735-0.274353,1.7139282-1.3651733,1.4384766-2.4345703  c-0.8192749-3.1835327-3.5878906-5.8613281-6.7352905-6.5106812C88.1356812,3.7401733,88.0664063,3.7304688,88,3.718811V2  c0-1.1044922-0.8955078-2-2-2s-2,0.8955078-2,2v1.7304688C81.9912109,4.125,80.0390625,5.1659546,78.8095703,7.2226563  c-1.3447876,2.2402344-1.3495483,5.2382202-0.0136719,7.6357422c1.5770874,2.8407593,4.3886719,3.7147827,6.8681641,4.4854126  c2.6015015,0.8084717,4.0975952,1.352478,4.6172485,3.1268921c0.4803467,1.6386719-0.6152954,2.9970703-1.8370361,3.5653687  c-1.296814,0.6026001-2.8817749,0.5791016-4.3466187-0.0672607c-1.5458984-0.6827393-2.7080688-1.9512329-3.1894531-3.4825439  c-0.3311157-1.0546875-1.4570313-1.6356812-2.5078125-1.3085938c-1.0537109,0.3320923-1.6397095,1.4551392-1.3085938,2.5078125  c0.8270874,2.6298828,2.7919922,4.7958984,5.390564,5.9423828C82.9794922,29.8466797,83.4882813,30.0106812,84,30.1444702V32  c0,1.1044922,0.8955078,2,2,2s2-0.8955078,2-2v-1.6796875c0.7354126-0.1307983,1.453064-0.3428345,2.1308594-0.6572266  c2.8115234-1.3076172,5.0839233-4.5859985,3.9891968-8.3173828c-1.1464844-3.9189453-4.5409546-4.9736328-7.2684937-5.8212891  c-2.0175781-0.6269531-3.7597656-1.1689453-4.5605469-2.6103516c-0.6426392-1.1533813-0.6640015-2.6132813-0.0498047-3.6358032  C83.2207031,7.6386719,85.5371094,7.2890625,87.3944702,7.671875z"/><circle cx="26" cy="68" r="2"/><circle cx="2" cy="76" r="2"/><circle cx="50" cy="68" r="2"/><path d="M126,44h-24.3574219c-1.1044922,0-2,0.8955078-2,2s0.8955078,2,2,2H126c1.1044922,0,2-0.8955078,2-2S127.1044922,44,126,44z  "/><path d="M126,52h-24.3574219c-1.1044922,0-2,0.8955078-2,2s0.8955078,2,2,2H126c1.1044922,0,2-0.8955078,2-2S127.1044922,52,126,52z  "/><path d="M126,60h-24.3574219c-1.1044922,0-2,0.8955078-2,2s0.8955078,2,2,2H126c1.1044922,0,2-0.8955078,2-2S127.1044922,60,126,60z  "/><path d="M126,68h-24.3574219c-1.1044922,0-2,0.8955078-2,2s0.8955078,2,2,2H126c1.1044922,0,2-0.8955078,2-2S127.1044922,68,126,68z  "/><path d="M126,76h-24.3574219c-1.1044922,0-2,0.8955078-2,2s0.8955078,2,2,2H126c1.1044922,0,2-0.8955078,2-2S127.1044922,76,126,76z  "/><path d="M126,84h-24.3574219c-1.1044922,0-2,0.8955078-2,2s0.8955078,2,2,2H126c1.1044922,0,2-0.8955078,2-2S127.1044922,84,126,84z  "/><path d="M126,92h-24.3574219c-1.1044922,0-2,0.8955078-2,2s0.8955078,2,2,2H126c1.1044922,0,2-0.8955078,2-2S127.1044922,92,126,92z  "/><path d="M126,100h-24.3574219c-1.1044922,0-2,0.8955078-2,2s0.8955078,2,2,2H126c1.1044922,0,2-0.8955078,2-2  S127.1044922,100,126,100z"/><path d="M126,108h-24.3574219c-1.1044922,0-2,0.8955078-2,2s0.8955078,2,2,2H126c1.1044922,0,2-0.8955078,2-2  S127.1044922,108,126,108z"/><path d="M126,116h-24.3574219c-1.1044922,0-2,0.8955078-2,2s0.8955078,2,2,2H126c1.1044922,0,2-0.8955078,2-2  S127.1044922,116,126,116z"/><path d="M126,124h-24.3574219c-1.1044922,0-2,0.8955078-2,2s0.8955078,2,2,2H126c1.1044922,0,2-0.8955078,2-2  S127.1044922,124,126,124z"/><path d="M92.7860718,76H68.4287109c-1.1045532,0-2,0.8955078-2,2s0.8954468,2,2,2h24.3573608c1.1044922,0,2-0.8955078,2-2  S93.890564,76,92.7860718,76z"/><path d="M92.7860718,68H68.4287109c-1.1045532,0-2,0.8955078-2,2s0.8954468,2,2,2h24.3573608c1.1044922,0,2-0.8955078,2-2  S93.890564,68,92.7860718,68z"/><path d="M92.7860718,84H68.4287109c-1.1045532,0-2,0.8955078-2,2s0.8954468,2,2,2h24.3573608c1.1044922,0,2-0.8955078,2-2  S93.890564,84,92.7860718,84z"/><path d="M92.7860718,92H68.4287109c-1.1045532,0-2,0.8955078-2,2s0.8954468,2,2,2h24.3573608c1.1044922,0,2-0.8955078,2-2  S93.890564,92,92.7860718,92z"/><path d="M92.7860718,100H68.4287109c-1.1045532,0-2,0.8955078-2,2s0.8954468,2,2,2h24.3573608c1.1044922,0,2-0.8955078,2-2  S93.890564,100,92.7860718,100z"/><path d="M92.7860718,108H68.4287109c-1.1045532,0-2,0.8955078-2,2s0.8954468,2,2,2h24.3573608c1.1044922,0,2-0.8955078,2-2  S93.890564,108,92.7860718,108z"/><path d="M92.7860718,116H68.4287109c-1.1045532,0-2,0.8955078-2,2s0.8954468,2,2,2h24.3573608c1.1044922,0,2-0.8955078,2-2  S93.890564,116,92.7860718,116z"/><path d="M92.7860718,124H68.4287109c-1.1045532,0-2,0.8955078-2,2s0.8954468,2,2,2h24.3573608c1.1044922,0,2-0.8955078,2-2  S93.890564,124,92.7860718,124z"/><path d="M59.5712891,92H35.2138672c-1.1044922,0-2,0.8955078-2,2s0.8955078,2,2,2h24.3574219c1.1044922,0,2-0.8955078,2-2  S60.6757813,92,59.5712891,92z"/><path d="M59.5712891,84H35.2138672c-1.1044922,0-2,0.8955078-2,2s0.8955078,2,2,2h24.3574219c1.1044922,0,2-0.8955078,2-2  S60.6757813,84,59.5712891,84z"/><path d="M59.5712891,100H35.2138672c-1.1044922,0-2,0.8955078-2,2s0.8955078,2,2,2h24.3574219c1.1044922,0,2-0.8955078,2-2  S60.6757813,100,59.5712891,100z"/><path d="M59.5712891,108H35.2138672c-1.1044922,0-2,0.8955078-2,2s0.8955078,2,2,2h24.3574219c1.1044922,0,2-0.8955078,2-2  S60.6757813,108,59.5712891,108z"/><path d="M59.5712891,116H35.2138672c-1.1044922,0-2,0.8955078-2,2s0.8955078,2,2,2h24.3574219c1.1044922,0,2-0.8955078,2-2  S60.6757813,116,59.5712891,116z"/><path d="M59.5712891,124H35.2138672c-1.1044922,0-2,0.8955078-2,2s0.8955078,2,2,2h24.3574219c1.1044922,0,2-0.8955078,2-2  S60.6757813,124,59.5712891,124z"/><path d="M26.3573608,92H2c-1.1044922,0-2,0.8955078-2,2s0.8955078,2,2,2h24.3573608c1.1045532,0,2-0.8955078,2-2  S27.4619141,92,26.3573608,92z"/><path d="M26.3573608,100H2c-1.1044922,0-2,0.8955078-2,2s0.8955078,2,2,2h24.3573608c1.1045532,0,2-0.8955078,2-2  S27.4619141,100,26.3573608,100z"/><path d="M26.3573608,108H2c-1.1044922,0-2,0.8955078-2,2s0.8955078,2,2,2h24.3573608c1.1045532,0,2-0.8955078,2-2  S27.4619141,108,26.3573608,108z"/><path d="M26.3573608,116H2c-1.1044922,0-2,0.8955078-2,2s0.8955078,2,2,2h24.3573608c1.1045532,0,2-0.8955078,2-2  S27.4619141,116,26.3573608,116z"/><path d="M26.3573608,124H2c-1.1044922,0-2,0.8955078-2,2s0.8955078,2,2,2h24.3573608c1.1045532,0,2-0.8955078,2-2  S27.4619141,124,26.3573608,124z"/><path d="M2,86h22.9638672c1.1044922,0,2-0.8955078,2-2v-5.9287109h30.9482422c1.1044922,0,2-0.8955078,2-2V63H91  c1.1044922,0,2-0.8955078,2-2V44.2323608l29.4091797-27.4891968l-1.506897,6.5996094  c-0.2451172,1.0770874,0.428833,2.1494141,1.5048828,2.3955078c0.1503906,0.0341797,0.2998047,0.0498047,0.4473267,0.0498047  c0.9121094,0,1.7362671-0.6279297,1.9481812-1.5546875l3.147522-13.7880859  c0.1582031-0.6963501-0.0664063-1.4248047-0.5897827-1.9111328c-0.5234985-0.4873047-1.2686157-0.6542969-1.9493408-0.4453125  l-13.6035156,4.1893921c-1.055542,0.3251953-1.6473999,1.444397-1.3221436,2.5  c0.3250732,1.0557251,1.446167,1.6484985,2.5,1.3223267l6.3446655-1.9541016L89.6347656,41.9032593  C89.2294922,42.281311,89,42.8104858,89,43.3642578V59H57.9121094c-1.1044922,0-2,0.8955078-2,2v13.0712891H24.9638672  c-1.1044922,0-2,0.8955078-2,2V82H2c-1.1044922,0-2,0.8955078-2,2S0.8955078,86,2,86z"/><path d="M66,56.0009766c1.1044922,0,2-0.8955078,2-2v-52c0-1.1044922-0.8955078-2-2-2H50c-1.1044922,0-2,0.8955078-2,2V60  c0,1.1044922,0.8955078,2,2,2s2-0.8955078,2-2V4.0009766h12v50C64,55.1054688,64.8955078,56.0009766,66,56.0009766z"/><path d="M42,70c1.1044922,0,2-0.8955078,2-2V16c0-1.1044922-0.8955078-2-2-2H26c-1.1044922,0-2,0.8955078-2,2v44  c0,1.1044922,0.8955078,2,2,2s2-0.8955078,2-2V18h12v50C40,69.1044922,40.8955078,70,42,70z"/><path d="M2,70c1.1044922,0,2-0.8955078,2-2V40h12v36c0,1.1044922,0.8955078,2,2,2s2-0.8955078,2-2V38c0-1.1044922-0.8955078-2-2-2H2  c-1.1044922,0-2,0.8955078-2,2v30C0,69.1044922,0.8955078,70,2,70z"/><text x="0" y="143" fill="#000000" font-size="5px" font-weight="bold" font-family="'Helvetica Neue', Helvetica, Arial-Unicode, Arial, Sans-serif">Created by priyanka</text><text x="0" y="148" fill="#000000" font-size="5px" font-weight="bold" font-family="'Helvetica Neue', Helvetica, Arial-Unicode, Arial, Sans-serif">from the Noun Project</text></svg>